<svg width="158" height="102" viewBox="0 0 158 102" fill="none" xmlns="http://www.w3.org/2000/svg">
<path opacity="0.3" d="M152.466 98.2686C153.489 96.3085 155.982 90.556 157.388 78.7312C159.178 63.5828 151.017 53.6117 149.015 48.2214C147.012 42.831 153.404 31.475 144.221 20.3108C135.059 9.14657 119.698 9.33833 111.133 13.7273C102.568 18.1163 91.5956 22.697 82.8176 14.3239C74.0396 5.95071 67.9036 1.96653 53.7991 0.219453C38.9916 -1.59154 15.4914 7.82561 17.1532 27.7465C18.7938 47.4117 4.9237 44.8124 1.06735 63.5615C-3.51339 85.7835 8.05565 96.3724 9.31269 98.2473H152.466V98.2686Z" fill="#EBD296"/>
<path d="M125.792 60.8131H14.0854V99.057H125.792V60.8131Z" fill="#906600"/>
<path d="M127.773 99.057H125.493V60.8131H14.3836V99.057H12.1039V58.5334H127.773V99.057Z" fill="#CE9100"/>
<path d="M126.622 77.9856H13.2329V80.2653H126.622V77.9856Z" fill="#CE9100"/>
<path d="M50.5608 59.6626H48.2811V98.2687H50.5608V59.6626Z" fill="#CE9100"/>
<path d="M91.5956 59.6626H89.3159V98.2687H91.5956V59.6626Z" fill="#CE9100"/>
<path d="M20.8396 98.9291C20.8396 98.9291 9.44096 74.1292 13.7234 66.1608C18.0059 58.1712 35.9453 60.1739 39.9508 67.5883C43.9563 75.0027 49.9219 98.9291 49.9219 98.9291H20.8396Z" fill="#1C2E41"/>
<path d="M39.9292 67.5883C39.3539 66.5017 38.4591 65.5217 37.3512 64.6907C34.0275 63.3485 27.3162 61.4309 23.1402 65.6069C18.5169 70.2302 28.0832 90.769 32.9196 98.9291H49.879C49.9003 98.9291 43.9347 74.9814 39.9292 67.5883Z" fill="#2E3E50"/>
<path d="M28.2109 82.6515H27.2734V80.4357C27.2734 79.8391 26.7834 79.3491 26.1868 79.3491H20.3278C19.7312 79.3491 19.2412 79.8391 19.2412 80.4357V82.6515H18.3037V80.4357C18.3037 79.3278 19.2199 78.4117 20.3278 78.4117H26.1868C27.2947 78.4117 28.2109 79.3278 28.2109 80.4357V82.6515Z" fill="#B5AABA"/>
<path d="M30.5121 82.1189H10.1012V97.0116H30.5121V82.1189Z" fill="white"/>
<path d="M30.5028 97.0272H36.511V82.1344H30.5028V97.0272Z" fill="#B5AABA"/>
<path d="M20.3066 94.5188C23.0365 94.5188 25.2495 92.3058 25.2495 89.5759C25.2495 86.846 23.0365 84.6329 20.3066 84.6329C17.5767 84.6329 15.3636 86.846 15.3636 89.5759C15.3636 92.3058 17.5767 94.5188 20.3066 94.5188Z" fill="#D92D20"/>
<path d="M21.9473 86.2309H18.7727V92.8996H21.9473V86.2309Z" fill="white"/>
<path d="M23.7024 91.1597V87.9852H17.0337V91.1597H23.7024Z" fill="white"/>
<path d="M44.382 97.0116H38.0542V77.602C38.0542 76.068 39.2899 74.8536 40.8026 74.8536H41.6123C43.1463 74.8536 44.3607 76.0893 44.3607 77.602V97.0116H44.382Z" fill="#B5AABA"/>
<path d="M45.5325 97.0116H39.2047V77.602C39.2047 76.068 40.4404 74.8536 41.9532 74.8536H42.7628C44.2968 74.8536 45.5112 76.0893 45.5112 77.602V97.0116H45.5325Z" fill="#E6DFE8"/>
<path d="M43.6577 76.6859H41.2075V97.0116H43.6577V76.6859Z" fill="white"/>
<path d="M41.804 77.0907H41.6761V97.0116H41.804V77.0907Z" fill="#00657F"/>
<path d="M43.0827 77.5381H42.0601V77.666H43.0827V77.5381Z" fill="#00657F"/>
<path d="M42.6779 77.9003H42.0601V78.0282H42.6779V77.9003Z" fill="#00657F"/>
<path d="M42.6779 78.2625H42.0601V78.3903H42.6779V78.2625Z" fill="#00657F"/>
<path d="M42.6779 78.6247H42.0601V78.7526H42.6779V78.6247Z" fill="#00657F"/>
<path d="M42.6779 78.9869H42.0601V79.1147H42.6779V78.9869Z" fill="#00657F"/>
<path d="M43.0827 79.3704H42.0601V79.4983H43.0827V79.3704Z" fill="#00657F"/>
<path d="M42.6779 79.7326H42.0601V79.8604H42.6779V79.7326Z" fill="#00657F"/>
<path d="M42.6779 80.0948H42.0601V80.2227H42.6779V80.0948Z" fill="#00657F"/>
<path d="M42.6779 80.457H42.0601V80.5848H42.6779V80.457Z" fill="#00657F"/>
<path d="M42.6779 80.8192H42.0601V80.947H42.6779V80.8192Z" fill="#00657F"/>
<path d="M43.0827 81.2027H42.0601V81.3305H43.0827V81.2027Z" fill="#00657F"/>
<path d="M42.6779 81.5649H42.0601V81.6927H42.6779V81.5649Z" fill="#00657F"/>
<path d="M42.6779 81.9271H42.0601V82.0549H42.6779V81.9271Z" fill="#00657F"/>
<path d="M42.6779 82.2893H42.0601V82.4171H42.6779V82.2893Z" fill="#00657F"/>
<path d="M42.6779 82.6515H42.0601V82.7793H42.6779V82.6515Z" fill="#00657F"/>
<path d="M43.0827 83.035H42.0601V83.1628H43.0827V83.035Z" fill="#00657F"/>
<path d="M42.6779 83.3972H42.0601V83.5251H42.6779V83.3972Z" fill="#00657F"/>
<path d="M42.6779 83.7594H42.0601V83.8873H42.6779V83.7594Z" fill="#00657F"/>
<path d="M42.6779 84.1216H42.0601V84.2494H42.6779V84.1216Z" fill="#00657F"/>
<path d="M42.6779 84.4838H42.0601V84.6117H42.6779V84.4838Z" fill="#00657F"/>
<path d="M43.0827 84.8673H42.0601V84.9951H43.0827V84.8673Z" fill="#00657F"/>
<path d="M42.6779 85.2295H42.0601V85.3574H42.6779V85.2295Z" fill="#00657F"/>
<path d="M42.6779 85.5917H42.0601V85.7195H42.6779V85.5917Z" fill="#00657F"/>
<path d="M42.6779 85.9539H42.0601V86.0817H42.6779V85.9539Z" fill="#00657F"/>
<path d="M42.6779 86.3161H42.0601V86.4439H42.6779V86.3161Z" fill="#00657F"/>
<path d="M43.0827 86.6996H42.0601V86.8274H43.0827V86.6996Z" fill="#00657F"/>
<path d="M42.6779 87.0618H42.0601V87.1896H42.6779V87.0618Z" fill="#00657F"/>
<path d="M42.6779 87.424H42.0601V87.5518H42.6779V87.424Z" fill="#00657F"/>
<path d="M42.6779 87.7862H42.0601V87.914H42.6779V87.7862Z" fill="#00657F"/>
<path d="M42.6779 88.1484H42.0601V88.2762H42.6779V88.1484Z" fill="#00657F"/>
<path d="M43.0827 88.5319H42.0601V88.6597H43.0827V88.5319Z" fill="#00657F"/>
<path d="M42.6779 88.8941H42.0601V89.0219H42.6779V88.8941Z" fill="#00657F"/>
<path d="M42.6779 89.2563H42.0601V89.3841H42.6779V89.2563Z" fill="#00657F"/>
<path d="M42.6779 89.6185H42.0601V89.7463H42.6779V89.6185Z" fill="#00657F"/>
<path d="M42.6779 89.9807H42.0601V90.1085H42.6779V89.9807Z" fill="#00657F"/>
<path d="M43.0827 90.3642H42.0601V90.492H43.0827V90.3642Z" fill="#00657F"/>
<path d="M42.6779 90.7264H42.0601V90.8542H42.6779V90.7264Z" fill="#00657F"/>
<path d="M42.6779 91.0886H42.0601V91.2164H42.6779V91.0886Z" fill="#00657F"/>
<path d="M42.6779 91.4508H42.0601V91.5786H42.6779V91.4508Z" fill="#00657F"/>
<path d="M42.6779 91.813H42.0601V91.9408H42.6779V91.813Z" fill="#00657F"/>
<path d="M43.0827 92.1965H42.0601V92.3243H43.0827V92.1965Z" fill="#00657F"/>
<path d="M42.6779 92.5587H42.0601V92.6865H42.6779V92.5587Z" fill="#00657F"/>
<path d="M42.6779 92.9209H42.0601V93.0487H42.6779V92.9209Z" fill="#00657F"/>
<path d="M42.6779 93.2831H42.0601V93.4109H42.6779V93.2831Z" fill="#00657F"/>
<path d="M42.6779 93.6453H42.0601V93.7731H42.6779V93.6453Z" fill="#00657F"/>
<path d="M43.0827 94.0287H42.0601V94.1566H43.0827V94.0287Z" fill="#00657F"/>
<path d="M42.6779 94.391H42.0601V94.5188H42.6779V94.391Z" fill="#00657F"/>
<path d="M42.6779 94.7532H42.0601V94.881H42.6779V94.7532Z" fill="#00657F"/>
<path d="M42.6779 95.1154H42.0601V95.2432H42.6779V95.1154Z" fill="#00657F"/>
<path d="M42.6779 95.4776H42.0601V95.6054H42.6779V95.4776Z" fill="#00657F"/>
<path d="M55.9297 94.5188H38.0542V97.0116H55.9297V94.5188Z" fill="#0054AD"/>
<path d="M52.3717 94.5188H38.0542V97.0116H52.3717V94.5188Z" fill="#0079C9"/>
<path d="M51.2 24.4229H30.1499V53.207H51.2V24.4229Z" fill="#CE9100"/>
<path d="M49.9646 26.1273H31.4072V51.5238H49.9646V26.1273Z" fill="white"/>
<path d="M43.7857 24.9981C43.3383 24.9342 43.0613 24.4867 43.1892 24.0393C43.3383 23.5706 42.9761 23.0806 42.4861 23.0806H40.6964H38.9067C38.4167 23.0806 38.0545 23.5706 38.2036 24.0393C38.3314 24.4654 38.0545 24.9129 37.607 24.9981L36.2222 25.2111V26.6599H40.7177H45.1706V25.2111L43.7857 24.9981Z" fill="#FD4B34"/>
<path d="M37.9051 29.0675H33.5161V33.4565H37.9051V29.0675Z" fill="#EBD296"/>
<path d="M33.8783 30.431H34.4536L35.7106 31.8372L37.6707 29.3871L35.7106 32.3912L33.8783 30.431Z" fill="white"/>
<path d="M47.8549 29.664H38.6508V29.8132H47.8549V29.664Z" fill="#000942"/>
<path d="M47.8549 31.1768H38.6508V31.3259H47.8549V31.1768Z" fill="#000942"/>
<path d="M47.8549 32.7108H38.6508V32.8599H47.8549V32.7108Z" fill="#000942"/>
<path d="M37.9051 34.4792H33.5161V38.8681H37.9051V34.4792Z" fill="#EBD296"/>
<path d="M33.8783 35.8427H34.4536L35.7106 37.2489L37.6707 34.7987L35.7106 37.8028L33.8783 35.8427Z" fill="white"/>
<path d="M47.8549 35.0544H38.6508V35.2036H47.8549V35.0544Z" fill="#000942"/>
<path d="M47.8549 36.5884H38.6508V36.7376H47.8549V36.5884Z" fill="#000942"/>
<path d="M47.8549 38.1011H38.6508V38.2503H47.8549V38.1011Z" fill="#000942"/>
<path d="M37.9051 39.8695H33.5161V44.2585H37.9051V39.8695Z" fill="#EBD296"/>
<path d="M33.8783 41.2331H34.4536L35.7106 42.6393L37.6707 40.1891L35.7106 43.1932L33.8783 41.2331Z" fill="white"/>
<path d="M47.8549 40.4661H38.6508V40.6152H47.8549V40.4661Z" fill="#000942"/>
<path d="M47.8549 41.9788H38.6508V42.1279H47.8549V41.9788Z" fill="#000942"/>
<path d="M47.8549 43.5128H38.6508V43.6619H47.8549V43.5128Z" fill="#000942"/>
<path d="M37.9051 45.2812H33.5161V49.6702H37.9051V45.2812Z" fill="#EBD296"/>
<path d="M33.8783 46.6448H34.4536L35.7106 48.0509L37.6707 45.6008L35.7106 48.6049L33.8783 46.6448Z" fill="white"/>
<path d="M47.8549 45.8564H38.6508V46.0056H47.8549V45.8564Z" fill="#000942"/>
<path d="M47.8549 47.3905H38.6508V47.5396H47.8549V47.3905Z" fill="#000942"/>
<path d="M47.8549 48.9245H38.6508V49.0736H47.8549V48.9245Z" fill="#000942"/>
<path d="M134.442 18.6276C133.313 16.3266 130.373 15.6448 128.349 17.2215L127.901 17.5624L127.454 17.2215C125.43 15.6448 122.49 16.3479 121.361 18.6276C120.679 20.0338 120.849 21.6957 121.829 22.9101L127.923 28.1939L134.016 22.9101C134.954 21.6957 135.124 20.0338 134.442 18.6276Z" fill="#FD4B34"/>
<path d="M130.032 25.4881C129.947 25.4881 129.862 25.4242 129.84 25.339L128.306 19.1816L126.41 24.3802C126.389 24.4654 126.304 24.5081 126.218 24.5081C126.133 24.5081 126.069 24.4441 126.048 24.3589L125.26 20.2895L124.429 22.3562C124.407 22.4201 124.322 22.484 124.258 22.484H118.143C118.037 22.484 117.952 22.3988 117.952 22.2923C117.952 22.1857 118.037 22.1005 118.143 22.1005H124.13L125.174 19.5438C125.217 19.4586 125.281 19.416 125.366 19.416C125.451 19.416 125.515 19.4799 125.537 19.5651L126.304 23.5919L128.178 18.4572C128.2 18.372 128.285 18.3294 128.37 18.3294C128.455 18.3294 128.519 18.3933 128.541 18.4785L130.053 24.5081L131.204 19.9912C131.225 19.906 131.31 19.8421 131.396 19.8421C131.481 19.8421 131.566 19.906 131.587 19.9912L132.163 22.1005H137.702C137.809 22.1005 137.894 22.1857 137.894 22.2923C137.894 22.3988 137.809 22.484 137.702 22.484H132.013C131.928 22.484 131.843 22.4201 131.822 22.3349L131.417 20.8008L130.266 25.339C130.202 25.4242 130.139 25.4881 130.032 25.4881Z" fill="white"/>
<path d="M141.965 45.269C142.827 41.8213 140.731 38.3278 137.283 37.4661C133.835 36.6043 130.342 38.7007 129.48 42.1484C128.618 45.5961 130.715 49.0895 134.162 49.9513C137.61 50.813 141.103 48.7167 141.965 45.269Z" fill="#D6A42B"/>
<path d="M137.851 39.3795H133.718V48.0509H137.851V39.3795Z" fill="white"/>
<path d="M140.128 45.7854V41.6521H131.457V45.7854H140.128Z" fill="white"/>
<path d="M59.3309 15.124C59.9926 11.0234 57.2048 7.1629 53.1043 6.50121C49.0038 5.83953 45.1432 8.62726 44.4815 12.7278C43.8198 16.8283 46.6076 20.6889 50.7081 21.3506C54.8087 22.0122 58.6692 19.2245 59.3309 15.124Z" fill="#EBD296"/>
<path d="M50.2413 7.84692C49.0908 7.84692 48.1533 8.78438 48.1533 9.93489V12.9177H52.3293V9.93489C52.3293 8.78438 51.3918 7.84692 50.2413 7.84692Z" fill="#FD4B34"/>
<path d="M50.2414 18.0098C49.0909 18.0098 48.1534 17.0723 48.1534 15.9218V12.939H52.3294V15.9218C52.3294 17.0723 51.3919 18.0098 50.2414 18.0098Z" fill="white"/>
<path d="M56.5482 12.3211C55.7386 11.4902 54.4176 11.4689 53.5867 12.2572L51.4348 14.3239L54.3324 17.3493L56.4843 15.2826C57.3152 14.473 57.3365 13.1521 56.5482 12.3211Z" fill="#FD4B34"/>
<path d="M49.1974 19.352C48.3878 18.5211 48.4304 17.2002 49.2613 16.3905L51.4132 14.3239L54.3321 17.3493L52.1802 19.416C51.328 20.2043 50.007 20.183 49.1974 19.352Z" fill="white"/>
<path d="M115.181 52.8447C119.229 52.8447 122.51 49.5633 122.51 45.5155C122.51 41.4677 119.229 38.1863 115.181 38.1863C111.133 38.1863 107.852 41.4677 107.852 45.5155C107.852 49.5633 111.133 52.8447 115.181 52.8447Z" fill="#EBD296"/>
<path d="M123.52 37.0668L118.368 42.2192L118.458 42.3096L123.611 37.1572L123.52 37.0668Z" fill="#EBD296"/>
<path d="M111.006 53.1196L107.586 49.6997L106.712 50.5735L110.132 53.9933L111.006 53.1196Z" fill="white"/>
<path d="M119.484 42.2026L118.49 41.2083L108.787 50.9104L109.782 51.9047L119.484 42.2026Z" fill="#B5AABA"/>
<path d="M119.223 43.5646L117.114 41.4554L110.591 47.9787L112.7 50.0879L119.223 43.5646Z" fill="white"/>
<path d="M112.996 49.7981L110.887 47.689L110.585 47.9903L112.695 50.0994L112.996 49.7981Z" fill="#B5AABA"/>
<path d="M113.373 50.7577L109.953 47.3379L109.079 48.2116L112.499 51.6315L113.373 50.7577Z" fill="white"/>
<path d="M117.055 42.1832L116.949 42.2887L117.763 43.1022L117.868 42.9967L117.055 42.1832Z" fill="#00657F"/>
<path d="M116.769 42.4719L116.663 42.5773L117.16 43.0745L117.266 42.969L116.769 42.4719Z" fill="#00657F"/>
<path d="M116.462 42.7597L116.356 42.8652L116.853 43.3624L116.959 43.2569L116.462 42.7597Z" fill="#00657F"/>
<path d="M116.167 43.0554L116.061 43.1609L116.558 43.658L116.664 43.5526L116.167 43.0554Z" fill="#00657F"/>
<path d="M115.889 43.3408L115.784 43.4463L116.281 43.9434L116.386 43.838L115.889 43.3408Z" fill="#00657F"/>
<path d="M115.582 43.6522L115.477 43.7577L116.29 44.5712L116.396 44.4657L115.582 43.6522Z" fill="#00657F"/>
<path d="M115.297 43.9433L115.192 44.0488L115.689 44.546L115.794 44.4405L115.297 43.9433Z" fill="#00657F"/>
<path d="M115.002 44.239L114.896 44.3444L115.394 44.8416L115.499 44.7361L115.002 44.239Z" fill="#00657F"/>
<path d="M114.695 44.5269L114.59 44.6323L115.087 45.1295L115.193 45.024L114.695 44.5269Z" fill="#00657F"/>
<path d="M114.403 44.8298L114.298 44.9352L114.795 45.4324L114.9 45.3269L114.403 44.8298Z" fill="#00657F"/>
<path d="M114.109 45.1212L114.004 45.2267L114.817 46.0402L114.923 45.9347L114.109 45.1212Z" fill="#00657F"/>
<path d="M113.822 45.4074L113.717 45.5129L114.214 46.0101L114.319 45.9046L113.822 45.4074Z" fill="#00657F"/>
<path d="M113.531 45.7128L113.426 45.8183L113.923 46.3155L114.029 46.21L113.531 45.7128Z" fill="#00657F"/>
<path d="M113.223 45.9958L113.117 46.1013L113.614 46.5984L113.72 46.493L113.223 45.9958Z" fill="#00657F"/>
<path d="M112.929 46.2963L112.823 46.4018L113.321 46.899L113.426 46.7935L112.929 46.2963Z" fill="#00657F"/>
<path d="M112.637 46.5902L112.532 46.6957L113.345 47.5092L113.451 47.4037L112.637 46.5902Z" fill="#00657F"/>
<path d="M112.335 46.8913L112.229 46.9968L112.727 47.4939L112.832 47.3885L112.335 46.8913Z" fill="#00657F"/>
<path d="M112.059 47.1794L111.953 47.2849L112.451 47.782L112.556 47.6765L112.059 47.1794Z" fill="#00657F"/>
<path d="M111.765 47.4801L111.66 47.5855L112.157 48.0827L112.263 47.9772L111.765 47.4801Z" fill="#00657F"/>
<path d="M111.459 47.768L111.353 47.8734L111.85 48.3706L111.956 48.2651L111.459 47.768Z" fill="#00657F"/>
<path d="M157.367 99.0356C157.367 100.144 156.472 101.038 155.343 101.038H4.49786C3.38996 101.038 2.49512 100.144 2.49512 99.0356C2.49512 97.9277 3.38996 97.0116 4.49786 97.0116H155.343C156.472 97.0116 157.367 97.9277 157.367 99.0356Z" fill="#510B2F"/>
<path d="M103.629 31.2223C104.491 27.7746 102.394 24.2811 98.9465 23.4194C95.4988 22.5576 92.0053 24.654 91.1436 28.1017C90.2818 31.5494 92.3782 35.0429 95.8259 35.9046C99.2735 36.7663 102.767 34.67 103.629 31.2223Z" fill="#EBD296"/>
<path d="M101.311 31.4963L100.437 29.0462L98.1576 28.1726H96.7514L94.4717 29.0462L93.5981 31.4963H95.3452V34.4791H99.5425V31.4963H101.311Z" fill="#00B8E0"/>
<path d="M99.4791 28.684L96.3685 32.1355L96.1128 31.9011L99.1382 28.5348L99.4791 28.684Z" fill="#E9EEF2"/>
<path d="M99.543 31.4963V30.4523C99.543 30.3458 99.6282 30.2819 99.7134 30.2819C99.8199 30.2819 99.8839 30.3671 99.8839 30.4523V31.4963H99.543Z" fill="#75AB7D"/>
<path d="M97.4551 26.4256C98.0317 26.4256 98.4991 25.9581 98.4991 25.3816C98.4991 24.805 98.0317 24.3376 97.4551 24.3376C96.8785 24.3376 96.4111 24.805 96.4111 25.3816C96.4111 25.9581 96.8785 26.4256 97.4551 26.4256Z" fill="#C48669"/>
<path d="M96.7518 27.1287V28.3431L97.4549 28.8757L98.158 28.3431V27.1287H96.7518Z" fill="#E0B999"/>
<path d="M98.4989 26.9582C97.6254 28.3644 97.2632 28.3644 96.3896 26.9582V25.3816H98.4989V26.9582Z" fill="#F0C6A4"/>
<path d="M97.0927 26.2551C97.1868 26.2551 97.2631 26.1788 97.2631 26.0847C97.2631 25.9905 97.1868 25.9142 97.0927 25.9142C96.9986 25.9142 96.9222 25.9905 96.9222 26.0847C96.9222 26.1788 96.9986 26.2551 97.0927 26.2551Z" fill="#C48669"/>
<path d="M97.7957 26.2551C97.8898 26.2551 97.9661 26.1788 97.9661 26.0847C97.9661 25.9905 97.8898 25.9142 97.7957 25.9142C97.7016 25.9142 97.6252 25.9905 97.6252 26.0847C97.6252 26.1788 97.7016 26.2551 97.7957 26.2551Z" fill="#C48669"/>
<path d="M97.6254 27.2991C97.6041 27.2991 97.5615 27.2991 97.5402 27.2778C97.4976 27.2565 97.4763 27.2352 97.4337 27.2352C97.4123 27.2565 97.3697 27.2565 97.3271 27.2778C97.2419 27.3204 97.1354 27.2778 97.0928 27.1926C97.0502 27.1074 97.0928 27.0008 97.178 26.9582C97.2206 26.9369 97.2419 26.9156 97.2632 26.9156C97.391 26.8304 97.455 26.8304 97.6041 26.9156C97.6254 26.9369 97.6467 26.9369 97.6893 26.9582C97.7745 27.0008 97.8172 27.1074 97.7745 27.1926C97.7532 27.2565 97.6893 27.2991 97.6254 27.2991Z" fill="#C48669"/>
<path d="M100.608 31.4963L100.267 34.4791H99.564V31.4963H100.608Z" fill="#F0C6A4"/>
<path d="M98.4989 25.3816L96.3896 26.4256V25.3816L98.3498 24.8489C98.4563 24.9981 98.4989 25.1898 98.4989 25.3816Z" fill="#DADCDE"/>
<path d="M93.9607 31.4963C93.9607 32.2633 94.5786 32.9025 95.3669 32.9025H97.2844C97.5827 32.9025 97.817 32.6682 97.817 32.3699C97.817 32.0716 97.5827 31.8372 97.2844 31.8372H95.3669C95.1751 31.8372 95.026 31.6881 95.026 31.4963H93.9607Z" fill="#DADCDE"/>
<path d="M96.752 28.1726L95.7081 31.6668V32.8812H94.6641V31.6668L96.3259 28.3431L96.752 28.1726Z" fill="#E9EEF2"/>
<path d="M96.4111 31.8585H97.1142V32.9025H96.4111V31.8585Z" fill="#E9EEF2"/>
<mask id="mask0_6659_3428" style="mask-type:luminance" maskUnits="userSpaceOnUse" x="42" y="6" width="64" height="92">
<path d="M105.892 6.44073H42.0601V97.0329H105.892V6.44073Z" fill="white"/>
</mask>
<g mask="url(#mask0_6659_3428)">
<path d="M63.0678 45.8138C59.6589 52.4399 59.2754 72.8934 54.226 90.3216C55.6961 91.4721 57.8479 92.5161 59.7868 93.1552C59.7868 93.1552 70.1201 74.6618 71.4197 50.6289C71.6328 46.4103 65.7311 40.5939 63.0678 45.8138Z" fill="#556B2F"/>
<path d="M73.0176 97.3738L43.6156 92.2817L47.5998 71.956L76.5117 77.1759L73.0176 97.3738Z" fill="#FDF2ED"/>
<path d="M44.5743 92.4521L48.6864 72.6164L76.5117 77.1759L73.0176 97.3737L44.5743 92.4521Z" fill="white"/>
<path d="M62.77 84.8034C62.77 86.0391 61.7686 87.0192 60.5542 87.0192C59.3184 87.0192 58.3384 86.0178 58.3384 84.8034C58.3384 83.5676 59.3398 82.5876 60.5542 82.5876C61.7686 82.5876 62.77 83.5889 62.77 84.8034Z" fill="#EBECEE"/>
<path d="M56.5271 95.1793C56.378 96.3298 54.8226 96.0741 55.0144 94.9023C55.0996 94.3483 55.3127 93.2404 55.547 92.7504C55.8879 92.026 56.6336 92.1751 56.7615 93.0061C56.8467 93.5387 56.591 94.6253 56.5271 95.1793Z" fill="#FFBA98"/>
<path d="M57.9119 95.5201C57.7627 96.628 56.2074 96.3937 56.3992 95.2432C56.4844 94.7105 56.6974 93.6665 56.9318 93.1765C57.2727 92.4947 58.0184 92.6225 58.1462 93.4322C58.2315 93.9648 57.9758 95.0088 57.9119 95.5201Z" fill="#FFBA98"/>
<path d="M59.2971 95.8184C59.148 96.692 57.5927 96.5002 57.7844 95.6054C57.8696 95.1793 58.0827 94.3483 58.3171 93.9648C58.658 93.4109 59.4037 93.5174 59.5315 94.1566C59.6167 94.5827 59.361 95.4136 59.2971 95.8184Z" fill="#FFBA98"/>
<path d="M55.1207 94.7318C54.9716 95.6054 53.4163 95.4136 53.608 94.5188C53.6932 94.0927 53.9063 93.2617 54.1407 92.8782C54.4816 92.3243 55.2273 92.4308 55.3551 93.07C55.4616 93.4748 55.206 94.3057 55.1207 94.7318Z" fill="#FFBA98"/>
<path d="M78.3227 81.0535C76.746 74.3422 67.3076 73.6604 66.3701 80.4783C65.0278 90.2363 61.2141 153.365 61.2141 153.365C63.0464 154.857 65.6883 154.09 67.3502 153.557C67.3502 153.536 82.4347 98.5882 78.3227 81.0535Z" fill="#510B2F"/>
<path d="M90.2537 78.8591C87.0365 72.7656 77.4489 74.6831 77.2145 81.5649C76.4688 103.361 83.521 153.834 83.521 153.834C85.4812 154.942 87.91 154.558 89.3375 153.621C89.3375 153.621 96.2832 90.279 90.2537 78.8591Z" fill="#510B2F"/>
<path d="M67.8615 83.5463C67.9467 87.147 74.7219 91.2803 80.581 91.1312C86.4401 90.9821 90.8504 87.9566 90.7652 84.3773C90.4882 72.7869 85.6731 66.5869 79.814 66.7361C73.9762 66.8639 67.5845 71.7429 67.8615 83.5463Z" fill="#510B2F"/>
<path d="M95.5805 45.0042C93.0025 40.6791 79.4733 36.7589 78.8342 36.7375C74.5304 36.6097 64.815 42.7032 63.8349 44.919C62.9827 46.8365 66.7325 62.9863 66.3703 70.3155C66.1785 74.1292 65.6885 76.9842 65.7737 80.8405C65.8589 84.4412 91.4472 84.4838 91.3619 80.8831C91.298 77.9003 90.7441 75.6632 90.7654 72.5526C90.8506 66.3313 96.6884 46.8578 95.5805 45.0042Z" fill="#728452"/>
<path d="M77.2574 48.6688C77.2574 48.9883 77.5344 49.2653 77.8753 49.244C78.1949 49.244 78.4719 48.967 78.4506 48.6262C78.4506 48.3066 78.1736 48.0296 77.8327 48.0509C77.5131 48.0722 77.2574 48.3492 77.2574 48.6688Z" fill="white"/>
<path d="M76.4695 55.0392C76.4695 55.3588 76.7465 55.6357 77.0874 55.6144C77.407 55.6144 77.684 55.3375 77.6627 54.9966C77.6627 54.677 77.3857 54.4 77.0448 54.4213C76.7252 54.4426 76.4482 54.7196 76.4695 55.0392Z" fill="white"/>
<path d="M76.0001 61.2392C76.0001 61.5588 76.2771 61.8357 76.618 61.8144C76.9376 61.8144 77.2145 61.5375 77.1932 61.1966C77.1932 60.877 76.9163 60.6 76.5754 60.6213C76.2558 60.6426 76.0001 60.9196 76.0001 61.2392Z" fill="white"/>
<path d="M75.5531 66.9704C75.5531 67.29 75.8301 67.567 76.171 67.5457C76.4906 67.5457 76.7676 67.2687 76.7462 66.9278C76.7462 66.6082 76.4693 66.3313 76.1284 66.3526C75.7875 66.3739 75.5318 66.6508 75.5531 66.9704Z" fill="white"/>
<path d="M75.553 72.6165C75.553 72.936 75.83 73.213 76.1708 73.1917C76.4904 73.1917 76.7674 72.9147 76.7461 72.5738C76.7461 72.2543 76.4691 71.9773 76.1282 71.9986C75.8086 72.0199 75.553 72.2969 75.553 72.6165Z" fill="white"/>
<path d="M75.3826 78.2838C75.3826 78.6034 75.6595 78.8803 76.0004 78.859C76.32 78.859 76.597 78.5821 76.5757 78.2412C76.5757 77.9216 76.2987 77.6446 75.9578 77.6659C75.6382 77.6659 75.3826 77.9429 75.3826 78.2838Z" fill="white"/>
<path d="M82.2644 61.4522H71.7393C71.5263 61.4522 71.3558 61.2818 71.3558 61.0687V54.6344C71.3558 54.4213 71.5263 54.2509 71.7393 54.2509H82.2644C82.4775 54.2509 82.6479 54.4213 82.6479 54.6344V61.0687C82.6479 61.2818 82.4775 61.4522 82.2644 61.4522Z" fill="white"/>
<path d="M75.0626 60.2378H72.3568C72.1864 60.2378 72.0372 60.0887 72.0372 59.9182V56.3175C72.0372 56.1471 72.1864 55.998 72.3568 55.998H75.0626C75.2331 55.998 75.3822 56.1471 75.3822 56.3175V59.9182C75.3609 60.11 75.2331 60.2378 75.0626 60.2378Z" fill="#EBD296"/>
<path d="M78.4504 54.5279H75.5529V54.9753H78.4504V54.5279Z" fill="#510B2F"/>
<path d="M77.5557 54.7622H76.3412C76.256 54.7622 76.1708 54.6983 76.1708 54.5918V53.0151C76.1708 52.9299 76.2347 52.8447 76.3412 52.8447H77.5557C77.6409 52.8447 77.7261 52.9086 77.7261 53.0151V54.5918C77.7261 54.677 77.6409 54.7622 77.5557 54.7622Z" fill="#BD423E"/>
<path d="M81.7529 56.0193H76.5969V56.5093H81.7529V56.0193Z" fill="#E3BF6B"/>
<path d="M81.7532 57.0419H76.5972V57.532H81.7532V57.0419Z" fill="#E3BF6B"/>
<path d="M81.7532 58.0433H76.5972V58.5333H81.7532V58.0433Z" fill="#E3BF6B"/>
<path d="M81.7532 59.7691H76.5972V60.2591H81.7532V59.7691Z" fill="#E3BF6B"/>
<path d="M77.6413 53.2921H76.299C76.1499 53.2921 76.0221 53.2069 75.9581 53.0791C74.2537 48.9671 71.7396 40.1891 73.0393 38.3781C73.1032 38.2929 73.3588 38.0798 73.3162 38.1863C72.5492 39.9547 74.3815 48.2853 76.3203 52.9299L77.6413 52.9086L77.7265 52.8021C79.921 50.2667 85.1622 43.598 85.4818 38.6551C85.4818 38.5485 85.8227 38.8894 85.8227 38.996C85.5031 44.0667 80.2619 50.5011 78.0248 53.0578L77.9183 53.1856C77.8544 53.2495 77.7478 53.2921 77.6413 53.2921Z" fill="#906600"/>
<path d="M83.8837 35.2674C83.3936 34.1595 74.7435 34.5217 74.4026 35.6083L74.8287 40.2104L83.9263 39.6564L83.8837 35.2674Z" fill="#9CA986"/>
<path d="M81.5824 29.2805C81.5824 29.2805 81.5397 32.2207 82.2002 34.5857C82.8607 36.9506 84.6078 39.976 84.6078 39.976L80.5171 40.5087L77.8538 44.6633L76.8738 39.9973L73.6992 39.0173C73.6992 39.0173 76.5968 37.0145 76.3198 33.776C76.0642 30.9424 75.915 29.387 75.915 29.387L81.5824 29.2805Z" fill="#FFAFA9"/>
<path d="M83.8838 35.2674C83.8838 35.2674 84.1608 36.1623 82.4563 37.8241C81.9237 38.3355 80.0914 39.6351 80.0914 39.6351L77.5986 45.0042L78.2378 45.0681L80.6027 40.0612L83.4151 43.8323C84.7574 42.1492 85.6309 40.5513 85.6948 39.1451L83.8838 35.2674Z" fill="#556B2F"/>
<path d="M83.4362 43.8323L80.6239 40.0612L78.2589 45.0681L81.2417 42.3835L83.4362 43.8323Z" fill="#9CA986"/>
<path d="M74.4026 35.6083C74.4239 36.8441 75.2548 38.8894 76.8102 39.7203L78.2589 45.0681L77.6198 45.0042L76.4267 40.1678L74.7435 43.9389C73.7634 42.4688 73.0177 40.9135 72.8899 39.1664L74.4026 35.6083Z" fill="#556B2F"/>
<path d="M74.7437 43.9389L76.4268 40.1678L77.6199 45.0042L76.4907 42.3836L74.7437 43.9389Z" fill="#9CA986"/>
<path fill-rule="evenodd" clip-rule="evenodd" d="M73.2094 28.8544C74.0617 28.13 74.1469 25.9781 73.4225 24.9341C73.4225 24.9341 72.8472 24.0393 71.7606 24.5506C70.9297 24.9341 70.738 26.0207 70.9084 27.0647C71.1002 28.3218 72.272 29.6427 73.2094 28.8544Z" fill="#FFAFA9"/>
<path d="M72.8898 28.3644L72.6128 27.2139L73.2946 26.9795C73.2946 26.9795 73.0816 24.8702 71.9311 25.5307C70.9936 26.106 71.7393 28.684 72.8898 28.3644Z" fill="#FE9290"/>
<path fill-rule="evenodd" clip-rule="evenodd" d="M81.583 29.2805C81.583 29.2805 81.4126 31.2619 80.6669 32.3059C79.7933 33.563 78.5576 35.097 75.0208 34.5643C71.4841 34.0317 72.2298 26.5108 72.2298 26.5108C72.2298 26.5108 71.9954 23.5706 72.7198 21.2269C73.4442 18.8833 78.2593 18.0737 81.9878 19.6077C81.9878 19.6077 82.9892 20.7582 82.137 25.4029C82.137 25.4029 82.9253 24.6145 83.9693 25.3176C84.7789 25.8503 84.7576 26.9582 84.3741 27.9595C83.9267 29.1527 82.5418 30.0901 81.583 29.2805Z" fill="#FFAFA9"/>
<path d="M72.1659 28.13C72.1659 28.13 69.1617 36.0345 74.6799 36.9719C77.8758 37.5046 80.6669 35.8853 81.6682 33.7974C82.3074 32.4764 81.6895 29.4084 81.3913 27.917C81.3486 27.7039 81.1782 27.917 81.1569 27.7465L80.3047 31.2407C80.3047 31.2407 78.6002 29.0675 75.5322 29.0036C72.7837 28.9396 72.315 30.6441 72.315 30.6441L72.1659 28.13Z" fill="#BD423E"/>
<path d="M78.0461 30.0049C77.7478 30.1967 77.407 30.3245 77.0448 30.4097C76.7039 30.4949 76.3417 30.5375 75.9795 30.5375C75.809 30.5375 75.6173 30.5375 75.4468 30.5162C75.3616 30.5162 75.2764 30.4949 75.1912 30.4949C75.1059 30.4949 75.0207 30.4736 74.9355 30.4523C74.765 30.431 74.5733 30.3884 74.4028 30.3245C74.2324 30.2606 74.0406 30.1753 73.9341 29.9836C73.9128 29.9623 73.9341 29.941 73.9554 29.9197C73.9767 29.9197 73.9767 29.9197 73.998 29.9197C74.1472 29.9836 74.3176 30.0049 74.4881 30.0262L74.9994 30.0901L75.2551 30.1327C75.3403 30.154 75.4255 30.1753 75.5107 30.1753C75.6812 30.1967 75.8516 30.218 76.0221 30.2393C76.363 30.2606 76.7039 30.2393 77.0448 30.1967C77.3857 30.154 77.7265 30.0688 78.0461 29.9197C78.0674 29.9197 78.0887 29.9197 78.0887 29.941C78.0674 29.9836 78.0461 30.0049 78.0461 30.0049Z" fill="#FE9290"/>
<path d="M83.9051 19.5438C83.3725 18.5424 81.455 17.9032 79.8357 17.541C79.8144 17.3919 79.7718 17.2641 79.7292 17.1149C78.9835 14.7713 76.3842 14.8352 76.3842 14.8352V16.3479C75.9794 15.73 75.9794 14.5795 75.9794 14.5795C74.0618 15.7087 74.1897 17.1149 74.1897 17.1149L73.7636 16.0283C73.7636 16.0283 72.4213 17.0723 72.4 18.5637C72.0804 18.7981 71.846 19.0964 71.7395 19.4159C71.1003 21.3122 72.2296 26.5321 72.2296 26.5321L72.4639 22.7823C72.4639 22.7823 72.6344 21.5465 73.0818 20.6091C73.0818 20.6091 73.4866 21.0991 75.9581 21.0991C76.0646 21.0991 76.1711 21.0991 76.2563 21.0991C76.299 21.0991 76.3416 21.0991 76.3416 21.0991C76.3629 21.0991 76.3629 21.0991 76.3842 21.0991C78.6852 21.0352 80.7732 20.5451 80.7732 20.5451C80.7732 20.5451 80.901 21.9513 81.3058 23.2084C81.5402 23.9328 81.1354 27.9809 81.1354 27.9809C81.1354 27.9809 81.2419 28.4709 81.3697 27.9809C81.6254 27.086 82.1367 24.9981 83.1594 25.0833C83.1807 25.0194 84.8852 21.3974 83.9051 19.5438Z" fill="#BD423E"/>
<path d="M82.0302 28.8757L82.5415 27.8104L81.8597 27.4482C81.8597 27.4482 82.5202 25.4029 83.6068 26.2764C84.5017 26.9795 83.1807 29.4083 82.0302 28.8757Z" fill="#FE9290"/>
<path d="M77.4489 26.596C77.4489 26.8517 77.7897 26.9156 78.2159 26.9156C78.642 26.9156 78.9829 26.873 78.9829 26.6173C78.9829 26.3616 78.642 26.1273 78.2159 26.1273C77.8111 26.106 77.4702 26.319 77.4489 26.596Z" fill="#510B2F"/>
<path d="M80.3043 24.6572C80.3256 24.6998 79.0898 24.295 78.7063 24.3163C78.3228 24.3376 76.874 24.5933 76.7462 24.4654C76.6184 24.3163 76.5118 23.8475 76.5118 23.8475C76.5118 23.8475 78.4933 23.6132 78.8981 23.6984C79.3029 23.7836 80.1977 24.3163 80.3043 24.6572Z" fill="#BD423E"/>
<path d="M73.1882 26.5321C73.1882 26.7878 73.5291 26.8517 73.9552 26.8517C74.3814 26.8517 74.7223 26.8091 74.7223 26.5534C74.7223 26.2977 74.3814 26.0634 73.9552 26.0634C73.5504 26.0634 73.2095 26.2764 73.1882 26.5321Z" fill="#510B2F"/>
<path d="M72.6341 24.6572C72.6128 24.6998 73.3159 24.1884 73.5716 24.2098C73.8486 24.2311 75.0204 24.6785 75.1269 24.5293C75.2334 24.4015 75.3613 23.9115 75.3613 23.9115C75.3613 23.9115 73.6994 23.5919 73.4011 23.6771C73.1242 23.7623 72.762 24.3376 72.6341 24.6572Z" fill="#BD423E"/>
<path d="M75.2545 29.0036C75.2545 29.0036 76.2346 29.0675 76.2346 28.7905C76.2346 28.5135 74.2105 28.0448 74.0827 28.2152C73.9549 28.3857 74.8284 28.8331 75.2545 29.0036Z" fill="#FE9290"/>
<path d="M75.4469 24.9128C75.4469 24.9128 75.6174 26.1699 75.4256 26.596C75.2339 27.0221 74.2538 27.9383 74.2112 28.1513C74.1686 28.3644 75.1699 28.9609 75.2339 29.0036C75.2978 29.0462 73.7851 28.6627 73.8703 28.1726C73.9555 27.7039 75.2339 26.596 75.2978 26.3616C75.3617 26.1273 75.4469 24.9128 75.4469 24.9128Z" fill="#FE9290"/>
<path opacity="0.5" d="M71.6753 25.0835C71.6753 25.0835 71.1427 27.3632 73.4011 27.3632C75.7021 27.3632 75.1269 25.0195 75.1269 25.0195C72.6554 24.6786 71.6753 25.0835 71.6753 25.0835Z" fill="#E3BF6B"/>
<path opacity="0.5" d="M80.0482 24.9981C77.5555 24.6785 76.5967 25.062 76.5967 25.062C76.5967 25.062 76.0641 27.3417 78.3225 27.3417C80.6235 27.363 80.0482 24.9981 80.0482 24.9981Z" fill="#E3BF6B"/>
<path d="M81.8809 25.552V25.1685L80.1552 24.8915H80.07C77.5772 24.5719 76.5971 24.9554 76.5545 24.9768L76.4906 24.9981L76.4693 25.0407C75.8514 24.7211 75.3614 24.9341 75.2335 24.9981V24.9768L75.2122 24.8915H75.127C72.6342 24.5719 71.6542 24.9554 71.6116 24.9768L71.5476 24.9981L71.5263 25.062C71.5263 25.1046 71.2707 26.1486 71.8459 26.873C72.1655 27.2778 72.6769 27.4908 73.3799 27.4908C74.083 27.4908 74.5944 27.2778 74.914 26.873C75.2975 26.3616 75.2975 25.7011 75.2549 25.3176C75.6384 25.0194 76.2775 25.275 76.4054 25.3389C76.3628 25.7011 76.3628 26.3829 76.7676 26.8943C77.0871 27.2991 77.5985 27.5121 78.3016 27.5121C79.0047 27.5121 79.516 27.2991 79.8356 26.8943C80.1978 26.4468 80.2191 25.8503 80.1978 25.4455L81.8809 25.552ZM74.7648 26.7025C74.4878 27.0434 74.0404 27.2352 73.4226 27.2352C72.8047 27.2352 72.3573 27.0647 72.0803 26.7025C71.6542 26.1699 71.7607 25.3816 71.8033 25.1472C72.0377 25.0833 73.0177 24.8276 75.0631 25.0833C75.0844 25.3603 75.1909 26.1699 74.7648 26.7025ZM79.6865 26.7025C79.4095 27.0434 78.9621 27.2352 78.3442 27.2352C77.7263 27.2352 77.2789 27.0647 77.0019 26.7025C76.5758 26.1699 76.6823 25.3816 76.725 25.1472C76.9593 25.0833 77.9394 24.8276 79.9847 25.0833C79.9847 25.3603 80.0913 26.1699 79.6865 26.7025Z" fill="#FF594F"/>
<path d="M95.7082 45.1746C92.2567 40.4234 85.2471 46.4317 87.9742 52.2268C90.744 58.0859 94.8986 63.3272 95.7082 68.7175C96.2622 72.4886 87.3563 87.0618 87.3563 87.0618C87.2924 87.7436 91.3405 91.8343 92.0436 91.8556C92.0436 91.8556 107.362 75.578 105.765 66.6295C104.465 59.3643 100.289 52.0138 95.7082 45.1746Z" fill="#728452"/>
<path d="M96.2194 68.7388C97.4125 67.6948 101.738 65.9051 102.1 66.3525C102.398 66.7147 98.1369 68.2062 98.1369 68.2062C98.1369 68.2062 103.591 66.5017 103.911 67.6522C104.081 68.2914 100.544 67.8226 96.6455 69.0797C96.6242 69.101 95.5163 69.3567 96.2194 68.7388Z" fill="#556B2F"/>
<path d="M86.2911 85.336C86.2911 85.336 88.0169 89.1071 92.5337 92.1752C92.5337 92.1752 92.5977 92.6226 92.1928 92.7504C91.788 92.8782 90.8293 92.0899 89.0396 90.3215C87.8465 89.1497 85.8224 86.1669 85.7798 85.7621C85.7372 85.336 86.2911 85.336 86.2911 85.336Z" fill="#FDF2ED"/>
</g>
</svg>
