<svg enable-background="new 0 0 256 256" height="512" viewBox="0 0 256 256" width="512" xmlns="http://www.w3.org/2000/svg"><g id="Layer_61"><g><g><g><path d="m119.098 56.772c-13.593 17.094-33.644 14.681-40.386 13.27-1.225-.256-2.401.667-2.402 1.919v.025 29.936c0 20.468 16.747 37.215 37.215 37.215 20.468 0 37.215-16.747 37.215-37.215v-33.15c0-.194-.002-.388-.006-.582-.021-1.055-.866-1.925-1.921-1.956-15.46-.453-23.606-6.581-26.736-9.649-.855-.838-2.234-.749-2.979.187z" fill="#f9d0b4"/></g></g><g><g><g><path d="m73.922 73.561c.813 0 1.609.069 2.388.189v-1.763c0-.008 0-.017 0-.025.001-1.252 1.177-2.175 2.402-1.919 6.742 1.411 26.794 3.823 40.386-13.27.745-.937 2.124-1.025 2.978-.187 3.13 3.068 11.276 9.196 26.736 9.649 1.055.031 1.9.901 1.921 1.956.004.194.006.388.006.582v4.978c.779-.121 1.575-.189 2.388-.189 4.188 0 7.982 1.665 10.777 4.36v-27.949c0-11.692-9.566-21.258-21.258-21.258-3.966 0-7.673 1.121-10.859 3.031-3.722-6.211-10.502-10.405-18.23-10.405h-10.916c-21.127 0-38.413 17.286-38.413 38.413v17.212c2.658-2.126 6.024-3.405 9.694-3.405z" fill="#754e34"/></g></g></g><g><g><path d="m153.128 73.561c-.813 0-1.609.069-2.388.189v28.173c0 .839-.038 1.67-.094 2.496.81.13 1.635.217 2.482.217 8.581 0 15.537-6.956 15.537-15.537s-6.956-15.538-15.537-15.538z" fill="#f9d0b4"/></g></g><g><g><path d="m76.31 101.923c0-3.856 0-20.507 0-28.173-.779-.121-1.575-.189-2.388-.189-8.581 0-15.538 6.957-15.538 15.538s6.956 15.537 15.538 15.537c.847 0 1.672-.086 2.482-.217v-.001c-.056-.825-.094-1.656-.094-2.495z" fill="#f9d0b4"/></g></g><g><g><path d="m133.566 173.329c0-3.219 2.61-5.829 5.829-5.829h4.606c2.772-2.765 5.182-5.894 7.128-9.323l-2.533-.637-8.533-4.208c-5.51 8.878-15.343 14.806-26.538 14.806-11.023 0-20.723-5.749-26.279-14.4l-7.711 3.802-3.478.875c7.467 12.967 21.46 21.723 37.468 21.723 7.233 0 14.047-1.799 20.041-4.955z" fill="#9be5f9"/></g></g><g><g><path d="m113.525 168.138c11.195 0 21.029-5.927 26.538-14.806l-1.682-.829c-4.391-2.165-7.171-6.635-7.171-11.531v-6.335c-5.268 2.868-11.296 4.501-17.686 4.501-5.959 0-11.597-1.427-16.604-3.945v5.778c0 4.896-2.78 9.366-7.171 11.531l-2.504 1.234c5.557 8.653 15.256 14.402 26.28 14.402z" fill="#f9d0b4"/></g></g><g><g><path d="m182.965 167.5c-1.582-1.24-3.428-2.173-5.466-2.686l-26.369-6.637c-1.946 3.429-4.356 6.558-7.128 9.323z" fill="#70d6f9"/></g></g><g><g><path d="m133.566 247.67v-72.488c-5.994 3.156-12.808 4.955-20.041 4.955-16.008 0-30-8.756-37.468-21.723l-25.423 6.399c-6.233 1.569-10.721 7.008-11.078 13.425l-4.115 70.951c-.13 2.34 1.732 4.31 4.076 4.31h99.878c-3.219.001-5.829-2.609-5.829-5.829z" fill="#70d6f9"/></g></g><g><g><path d="m191.736 167.5h-52.341c-3.219 0-5.829 2.61-5.829 5.829v74.341c0 3.22 2.61 5.83 5.829 5.83h52.341c3.219 0 5.829-2.61 5.829-5.83v-74.341c.001-3.219-2.609-5.829-5.829-5.829z" fill="#fc657e"/></g></g><g><g><path d="m146.566 167.5h-7.171c-3.219 0-5.829 2.61-5.829 5.829v74.341c0 3.22 2.61 5.83 5.829 5.83h7.171z" fill="#f98fa6"/></g></g><g><g><path d="m208.566 241.5v6c0 3.314 2.686 6 6 6s6-2.686 6-6v-6z" fill="#fc657e"/></g></g><g><g><path d="m208.566 180.5h12v51h-12z" fill="#f5c84c"/></g></g><g><g><path d="m208.566 231.5h12v10h-12z" fill="#edf4fc"/></g></g><g><g><path d="m216.35 169.961c-.644-1.611-2.924-1.611-3.568 0l-4.216 10.539h12z" fill="#f9d0b4"/></g></g><g><g><path d="m113.525 141.638c-21.899 0-39.715-17.816-39.715-39.715v-29.936c.001-1.372.604-2.63 1.651-3.479 1.059-.859 2.43-1.19 3.764-.912 7.235 1.516 25.417 3.34 37.917-12.379v-.001c.796-1.001 1.982-1.619 3.254-1.698 1.27-.081 2.52.389 3.431 1.282 2.592 2.541 10.225 8.5 25.059 8.936 2.39.068 4.3 2.004 4.348 4.405.004.209.006.421.006.632v33.15c0 21.898-17.816 39.715-39.715 39.715zm-34.715-69.026v29.311c0 19.142 15.573 34.715 34.715 34.715s34.715-15.573 34.715-34.715v-33.15c0-.019 0-.037 0-.056-15.155-.564-23.626-6.309-27.522-9.971-14.189 17.4-34.92 15.219-41.908 13.866zm42.244-14.284c0 .001 0 .001-.001.002z"/></g></g><g><g><g><path d="m163.904 79.312c-1.381 0-2.5-1.119-2.5-2.5v-26.838c0-10.343-8.415-18.758-18.758-18.758-3.345 0-6.656.925-9.574 2.675-.569.341-1.251.442-1.893.28-.643-.161-1.196-.571-1.537-1.14-3.396-5.668-9.56-9.189-16.086-9.189h-10.916c-19.803 0-35.913 16.11-35.913 35.913v16.453c0 1.381-1.119 2.5-2.5 2.5s-2.5-1.119-2.5-2.5v-16.453c0-22.56 18.354-40.913 40.913-40.913h10.916c7.481 0 14.582 3.641 19.048 9.638 3.15-1.486 6.579-2.264 10.042-2.264 13.1 0 23.758 10.658 23.758 23.758v26.838c0 1.38-1.119 2.5-2.5 2.5z"/></g></g></g><g><g><path d="m62.521 255.04c-1.381 0-2.5-1.119-2.5-2.5v-56.645c0-1.381 1.119-2.5 2.5-2.5s2.5 1.119 2.5 2.5v56.645c0 1.381-1.119 2.5-2.5 2.5z"/></g></g><g><g><path d="m153.128 107.136c-.58 0-1.162-.032-1.781-.1-1.373-.148-2.365-1.381-2.217-2.754s1.376-2.365 2.754-2.217c.439.047.846.07 1.244.07 7.189 0 13.038-5.849 13.038-13.037 0-7.189-5.849-13.038-13.038-13.038-.37 0-.736.018-1.098.049-1.372.129-2.588-.896-2.709-2.271s.896-2.588 2.271-2.709c.515-.046 1.032-.068 1.535-.068 9.946 0 18.038 8.092 18.038 18.038.001 9.945-8.091 18.037-18.037 18.037z"/></g></g><g><g><path d="m73.922 107.136c-9.946 0-18.038-8.092-18.038-18.037 0-9.946 8.092-18.038 18.038-18.038.531 0 1.074.025 1.614.075 1.375.126 2.387 1.344 2.26 2.719-.126 1.375-1.343 2.4-2.718 2.26-.381-.035-.766-.054-1.156-.054-7.189 0-13.038 5.849-13.038 13.038 0 7.188 5.849 13.037 13.038 13.037.346 0 .688-.018 1.025-.049 1.376-.133 2.592.885 2.719 2.26s-.885 2.592-2.26 2.719c-.505.046-1.004.07-1.484.07z"/></g></g><g><g><path d="m151.131 160.678c-.202 0-.408-.025-.612-.076l-2.533-.638c-.171-.044-.337-.104-.495-.183l-8.534-4.207c-1.238-.61-1.748-2.109-1.137-3.348.61-1.238 2.11-1.749 3.348-1.137l8.296 4.09 2.275.572c1.339.338 2.151 1.696 1.814 3.035-.285 1.135-1.303 1.892-2.422 1.892z"/></g></g><g><g><path d="m76.055 160.916c-1.119 0-2.137-.757-2.422-1.891-.337-1.339.475-2.697 1.814-3.034l3.221-.812 7.473-3.685c1.238-.613 2.737-.102 3.348 1.137s.102 2.737-1.137 3.348l-7.711 3.802c-.158.078-.324.139-.495.182l-3.478.876c-.205.052-.411.077-.613.077z"/></g></g><g><g><path d="m114.066 118.573c-4.777 0-9.262-1.95-11.999-5.216-.887-1.058-.748-2.635.31-3.521 1.059-.888 2.635-.748 3.522.311 1.798 2.146 4.852 3.427 8.167 3.427s6.369-1.281 8.167-3.427c.887-1.058 2.463-1.198 3.522-.311 1.058.887 1.197 2.464.31 3.521-2.737 3.266-7.222 5.216-11.999 5.216z"/></g></g><g><g><path d="m121.531 93.765c-.714 0-1.423-.304-1.917-.895-1.209-1.442-3.283-2.304-5.547-2.304s-4.338.861-5.547 2.304c-.887 1.061-2.462 1.198-3.522.311-1.058-.887-1.197-2.464-.31-3.521 2.147-2.563 5.654-4.093 9.379-4.093s7.232 1.53 9.379 4.093c.887 1.058.748 2.635-.31 3.521-.469.392-1.039.584-1.605.584z"/></g></g><g><g><circle cx="130.855" cy="90.816" r="5"/></g></g><g><g><circle cx="97.276" cy="90.816" r="5"/></g></g><g><g><path d="m94.066 107.75c-9.788 0-17.75-7.963-17.75-17.75s7.962-17.75 17.75-17.75 17.75 7.963 17.75 17.75-7.962 17.75-17.75 17.75zm0-30.5c-7.03 0-12.75 5.72-12.75 12.75s5.72 12.75 12.75 12.75 12.75-5.72 12.75-12.75-5.72-12.75-12.75-12.75z"/></g></g><g><g><path d="m134.066 107.75c-9.788 0-17.75-7.963-17.75-17.75s7.962-17.75 17.75-17.75 17.75 7.963 17.75 17.75-7.962 17.75-17.75 17.75zm0-30.5c-7.03 0-12.75 5.72-12.75 12.75s5.72 12.75 12.75 12.75 12.75-5.72 12.75-12.75-5.72-12.75-12.75-12.75z"/></g></g><g><g><path d="m113.525 170.638c-11.52 0-22.13-5.813-28.382-15.55-.385-.599-.496-1.334-.305-2.02.19-.687.665-1.259 1.303-1.573l2.504-1.234c3.563-1.757 5.776-5.316 5.776-9.289v-5.778c0-.867.45-1.673 1.188-2.128.738-.456 1.661-.496 2.435-.105 4.855 2.441 10.063 3.679 15.481 3.679 5.746 0 11.448-1.451 16.49-4.197.775-.421 1.714-.403 2.473.046.758.45 1.223 1.268 1.223 2.149v6.335c0 3.973 2.213 7.532 5.776 9.289l1.682.829c.632.312 1.104.877 1.298 1.555s.092 1.406-.28 2.006c-6.212 10.009-16.927 15.986-28.662 15.986zm-22.542-15.956c5.437 6.907 13.673 10.956 22.542 10.956 9.077 0 17.439-4.202 22.864-11.366-4.761-2.737-7.678-7.746-7.678-13.3v-2.371c-4.797 1.996-9.976 3.038-15.186 3.038-4.876 0-9.605-.875-14.104-2.607v1.94c0 5.842-3.23 11.083-8.438 13.71z"/></g></g><g><g><path d="m182.781 169.859c-.527 0-1.058-.166-1.51-.509-1.318-1.002-2.792-1.712-4.382-2.111l-24.565-6.184c-1.777 2.842-3.881 5.503-6.274 7.931-.969.983-2.551.996-3.536.025-.983-.969-.995-2.552-.026-3.535 2.542-2.579 4.718-5.45 6.467-8.533.554-.979 1.694-1.463 2.785-1.191l26.369 6.638c2.246.565 4.328 1.567 6.186 2.979 1.099.835 1.314 2.403.479 3.503-.492.647-1.238.987-1.993.987z"/></g></g><g><g><path d="m139.396 256h-99.879c-1.802 0-3.545-.751-4.783-2.06s-1.89-3.091-1.79-4.889l4.115-70.957c.42-7.546 5.63-13.859 12.964-15.705l25.423-6.399c1.083-.271 2.219.209 2.777 1.177 7.271 12.627 20.798 20.471 35.301 20.471 6.57 0 12.859-1.538 18.692-4.57 1.225-.637 2.734-.16 3.372 1.064.637 1.225.16 2.734-1.065 3.371-6.552 3.407-13.617 5.135-20.999 5.135-15.653 0-30.291-8.133-38.651-21.347l-23.63 5.948c-5.2 1.308-8.895 5.785-9.193 11.139l-4.115 70.957c-.024.434.129.851.431 1.17s.71.495 1.15.495h99.878c1.381 0 2.5 1.119 2.5 2.5s-1.118 2.5-2.498 2.5z"/></g></g><g><g><path d="m191.736 256h-52.341c-4.593 0-8.33-3.737-8.33-8.33v-74.341c0-4.593 3.737-8.329 8.33-8.329h52.341c4.593 0 8.33 3.736 8.33 8.329v74.341c0 4.593-3.737 8.33-8.33 8.33zm-52.34-86c-1.836 0-3.33 1.493-3.33 3.329v74.341c0 1.836 1.494 3.33 3.33 3.33h52.341c1.836 0 3.33-1.494 3.33-3.33v-74.341c0-1.836-1.494-3.329-3.33-3.329z"/></g></g><g><g><path d="m146.566 255.438c-1.381 0-2.5-1.119-2.5-2.5v-84.521c0-1.381 1.119-2.5 2.5-2.5s2.5 1.119 2.5 2.5v84.521c0 1.381-1.119 2.5-2.5 2.5z"/></g></g><g><g><path d="m181.111 186.341h-20.091c-1.381 0-2.5-1.119-2.5-2.5s1.119-2.5 2.5-2.5h20.091c1.381 0 2.5 1.119 2.5 2.5s-1.119 2.5-2.5 2.5z"/></g></g><g><g><path d="m181.111 196h-20.091c-1.381 0-2.5-1.119-2.5-2.5s1.119-2.5 2.5-2.5h20.091c1.381 0 2.5 1.119 2.5 2.5s-1.119 2.5-2.5 2.5z"/></g></g><g><g><path d="m181.111 205.659h-20.091c-1.381 0-2.5-1.119-2.5-2.5s1.119-2.5 2.5-2.5h20.091c1.381 0 2.5 1.119 2.5 2.5s-1.119 2.5-2.5 2.5z"/></g></g><g><g><path d="m214.566 256c-4.687 0-8.5-3.813-8.5-8.5v-6c0-1.381 1.119-2.5 2.5-2.5h12c1.381 0 2.5 1.119 2.5 2.5v6c0 4.687-3.813 8.5-8.5 8.5zm-3.5-12v3.5c0 1.93 1.57 3.5 3.5 3.5s3.5-1.57 3.5-3.5v-3.5z"/></g></g><g><g><path d="m220.566 234h-12c-1.381 0-2.5-1.119-2.5-2.5v-51c0-1.381 1.119-2.5 2.5-2.5h12c1.381 0 2.5 1.119 2.5 2.5v51c0 1.381-1.119 2.5-2.5 2.5zm-9.5-5h7v-46h-7z"/></g></g><g><g><path d="m220.566 244c-1.381 0-2.5-1.119-2.5-2.5v-10c0-1.381 1.119-2.5 2.5-2.5s2.5 1.119 2.5 2.5v10c0 1.381-1.119 2.5-2.5 2.5z"/></g></g><g><g><path d="m208.566 244c-1.381 0-2.5-1.119-2.5-2.5v-10c0-1.381 1.119-2.5 2.5-2.5s2.5 1.119 2.5 2.5v10c0 1.381-1.119 2.5-2.5 2.5z"/></g></g><g><g><path d="m220.567 183.001c-.992 0-1.931-.595-2.322-1.572l-3.679-9.197-3.679 9.197c-.513 1.282-1.968 1.906-3.25 1.393s-1.905-1.968-1.393-3.25l4.216-10.539c.675-1.688 2.287-2.779 4.105-2.779s3.431 1.091 4.105 2.78l4.216 10.538c.513 1.282-.111 2.737-1.393 3.25-.303.121-.618.179-.926.179z"/></g></g><g><g><path d="m191.822 28.33c-4.498-.838-8.043-4.31-8.898-8.716-.043-.221-.352-.221-.395 0-.855 4.406-4.4 7.879-8.898 8.716-.226.042-.226.345 0 .387 4.498.838 8.043 4.31 8.898 8.717.043.221.352.221.395 0 .855-4.406 4.4-7.879 8.898-8.717.225-.042.225-.344 0-.387z" fill="#fc657e"/></g></g><g><g><path d="m195.515 113.101c-2.862-.533-5.118-2.743-5.663-5.547-.027-.141-.224-.141-.251 0-.544 2.804-2.8 5.014-5.663 5.547-.144.027-.144.219 0 .246 2.862.533 5.118 2.743 5.663 5.547.027.141.224.141.251 0 .544-2.804 2.8-5.014 5.663-5.547.143-.027.143-.219 0-.246z" fill="#f5c84c"/></g></g><g><g><circle cx="33.755" cy="154.825" fill="#fc657e" r="3.377"/></g></g><g><g><circle cx="168.755" cy="3.377" fill="#87d147" r="3.377"/></g></g><g><g><path d="m40.246 122.75h2.33v-2.33c0-1.744 1.413-3.157 3.157-3.157s3.157 1.413 3.157 3.157v2.33h2.329c1.744 0 3.157 1.413 3.157 3.157s-1.413 3.157-3.157 3.157h-2.329v2.33c0 1.744-1.413 3.157-3.157 3.157s-3.157-1.413-3.157-3.157v-2.33h-2.33c-1.744 0-3.157-1.413-3.157-3.157s1.413-3.157 3.157-3.157z" fill="#70d6f9"/></g></g></g></g></svg>