<?xml version="1.0" encoding="UTF-8"?>
<svg id="Layer_2" data-name="Layer 2" xmlns="http://www.w3.org/2000/svg" viewBox="0 0 3527.61 1647.92">
  <defs>
    <style>
      .cls-1 {
        fill: #898121;
      }

      .cls-1, .cls-2 {
        stroke-width: 0px;
      }

      .cls-2 {
        fill: #e7b10a;
      }
    </style>
  </defs>
  <g id="Layer_6" data-name="Layer 6">
    <g>
      <path class="cls-2" d="M246.72,1647.92c-.07-1.5-.19-2.99-.19-4.49-.01-26.81,0-53.62,0-80.43,0-1.49,0-2.98,0-4.8-26.25-15.24-52.42-30.43-79.22-45.99.09-1.7-.16-3.73.36-5.53,1.99-6.86,3.99-13.73,6.43-20.44,3.34-9.22,6.81-18.41,10.71-27.4,4.89-11.27,10.02-22.44,15.53-33.42,3.63-7.23,7.95-14.14,12.28-20.98,5.88-9.31,11.93-18.53,18.18-27.59,3.86-5.6,8.17-10.89,12.4-16.23,4.62-5.83,9.11-11.8,14.12-17.28,10.1-11.03,20.09-22.19,31.58-31.86,4.24-3.57,8.16-7.51,12.29-11.21,1.81-1.62,3.76-3.11,5.71-4.57,9.72-7.26,19.43-14.54,29.22-21.72,4.39-3.22,8.78-6.49,13.44-9.29,7.02-4.22,14.22-8.14,21.44-12,7.72-4.12,15.52-8.11,23.35-12,8.01-3.98,16.07-7.86,24.52-10.89,8.85-3.17,17.6-6.59,26.47-9.69,3.92-1.37,8.03-2.19,12.03-3.32,4.39-1.25,8.72-2.72,13.14-3.83,5.25-1.32,10.57-2.42,15.88-3.51,6.45-1.33,12.92-2.6,19.4-3.8,1.62-.3,3.31-.2,5.34-.3.27,1.76.63,3.08.64,4.41.06,6.75.04,13.5.04,20.25,0,15.44.03,30.88-.01,46.33-.02,5.99-.19,11.99-.32,17.98-.01.62-.21,1.24-.39,2.19-17.8,3.88-35.54,8.15-52.56,14.96-4.54,1.78-9.13,3.41-13.59,5.36-7.45,3.25-14.91,6.5-22.19,10.11-5.53,2.74-10.89,5.86-16.14,9.11-8.61,5.34-17.25,10.66-25.53,16.47-6.88,4.83-13.29,10.35-19.88,15.6-3.92,3.13-7.95,6.15-11.63,9.54-4.64,4.28-9.05,8.81-13.41,13.37-4.49,4.69-8.88,9.49-13.18,14.36-2.46,2.79-4.63,5.83-6.95,8.75-2.84,3.57-5.82,7.04-8.53,10.71-3.17,4.29-6.22,8.7-9.15,13.16-3.62,5.51-7.22,11.06-10.55,16.75-2.67,4.58-4.94,9.39-7.37,14.11-2.45,4.74-4.99,9.44-7.28,14.26-2.08,4.4-3.95,8.9-5.77,13.42-2.14,5.32-4.31,10.65-6.13,16.09-2,5.96-3.6,12.06-5.39,18.09-1.6,5.38-3.32,10.72-4.78,16.14-.6,2.23-.66,4.61-1.02,7.33,5.08,1.07,9.93,2.1,14.6,3.08,0,6.27,0,11.79,0,17.31,0,23.81,0,47.61,0,71.42,0,.64.07,1.28.11,1.92h-18.02Z"/>
      <path class="cls-2" d="M267.1,387.21c-6.81,1.91-13.1,3.68-19.41,5.45v662.19c-23.85,13.98-46.9,28.99-68.66,45.52-2.48-.67-1.99-2.41-2-3.8-.05-8.04-.04-16.09-.04-24.13,0-211.62,0-423.24,0-634.86,0-1.29-.17-2.61.09-3.85.2-.96.72-2.17,1.48-2.64,4.62-2.85,9.35-5.52,14.06-8.24,7.12-4.12,14.25-8.22,21.38-12.33,8.41-4.85,16.83-9.68,25.24-14.54,1.85-1.07,3.66-2.22,5.93-3.6.2-1.38.63-3.02.65-4.67.08-6.3.03-12.61.03-18.91,0-17.05-.06-34.11.05-51.16.14-22.18.39-44.36.65-66.53.03-2.47-.66-4.47-2.08-6.54-7.46-10.91-14.83-21.89-22.08-32.95-5.14-7.83-10.03-15.82-15.18-23.98,16.56-62.07,33.19-124.42,50.06-187.65,1.04,1.13,1.85,1.62,2.02,2.27,2.39,9.19,4.63,18.41,7.04,27.59,1.19,4.53,2.69,8.98,3.98,13.49.82,2.86,1.55,5.75,2.28,8.64,1.81,7.21,3.57,14.43,5.38,21.63,2.1,8.37,4.16,16.74,6.39,25.07,1.49,5.55,3.38,11,4.84,16.56,1.57,5.98,2.74,12.06,4.27,18.04,3.2,12.5,6.53,24.97,9.79,37.46,1.35,5.15,2.76,10.28,3.93,15.46.25,1.1-.17,2.61-.79,3.61-3.38,5.43-6.88,10.8-10.42,16.13-6.09,9.17-12.22,18.3-18.36,27.43-2.45,3.64-4.82,7.34-7.53,10.78-2,2.54-2.63,5.27-2.63,8.36.02,22.95,0,45.91,0,68.86,0,20.16.03,40.33.02,60.49,0,1.67-.24,3.34-.4,5.32Z"/>
      <path class="cls-2" d="M511.38,988.31c1.06,28.39-.14,56.45.63,84.48.05,1.76-.63,3.54-1.04,5.7-3.31.63-6.48,1.36-9.7,1.8-3.87.54-7.8.69-11.67,1.28-4.63.71-9.21,1.74-13.82,2.58-4.29.78-8.61,1.45-12.9,2.25-3.35.62-6.69,1.27-10,2.06-3.69.88-7.35,1.92-11.01,2.92-7.29,1.98-14.6,3.89-21.85,6.01-7.38,2.15-14.75,4.4-22.04,6.82-5.86,1.95-11.62,4.21-17.41,6.36-5,1.86-10.06,3.59-14.97,5.68-9.52,4.05-19.02,8.15-28.39,12.52-8.02,3.74-16.05,7.56-23.74,11.93-12.16,6.91-24.17,14.11-35.99,21.58-8.49,5.36-16.66,11.25-24.8,17.13-8.2,5.93-16.29,12.02-24.23,18.3-5.42,4.29-10.54,8.97-15.69,13.6-4.61,4.15-8.72,8.91-13.65,12.6-8.14,6.1-14.4,14.05-21.79,20.88-4.9,4.53-8.82,10.1-13.24,15.15-3.09,3.53-6.4,6.88-9.41,10.48-3.42,4.08-6.64,8.32-9.9,12.53-3.78,4.87-7.6,9.71-11.25,14.68-3.78,5.16-7.43,10.41-11.04,15.69-3.5,5.1-6.96,10.23-10.29,15.44-3.85,6.02-7.7,12.04-11.24,18.24-3.81,6.67-7.27,13.53-10.88,20.31-2.6,4.89-5.38,9.69-7.75,14.69-2.88,6.07-5.38,12.31-8.11,18.45-1.46,3.28-3.1,6.47-4.6,9.73-1.05,2.31-2.07,4.64-2.96,7.01-2.03,5.39-3.93,10.84-6,16.22-.83,2.15-1.97,4.18-3.26,6.89-2.42-2.23-4.43-4.03-6.39-5.88-9-8.5-16.01-18.49-22.58-28.95-5.84-9.28-10.33-19.14-14.56-29.16-2.03-4.8-4.06-9.64-5.49-14.64-1.64-5.77-2.29-11.82-3.96-17.57-1.57-5.42.31-9.72,2.8-14.22,3.51-6.34,6.54-12.95,10.09-19.27,3.71-6.59,7.81-12.96,11.73-19.43,2.77-4.57,5.38-9.25,8.34-13.7,5.31-8,10.73-15.93,16.26-23.77,4.97-7.05,10-14.07,15.29-20.88,4.75-6.13,9.89-11.96,14.86-17.92,5.31-6.38,10.52-12.84,15.96-19.11,2.73-3.15,5.94-5.88,8.82-8.9,1.28-1.34,2.3-2.94,3.36-4.33,5.91-6.18,11.77-12.3,17.64-18.43.37-.38.71-.81,1.14-1.12,7.95-5.77,14.71-12.92,22.13-19.3,7.04-6.07,14.24-11.95,21.49-17.77,7.41-5.95,14.87-11.83,22.46-17.55,4.76-3.59,9.76-6.85,14.69-10.2,7.07-4.8,14.1-9.66,21.29-14.26,6.47-4.14,13.09-8.03,19.72-11.9,6.98-4.07,13.96-8.14,21.09-11.92,7.53-4,15.19-7.73,22.86-11.46,9.49-4.61,18.95-9.3,28.6-13.55,7.19-3.17,14.65-5.73,22.02-8.49,7.6-2.84,15.2-5.69,22.86-8.35,6.53-2.27,13.12-4.36,19.72-6.39,6.17-1.9,12.38-3.7,18.61-5.37,5.56-1.49,11.19-2.73,16.78-4.09,6.09-1.49,12.14-3.16,18.28-4.45,5.61-1.18,11.3-1.94,16.95-2.94,5.12-.91,10.21-2.03,15.34-2.81,5.86-.89,11.76-1.49,17.63-2.24,4.1-.53,8.19-1.17,12.3-1.63,1.74-.19,3.52-.03,5.84-.03Z"/>
      <path class="cls-2" d="M511.7,1187.41c-5.61.91-10.41,1.68-15.21,2.47-3.26.53-6.56.9-9.76,1.65-7.78,1.81-15.56,3.67-23.27,5.76-8.12,2.2-16.19,4.59-24.22,7.1-6.82,2.13-13.56,4.49-20.3,6.89-3.72,1.32-7.41,2.77-10.99,4.41-11.47,5.25-23.01,10.36-34.27,16.02-8.39,4.21-16.49,9.02-24.53,13.89-8.74,5.29-17.45,10.69-25.83,16.54-9.02,6.29-17.78,12.97-26.38,19.82-6.28,5.01-12.25,10.43-18.1,15.94-9.55,8.99-19,18.09-28.25,27.39-3.66,3.68-6.61,8.05-10.01,12-2.49,2.89-5.32,5.5-7.75,8.44-3.19,3.86-6.17,7.9-9.17,11.91-4.21,5.65-8.44,11.28-12.5,17.04-3.07,4.35-6.05,8.77-8.77,13.34-5.18,8.71-10.26,17.48-15.16,26.35-4.34,7.85-8.67,15.73-12.45,23.85-4.19,8.98-7.79,18.23-11.55,27.41-.55,1.35-.59,2.91-.9,4.56-5.91,9.54-7.13,21.07-11.4,31.94-2.13-.95-3.88-1.66-5.57-2.48-7.54-3.67-14.38-8.55-21.67-12.65-9.21-5.18-18.58-10.1-27.61-15.59-7.47-4.55-14.56-9.73-21.76-14.71-.93-.65-1.56-1.74-2.69-3.04,1.29-4.06,2.57-8.33,4.02-12.54,1.63-4.73,3.35-9.42,5.14-14.09.95-2.47,2.12-4.86,3.23-7.27,3.4-7.43,6.89-14.82,10.2-22.29,2.15-4.85,4.04-9.81,6.03-14.7.95-1.3,2.07-2.55,2.86-3.99,3.17-5.82,6.26-11.68,9.34-17.55,1.73-3.29,3.21-6.71,5.11-9.89,2.08-3.46,4.6-6.65,6.79-10.05,4.11-6.37,7.95-12.91,12.21-19.17,3.41-5,7.3-9.68,10.92-14.54,2.03-2.73,3.84-5.62,5.93-8.29,3.79-4.85,7.71-9.59,11.59-14.37,2.89-3.56,5.71-7.2,8.72-10.65,3.34-3.82,6.85-7.49,10.31-11.2,5.77-6.18,11.44-12.47,17.39-18.48,5.55-5.61,11.32-11,17.15-16.31,5.11-4.66,10.43-9.08,15.67-13.6,3.18-2.74,6.25-5.64,9.59-8.17,4.58-3.45,9.43-6.56,14.09-9.93,4.41-3.19,8.6-6.69,13.08-9.77,5.96-4.09,12.09-7.94,18.19-11.83,5.94-3.78,11.88-7.56,17.92-11.18,3.66-2.2,7.53-4.04,11.25-6.14,1.66-.94,3.13-2.23,4.79-3.17,1.87-1.06,3.85-1.91,5.79-2.83,10.31-4.87,20.55-9.9,30.97-14.54,15.59-6.95,31.65-12.71,47.83-18.15,6.47-2.17,12.9-4.44,19.43-6.43,3.77-1.15,7.69-1.83,11.54-2.72,7.36-1.69,14.71-3.45,22.09-5.04,6.8-1.47,13.64-2.78,20.47-4.14,3.44-.68,6.88-1.35,10.33-1.95,1.22-.21,2.49-.21,3.7-.66,5.11-.47,10.22-.93,15.73-1.43.25,2.23.57,3.78.58,5.33.08,24.99.12,49.97.16,74.96,0,3.26-.05,6.51-.09,10.54Z"/>
      <path class="cls-2" d="M46.42,519.63c1.31-1.31,2.94-2.43,3.87-3.97,2.29-3.8,5.92-6.25,8.88-9.35,2.64-2.76,5.67-5.15,8.56-7.66.6-.52,1.34-.87,2.54-1.63.39,1.55.84,2.59.88,3.65.11,2.57.03,5.15.03,7.72,0,229.86,0,459.72,0,689.57,0,1.61,0,3.21,0,4.82-.17-.09-.34-.19-.51-.28-12.1,16.22-24.67,32.12-36.18,48.75-11.43,16.51-21.79,33.76-33.02,50.62-.95-3.64-1.75-7.18-1.38-10.88.22-2.23.51-4.47.51-6.71.03-204.22.04-408.44.05-612.67,0-13.62-.14-27.25.07-40.86.07-4.44,1.01-8.87,1.65-13.29.64-4.42,1.24-8.87,2.17-13.23,2.63-12.33,6.19-24.41,11.53-35.85,3.79-8.12,7.76-16.2,12.23-23.96,3.11-5.41,7.2-10.25,10.89-15.33,2.34-3.23,4.74-6.41,7.11-9.62.04.05.07.1.11.14Z"/>
      <path class="cls-2" d="M88.64,483.13c9.4-5.52,18.55-10.96,27.77-16.3,10.62-6.15,21.29-12.21,31.94-18.3,3-1.72,6.01-3.43,9.66-5.51.34,2.02.69,3.21.7,4.39.06,5.68.04,11.37.04,17.05,0,214.62,0,429.25,0,643.87,0,9.24-.04,9.2-7.09,14.25-2.77,1.98-5.49,4.08-8.02,6.36-4.99,4.5-9.81,9.18-14.74,13.75-4.46,4.13-9.06,8.12-13.43,12.35-6,5.8-11.89,11.73-17.75,17.68-1.26,1.28-2.2,2.87-3.31,4.31-1.3,1.69-2.71,3.24-5.51,3.91-.27-1.65-.68-3.04-.7-4.44-.07-6.11-.04-12.23-.04-18.34,0-222.13,0-444.26.02-666.4,0-2.65.26-5.31.44-8.63Z"/>
      <path class="cls-2" d="M511.07,803.51c-2.5-1.32-3.37-3.53-4.43-5.55-3.02-5.76-5.49-11.87-9.07-17.24-5.58-8.36-11.97-16.16-17.89-24.3-6.21-8.54-14.11-15.5-21.73-22.62-5.97-5.57-12.67-10.49-19.55-14.94-10.97-7.08-22.3-13.61-33.57-20.21-10.93-6.41-22.01-12.58-32.97-18.93-4.8-2.78-9.41-5.86-14.23-8.59-8.16-4.61-16.49-8.93-24.63-13.6-8.03-4.61-15.89-9.5-23.84-14.25-5.49-3.28-10.95-6.6-16.5-9.78-7.29-4.18-14.66-8.21-21.97-12.36-1.76-1-3.39-2.22-5.46-3.59-.19-1.28-.62-2.84-.62-4.39-.04-31.2-.04-62.41,0-93.61,0-1.34.34-2.69.56-4.3,3.14,1.45,6.01,2.51,8.63,4.02,10.15,5.87,20.21,11.9,30.33,17.83,8.35,4.89,16.75,9.7,25.12,14.56,8.02,4.65,16.02,9.33,24.04,13.97,13.1,7.58,26.19,15.16,39.31,22.68,7.65,4.39,15.43,8.54,23,13.05,5.4,3.22,10.64,6.75,15.79,10.36,5.05,3.55,10.06,7.19,14.8,11.14,3.51,2.93,6.68,6.3,9.78,9.67,5.91,6.44,11.93,12.82,17.4,19.62,3.76,4.68,6.76,9.98,9.97,15.08,2.27,3.61,4.51,7.27,6.42,11.08,2.87,5.72,5.48,11.57,8.11,17.4,1.57,3.47,3.19,6.94,4.4,10.54,1.34,4.03,2.32,8.19,3.31,12.33,1.33,5.57,2.71,11.14,3.72,16.78.79,4.39,1.26,8.86,1.52,13.32.47,8,.77,16.01.97,24.02.2,8,.25,16,.21,24,0,2.17-.56,4.35-.9,6.8Z"/>
      <path class="cls-2" d="M265.19,392.26c3.73,1.73,6.66,2.94,9.45,4.42,5.18,2.74,10.33,5.54,15.39,8.5,5.08,2.98,9.98,6.27,15.07,9.25,4.95,2.89,10.07,5.49,15.05,8.33,3.89,2.22,7.65,4.67,11.53,6.92,6.37,3.69,12.83,7.23,19.18,10.96,7.45,4.38,14.79,8.94,22.24,13.31,3.77,2.21,7.7,4.16,11.54,6.27,1.16.64,2.21,1.45,3.36,2.13,6.54,3.85,13.09,7.7,19.64,11.52,5.48,3.2,11.13,6.12,16.41,9.6,5.59,3.68,11.06,7.63,16.2,11.92,6.96,5.8,13.7,11.89,20.27,18.14,3,2.85,5.28,6.44,8.01,9.58,6.41,7.38,11.94,15.39,16.66,23.91,4.18,7.55,8.96,14.79,11.66,23.13,1.86,5.77,4.74,11.24,6.33,17.07,2.22,8.16,4.87,16.18,6.03,24.69,1.36,9.97,2.37,19.89,2.3,29.94-.05,7.07,0,14.14,0,21.22,0,4.56-.03,9.11-.09,13.67-.01.8-.22,1.61-.39,2.79-2.62-1.63-3.45-4.14-4.69-6.23-3.09-5.21-5.66-10.75-9.02-15.77-5.58-8.33-11.32-16.58-17.54-24.44-4.89-6.18-10.41-11.89-15.99-17.47-3.37-3.37-7.39-6.1-11.11-9.13-3.75-3.04-7.34-6.3-11.27-9.08-4.7-3.32-9.62-6.34-14.55-9.32-5.31-3.2-10.76-6.17-16.12-9.3-9.64-5.64-19.2-11.42-28.89-16.96-9.45-5.41-19.07-10.51-28.53-15.9-6.67-3.8-13.15-7.92-19.78-11.79-6.61-3.87-13.33-7.56-19.95-11.41-8.67-5.04-17.29-10.18-25.95-15.24-3.49-2.04-7.06-3.95-10.56-5.98-3.67-2.13-7.38-4.23-10.9-6.59-.86-.58-1.43-2.1-1.52-3.24-.22-2.77-.09-5.57-.09-8.36,0-28.1,0-56.2.03-84.3,0-1.97.34-3.95.59-6.74Z"/>
      <path class="cls-2" d="M510.23,925.95c-1.27-2.12-2.71-4.15-3.78-6.36-4.83-10.05-10.78-19.4-17.46-28.31-2.82-3.76-5.51-7.6-8.27-11.4-.25-.35-.47-.73-.77-1.02-8.42-8.31-16.45-17.07-25.38-24.79-7.84-6.79-16.28-12.95-25.48-18.01-9.71-5.33-19.1-11.24-28.67-16.81-7.47-4.35-15.05-8.51-22.53-12.85-8.31-4.83-16.52-9.83-24.86-14.62-8.23-4.73-16.59-9.22-24.84-13.92-5.64-3.21-11.13-6.67-16.75-9.91-7.67-4.43-15.41-8.72-23.08-13.15-4.62-2.66-9.15-5.48-13.74-8.2-3.28-1.94-6.6-3.82-9.82-5.67v-101.65c1.5.28,2.79.21,3.73.74,6.66,3.74,13.24,7.61,19.87,11.41,6.95,3.98,13.94,7.87,20.87,11.87,8.24,4.76,16.43,9.6,24.66,14.38,6.65,3.86,13.34,7.66,19.97,11.55,5.97,3.5,11.85,7.13,17.83,10.6,3.4,1.97,6.99,3.64,10.39,5.61,4.86,2.81,9.61,5.83,14.46,8.66,3.96,2.3,8.12,4.27,12,6.7,10.03,6.28,20.24,12.33,29.82,19.25,6.6,4.77,12.36,10.73,18.3,16.37,3.86,3.67,7.66,7.48,10.96,11.65,4.86,6.15,9.42,12.55,13.77,19.07,2.83,4.25,4.83,9.06,7.61,13.35,4.36,6.75,7.09,14.23,10.1,21.58,3.48,8.52,6.03,17.32,7.68,26.39.66,3.66,1.78,7.24,2.39,10.91.71,4.31,1.37,8.65,1.57,13.01.48,10.58.8,21.18.97,31.78.1,6.28-.18,12.57-.32,18.85-.02.9-.23,1.79-.35,2.68-.28.09-.57.19-.85.28Z"/>
      <path class="cls-2" d="M505.56,970.6c-4.64.79-9.23,1.61-13.83,2.34-4.47.7-8.95,1.31-13.43,1.94-4.86.68-9.72,1.31-14.58,2-1.58.22-3.13.63-4.71.81-3.92.45-6.67-1.91-9.41-4.13-8.75-7.09-18.06-13.32-27.93-18.76-6.82-3.76-13.43-7.9-20.2-11.75-10.46-5.96-21.03-11.73-31.46-17.74-7.4-4.26-14.63-8.82-21.99-13.15-5.05-2.97-10.24-5.69-15.29-8.66-7.52-4.42-14.92-9.05-22.45-13.44-5.34-3.11-10.86-5.93-16.24-8.98-5.36-3.04-10.65-6.22-15.98-9.32-3.23-1.88-6.45-3.79-9.77-5.52-2.56-1.33-3.76-3.2-3.76-6.13.04-31.53.02-63.06.06-94.59,0-1.29.41-2.57.66-4.07,3.14,1.57,5.84,2.77,8.39,4.22,8.63,4.89,17.22,9.83,25.8,14.8,10.04,5.83,20.06,11.69,30.07,17.57,9.48,5.56,18.91,11.2,28.41,16.73,5.27,3.07,10.66,5.93,15.95,8.96,5.28,3.03,10.49,6.17,15.74,9.23,5.6,3.26,11.18,6.55,16.84,9.7,9.57,5.33,19,10.86,27.68,17.59,4.6,3.57,9.32,6.99,13.87,10.62,2.06,1.65,3.97,3.53,5.75,5.49,5.61,6.16,11.08,12.45,16.68,18.61,6.17,6.79,10.54,14.83,15.5,22.43,2.93,4.49,4.92,9.6,7.19,14.49,2.37,5.1,4.56,10.29,6.83,15.44,2.28,5.17,5.73,18.97,5.59,23.26Z"/>
      <path class="cls-2" d="M510.13,1314.35c1.05,4.36.84,7.85.41,11.32-.72,5.82-1.49,11.64-2.34,17.45-.19,1.31-.85,2.55-1.21,3.85-1.75,6.35-3.27,12.77-5.28,19.03-1.68,5.27-3.91,10.36-5.91,15.52-.65,1.68-1.27,3.39-2.07,5-2.8,5.62-5.53,11.29-8.59,16.76-1.9,3.4-4.43,6.44-6.56,9.71-5.4,8.27-12.02,15.5-18.5,22.91-7.89,9.01-17.11,16.41-26.36,23.76-5.81,4.62-12.37,8.35-18.78,12.16-9.15,5.44-18.5,10.56-27.73,15.86-10.55,6.06-21.08,12.14-31.58,18.27-7.64,4.46-15.19,9.07-22.84,13.52-7.64,4.45-15.34,8.82-23.03,13.17-4.63,2.62-9.36,5.09-13.96,7.76-4.9,2.85-9.66,5.92-14.56,8.77-3.58,2.08-7.26,3.98-10.92,5.9-.78.41-1.7.58-2.93.52,9.77-48.31,30.21-91.65,60.94-129.82,47.12-58.52,107.86-95.29,181.82-111.42Z"/>
      <path class="cls-2" d="M432.07,981.57c-1.32,1.03-1.84,1.72-2.49,1.89-8.58,2.17-17.25,4.02-25.75,6.45-11.72,3.34-23.35,7.01-34.96,10.73-8.01,2.56-15.97,5.33-23.87,8.21-6.61,2.41-13.17,4.99-19.65,7.74-9.02,3.83-18.03,7.69-26.88,11.9-10.29,4.9-20.4,10.19-30.59,15.29-.63.32-1.35.45-2.56.84-.28-1.83-.71-3.34-.72-4.87-.06-8.58-.02-17.15-.02-25.73,0-40.2-.01-80.4.01-120.6,0-2.52.3-5.04.49-8.09,1.65.58,2.78.81,3.74,1.35,3.98,2.22,7.88,4.56,11.84,6.81,4.89,2.77,9.85,5.44,14.72,8.25,6.9,3.99,13.71,8.12,20.61,12.12,6.09,3.53,12.25,6.92,18.34,10.45,10.15,5.88,20.26,11.84,30.42,17.71,5.18,2.99,10.48,5.79,15.65,8.8,5.16,3,10.2,6.23,15.36,9.24,4.78,2.79,9.73,5.31,14.48,8.15,7.1,4.23,14.11,8.64,21.82,13.38Z"/>
    </g>
    <g>
      <path class="cls-2" d="M994.2,1112.88l-9.61-129.72h-74.95l-10.57,129.72h-185.46l96.09-722.61h267.13l99.94,722.61h-182.58ZM943.27,522.88l-9.61,144.14-13.45,187.38h52.85l-13.45-188.34-9.61-143.18h-6.73Z"/>
      <path class="cls-2" d="M1228.65,1112.88V390.27h183.54v577.51h111.47v145.1h-295Z"/>
      <path class="cls-2" d="M1969.03,771.76l32.67-208.52,28.83-172.96h221.97v722.61h-167.2v-363.23h-4.81l-28.83,132.61-32.67,125.88h-108.58l-35.55-128.76-29.79-123.96h-4.8v357.46h-172V390.27h211.4l37.48,169.12,44.2,212.36h7.69Z"/>
      <path class="cls-2" d="M2592.66,1112.88l-9.61-129.72h-74.95l-10.57,129.72h-185.46l96.09-722.61h267.13l99.94,722.61h-182.57ZM2541.73,522.88l-9.61,144.14-13.45,187.38h52.85l-13.45-188.34-9.61-143.18h-6.73Z"/>
      <path class="cls-2" d="M3098.08,728.52v-338.24h167.2v722.61h-174.89l-51.89-190.26-37.48-151.83h-5.77v342.09h-168.16V390.27h168.16l53.81,181.61,43.24,156.63h5.77Z"/>
      <path class="cls-2" d="M3344.07,1112.88V390.27h183.54v722.61h-183.54Z"/>
    </g>
    <g>
      <path class="cls-1" d="M822.39,1548.13v-136.47h-28.13v136.47h-80.2v-315.77h80.2v120.09h28.13v-120.09h80.2v315.77h-80.2Z"/>
      <path class="cls-1" d="M937.02,1548.13v-315.77h133.95v58.37h-53.75v61.73h50.39v59.21h-50.39v77.26h59.21v59.21h-139.41Z"/>
      <path class="cls-1" d="M1213.31,1548.13l-4.2-56.69h-32.75l-4.62,56.69h-81.04l41.99-315.77h116.73l43.67,315.77h-79.78ZM1191.06,1290.3l-4.2,62.99-5.88,81.88h23.09l-5.88-82.3-4.2-62.57h-2.94Z"/>
      <path class="cls-1" d="M1315.76,1548.13v-315.77h80.2v252.37h48.71v63.41h-128.91Z"/>
      <path class="cls-1" d="M1564.77,1290.72v257.4h-80.2v-257.4h-47.45v-58.37h175.1v58.37h-47.45Z"/>
      <path class="cls-1" d="M1743.65,1548.13v-136.47h-28.13v136.47h-80.2v-315.77h80.2v120.09h28.13v-120.09h80.2v315.77h-80.2Z"/>
      <path class="cls-1" d="M1954.85,1548.13v-315.77h80.2v315.77h-80.2Z"/>
      <path class="cls-1" d="M2187.48,1380.17v-147.81h73.06v315.77h-76.42l-22.68-83.14-16.38-66.35h-2.52v149.49h-73.48v-315.77h73.48l23.52,79.36,18.9,68.45h2.52Z"/>
      <path class="cls-1" d="M2471.33,1467.51c0,15.4-2.1,28.49-6.3,39.26-4.2,10.78-10.22,19.6-18.06,26.45-7.84,6.86-17.36,11.83-28.55,14.91-11.2,3.08-23.93,4.62-38.21,4.62-20.16,0-36.18-2.88-48.08-8.61-11.9-5.73-20.93-13.29-27.08-22.67-6.16-9.38-10.08-19.95-11.76-31.7-1.68-11.76-2.52-23.79-2.52-36.11v-21.83h74.32v40.31c0,3.08.14,6.16.42,9.24.28,3.08.91,6.02,1.89,8.82.98,2.8,2.45,5.04,4.41,6.72,1.96,1.68,4.47,2.52,7.56,2.52,3.36,0,6.09-.77,8.19-2.31,2.1-1.54,3.71-3.5,4.83-5.88,1.12-2.38,1.89-5.04,2.31-7.98s.63-5.81.63-8.61c0-8.67-.63-15.81-1.89-21.42-1.26-5.6-3.57-10.63-6.93-15.12-3.36-4.47-7.91-8.75-13.65-12.81-5.74-4.05-13.23-9.03-22.46-14.91-10.92-6.99-20.3-13.5-28.13-19.53-7.84-6.02-14.28-12.45-19.32-19.32-5.04-6.86-8.75-14.83-11.13-23.93-2.38-9.09-3.57-20.22-3.57-33.38,0-15.12,2.16-28.13,6.51-39.05,4.34-10.92,10.5-19.87,18.48-26.87,7.98-6.99,17.43-12.18,28.34-15.54s23.09-5.04,36.53-5.04c19.32,0,34.71,2.66,46.19,7.98,11.48,5.32,20.22,12.18,26.24,20.58,6.02,8.4,9.93,17.85,11.76,28.34,1.82,10.5,2.73,21.07,2.73,31.7v18.05h-74.74v-28.13c0-6.44-.84-12.24-2.52-17.43-1.68-5.18-5.32-7.77-10.92-7.77s-9.24,2.38-10.92,7.14c-1.68,4.76-2.52,9.66-2.52,14.7,0,8.12.98,14.77,2.94,19.95,1.96,5.18,4.97,9.8,9.03,13.86,4.05,4.06,9.24,8.05,15.54,11.97,6.3,3.92,13.92,8.68,22.89,14.28,12.87,8.12,23.09,15.75,30.65,22.88s13.37,14.56,17.43,22.26c4.05,7.7,6.65,16.31,7.77,25.82,1.12,9.52,1.68,20.72,1.68,33.59Z"/>
      <path class="cls-1" d="M2614.1,1290.72v257.4h-80.2v-257.4h-47.45v-58.37h175.1v58.37h-47.45Z"/>
      <path class="cls-1" d="M2684.64,1548.13v-315.77h80.2v315.77h-80.2Z"/>
      <path class="cls-1" d="M2914.32,1290.72v257.4h-80.2v-257.4h-47.45v-58.37h175.1v58.37h-47.45Z"/>
      <path class="cls-1" d="M3168.78,1231.94v231.37c0,18.2-2.8,33.11-8.4,44.72-5.6,11.62-12.81,20.72-21.63,27.29-8.82,6.58-18.69,11.13-29.6,13.65-10.92,2.52-21.83,3.78-32.75,3.78-17.64,0-32.4-2.31-44.3-6.93-11.9-4.62-21.41-11.27-28.55-19.95-7.14-8.67-12.25-19.03-15.33-31.07-3.08-12.03-4.62-25.62-4.62-40.73v-222.13h80.2v241.87c0,2.52.07,5.25.21,8.19.14,2.94.63,5.6,1.47,7.98.84,2.38,2.17,4.34,3.99,5.88,1.82,1.54,4.26,2.31,7.35,2.31,2.79,0,4.97-.77,6.51-2.31,1.54-1.54,2.73-3.5,3.57-5.88.84-2.38,1.32-5.04,1.47-7.98.14-2.94.21-5.67.21-8.19v-241.87h80.2Z"/>
      <path class="cls-1" d="M3317.43,1290.72v257.4h-80.2v-257.4h-47.45v-58.37h175.1v58.37h-47.45Z"/>
      <path class="cls-1" d="M3387.97,1548.13v-315.77h133.95v58.37h-53.75v61.73h50.39v59.21h-50.39v77.26h59.21v59.21h-139.41Z"/>
    </g>
  </g>
</svg>