<svg id="Layer_1" height="512" viewBox="0 0 64 64" width="512" xmlns="http://www.w3.org/2000/svg" data-name="Layer 1"><path d="m34 7h19v30h-19z" fill="#f2f2f2" transform="matrix(-1 0 0 -1 87 44)"/><path d="m11 27h19v30h-19z" fill="#f2f2f2"/><path d="m52 43a9.31 9.31 0 0 0 -1.59.15l-8.41-12.15 3.65 14.62a9 9 0 1 0 6.35-2.62z" fill="#fc6"/><path d="m46.93 7 3-6 12.61 5.28-4.15 7.62a2.92 2.92 0 0 0 -.39 1.45v4.83a3 3 0 0 1 -1.76 2.74l-5.74 2.63a2.29 2.29 0 0 1 -2-4.11l4.5-2.78v-11.66z" fill="#ffd199"/><path d="m17.07 57-3 6-12.61-5.28 4.15-7.62a2.92 2.92 0 0 0 .39-1.45v-4.83a3 3 0 0 1 1.76-2.74l5.74-2.63a2.29 2.29 0 0 1 2 4.11l-4.5 2.78v11.66z" fill="#ffd199"/><path d="m12 21a9.31 9.31 0 0 0 1.59-.15l8.41 12.15-3.65-14.62a9 9 0 1 0 -6.35 2.62z" fill="#b3d4ff"/><path d="m7 10.5h3.5v-3.5h3v3.5h3.5v3h-3.5v3.5h-3v-3.5h-3.5z" fill="#ff7375"/><path d="m6.48 50.59a3.87 3.87 0 0 0 .52-1.94v-4.83a2 2 0 0 1 1.16-1.82l3.26-1.49 2.4-1.11a1.3 1.3 0 0 1 1.72 1.22 1.3 1.3 0 0 1 -.61 1.1l-4.46 2.78a1 1 0 0 0 -.47.85v11.65a1 1 0 0 0 1 1h4.45l-2.27 4.55 1.78.9 2.73-5.45h12.31a1 1 0 0 0 1-1v-30a1 1 0 0 0 -1-1h-8.72l-1.83-7.33a10 10 0 1 0 -7.45 3.33 8.53 8.53 0 0 0 1.12-.07l2.82 4.07h-4.94a1 1 0 0 0 -1 1v12l-2.68 1.17a4 4 0 0 0 -2.32 3.65v4.83a1.9 1.9 0 0 1 -.25 1l-4.17 7.59 1.76 1zm7.93-30.31a1 1 0 0 0 -.82-.43h-.18a7.87 7.87 0 0 1 -1.41.15 8 8 0 1 1 5.64-2.33 1 1 0 0 0 -.26.95l2.32 9.3zm-2.41 7.72h5.32l3.86 5.57a1 1 0 0 0 1.82-.81l-1.22-4.76h7.22v28h-17v-10.11l4-2.48a3.3 3.3 0 0 0 -2.93-5.87l-1.07.46z"/><path d="m57.52 13.41a3.87 3.87 0 0 0 -.5 1.94v4.83a2 2 0 0 1 -1.18 1.82l-3.26 1.5-2.4 1.11a1.3 1.3 0 0 1 -1.72-1.22 1.3 1.3 0 0 1 .61-1.1l4.46-2.78a1 1 0 0 0 .47-.85v-11.66a1 1 0 0 0 -1-1h-4.45l2.27-4.55-1.82-.9-2.69 5.45h-12.31a1 1 0 0 0 -1 1v30a1 1 0 0 0 1 1h8.72l1.83 7.33a10 10 0 1 0 7.45-3.33 8.53 8.53 0 0 0 -1.12.07l-2.82-4.07h4.94a1 1 0 0 0 1-1v-11.95l2.68-1.22a4 4 0 0 0 2.32-3.65v-4.83a1.9 1.9 0 0 1 .25-1l4.15-7.62-1.76-1zm-7.93 30.31a1 1 0 0 0 1 .41 7.87 7.87 0 0 1 1.41-.13 8 8 0 1 1 -5.64 2.33 1 1 0 0 0 .26-.95l-2.32-9.3zm2.41-7.72h-5.32l-3.86-5.57a1 1 0 0 0 -1.79.81l1.19 4.76h-7.22v-28h17v10.11l-4 2.48a3.3 3.3 0 0 0 2.93 5.87l1.07-.46z"/><path d="m18 13.5v-3a1 1 0 0 0 -1-1h-2.5v-2.5a1 1 0 0 0 -1-1h-3a1 1 0 0 0 -1 1v2.5h-2.5a1 1 0 0 0 -1 1v3a1 1 0 0 0 1 1h2.5v2.5a1 1 0 0 0 1 1h3a1 1 0 0 0 1-1v-2.5h2.5a1 1 0 0 0 1-1zm-2-1h-2.5a1 1 0 0 0 -1 1v2.5h-1v-2.5a1 1 0 0 0 -1-1h-2.5v-1h2.5a1 1 0 0 0 1-1v-2.5h1v2.5a1 1 0 0 0 1 1h2.5z"/><path d="m52.5 55h-1a1 1 0 0 1 -1-1h-2a3 3 0 0 0 2.5 3v1h2v-1a3 3 0 0 0 -.5-6h-1a1 1 0 0 1 0-2h1a1 1 0 0 1 1 1h2a3 3 0 0 0 -2.5-3v-1h-2v1a3 3 0 0 0 .5 6h1a1 1 0 0 1 0 2z"/><path d="m17 45h9v2h-9z"/><path d="m15 50h11v2h-11z"/><path d="m38 17h9v2h-9z" transform="matrix(-1 0 0 -1 85 36)"/><path d="m38 12h11v2h-11z" transform="matrix(-1 0 0 -1 87 26)"/></svg>