<svg id="Icon" height="512" viewBox="0 0 64 64" width="512" xmlns="http://www.w3.org/2000/svg"><path d="m3 38.359h10.254v19.392h-10.254z" fill="#66bb6a"/><path d="m13.25433 40.3592v-2h-10.25433v19.39185h2v-9.13752c0-4.55874 3.69559-8.25433 8.25433-8.25433z" fill="#42a047"/><path d="m13.25434 54.80673c1.11681.7107 22.13312 6.19321 22.13312 6.19321l22.9522-10.22163c2.40637-1.07166 3.37441-3.97731 2.0916-6.27806-1.01974-1.82892-3.16979-2.70821-5.17887-2.11797l-16.71756 4.91137c0-2.71208-1.77804-5.10342-4.37523-5.88439l-10.14328-3.05008-10.76197 3.65501v12.79253z" fill="#fecc81"/><path d="m60.33966 48.77833-15.13014 6.73811c-5.08484 2.2645-10.79115 2.71542-16.16744 1.27354-.81126-.21758-1.64344-.44168-2.47762-.66757-6.67654-1.80798-11.31013-7.87047-11.31013-14.78748s-2 .67925-2 .67925v12.79254c1.11682.71069 22.13312 6.19324 22.13312 6.19324l22.95221-10.22162c.99213-.44183 1.72223-1.20319 2.1684-2.09766-.05896.02936-.1076.07056-.1684.09766z" fill="#faa629"/><path d="m19.81495 4.12253-.77479 2.38456c-.21749.66938-.84128 1.12258-1.5451 1.12258h-2.50727c-1.57381 0-2.22816 2.0139-.95493 2.93896l2.02842 1.47374c.56941.4137.80767 1.147.59018 1.81638l-.77479 2.38456c-.48633 1.49678 1.2268 2.74144 2.50003 1.81638l2.02842-1.47374c.56941-.4137 1.34045-.4137 1.90985 0l2.02842 1.47374c1.27324.92506 2.98636-.3196 2.50003-1.81638l-.77479-2.38456c-.21749-.66938.02077-1.40268.59018-1.81638l2.02842-1.47374c1.27324-.92506.61888-2.93896-.95493-2.93896h-2.50727c-.70383 0-1.32761-.4532-1.5451-1.12258l-.77479-2.38456c-.48633-1.49678-2.60388-1.49678-3.09021 0z" fill="#ffcb29"/><path d="m24.34003 18.05994-2.03003-1.47003c-.56-.41998-1.34003-.41998-1.90002 0l-2.02997 1.47003c-1.28003.91998-2.98999-.32001-2.5-1.82001l.77002-2.38c.21997-.66998-.02002-1.40002-.59003-1.82001l-2.02997-1.46997c-1.27002-.92999-.62006-2.94.95996-2.94h2.51001c.08002 0 .15002-.01001.22998-.02002 1.57001 2.15997 4.14001 4.53998 8.27002 5.89001.01001.12.03003.23999.07001.35999l.77002 2.38c.48999 1.5-1.22003 2.73999-2.5 1.82001z" fill="#fcb316"/><path d="m9.45563 19.56955-.77479 2.38456c-.21749.66938-.84128 1.12258-1.5451 1.12258h-2.50727c-1.57381 0-2.22816 2.0139-.95493 2.93896l2.02842 1.47374c.56941.4137.80767 1.147.59018 1.81638l-.77479 2.38456c-.48633 1.49678 1.2268 2.74144 2.50003 1.81638l2.02842-1.47374c.56941-.4137 1.34045-.4137 1.90985 0l2.02842 1.47374c1.27324.92506 2.98636-.3196 2.50003-1.81638l-.77479-2.38456c-.21749-.66938.02077-1.40268.59018-1.81638l2.02842-1.47374c1.27324-.92506.61888-2.93896-.95493-2.93896h-2.50727c-.70383 0-1.32761-.4532-1.5451-1.12258l-.77479-2.38456c-.48633-1.49678-2.60388-1.49678-3.09021 0z" fill="#ffcb29"/><path d="m13.98071 33.50697-2.03003-1.47003c-.56-.41998-1.34003-.41998-1.90002 0l-2.02997 1.47003c-1.28003.91998-2.98999-.32001-2.5-1.82001l.77002-2.38c.21997-.66998-.02002-1.40002-.59003-1.82001l-2.02997-1.46997c-1.27002-.92999-.62006-2.94.95996-2.94h2.51001c.08002 0 .15002-.01001.22998-.02002 1.57001 2.15997 4.14001 4.53998 8.27002 5.89001.01001.12.03003.23999.07001.35999l.77002 2.38c.48999 1.5-1.22003 2.73999-2.5 1.82001z" fill="#fcb316"/><path d="m30.45563 19.56955-.77479 2.38456c-.21749.66938-.84128 1.12258-1.5451 1.12258h-2.50727c-1.57381 0-2.22816 2.0139-.95493 2.93896l2.02842 1.47374c.56941.4137.80767 1.147.59018 1.81638l-.77479 2.38456c-.48633 1.49678 1.2268 2.74144 2.50003 1.81638l2.02842-1.47374c.56941-.4137 1.34045-.4137 1.90985 0l2.02842 1.47374c1.27324.92506 2.98636-.3196 2.50003-1.81638l-.77479-2.38456c-.21749-.66938.02077-1.40268.59018-1.81638l2.02842-1.47374c1.27324-.92506.61888-2.93896-.95493-2.93896h-2.50727c-.70383 0-1.32761-.4532-1.5451-1.12258l-.77479-2.38456c-.48633-1.49678-2.60388-1.49678-3.09021 0z" fill="#ffcb29"/><path d="m34.98071 33.50697-2.03003-1.47003c-.56-.41998-1.34003-.41998-1.90002 0l-2.02997 1.47003c-1.28003.91998-2.98999-.32001-2.5-1.82001l.77002-2.38c.21997-.66998-.02002-1.40002-.59003-1.82001l-2.02997-1.46997c-1.27002-.92999-.62006-2.94.95996-2.94h2.51001c.08002 0 .15002-.01001.22998-.02002 1.57001 2.15997 4.14001 4.53998 8.27002 5.89001.01001.12.03003.23999.07001.35999l.77002 2.38c.48999 1.5-1.22003 2.73999-2.5 1.82001z" fill="#fcb316"/><path d="m51.45563 19.56955-.77479 2.38456c-.21749.66938-.84128 1.12258-1.5451 1.12258h-2.50727c-1.57381 0-2.22816 2.0139-.95493 2.93896l2.02842 1.47374c.56941.4137.80767 1.147.59018 1.81638l-.77479 2.38456c-.48633 1.49678 1.2268 2.74144 2.50003 1.81638l2.02842-1.47374c.56941-.4137 1.34045-.4137 1.90985 0l2.02842 1.47374c1.27324.92506 2.98636-.3196 2.50003-1.81638l-.77479-2.38456c-.21749-.66938.02077-1.40268.59018-1.81638l2.02842-1.47374c1.27324-.92506.61888-2.93896-.95493-2.93896h-2.50727c-.70383 0-1.32761-.4532-1.5451-1.12258l-.77479-2.38456c-.48633-1.49678-2.60388-1.49678-3.09021 0z" fill="#ffcb29"/><path d="m55.98071 33.50697-2.03003-1.47003c-.56-.41998-1.34003-.41998-1.90002 0l-2.02997 1.47003c-1.28003.91998-2.98999-.32001-2.5-1.82001l.77002-2.38c.21997-.66998-.02002-1.40002-.59003-1.82001l-2.02997-1.46997c-1.27002-.92999-.62006-2.94.95996-2.94h2.51001c.08002 0 .15002-.01001.22998-.02002 1.57001 2.15997 4.14001 4.53998 8.27002 5.89001.01001.12.03003.23999.07001.35999l.77002 2.38c.48999 1.5-1.22003 2.73999-2.5 1.82001z" fill="#fcb316"/><path d="m41.09558 4.12253-.77479 2.38456c-.21749.66938-.84128 1.12258-1.5451 1.12258h-2.50727c-1.57381 0-2.22816 2.0139-.95493 2.93896l2.02842 1.47374c.56941.4137.80767 1.147.59018 1.81638l-.77479 2.38456c-.48633 1.49678 1.2268 2.74144 2.50003 1.81638l2.02842-1.47374c.56941-.4137 1.34045-.4137 1.90985 0l2.02842 1.47374c1.27324.92506 2.98636-.3196 2.50003-1.81638l-.77479-2.38456c-.21749-.66938.02077-1.40268.59018-1.81638l2.02842-1.47374c1.27324-.92506.61888-2.93896-.95493-2.93896h-2.50727c-.70383 0-1.32761-.4532-1.5451-1.12258l-.77479-2.38456c-.48633-1.49678-2.60388-1.49678-3.09021 0z" fill="#ffcb29"/><path d="m45.62067 18.05994-2.03003-1.47003c-.56-.41998-1.34003-.41998-1.90002 0l-2.02997 1.47003c-1.28003.91998-2.98999-.32001-2.5-1.82001l.77002-2.38c.21997-.66998-.02002-1.40002-.59003-1.82001l-2.02997-1.46997c-1.27002-.92999-.62006-2.94.95996-2.94h2.51001c.08002 0 .15002-.01001.22998-.02002 1.57001 2.15997 4.14001 4.53998 8.27002 5.89001.01001.12.03003.23999.07001.35999l.77002 2.38c.48999 1.5-1.22003 2.73999-2.5 1.82001z" fill="#fcb316"/><g><path d="m54.97071 41.42377-15.55273 4.56836c-.47363-2.60742-2.35254-4.75293-4.97021-5.54102l-10.14355-3.0498c-.19922-.05957-.41211-.05566-.60986.01074l-9.43994 3.2063v-2.25903c0-.55273-.44775-1-1-1h-10.25442c-.55225 0-1 .44727-1 1v19.3916c0 .55273.44775 1 1 1h10.2544c.55225 0 1-.44727 1-1v-1.51434c1.93207.61865 6.43048 1.91516 17.25488 4.77802.53564.13965 1.08154-.17773 1.22266-.71094.14111-.53418-.17725-1.08105-.71094-1.22266-10.91553-2.88672-16.19971-4.40332-17.7666-4.94043v-11.40918l9.78027-3.32227 9.83691 2.95801c2.07104.62219 3.48328 2.43011 3.63348 4.55829-.78497.74762-3.44061 2.76672-8.45819 1.77374-.5459-.11426-1.06836.24414-1.17578.78613-.10742.54102.24463 1.06738.78613 1.1748 1.09082.2168 2.0918.30859 3.00635.30859 4.32977 0 6.70905-2.06049 7.41974-2.79425l16.45135-4.8327c1.56982-.45996 3.2251.21484 4.02295 1.64551.48242.86426.5752 1.8584.26221 2.79785-.31299.93848-.98291 1.67676-1.88672 2.08008l-22.95264 10.22168c-.50439.22461-.73145.81543-.50684 1.32031.22533.509.82793.72927 1.32031.50586l22.95264-10.22168c1.40234-.62402 2.48535-1.81738 2.9707-3.27441.48584-1.45703.33545-3.0625-.4126-4.4043-1.25586-2.25195-3.86328-3.31934-6.33398-2.58887zm-42.71631 15.32715h-8.2544v-17.3916h8.2544z"/><path d="m9.08643 41.32026h-1.91846c-.55225 0-1 .44727-1 1s.44775 1 1 1h1.91846c.55225 0 1-.44727 1-1s-.44775-1-1-1z"/><path d="m29.50391 19.26069-.7749 2.38477c-.17041.52441.1167 1.08887.64209 1.25977.52734.16992 1.09033-.11719 1.26025-.64258l.7749-2.38379c.12646-.38965.45752-.43164.59375-.43164s.46729.04199.59375.43066l.7749 2.38574c.35303 1.08496 1.35596 1.81348 2.49658 1.81348h2.50684c.41016 0 .55225.30176.59424.43164.04248.12988.10449.45703-.22705.69824l-2.02881 1.47363c-.92236.6709-1.30518 1.84961-.95313 2.93359l.7749 2.38477c.12646.38965-.11621.61816-.22656.69824-.11133.08008-.40283.24023-.73438.00098l-2.02783-1.47363c-.92432-.67285-2.16406-.6709-3.08643 0l-2.02832 1.47363c-.33057.23926-.62256.08008-.73438-.00098-.11035-.08008-.35303-.30859-.22656-.69824l.7749-2.38477c.35205-1.08398-.03076-2.2627-.95361-2.93359l-2.02881-1.47461c-.33105-.24023-.26904-.56738-.22656-.69727.04199-.12988.18408-.43164.59424-.43164.55225 0 1-.44727 1-1s-.44775-1-1-1c-1.15869 0-2.13867.71191-2.49658 1.81348s.0166 2.25391.95361 2.93359l2.02783 1.47363c.22021.16016.31152.44043.22754.69922l-.7749 2.38477c-.35791 1.10156.0166 2.25293.95361 2.93359s2.14746.68262 3.08545 0l2.02881-1.47363c.21777-.16016.51318-.15918.73389 0l2.02832 1.47363c.46875.34082 1.00586.51074 1.54248.51074.53711 0 1.07422-.16992 1.54297-.51074.93701-.68066 1.31152-1.83203.95361-2.93359l-.7749-2.38477c-.08398-.25879.00732-.53906.22705-.69922l2.02783-1.47266c.9375-.68066 1.31201-1.83301.9541-2.93457s-1.33789-1.81348-2.49658-1.81348h-2.50684c-.27148 0-.51025-.17383-.59424-.43164l-.7749-2.38574c-.35791-1.10059-1.33789-1.8125-2.49609-1.8125s-2.13818.71191-2.49609 1.81348z"/><path d="m50.50391 19.26069-.7749 2.38379c-.08398.25879-.32275.43262-.59424.43262h-2.50684c-1.15869 0-2.13867.71191-2.49658 1.81348s.0166 2.25391.95361 2.93359l2.02783 1.47363c.22021.16016.31152.44043.22754.69922l-.7749 2.38477c-.35791 1.10156.0166 2.25293.95361 2.93359s2.14746.68262 3.08545 0l2.02881-1.47363c.21777-.16016.51318-.15918.73389 0l2.02832 1.47363c.46875.34082 1.00586.51074 1.54248.51074.53711 0 1.07422-.16992 1.54297-.51074.93701-.68066 1.31152-1.83203.95361-2.93359l-.7749-2.38477c-.08398-.25879.00732-.53906.22705-.69922l2.02783-1.47266c.9375-.68066 1.31201-1.83301.9541-2.93457s-1.33789-1.81348-2.49658-1.81348h-2.50684c-.27148 0-.51025-.17383-.59424-.43164l-.7749-2.38477v-.00098c-.35791-1.10059-1.33789-1.8125-2.49609-1.8125s-2.13818.71191-2.49609 1.81348zm1.90234.61816c.12646-.38965.45752-.43164.59375-.43164s.46729.04199.59375.43066l.7749 2.38574c.35303 1.08496 1.35596 1.81348 2.49658 1.81348h2.50684c.41016 0 .55225.30176.59424.43164.04248.12988.10449.45703-.22705.69824l-2.02881 1.47363c-.92236.6709-1.30518 1.84961-.95313 2.93359l.7749 2.38477c.12646.38965-.11621.61816-.22656.69824-.11133.08008-.40381.24023-.73438.00098l-2.02783-1.47363c-.46191-.33594-1.00293-.50391-1.54346-.50391-.54102 0-1.08154.16797-1.54297.50391l-2.02832 1.47363c-.33057.23926-.62256.08008-.73438-.00098-.11035-.08008-.35303-.30859-.22656-.69824l.7749-2.38477c.35205-1.08398-.03076-2.2627-.95361-2.93359l-2.02881-1.47461c-.33105-.24023-.26904-.56738-.22656-.69727.04199-.12988.18408-.43164.59424-.43164h2.50684c1.14063 0 2.14355-.72852 2.49658-1.81445l.7749-2.38379z"/><path d="m34.7251 11.3769 2.02783 1.47363c.21973.16016.31104.44043.22705.69922l-.77441 2.38477c-.35791 1.10156.01611 2.25293.95313 2.93359.9375.68164 2.14844.68164 3.08594 0l2.02881-1.47363c.21875-.1582.51367-.15918.7334.00098l2.02881 1.47266c.46875.34082 1.00586.51074 1.54248.51074.53711 0 1.07422-.16992 1.54297-.51074.93701-.68066 1.31152-1.83203.95361-2.93359l-.77539-2.38574c-.0835-.25781.00781-.53809.22754-.69824l2.02832-1.47363c.93701-.68066 1.31104-1.83203.95313-2.93359s-1.33789-1.81348-2.49609-1.81348h-2.50732c-.27148 0-.50977-.17383-.59375-.43262l-.7749-2.38281c-.35791-1.10254-1.33789-1.81445-2.49658-1.81445-1.1582 0-2.13818.71191-2.49609 1.81348l-.7749 2.38477c-.08398.25781-.32227.43164-.59375.43164h-2.50732c-1.15869 0-2.13818.71191-2.49609 1.81348s.0166 2.25391.95361 2.93359zm.94873-2.31543c.04199-.12988.18408-.43164.59375-.43164h2.50732c1.14111 0 2.14404-.72949 2.49609-1.81348l.7749-2.38477c.12646-.38965.45752-.43164.59375-.43164.13672 0 .46777.04199.59424.43164v.00098l.7749 2.38281c.35205 1.08496 1.35498 1.81445 2.49609 1.81445h2.50732c.40967 0 .55176.30176.59424.43164.04199.12988.104.45703-.22705.69824l-2.02832 1.47363c-.92334.6709-1.30615 1.84961-.95361 2.93359l.7749 2.38477c.12646.38965-.11621.61816-.22656.69824-.11084.08105-.40332.24219-.73438 0l-2.02832-1.47266c-.92334-.67188-2.1626-.67188-3.08594 0l-2.02783 1.47266c-.33154.24219-.62402.08105-.73486 0-.11035-.08008-.35303-.30859-.22656-.69824l.77393-2.38379c.35303-1.08398-.02979-2.26367-.95264-2.93457l-2.02881-1.47461c-.33105-.24023-.26904-.56738-.22656-.69727z"/><path d="m13.44483 11.3769 2.02832 1.47363c.21973.16016.31104.44043.22705.69922l-.7749 2.38477c-.35791 1.10156.0166 2.25293.95361 2.93359.46875.34082 1.00586.51074 1.54297.51074.53662 0 1.07373-.16992 1.54248-.50977l2.0293-1.47461c.21924-.1582.51416-.1582.7334 0l2.02881 1.47461c.93652.67969 2.14795.68066 3.08545-.00098.93701-.68066 1.31104-1.83203.95313-2.93359l-.7749-2.38574c-.0835-.25781.00781-.53809.22705-.69824l2.02783-1.47266c.9375-.68066 1.31201-1.83301.9541-2.93457s-1.3374-1.81348-2.49609-1.81348h-2.50732c-.27148 0-.50977-.17383-.59375-.43262l-.7749-2.38281c-.35791-1.10254-1.33789-1.81445-2.49609-1.81445-1.15869 0-2.13867.71191-2.49658 1.81445l-.7749 2.38379c-.08398.25781-.32227.43164-.59375.43164h-2.50732c-1.1582 0-2.13818.71191-2.49609 1.81348s.01611 2.25293.95313 2.93359zm.94873-2.31543c.04248-.12988.18457-.43164.59424-.43164h2.50732c1.14111 0 2.14404-.72949 2.49609-1.81348l.7749-2.38379v-.00098c.12646-.38965.45752-.43164.59424-.43164.13623 0 .46729.04199.59375.43262l.7749 2.38281c.35205 1.08496 1.35498 1.81445 2.49609 1.81445h2.50732c.40967 0 .55176.30176.59375.43164.04248.12988.10449.45703-.22705.69824l-2.02881 1.47363c-.92236.6709-1.30518 1.85059-.95264 2.93359l.77441 2.38477c.12646.38965-.11621.61816-.22656.69824-.10986.08105-.40332.24023-.73438.00098l-2.02783-1.47363c-.46191-.33594-1.00244-.50391-1.54346-.50391-.54053 0-1.08105.16797-1.54248.50293l-2.02881 1.47461c-.33008.24023-.62305.08008-.73438-.00098-.11035-.08008-.35303-.30859-.22656-.69824l.77441-2.38379c.35303-1.08496-.02979-2.26367-.95313-2.93457l-2.02832-1.47363c-.33105-.24121-.26904-.56836-.22705-.69824z"/><path d="m3.08496 26.82416 2.02783 1.47363c.22021.16016.31152.44043.22754.69922l-.7749 2.38477c-.35791 1.10156.0166 2.25293.95361 2.93359.93652.68066 2.14697.68262 3.08545 0l2.02881-1.47363c.21826-.16016.51367-.15918.73389 0l2.02832 1.47363c.46875.34082 1.00586.51074 1.54248.51074.53711 0 1.07422-.16992 1.54297-.51074.93701-.68066 1.31152-1.83203.95361-2.93359l-.7749-2.38477c-.08398-.25879.00732-.53906.22705-.69922l2.02783-1.47266c.9375-.68066 1.31201-1.83301.9541-2.93457s-1.33789-1.81348-2.49658-1.81348h-2.50684c-.27148 0-.51025-.17383-.59424-.43164l-.7749-2.38477v-.00098c-.35791-1.10059-1.33789-1.8125-2.49609-1.8125s-2.13818.71191-2.49609 1.81348l-.7749 2.38379c-.08398.25879-.32275.43262-.59424.43262h-2.50684c-1.15869 0-2.13867.71191-2.49658 1.81348s.0166 2.25391.95361 2.93359zm.94873-2.31543c.04199-.12988.18408-.43164.59424-.43164h2.50684c1.14063 0 2.14355-.72852 2.49658-1.81445l.7749-2.38379c.12646-.38965.45752-.43164.59375-.43164s.46729.04199.59375.43066l.7749 2.38574c.35303 1.08496 1.35596 1.81348 2.49658 1.81348h2.50684c.41016 0 .55225.30176.59424.43164.04248.12988.10449.45703-.22705.69824l-2.02881 1.47363c-.92236.6709-1.30518 1.84961-.95313 2.93359l.7749 2.38477c.12646.38965-.11621.61816-.22656.69824-.11084.08008-.40332.24023-.73438.00098l-2.02783-1.47363c-.46191-.33594-1.00293-.50391-1.54346-.50391-.54102 0-1.08154.16797-1.54297.50391l-2.02832 1.47363c-.33105.23926-.62305.08008-.73438-.00098-.11035-.08008-.35303-.30859-.22656-.69824l.7749-2.38477c.35205-1.08398-.03076-2.2627-.95361-2.93359l-2.02881-1.47461c-.33105-.24023-.26904-.56738-.22656-.69727z"/></g></svg>