<svg id="Layer_1" enable-background="new 0 0 512 512" viewBox="0 0 512 512" xmlns="http://www.w3.org/2000/svg"><g clip-rule="evenodd" fill-rule="evenodd"><path d="m167.334 424.333h-133.763l.2-2.585c2.692-34.726 31.832-61.675 66.681-61.675s63.989 26.949 66.681 61.675z" fill="#fd4755"/><path d="m380.211 323.552c0-17.283 14.057-31.318 31.336-31.318 17.261 0 31.29 14.062 31.29 31.318 0 17.251-14.034 31.318-31.29 31.318-17.275 0-31.336-14.039-31.336-31.318z" fill="#f6dccd"/><path d="m411.548 360.072c34.843 0 63.991 26.944 66.635 61.679l.197 2.582h-133.714l.2-2.585c2.694-34.748 31.808-61.676 66.682-61.676z" fill="#00e499"/><path d="m224.664 66.14c0-17.279 14.061-31.318 31.337-31.318 17.256 0 31.289 14.067 31.289 31.318 0 17.257-14.025 31.322-31.289 31.322-17.283 0-31.337-14.037-31.337-31.322z" fill="#f6dccd"/><path d="m256 102.66c34.843 0 63.991 26.958 66.634 61.688l.197 2.582h-133.713l.2-2.585c2.693-34.722 31.834-61.685 66.682-61.685z" fill="#4c69b1"/><ellipse cx="100.452" cy="323.552" fill="#f6dccd" rx="31.336" ry="31.318"/><path d="m179.011 333.474c0-9.462-3.186-17.764-9.462-24.84-10.907-12.295-16.899-28.152-16.899-44.586 0-37.085 30.169-67.227 67.25-67.227 32.308 0 60.533 23.619 66.183 55.429l.152.855-.431.755c-.975 1.706-2.368 3.126-4.076 4.104-3.438 1.968-7.681 1.986-11.108-.009-4.062-2.363-9.171-1.397-12.078 2.299-3.417 4.345-6.215 9.151-8.275 14.281-1.76 4.385-.008 9.277 4.074 11.626 3.424 1.971 5.557 5.657 5.557 9.609s-2.133 7.639-5.557 9.609c-4.082 2.349-5.834 7.241-4.074 11.626 2.06 5.132 4.854 9.936 8.274 14.28.406.516.881.976 1.366 1.417l.923.838-.154 1.236c-.625 5.003-4.924 8.775-9.967 8.775h-61.62c-5.569.002-10.078-4.509-10.078-10.077zm-2.471-72.18c1.306 0 2.422-.989 2.582-2.286 2.005-16.259 13.479-29.749 29.189-34.377 1.362-.401 2.161-1.858 1.751-3.221-.409-1.362-1.829-2.179-3.206-1.774-17.737 5.212-30.635 20.389-32.898 38.737-.177 1.437.827 2.721 2.264 2.896l.065.009c.079.012.174.016.253.016z" fill="#ffd266"/><path d="m255.138 276.441c1.828-4.67 4.391-9.032 7.504-12.96 1.305-1.647 3.557-2.08 5.378-1.026 5.015 2.905 11.261 2.909 16.279.008 5.025-2.905 8.166-8.326 8.166-14.133 0-2.123 1.5-3.851 3.602-4.154 4.927-.71 10.043-.716 14.969 0 2.076.302 3.599 2.053 3.599 4.154 0 5.799 3.081 11.233 8.116 14.131 5.041 2.902 11.295 2.91 16.33-.006 1.82-1.054 4.073-.621 5.378 1.026 3.123 3.94 5.653 8.313 7.513 12.983.777 1.952.045 4.141-1.786 5.19-5.046 2.888-8.204 8.302-8.204 14.118 0 5.826 3.154 11.224 8.205 14.119 1.83 1.049 2.562 3.236 1.786 5.188-1.858 4.675-4.388 9.04-7.513 12.984-1.305 1.647-3.555 2.079-5.376 1.028-5.036-2.91-11.291-2.909-16.332-.007-5.034 2.898-8.116 8.332-8.116 14.131 0 2.102-1.523 3.852-3.599 4.154-4.926.716-10.042.711-14.969 0-2.103-.303-3.602-2.031-3.602-4.154 0-5.824-3.115-11.223-8.163-14.131-2.466-1.421-5.274-2.18-8.12-2.18-2.869 0-5.681.758-8.167 2.189-1.82 1.049-4.068.617-5.372-1.029-3.115-3.93-5.679-8.287-7.504-12.961-.827-1.955-.064-4.156 1.777-5.211 5.055-2.897 8.158-8.298 8.158-14.119 0-5.81-3.109-11.22-8.157-14.109-1.848-1.057-2.609-3.267-1.78-5.223zm27.188 19.331c0 11.696 9.497 21.228 21.199 21.228 11.721 0 21.247-9.503 21.247-21.228 0-11.724-9.524-21.232-21.247-21.232-11.702 0-21.199 9.536-21.199 21.232z" fill="#fd4755"/><path d="m289.9 295.772c0 7.52 6.134 13.63 13.626 13.63 7.539 0 13.626-6.11 13.626-13.63 0-7.511-6.087-13.63-13.626-13.63-7.492 0-13.626 6.119-13.626 13.63zm13.626-23.632c13.064 0 23.646 10.601 23.646 23.632s-10.582 23.627-23.646 23.627c-13.017 0-23.599-10.596-23.599-23.627s10.582-23.632 23.599-23.632zm-102.497 120.252c-2.763 0-5.01 2.229-5.01 5.001 0 2.758 2.248 5.001 5.01 5.001h37.74c2.763 0 4.964-2.243 4.964-5.001 0-2.772-2.201-5.001-4.964-5.001zm54.784-12.08c0-2.772-2.201-5.001-5.01-5.001h-61.854c-2.763 0-5.01 2.229-5.01 5.001 0 2.763 2.248 5.001 5.01 5.001h61.854c2.809-.001 5.01-2.239 5.01-5.001zm-79.881-116.661c.187.028.421.042.609.042 2.482 0 4.635-1.859 4.964-4.392 1.873-15.311 12.689-28.019 27.485-32.369 2.622-.782 4.167-3.563 3.371-6.214-.796-2.646-3.559-4.167-6.181-3.385-18.682 5.479-32.261 21.469-34.602 40.746-.375 2.744 1.591 5.235 4.354 5.572zm74.871 94.579h-61.854c-2.763 0-5.01 2.243-5.01 5.001 0 2.763 2.248 5.001 5.01 5.001h61.854c2.809 0 5.01-2.238 5.01-5.001 0-2.759-2.201-5.001-5.01-5.001zm-95.755-94.181c0 15.864 5.806 31.133 16.295 42.993 6.696 7.511 10.067 16.398 10.067 26.432 0 4.228 3.418 7.679 7.679 7.679h61.62c3.886 0 7.117-2.922 7.586-6.672-.562-.51-1.124-1.068-1.639-1.709-3.559-4.532-6.462-9.528-8.616-14.871-2.201-5.506-.047-11.65 5.104-14.599 2.669-1.55 4.355-4.43 4.355-7.529 0-3.1-1.686-5.979-4.355-7.529-5.151-2.95-7.304-9.093-5.104-14.6 2.154-5.342 5.057-10.343 8.616-14.871 3.652-4.64 10.067-5.862 15.171-2.889 2.669 1.55 5.993 1.55 8.709 0 1.358-.782 2.435-1.901 3.184-3.212-5.431-30.581-32.589-53.449-63.82-53.449-35.774-.001-64.852 29.081-64.852 64.826zm139.815-15.719c0-.918.609-1.648 1.545-1.779 4.683-.679 9.599-.679 14.281 0 .89.131 1.545.862 1.545 1.779 0 6.673 3.559 12.881 9.318 16.21 5.806 3.329 12.97 3.329 18.729-.009.796-.459 1.733-.281 2.294.44 2.996 3.77 5.385 7.941 7.164 12.38.328.852.047 1.77-.749 2.219-5.806 3.329-9.412 9.543-9.412 16.201 0 6.672 3.605 12.867 9.412 16.201.796.45 1.077 1.367.749 2.22-1.779 4.448-4.168 8.611-7.164 12.38-.562.721-1.498.899-2.294.44-5.759-3.329-12.923-3.339-18.729-.009-5.759 3.329-9.318 9.538-9.318 16.21 0 .918-.655 1.648-1.545 1.779-4.682.679-9.599.679-14.281 0-.936-.131-1.545-.861-1.545-1.779 0-6.672-3.559-12.881-9.365-16.21-2.856-1.662-6.087-2.5-9.318-2.5s-6.462.838-9.365 2.51c-.796.459-1.733.281-2.294-.44-2.997-3.769-5.431-7.932-7.164-12.38-.375-.852-.047-1.77.749-2.22 5.806-3.334 9.365-9.529 9.365-16.201 0-6.658-3.559-12.872-9.365-16.192-.796-.459-1.124-1.376-.749-2.229 1.733-4.439 4.167-8.611 7.164-12.38.562-.721 1.498-.899 2.294-.44 5.759 3.338 12.923 3.338 18.683.009s9.365-9.537 9.365-16.21zm-130.965 65.352c-12.174-13.691-18.87-31.32-18.87-49.633 0-41.256 33.572-74.828 74.871-74.828 17.98 0 35.352 6.471 48.93 18.228 9.739 8.405 17.044 19.114 21.351 30.993 1.405-.908 3.043-1.531 4.776-1.789 5.666-.81 11.518-.81 17.184 0 5.853.847 10.114 5.768 10.114 11.701-.047 3.1 1.639 5.989 4.308 7.529 2.669 1.55 6.04 1.55 8.709-.014 5.104-2.959 11.518-1.737 15.171 2.903 3.559 4.528 6.462 9.529 8.616 14.871 2.201 5.507.047 11.65-5.104 14.6-2.669 1.55-4.354 4.43-4.354 7.529 0 3.1 1.686 5.979 4.354 7.529 5.151 2.95 7.305 9.093 5.104 14.599-2.154 5.343-5.057 10.339-8.616 14.871-3.652 4.64-10.067 5.858-15.171 2.898-2.669-1.55-6.04-1.559-8.709-.009s-4.355 4.429-4.308 7.529c0 5.933-4.261 10.854-10.114 11.701-2.856.412-5.712.609-8.616.609-2.856 0-5.712-.197-8.569-.609-5.853-.847-10.114-5.759-10.114-11.701 0-3.1-1.639-5.979-4.308-7.529-2.716-1.55-6.04-1.54-8.709.009-1.217.702-2.528 1.161-3.793 1.409-1.686 8.021-8.803 14.071-17.325 14.071h-61.62c-9.786 0-17.699-7.927-17.699-17.676.003-7.622-2.432-14.093-7.489-19.791zm311.891 108.251c-2.529-33.221-30.389-59.461-64.242-59.461-33.9 0-61.713 26.24-64.289 59.461zm-64.241-69.463c15.92 0 28.89-12.98 28.89-28.918 0-15.948-12.97-28.918-28.89-28.918-15.967 0-28.937 12.97-28.937 28.918 0 15.939 12.97 28.918 28.937 28.918zm74.449 74.459c0-33.456-22.194-61.826-52.63-71.191 10.301-7.005 17.091-18.818 17.091-32.186 0-21.459-17.465-38.92-38.91-38.92-21.492 0-38.957 17.46-38.957 38.92 0 13.368 6.789 25.182 17.091 32.186-30.435 9.365-52.63 37.735-52.63 71.191 0 2.762 2.248 5.001 5.01 5.001h138.925c2.762 0 5.01-2.238 5.01-5.001zm-321.256-4.996c-2.575-33.221-30.435-59.461-64.289-59.461s-61.713 26.24-64.289 59.461zm-64.289-69.463c15.967 0 28.937-12.98 28.937-28.918 0-15.948-12.97-28.918-28.937-28.918s-28.937 12.97-28.937 28.918c0 15.939 12.971 28.918 28.937 28.918zm69.44 79.46h-138.879c-2.763 0-5.01-2.238-5.01-5.001 0-33.456 22.148-61.826 52.63-71.191-10.301-7.005-17.091-18.818-17.091-32.186 0-21.459 17.465-38.92 38.91-38.92s38.91 17.46 38.91 38.92c0 13.368-6.79 25.182-17.091 32.186 30.435 9.365 52.63 37.735 52.63 71.191.001 2.763-2.247 5.001-5.009 5.001zm21.819-267.4h128.531c-2.529-33.217-30.388-59.471-64.242-59.471-33.853.001-61.713 26.255-64.289 59.471zm64.289-69.467c15.92 0 28.89-12.97 28.89-28.923 0-15.939-12.97-28.918-28.89-28.918-15.967 0-28.937 12.979-28.937 28.918 0 15.953 12.97 28.923 28.937 28.923zm-74.449 74.468c0-33.46 22.147-61.83 52.583-71.19-10.301-7.01-17.044-18.818-17.044-32.201 0-21.459 17.418-38.92 38.91-38.92 21.445 0 38.91 17.46 38.91 38.92 0 13.382-6.79 25.191-17.091 32.201 30.435 9.36 52.629 37.73 52.629 71.19 0 2.758-2.247 5.001-5.01 5.001h-138.924c-2.763 0-4.963-2.243-4.963-5.001zm153.113 280.051c-49.165 24.929-105.634 27.499-156.484 7.422l10.91-6.022c2.388-1.33 3.278-4.373 1.92-6.79-1.311-2.411-4.355-3.292-6.79-1.962l-19.806 10.952c-.937.501-1.686 1.297-2.154 2.327-.515 1.11-.609 2.313-.281 3.399l5.9 22.152c.609 2.238 2.622 3.718 4.823 3.718.422 0 .89-.061 1.311-.169 2.669-.716 4.261-3.46 3.512-6.12l-3.278-12.301c24.77 9.749 51.553 14.59 78.102 14.043 30.014-.632 60.028-8.152 86.811-21.74 2.482-1.25 3.465-4.261 2.201-6.724-1.266-2.456-4.263-3.435-6.697-2.185zm17.792-330.452c46.168 30.08 76.603 77.703 84.657 131.789l-10.629-6.42c-2.388-1.428-5.432-.66-6.883 1.7-1.405 2.374-.656 5.441 1.732 6.86l19.385 11.692c.749.482 1.639.749 2.622.749.141 0 .234-.009.375-.019h.047.047v-.009c1.217-.122 2.294-.66 3.09-1.461l16.201-16.201c1.966-1.948 1.966-5.118.047-7.07-1.967-1.962-5.151-1.962-7.07-.009l-9.037 8.999c-3.933-26.31-13.111-51.927-26.877-74.66-15.546-25.678-37.084-47.919-62.228-64.317-2.341-1.503-5.431-.852-6.93 1.47-1.498 2.309-.843 5.409 1.451 6.907zm-305.055 149.25c1.592-29.976 10.114-59.738 24.582-86.048 12.83-23.281 30.388-44.061 51.225-60.613l-12.314-3.311c-2.669-.716-4.261-3.46-3.512-6.129.702-2.659 3.418-4.247 6.087-3.526l22.194 5.956c1.03.281 2.06.922 2.716 1.868.047.061.094.122.141.173v.009c.609.899.89 1.929.843 2.931l-.422 22.639c-.047 2.73-2.247 4.902-5.01 4.902 0 0-.047 0-.094 0-2.762-.052-4.916-2.332-4.87-5.094l.234-12.427c-42.843 34.01-68.83 84.2-71.826 139.213-.141 2.66-2.341 4.729-4.963 4.729-.094 0-.187-.009-.281-.009-2.763-.15-4.87-2.5-4.73-5.263z"/></g></svg>