<svg width="64" height="64" viewBox="0 0 64 64" fill="none" xmlns="http://www.w3.org/2000/svg">
    <path
        d="M50.2551 34.9993C50.2551 38.1642 49.3675 41.2461 47.7202 43.9045C48.2902 43.7642 48.8745 44.1436 48.9519 44.7561C49.0142 45.2492 48.6824 45.708 48.2045 45.8442L45.4107 46.6412C45.3205 46.6668 45.2282 46.6796 45.1365 46.6796C44.9276 46.6796 44.7214 46.6141 44.5486 46.4886C44.3 46.3078 44.1482 46.0227 44.1371 45.7155L44.0317 42.7827C44.012 42.2307 44.4434 41.7672 44.9952 41.7475C45.5507 41.7255 46.0106 42.159 46.0305 42.711L46.0346 42.8273C47.4776 40.489 48.2551 37.7806 48.2551 34.9993C48.2551 26.7796 41.5679 20.0923 33.3481 20.0923C30.6449 20.0923 27.9969 20.8238 25.6905 22.2076C25.1764 22.5158 24.4971 22.309 24.2534 21.7368C24.0552 21.272 24.2595 20.7325 24.6934 20.4735C27.3031 18.9155 30.2949 18.0922 33.3481 18.0922C42.6706 18.0923 50.2551 25.6768 50.2551 34.9993ZM43.2719 45.7433C44.1822 47.2633 43.7295 49.4368 42.3221 50.3033L28.4327 58.8558C27.436 59.4693 26.346 59.7801 25.218 59.7802C24.6607 59.7802 24.0944 59.7045 23.5251 59.5518L13.8507 56.9597L12.9434 57.4836L13.4376 58.357C14.0161 59.3792 13.6565 60.6768 12.6342 61.2555L10.4867 62.4708C10.1567 62.6576 9.79737 62.7462 9.44287 62.7463C8.70062 62.7463 7.97912 62.3581 7.58824 61.6676L1.27487 50.5122C0.69737 49.4916 1.05774 48.1913 2.07812 47.6137L4.22574 46.3983C4.71912 46.1192 5.29274 46.0492 5.84099 46.2011C6.38937 46.3531 6.84499 46.7086 7.12424 47.2018L7.50162 47.8685L12.9154 44.7341C14.451 43.845 16.3011 43.0271 18.3804 43.7016C18.5664 43.7618 18.7644 43.8291 18.9714 43.9013C18.4776 43.1053 18.0499 42.2685 17.6925 41.3946C16.862 39.3633 16.441 37.2118 16.441 34.9997C16.441 31.8418 17.3309 28.7536 18.9782 26.094C18.408 26.2358 17.8212 25.856 17.7442 25.2428C17.6822 24.7496 18.0144 24.291 18.4924 24.1546L21.264 23.3638C21.4367 23.3146 21.6204 23.3022 21.7945 23.3461C22.2475 23.4605 22.5432 23.8498 22.559 24.2835L22.6644 27.2162C22.6841 27.7682 22.2527 28.2317 21.7009 28.2515C21.6886 28.252 21.6765 28.2521 21.6644 28.2521C21.1286 28.2521 20.685 27.8277 20.6656 27.288L20.6615 27.1738C19.2195 29.5126 18.4409 32.2256 18.4409 34.9996C18.4409 36.9508 18.8119 38.8478 19.5436 40.6376C20.2187 42.2888 21.1785 43.7902 22.3931 45.1057C23.5747 45.4935 24.8435 45.8571 26.1185 46.0871C26.1585 46.0943 26.1984 46.1036 26.2371 46.116C27.9065 46.6503 28.873 48.3497 28.4364 49.979C28.4184 50.0458 28.3989 50.1116 28.3777 50.1758C28.5185 50.1137 28.6575 50.0425 28.7957 49.962L36.4495 45.5042C41.0441 42.8282 42.8331 45.0107 43.2719 45.7433ZM11.6972 59.3418L5.38387 48.1867C5.38374 48.1866 5.38374 48.1866 5.38374 48.1866C5.36324 48.1502 5.33062 48.1348 5.30699 48.1282C5.29674 48.1255 5.28425 48.1231 5.27049 48.1231C5.25224 48.1231 5.23174 48.127 5.21112 48.1387L3.06349 49.3541C3.00462 49.3873 2.98237 49.4681 3.01562 49.5271L9.32887 60.6822C9.36212 60.7408 9.44249 60.7637 9.50187 60.7301L11.6492 59.5148C11.7081 59.4815 11.7304 59.4007 11.6972 59.3418ZM41.5561 46.771C41.0284 45.8902 39.4575 46.0668 37.4561 47.2325L29.8024 51.6902C28.5614 52.413 27.229 52.6477 25.7292 52.4078L24.7767 52.253C24.7697 52.2518 22.4269 51.6833 21.2524 51.348C20.7302 51.1988 20.1905 51.0447 19.6422 50.8975C19.1597 50.768 18.821 50.309 18.8797 49.8128C18.9534 49.192 19.5522 48.8031 20.1327 48.9583C20.7064 49.112 21.2631 49.2711 21.8016 49.4248C22.9221 49.7448 23.9817 50.047 25.0897 50.276C26.2492 50.406 26.4415 49.6963 26.5046 49.4613C26.6626 48.8718 26.3131 48.2711 25.688 48.0415C23.3761 47.6158 21.16 46.8147 19.3756 46.1695C18.7575 45.946 18.2235 45.753 17.7634 45.6037C16.6897 45.2555 15.5754 45.5047 13.9176 46.4646L8.48687 49.609L11.9585 55.743L13.2097 55.0206C13.4394 54.8878 13.7126 54.852 13.9685 54.9206L24.043 57.62C25.2367 57.9398 26.3609 57.783 27.3844 57.1528L41.2736 48.6003C41.7175 48.3271 41.9394 47.411 41.5561 46.771ZM4.98287 49.3601C4.41162 49.3183 4.00012 49.8707 4.20324 50.4062C4.30562 50.6761 4.56337 50.8683 4.85124 50.8896C5.423 50.9318 5.83512 50.379 5.63149 49.8432C5.52887 49.5732 5.27087 49.3811 4.98287 49.3601ZM61.9216 16.3865L59.7741 17.6018C59.444 17.7886 59.0846 17.8773 58.73 17.8773C57.9879 17.8773 57.2664 17.4891 56.8755 16.7985L56.4982 16.1318L51.0845 19.2663C49.9446 19.9263 48.6311 20.5472 47.1795 20.5472C46.6757 20.5472 46.1554 20.4725 45.6196 20.2987C45.1277 20.1392 44.5527 19.9313 43.944 19.7113C42.211 19.0848 40.0542 18.305 37.8812 17.9132C37.8414 17.906 37.8016 17.8967 37.763 17.8845C36.0936 17.3502 35.127 15.6506 35.5635 14.0212C35.5815 13.9543 35.601 13.8886 35.6221 13.8243C35.4814 13.8865 35.3424 13.9577 35.2041 14.0382L27.5504 18.4961C22.9552 21.172 21.1669 18.9895 20.728 18.2568C19.8176 16.7368 20.2702 14.5633 21.6777 13.6968L35.5671 5.14446C37.0562 4.22784 38.7534 3.98721 40.4747 4.44859L50.1491 7.04071L51.0565 6.51684L50.5622 5.64359C49.9846 4.62271 50.3452 3.32259 51.3659 2.74509L53.5131 1.52971C54.5339 0.952214 55.834 1.31246 56.4116 2.33309L62.725 13.4883C63.3024 14.5086 62.9421 15.8088 61.9216 16.3865ZM55.5131 14.3911L52.0416 8.25709L50.7904 8.97946C50.5606 9.11209 50.2875 9.14784 50.0316 9.07934L39.9571 6.37996C38.7634 6.05984 37.6392 6.21709 36.6157 6.84709L22.7265 15.3995C22.2826 15.6728 22.0607 16.5888 22.444 17.2288C22.9716 18.1098 24.5426 17.9331 26.544 16.7675L34.1977 12.3096C35.439 11.5868 36.7711 11.352 38.2709 11.592L39.2234 11.7468C39.2301 11.748 39.2565 11.7527 39.263 11.7541C40.4634 11.9993 41.5725 12.3162 42.7466 12.6516C43.2684 12.8006 43.8075 12.9546 44.3554 13.1017C44.8459 13.2333 45.1874 13.7047 45.1176 14.2078C45.046 14.7246 44.6087 15.0757 44.1267 15.0757C44.041 15.0757 43.954 15.0646 43.8674 15.0415C43.2934 14.8877 42.7362 14.7286 42.1975 14.5747C41.0774 14.2547 40.0181 13.9527 38.9105 13.7238C37.7505 13.5937 37.5586 14.3035 37.4956 14.5385C37.3376 15.1278 37.6871 15.7287 38.3122 15.9583C40.624 16.384 42.84 17.185 44.6242 17.8301C45.2425 18.0536 45.7766 18.2467 46.2369 18.396C47.3111 18.7446 48.425 18.495 50.0825 17.5352L55.5131 14.3911ZM60.9844 14.4728L54.6711 3.31771C54.6376 3.25884 54.557 3.23621 54.4981 3.26984L52.3507 4.48521C52.29 4.51959 52.2684 4.59746 52.3029 4.65821L58.6161 15.8133C58.6495 15.8721 58.7301 15.8946 58.7891 15.8612L60.9365 14.646C60.9971 14.6115 61.0187 14.5336 60.9844 14.4728ZM59.1479 13.1102C58.5764 13.0686 58.1647 13.6215 58.3687 14.1571C58.4715 14.4268 58.7295 14.6188 59.0174 14.6398C59.5886 14.6813 60.0002 14.1287 59.7965 13.5932C59.6939 13.3233 59.4359 13.1312 59.1479 13.1102ZM23.6785 34.3937C22.9336 33.5536 22.5397 32.3953 22.733 31.1508C22.9687 29.632 24.4447 28.1381 25.9611 27.8867C27.0231 27.7107 28.0246 27.9626 28.8221 28.4966C29.2992 28.0735 29.8292 27.7217 30.3974 27.4495C29.7266 26.6942 29.3397 25.6811 29.4089 24.5792C29.5315 22.6221 31.1119 21.0297 33.0681 20.894C35.3709 20.7342 37.2955 22.5623 37.2955 24.8316C37.2955 25.8353 36.9182 26.7522 36.299 27.4495C36.8671 27.7218 37.3971 28.0736 37.8744 28.4967C38.6717 27.9627 39.6734 27.7108 40.7354 27.8868C42.2517 28.1382 43.7277 29.6322 43.9634 31.1512C44.1565 32.3957 43.7626 33.5537 43.0177 34.3938C45.0921 35.3856 46.595 37.3945 46.8547 39.8213C46.8999 40.2423 46.6749 40.6623 46.2551 40.848C46.1251 40.9055 45.9821 40.9277 45.8399 40.9277H34.296C34.2414 40.9277 34.1864 40.9258 34.1324 40.917C33.7336 40.8515 33.4722 40.6106 33.3481 40.3152C33.3052 40.417 33.2462 40.5122 33.1709 40.5961C32.9811 40.8071 32.7107 40.9277 32.4271 40.9277L20.8552 40.9278C20.713 40.9278 20.5699 40.9055 20.4399 40.8477C20.021 40.6616 19.7965 40.242 19.8416 39.8215C20.1011 37.3943 21.604 35.3856 23.6785 34.3937ZM37.1119 34.3937C36.9962 34.2633 36.8885 34.1258 36.7907 33.981H29.9055C29.8077 34.1258 29.7 34.2633 29.5844 34.3937C31.5154 35.317 32.9494 37.1218 33.3481 39.3247C33.7467 37.122 35.1807 35.317 37.1119 34.3937ZM30.1495 29.992C30.4232 30.5288 30.5787 31.1357 30.5787 31.7785C30.5787 31.8463 30.577 31.9138 30.5736 31.981H36.1227C36.1194 31.9138 36.1176 31.8463 36.1176 31.7785C36.1176 31.1356 36.2731 30.5288 36.5469 29.992C35.6695 29.215 34.5379 28.779 33.3482 28.779C32.1586 28.779 31.0269 29.2148 30.1495 29.992ZM40.0647 35.7257C37.9785 35.7257 36.1837 37.0425 35.5147 38.9278H44.6149C43.9456 37.0425 42.151 35.7257 40.0647 35.7257ZM38.1336 31.5245C37.9719 32.7966 39.0465 33.8712 40.3186 33.7095C41.1856 33.5992 41.8857 32.899 41.9959 32.032C42.1574 30.76 41.0829 29.6856 39.811 29.8472C38.944 29.9575 38.244 30.6575 38.1336 31.5245ZM31.4169 24.5776C31.255 25.8498 32.3299 26.9247 33.6021 26.7627C34.4691 26.6523 35.1691 25.9522 35.2792 25.0852C35.4407 23.8133 34.3664 22.739 33.0945 22.9005C32.2274 23.0105 31.5272 23.7105 31.4169 24.5776ZM26.3775 33.7095C27.6496 33.8712 28.7242 32.7966 28.5625 31.5245C28.4522 30.6575 27.7521 29.9573 26.8851 29.8472C25.6132 29.6856 24.5387 30.76 24.7002 32.032C24.8104 32.8991 25.5105 33.5992 26.3775 33.7095ZM22.0814 38.9278H31.1815C30.5122 37.0426 28.7176 35.7258 26.6315 35.7258C24.5451 35.7257 22.7504 37.0425 22.0814 38.9278Z"
        fill="#61d5d9" />
</svg>