<svg id="Capa_1" enable-background="new 0 0 512 512" height="512" viewBox="0 0 512 512" width="512" xmlns="http://www.w3.org/2000/svg"><g><g><path d="m408.282 404.997-82.792-29.221c-12.82-4.525-21.393-16.642-21.393-30.237v-41.443h-96.193v41.443c0 13.595-8.573 25.712-21.393 30.237l-82.792 29.221c-19.229 6.787-32.089 24.962-32.089 45.354v30.1h368.742v-30.1c-.001-20.392-12.861-38.567-32.09-45.354z" fill="#ffd18d"/><path d="m207.903 304.097v41.443c0 13.595-8.574 25.713-21.394 30.237l-7.559 2.667 7.997 22.68 7.562-2.669c15.972-5.634 28.221-17.9 33.928-33.321 1.175-3.174 2.886-6.122 5.389-8.4 3.911-3.559 9.131-5.124 14.408-4.787 19.242 1.23 38.131-2.012 55.863-9.226v-38.625h-96.194z" fill="#fbbd80"/><path d="m408.282 404.997-78.352-27.654-39.126 7.76c-6.994 4.662-12.345 11.406-15.296 19.276l-12.003 32.009c-2.601 6.935-12.411 6.935-15.012 0l-12.003-32.009c-2.951-7.87-8.302-14.613-15.296-19.276l-33.208-9.982c-.501.205-.962.474-1.477.655l-82.792 29.221c-19.229 6.787-32.089 24.962-32.089 45.354l24.049 54.149h256.516l16.032-8.9 16.032 8.9h56.113v-54.148c.001-20.392-12.858-38.568-32.088-45.355z" fill="#77cc7d"/><path d="m95.677 450.352c0-10.181 6.45-19.293 16.048-22.678l90.354-31.884-6.492-18.383-7.601-2.285c-.5.205-.962.474-1.476.655l-82.793 29.221c-19.229 6.787-32.089 24.962-32.089 45.354v54.148h24.048v-54.148z" fill="#52bd7e"/><path d="m221.195 385.103-31.872-21.248c-3.179-2.12-7.413-1.7-10.115 1.002l-19.401 19.402 19.564 39.127c2.298 4.597 8.268 5.874 12.246 2.619l39.077-31.972c-2.655-3.448-5.834-6.487-9.499-8.93z" fill="#9ae59c"/><path d="m290.847 385.103 31.872-21.248c3.179-2.12 7.413-1.7 10.115 1.002l19.401 19.402-19.564 39.127c-2.298 4.597-8.268 5.874-12.246 2.619l-39.077-31.972c2.655-3.448 5.834-6.487 9.499-8.93z" fill="#9ae59c"/><path d="m364.642 275.376-52.956 8.785v56.983c0 13.595 8.573 25.712 21.393 30.237l16.008 5.65c6.41 2.262 10.696 8.321 10.696 15.118l8.442 112.351h16.032c0-64.129 24.048-80.161 24.048-128.258.001-51.993-31.671-67.105-43.663-100.866z" fill="#d48c64"/><path d="m364.642 275.376-52.956 8.785v56.983c0 13.595 8.573 25.712 21.393 30.237l16.008 5.65c6.41 2.262 10.696 8.321 10.696 15.118l16.459 112.351h8.016c0-64.129 24.048-80.161 24.048-128.258 0-51.993-31.672-67.105-43.664-100.866z" fill="#d48c64"/><path d="m349.501 358.746-16.009-5.652c-3.194-1.127-5.347-4.161-5.347-7.554v-11.508c0-2.579 1.104-4.92 2.951-6.255 15.604-11.303 28.509-26.056 37.675-42.922-5.113-10.174-8.666-21.753-8.666-36.871l-56.008 8.016v89.54c0 13.595 8.573 25.712 21.393 30.237l16.008 5.65c6.41 2.262 10.696 8.321 10.696 15.118v107.955h24.048v-107.959c0-16.964-10.748-32.151-26.741-37.795z" fill="#c6805d"/><path d="m256 328.145v-2.282c-57.553 0-104.21-44.374-104.21-101.927v-128.259h208.42v128.258c0 57.554-46.657 104.21-104.21 104.21z" fill="#ffe09c"/><path d="m203.151 196.721c49.835-16.803 91.583-52.304 114.543-97.407l1.849-3.636h-167.753v128.258c0 57.553 46.656 104.21 104.21 104.21 12.572 0 24.57-2.34 35.73-6.42l-18.469-2.86c-47.165-7.304-81.39-47.228-81.39-94.929v-11.934c0-6.867 4.533-13.008 11.28-15.282z" fill="#ffd18d"/><path d="m312.113 39.565-32.065 64.129c13.763 17.066 42.399 40.235 64.861 57.273 9.667 7.332 15.3 18.772 15.3 30.905h16.032v-88.177c.001-35.419-28.711-64.13-64.128-64.13z" fill="#d48c64"/><path d="m143.774 183.855c85.28-3.811 156.468-65.193 168.339-144.29h-112.226c-35.417 0-64.129 28.712-64.129 64.129v80.161z" fill="#c6805d"/><path d="m223.6 247.984c-4.152 0-6.76 4.304-5.061 8.092 6.329 14.115 20.718 23.972 37.461 23.972s31.132-9.857 37.461-23.972c1.699-3.788-.91-8.092-5.061-8.092z" fill="#fff"/><path d="m408.306 247.984h-32.065v-64.129h32.065c8.854 0 16.032 7.178 16.032 16.032v32.065c.001 8.854-7.177 16.032-16.032 16.032z" fill="#77cc7d"/><path d="m207.903 296.081h-8.016c-8.854 0-16.032 7.178-16.032 16.032 0 8.854 7.178 16.032 16.032 16.032h8.016c8.854 0 16.032-7.178 16.032-16.032 0-8.854-7.177-16.032-16.032-16.032z" fill="#615260"/><path d="m103.694 247.984h32.065v-64.129h-32.065c-8.854 0-16.032 7.178-16.032 16.032v32.065c-.001 8.854 7.177 16.032 16.032 16.032z" fill="#52bd7e"/><g fill="#615260"><path d="m143.774 256h-16.032c-4.427 0-8.016-3.589-8.016-8.016v-64.129c0-4.427 3.589-8.016 8.016-8.016h16.032c4.427 0 8.016 3.589 8.016 8.016v64.129c0 4.427-3.589 8.016-8.016 8.016z"/><path d="m384.258 256h-16.032c-4.427 0-8.016-3.589-8.016-8.016v-64.129c0-4.427 3.589-8.016 8.016-8.016h16.032c4.427 0 8.016 3.589 8.016 8.016v64.129c0 4.427-3.589 8.016-8.016 8.016z"/></g></g><g><path d="m215.403 207.903v-8.016c0-4.142-3.358-7.5-7.5-7.5s-7.5 3.358-7.5 7.5v8.016c0 4.142 3.358 7.5 7.5 7.5s7.5-3.358 7.5-7.5z"/><path d="m304.097 192.387c-4.142 0-7.5 3.358-7.5 7.5v8.016c0 4.142 3.358 7.5 7.5 7.5s7.5-3.358 7.5-7.5v-8.016c0-4.142-3.358-7.5-7.5-7.5z"/><path d="m312.113 168.339h-16.032c-4.142 0-7.5 3.357-7.5 7.5 0 4.142 3.358 7.5 7.5 7.5h16.032c4.142 0 7.5-3.358 7.5-7.5 0-4.143-3.358-7.5-7.5-7.5z"/><path d="m413.935 399.16c1.164-6.936 1.872-14.438 1.872-22.917 0-35.523-14.178-55.526-26.688-73.175-8.89-12.542-16.841-23.773-20.029-39.567h15.064c5.836 0 10.925-3.242 13.574-8.016h10.475c12.976 0 23.532-10.556 23.532-23.532v-32.064c0-10.354-6.724-19.161-16.032-22.3v-73.894c0-57.178-46.517-103.695-103.694-103.695h-112.226c-57.177 0-103.693 46.517-103.693 103.693v73.894c-9.309 3.139-16.033 11.946-16.033 22.3v32.064c0 12.976 10.557 23.532 23.533 23.532h8.532v.517c0 35.076 28.537 63.613 63.613 63.613h1.749c3.139 9.308 11.946 16.033 22.3 16.033h.62v9.895c0 5.012-1.496 9.793-4.269 13.842l-2.651-1.767c-6.133-4.089-14.366-3.274-19.579 1.938l-19.66 19.658-53.023 18.714c-22.187 7.83-37.093 28.899-37.093 52.427v54.147c0 4.142 3.358 7.5 7.5 7.5s7.5-3.358 7.5-7.5v-54.148c0-17.18 10.885-32.564 27.085-38.282l50.246-17.733 16.16 32.32c2.133 4.266 6.033 7.271 10.701 8.248s9.447-.214 13.11-3.267l32.14-26.783c.323.706.622 1.425.897 2.159l12.003 32.009c2.294 6.116 7.997 10.068 14.528 10.068s12.234-3.952 14.528-10.068l12.003-32.009c.275-.732.581-1.448.904-2.153l32.133 26.778c2.825 2.354 6.312 3.601 9.901 3.601 1.065 0 2.141-.11 3.209-.334 4.668-.977 8.568-3.982 10.701-8.248l5.314-10.628v88.47c0 4.142 3.358 7.5 7.5 7.5s7.5-3.358 7.5-7.5v-107.956c0-9.958-6.31-18.876-15.7-22.19l-16.007-5.65c-9.803-3.459-16.389-12.769-16.389-23.164v-24.804c19.109-11.041 34.66-27.579 44.486-47.433 4.505 15.436 12.742 27.07 20.799 38.438 12.304 17.358 23.925 33.755 23.925 64.501 0 21.095-4.792 35.356-10.341 51.87-6.425 19.122-13.708 40.795-13.708 76.388 0 4.142 3.358 7.5 7.5 7.5s7.5-3.358 7.5-7.5c0-33.141 6.571-52.697 12.926-71.61 2.097-6.241 4.148-12.357 5.91-18.759 13.507 6.836 22.277 20.803 22.277 36.22v54.149c0 4.142 3.358 7.5 7.5 7.5s7.5-3.358 7.5-7.5v-54.148c.001-22.392-13.506-42.547-33.935-51.192zm2.8-199.273v32.064c0 4.705-3.828 8.532-8.532 8.532h-8.532v-49.129h8.532c4.704 0 8.532 3.829 8.532 8.533zm-304.613 40.597h-8.532c-4.705 0-8.533-3.828-8.533-8.532v-32.064c0-4.705 3.828-8.533 8.533-8.533h8.532zm1.942-64.13h-2.975v-72.661c.001-48.905 39.788-88.693 88.694-88.693h112.226c48.906 0 88.694 39.788 88.694 88.693v72.661h-2.975c-2.649-4.774-7.738-8.016-13.574-8.016h-.413v-64.646c0-39.496-32.133-71.629-71.629-71.629h-112.225c-39.496 0-71.629 32.133-71.629 71.629v64.646h-.62c-5.836.001-10.925 3.242-13.574 8.016zm46.375-25.364c.647 3.633 3.809 6.187 7.375 6.187.437 0 .879-.039 1.324-.118 56.909-10.133 102.359-53.95 114.924-109.994h17.452c-13.922 70.124-73.037 122.957-144.597 128.751-2.726-4.474-7.635-7.477-13.246-7.477h-.412v-64.646c0-31.225 25.404-56.629 56.629-56.629h68.753c-12.257 48.613-52.283 86.351-102.132 95.227-4.079.727-6.796 4.621-6.07 8.699zm-33.317 96.994v-64.129c0-.284.231-.516.516-.516h16.032c.285 0 .516.231.516.516v64.129c0 .285-.231.516-.516.516h-16.032c-.284 0-.516-.231-.516-.516zm50.362 56.629h-1.749c-24.255 0-44.415-17.856-48.032-41.113h15.968c2.575 0 4.999-.64 7.139-1.754 5.669 15.736 14.842 30.156 26.971 42.034-.105.275-.203.553-.297.833zm22.299 16.033c-4.705 0-8.532-3.828-8.532-8.533s3.828-8.532 8.532-8.532h8.016c4.705 0 8.532 3.828 8.532 8.533 0 4.704-3.828 8.532-8.532 8.532zm-12.954 99.467c-.057.048-.192.159-.437.109-.244-.052-.322-.208-.356-.274l-17.104-34.209 15.579-15.579c.173-.173.447-.201.651-.064l31.872 21.248c.795.53 1.562 1.091 2.301 1.681zm127.433-41.634c2.68 1.785 5.602 3.265 8.732 4.37l16.007 5.65c.773.273 1.48.663 2.124 1.126l-15.162 30.324c-.033.066-.111.223-.355.274-.245.049-.38-.061-.437-.109l-32.499-27.083c.739-.59 1.499-1.158 2.293-1.688zm38.344-194.625v40.234c-.083 53.249-43.447 96.557-96.705 96.557-4.142 0-7.5 3.357-7.5 7.5 0 4.142 3.358 7.5 7.5 7.5 14.351 0 28.078-2.725 40.695-7.68v17.574c0 8.08 2.476 15.748 6.807 22.15l-16.759 11.172c-8.354 5.57-14.633 13.482-18.158 22.883l-12.003 32.008c-.07.188-.125.335-.483.335s-.413-.148-.483-.335l-12.003-32.009c-3.525-9.401-9.804-17.313-18.158-22.883l-16.736-11.157c4.41-6.493 6.785-14.146 6.785-22.165v-11.163c9.254-3.17 15.928-11.95 15.928-22.265 0-12.976-10.557-23.532-23.532-23.532h-8.016c-4.564 0-8.826 1.31-12.437 3.568-17.924-18.032-28.128-42.575-28.16-68.094v-33.375c51.787-4.506 97.521-31.555 126.776-71.667 23.005 26.37 45.212 40.405 46.224 41.038 1.235.772 2.608 1.14 3.964 1.14 2.498 0 4.94-1.249 6.364-3.522 2.197-3.509 1.132-8.135-2.374-10.335-.239-.15-23.133-14.673-45.557-41.312 10.661-17.732 18.295-37.542 22.16-58.753 29.065 2.366 51.998 26.759 51.998 56.424v64.646h-.62c-8.557.003-15.517 6.963-15.517 15.518zm15 64.13v-64.129c0-.284.231-.516.516-.516h16.032c.285 0 .516.231.516.516v64.129c0 .285-.231.516-.516.516h-16.032c-.285 0-.516-.231-.516-.516z"/><path d="m296.081 240.484h-80.161c-2.256 0-4.392 1.016-5.816 2.765-1.424 1.75-1.985 4.048-1.527 6.257 4.568 22.043 24.513 38.042 47.424 38.042s42.856-16 47.424-38.042c.458-2.209-.103-4.507-1.527-6.257-1.425-1.749-3.562-2.765-5.817-2.765zm-40.081 32.064c-12.466 0-23.65-6.798-29.374-17.064h58.748c-5.724 10.266-16.908 17.064-29.374 17.064z"/></g></g></svg>