<svg id="Layer_1" enable-background="new 0 0 512 512" viewBox="0 0 512 512" xmlns="http://www.w3.org/2000/svg"><g clip-rule="evenodd" fill-rule="evenodd"><g><g><path d="m288.284 209.417c-1.6 16.171-15.592 28.814-32.619 28.814-17.115 0-31.165-12.776-32.641-29.066l-4.714-22.495h74.686z" fill="#c9f0ff"/><path d="m255.654 8.504c-42.351.52-76.505 32.978-76.505 72.947 0 49.695 36.339 62.234 41.368 94.371h35.137 35.137c5.029-32.137 41.368-44.677 41.368-94.371 0-39.97-34.154-72.427-76.505-72.947z" fill="#ffd54f"/><path d="m248.863 171.523-23.076-97.912 30.213 30.292 30.213-30.292-24.293 100.898z" fill="#ffb700"/><path d="m218.311 164.203h74.685c6.178 0 11.233 5.055 11.233 11.233s-5.055 11.233-11.233 11.233c6.178 0 11.233 5.055 11.233 11.233s-5.055 11.233-11.233 11.233h-74.685c-6.178 0-11.233-5.055-11.233-11.233s5.055-11.233 11.233-11.233c-6.178 0-11.233-5.055-11.233-11.233s5.055-11.233 11.233-11.233z" fill="#f1cb86"/><path d="m218.311 186.669h74.686c6.178 0 11.233-5.055 11.233-11.232 0-6.189-5.065-11.233-11.233-11.233-24.895 0-49.79 0-74.686 0-6.168 0-11.233 5.045-11.233 11.233 0 6.177 5.055 11.232 11.233 11.232z" fill="#ecbe6b"/></g><g><path d="m83.455 200.997h20.09c2.863 0 5.204 2.342 5.204 5.204v9.478c0 5.733 3.271 10.628 8.567 12.821 5.296 2.194 11.07 1.045 15.124-3.008l6.702-6.702c2.024-2.024 5.336-2.024 7.36 0l14.206 14.206c2.024 2.024 2.024 5.336 0 7.36l-6.702 6.702c-4.053 4.054-5.202 9.828-3.008 15.124s7.089 8.567 12.821 8.567h9.478c2.863 0 5.204 2.342 5.204 5.204v20.09c0 2.862-2.342 5.204-5.204 5.204h-9.478c-5.732 0-10.627 3.271-12.821 8.567s-1.045 11.07 3.008 15.124l6.702 6.702c2.024 2.024 2.024 5.336 0 7.36l-14.206 14.206c-2.024 2.024-5.336 2.024-7.36 0l-6.702-6.702c-4.054-4.054-9.827-5.202-15.124-3.008-5.296 2.194-8.567 7.089-8.567 12.821v9.478c0 2.862-2.342 5.204-5.204 5.204h-20.09c-2.862 0-5.204-2.342-5.204-5.204v-9.478c0-5.732-3.271-10.627-8.567-12.821-5.297-2.194-11.07-1.045-15.124 3.008l-6.702 6.702c-2.024 2.024-5.336 2.024-7.36 0l-14.206-14.206c-2.024-2.024-2.024-5.336 0-7.36l6.702-6.702c4.054-4.054 5.202-9.827 3.008-15.124-2.194-5.296-7.089-8.567-12.821-8.567h-9.478c-2.863 0-5.204-2.342-5.204-5.204v-20.09c0-2.862 2.342-5.204 5.204-5.204h9.478c5.733 0 10.628-3.271 12.821-8.567s1.045-11.07-3.008-15.124l-6.702-6.702c-2.024-2.024-2.024-5.336 0-7.36l14.206-14.206c2.024-2.024 5.336-2.024 7.36 0l6.702 6.702c4.054 4.053 9.827 5.202 15.124 3.008 5.296-2.194 8.567-7.089 8.567-12.821v-9.478c0-2.862 2.341-5.204 5.204-5.204z" fill="#7a7785"/><path d="m93.5 322.764c20.251 0 36.766-16.516 36.766-36.767 0-20.25-16.516-36.766-36.766-36.766s-36.767 16.516-36.767 36.766 16.516 36.767 36.767 36.767z" fill="#f0f0f0"/></g><g><ellipse cx="418.5" cy="285.997" fill="#ffd54f" rx="85" ry="85" transform="matrix(.997 -.083 .083 .997 -22.163 35.493)"/><ellipse cx="418.5" cy="285.997" fill="#ffb700" rx="59.579" ry="59.58" transform="matrix(.028 -1 1 .028 121.002 696.4)"/></g><g><path d="m177.867 443.268h26.57c2.754 0 5 2.246 5 5v50.229c0 2.754-2.246 5-5 5h-26.57c-2.754 0-5-2.246-5-5v-50.229c.001-2.754 2.246-5 5-5z" fill="#ff6372"/><path d="m242.715 416.254h26.57c2.754 0 5 2.246 5 5v77.243c0 2.754-2.246 5-5 5-8.857 0-17.714 0-26.57 0-2.754 0-5-2.246-5-5 0-25.748 0-51.496 0-77.243 0-2.755 2.246-5 5-5z" fill="#6ce75a"/><path d="m307.562 389.24h26.57c2.754 0 5 2.246 5 5v104.257c0 2.754-2.246 5-5 5-8.857 0-17.713 0-26.57 0-2.754 0-5-2.246-5-5 0-34.753 0-69.505 0-104.257 0-2.754 2.246-5 5-5z" fill="#43a2ff"/></g></g><path d="m60.429 165.68c7.06-21.356 17.531-41.401 31.119-59.578 9.088-12.159 19.408-23.224 30.779-33.062l-14.588-1.283c-4.132-.363-7.183-4.004-6.82-8.131.368-4.122 4.009-7.169 8.127-6.81l33.454 2.948c1.976.175 3.806 1.127 5.089 2.651 1.278 1.528 1.901 3.495 1.722 5.481l-2.943 33.449c-.349 3.9-3.618 6.839-7.471 6.839-.217 0-.439-.009-.66-.028-4.127-.363-7.178-4.004-6.806-8.131l1.429-16.248c-10.843 9.282-20.663 19.762-29.303 31.312-12.616 16.876-22.337 35.482-28.888 55.3-1.037 3.155-3.971 5.15-7.117 5.15-.783 0-1.571-.123-2.363-.382-3.931-1.303-6.062-5.543-4.76-9.477zm94.988 302.347c-1.189 2.891-3.99 4.641-6.938 4.641-.953 0-1.924-.18-2.853-.561-15.196-6.259-29.718-14.371-43.16-24.101-12.286-8.909-23.521-19.05-33.52-30.27l-1.071 14.611c-.278 3.938-3.58 6.952-7.471 6.952-.174 0-.368 0-.547-.023-4.132-.297-7.24-3.886-6.938-8.018l2.438-33.492c.137-1.99 1.071-3.83 2.58-5.127 1.5-1.302 3.447-1.953 5.447-1.811l33.491 2.438c4.132.302 7.23 3.891 6.928 8.023-.297 4.136-3.877 7.24-8.018 6.938l-16.281-1.179c9.452 10.688 20.078 20.347 31.76 28.808 12.48 9.041 25.959 16.574 40.071 22.38 3.832 1.57 5.662 5.961 4.082 9.791zm288.49-66.19c-6.132 8.282-12.961 16.201-20.3 23.53-10.73 10.739-22.521 20.219-35.18 28.332l14.258 3.349c4.033.948 6.532 4.99 5.584 9.018-.811 3.462-3.891 5.792-7.301 5.792-.561 0-1.141-.071-1.722-.198l-32.689-7.702c-1.929-.448-3.608-1.66-4.651-3.349-1.047-1.689-1.382-3.731-.929-5.669l7.697-32.68c.953-4.042 4.98-6.532 9.022-5.584 4.028.943 6.528 4.981 5.579 9.013l-3.74 15.89c12.05-7.641 23.271-16.621 33.473-26.808 6.806-6.82 13.149-14.173 18.847-21.861 2.462-3.32 7.16-4.023 10.489-1.561 3.327 2.47 4.035 7.167 1.563 10.488zm-16.05-287.207c10.73 10.739 20.219 22.53 28.331 35.185l3.349-14.258c.943-4.033 4.999-6.532 9.008-5.579 4.056.948 6.556 4.985 5.613 9.018l-7.688 32.685c-.849 3.452-3.915 5.782-7.31 5.782-.566 0-1.179-.066-1.745-.203l-32.68-7.693c-4.028-.948-6.528-4.985-5.575-9.018.948-4.033 4.985-6.532 9.018-5.584l15.89 3.74c-7.641-12.055-16.621-23.271-26.822-33.468-14.909-14.904-31.925-27.181-50.607-36.491-3.712-1.849-5.212-6.353-3.372-10.06 1.854-3.707 6.353-5.216 10.06-3.368 20.129 10.037 38.471 23.262 54.53 39.312zm-131.121 255.899c-.618 0-1.259-.085-1.891-.241-4.009-1.052-6.405-5.141-5.367-9.15l2.608-9.99-85.528 49.376c-1.179.679-2.472 1-3.74 1-2.599 0-5.122-1.339-6.509-3.749-2.07-3.589-.844-8.169 2.75-10.239l85.24-49.221-9.673-2.519c-4.009-1.038-6.41-5.141-5.358-9.15 1.038-4.009 5.141-6.409 9.15-5.363l27.351 7.131c4.009 1.052 6.41 5.15 5.358 9.15l-7.126 27.36c-.884 3.374-3.926 5.605-7.265 5.605zm34.901 125.467v-99.248h-21.568v99.248zm7.5-114.247h-36.567c-4.146 0-7.504 3.349-7.504 7.499v114.251c0 4.146 3.358 7.499 7.504 7.499h36.567c4.141 0 7.499-3.353 7.499-7.499v-114.251c0-4.15-3.359-7.499-7.499-7.499zm-72.341 114.247h-21.578v-72.237h21.578zm7.499-87.24h-36.576c-4.141 0-7.504 3.363-7.504 7.499v87.245c0 4.146 3.363 7.499 7.504 7.499h36.576c4.141 0 7.504-3.353 7.504-7.499v-87.245c0-4.137-3.363-7.499-7.504-7.499zm-72.345 87.24h-21.573v-45.226h21.573zm7.499-60.229h-36.571c-4.141 0-7.499 3.363-7.499 7.499v60.234c0 4.146 3.358 7.499 7.499 7.499h36.571c4.141 0 7.499-3.353 7.499-7.499v-60.234c0-4.137-3.358-7.499-7.499-7.499zm232.35-135.329c0 9.956-6.678 18.399-15.791 21.059v3.16c0 4.151-3.363 7.499-7.499 7.499-4.141 0-7.504-3.349-7.504-7.499v-3.598c-8.419-3.071-14.437-11.15-14.437-20.62 0-4.141 3.358-7.499 7.499-7.499s7.499 3.358 7.499 7.499c0 3.83 3.113 6.938 6.943 6.938h1.349c3.82 0 6.938-3.108 6.938-6.938 0-3.82-3.117-6.943-6.938-6.943h-2.702c-12.088 0-21.936-9.834-21.936-21.936 0-9.961 6.678-18.394 15.786-21.059v-3.16c0-4.141 3.363-7.499 7.504-7.499 4.136 0 7.499 3.358 7.499 7.499v3.603c8.419 3.07 14.442 11.155 14.442 20.616 0 4.146-3.363 7.504-7.504 7.504-4.136 0-7.499-3.358-7.499-7.504 0-3.82-3.108-6.938-6.938-6.938h-1.353c-3.816 0-6.938 3.118-6.938 6.938 0 3.83 3.122 6.943 6.938 6.943h2.702c12.087-.001 21.94 9.842 21.94 21.935zm-23.29 37.642c28.718 0 52.065-23.365 52.065-52.079 0-28.718-23.346-52.079-52.065-52.079-28.723 0-52.083 23.361-52.083 52.079 0 28.714 23.36 52.079 52.083 52.079zm0-119.156c-36.991 0-67.082 30.091-67.082 67.077s30.091 67.077 67.082 67.077c36.972 0 67.063-30.091 67.063-67.077s-30.091-67.077-67.063-67.077zm0 144.573c42.726 0 77.486-34.76 77.486-77.496s-34.76-77.501-77.486-77.501c-42.731 0-77.5 34.765-77.5 77.501s34.769 77.496 77.5 77.496zm0-169.994c-51.003 0-92.503 41.495-92.503 92.499 0 51.008 41.5 92.498 92.503 92.498 50.98 0 92.485-41.49 92.485-92.498 0-51.004-41.505-92.499-92.485-92.499zm-354.269 92.498c0-16.14 13.13-29.266 29.265-29.266 16.144 0 29.275 13.126 29.275 29.266 0 16.135-13.131 29.265-29.275 29.265-16.135.001-29.265-13.13-29.265-29.265zm73.538 0c0-24.408-19.861-44.269-44.273-44.269-24.408 0-44.269 19.861-44.269 44.269 0 24.407 19.861 44.264 44.269 44.264 24.412 0 44.273-19.856 44.273-44.264zm-93.593 60.276 5.079-5.07c6.23-6.23 15.154-8.008 23.294-4.641 8.136 3.372 13.197 10.942 13.197 19.752v7.178h15.503v-7.178c0-8.81 5.056-16.38 13.201-19.752 8.136-3.368 17.054-1.599 23.29 4.641l5.075 5.07 10.961-10.952-5.079-5.08c-6.226-6.23-7.999-15.159-4.627-23.299 3.368-8.141 10.938-13.201 19.748-13.201h7.178v-15.494h-7.178c-8.81 0-16.38-5.056-19.748-13.196-3.372-8.141-1.599-17.069 4.627-23.299l5.079-5.075-10.961-10.961-5.075 5.079c-6.235 6.231-15.154 8.009-23.29 4.632-8.145-3.372-13.201-10.937-13.201-19.748v-7.183h-15.502v7.183c0 8.81-5.061 16.376-13.197 19.748-8.14 3.372-17.064 1.594-23.294-4.632l-5.079-5.079-10.957 10.956 5.08 5.08c6.23 6.23 7.999 15.159 4.632 23.299-3.372 8.141-10.942 13.196-19.752 13.196h-7.178v15.494h7.178c8.81 0 16.38 5.061 19.752 13.201 3.368 8.141 1.599 17.069-4.632 23.299l-5.08 5.08zm15.682 5.533c1.92-1.915 4.448-2.424 6.947-1.382 2.514 1.037 3.943 3.179 3.943 5.891v9.48c0 6.999 5.702 12.701 12.711 12.701h20.078c7.013 0 12.711-5.702 12.711-12.701v-9.48c0-2.712 1.429-4.853 3.938-5.891 2.5-1.042 5.032-.533 6.952 1.382l6.702 6.697c2.387 2.401 5.58 3.721 8.976 3.721 3.405 0 6.593-1.321 8.98-3.721l14.211-14.201c2.401-2.401 3.721-5.589 3.721-8.98 0-3.4-1.321-6.589-3.721-8.99l-6.697-6.697c-1.919-1.924-2.419-4.452-1.382-6.952 1.033-2.5 3.184-3.938 5.891-3.938h9.48c6.999 0 12.701-5.702 12.701-12.701v-20.092c0-7.004-5.702-12.706-12.701-12.706h-9.48c-2.707 0-4.858-1.434-5.891-3.933-1.038-2.504-.537-5.037 1.382-6.952l6.697-6.702c2.401-2.391 3.721-5.584 3.721-8.985 0-3.396-1.321-6.584-3.721-8.98l-14.211-14.206c-2.387-2.396-5.575-3.717-8.98-3.717-3.396 0-6.589 1.321-8.976 3.717l-6.702 6.702c-1.92 1.915-4.452 2.42-6.952 1.382-2.509-1.037-3.938-3.184-3.938-5.891v-9.48c0-7.004-5.698-12.701-12.711-12.701h-20.078c-7.009 0-12.711 5.697-12.711 12.701v9.48c0 2.707-1.429 4.853-3.929 5.891-2.514 1.038-5.042.533-6.961-1.382l-6.702-6.702c-2.387-2.396-5.579-3.717-8.98-3.717-3.396 0-6.589 1.321-8.98 3.717l-14.206 14.206c-4.952 4.952-4.952 13.013 0 17.965l6.697 6.702c1.92 1.915 2.42 4.447 1.382 6.952-1.028 2.5-3.179 3.933-5.891 3.933h-9.48c-6.999 0-12.701 5.702-12.701 12.706v20.092c0 6.999 5.702 12.701 12.701 12.701h9.48c2.712 0 4.863 1.439 5.891 3.938 1.038 2.5.538 5.028-1.382 6.952l-6.697 6.697c-4.952 4.962-4.952 13.013 0 17.97l14.206 14.201c2.391 2.401 5.584 3.721 8.98 3.721 3.4 0 6.593-1.321 8.98-3.721zm283.561-317.275c-2.071-3.589-.84-8.178 2.75-10.249l19.908-11.498c3.594-2.071 8.183-.84 10.254 2.75 2.066 3.584.84 8.173-2.754 10.244l-19.909 11.498c-1.179.684-2.471 1.005-3.74 1.005-2.599 0-5.122-1.344-6.509-3.75zm-174.838 100.946c-2.071-3.584-6.664-4.816-10.253-2.745l-19.908 11.499c-3.589 2.07-4.82 6.66-2.754 10.244 1.391 2.405 3.915 3.754 6.504 3.754 1.278 0 2.57-.325 3.75-1.009l19.908-11.499c3.588-2.071 4.819-6.655 2.753-10.244zm-32.916-119.943c2.075-3.589 6.664-4.82 10.253-2.745l19.908 11.499c3.589 2.07 4.82 6.655 2.754 10.244-1.391 2.405-3.915 3.749-6.513 3.749-1.269 0-2.561-.321-3.74-1.005l-19.908-11.499c-3.588-2.07-4.819-6.659-2.754-10.243zm207.754 119.943c-2.071 3.589-.84 8.173 2.75 10.244l19.908 11.499c1.193.684 2.472 1.009 3.75 1.009 2.589 0 5.113-1.349 6.504-3.754 2.066-3.584.84-8.174-2.754-10.244l-19.908-11.499c-3.59-2.07-8.179-.844-10.25 2.745zm-87.419-119.481c38.057.514 69.006 29.864 69.006 65.459 0 20.446-8.678 41.363-25.077 60.502l-.222.259c-2.127 2.476-6.66 7.759-10.777 14.503h-15.013l19.587-81.354c.783-3.268-.698-6.66-3.627-8.301s-6.598-1.132-8.98 1.25l-24.898 24.969-24.903-24.969c-2.368-2.377-6.028-2.891-8.961-1.259-2.929 1.632-4.419 5.009-3.646 8.277l19.177 81.387h-14.597c-4.122-6.749-8.65-12.032-10.782-14.513l-.222-.25c-16.399-19.139-25.077-40.057-25.077-60.502.002-35.594 30.951-64.944 69.012-65.458zm-16.851 81.636 13.932 59.088h5.405l14.182-58.913-11.357 11.39c-1.415 1.41-3.32 2.202-5.311 2.202-1.995 0-3.9-.792-5.311-2.202zm53.96 81.557h-74.704c-2.019 0-3.726-1.707-3.726-3.731 0-2.028 1.707-3.736 3.726-3.736h74.704c2.018 0 3.74 1.707 3.74 3.736 0 2.024-1.721 3.731-3.74 3.731zm0 22.474h-74.704c-2.019 0-3.726-1.712-3.726-3.736 0-2.028 1.707-3.735 3.726-3.735h74.704c2.018 0 3.74 1.707 3.74 3.735 0 2.024-1.721 3.736-3.74 3.736zm-37.34 29.067c-9.961 0-18.79-5.754-22.87-14.069h45.778c-4.028 8.386-12.777 14.069-22.908 14.069zm-54.861-78.75-.231-.259c-18.767-21.894-28.69-46.193-28.69-70.266 0-21.394 8.782-41.533 24.7-56.706 15.79-15.041 36.821-23.478 59.224-23.752h.174c22.403.274 43.434 8.711 59.224 23.752 15.918 15.173 24.7 35.312 24.7 56.706 0 24.073-9.923 48.372-28.69 70.266l-.231.269c-1.41 1.637-4.023 4.683-6.721 8.527 4.532 3.424 7.48 8.838 7.48 14.942 0 4.207-1.401 8.098-3.759 11.23 2.358 3.137 3.759 7.027 3.759 11.239 0 9.806-7.579 17.857-17.177 18.654-4.622 16.998-20.323 29.152-38.901 29.152-18.63 0-34.288-12.135-38.892-29.152-9.621-.788-17.201-8.843-17.201-18.654 0-4.212 1.401-8.103 3.754-11.239-2.354-3.132-3.754-7.023-3.754-11.23 0-6.245 3.08-11.768 7.791-15.173-2.649-3.741-5.177-6.698-6.559-8.306z"/></g></svg>