<svg id="Layer_5" enable-background="new 0 0 64 64" height="512" viewBox="0 0 64 64" width="512" xmlns="http://www.w3.org/2000/svg"><g><g><g><path d="m2 24v-14h26v14c0 1.1-.9 2-2 2h-11-11c-1.1 0-2-.9-2-2z" fill="#e6e9ed"/></g><g><path d="m6 14h4v4h-4z" fill="#ff826e"/></g><g><path d="m2 10v-6c0-1.1.9-2 2-2h22c1.1 0 2 .9 2 2v6z" fill="#fcd770"/></g><g><path d="m44 52v6c0 2.21-4.82 4-12 4s-12-1.79-12-4v-6c0 2.21 4.82 4 12 4s12-1.79 12-4z" fill="#ffc729"/></g><g><path d="m32 44c7.18 0 12-1.79 12-4v6c0 2.21-4.82 4-12 4s-12-1.79-12-4v-6c0 2.21 4.82 4 12 4z" fill="#ffc729"/></g><g><path d="m32 50c7.18 0 12-1.79 12-4v3 3c0 2.21-4.82 4-12 4s-12-1.79-12-4v-3-3c0 2.21 4.82 4 12 4z" fill="#fcd770"/></g><g><path d="m38 36.49c3.74.68 6 2 6 3.51 0 2.21-4.82 4-12 4s-12-1.79-12-4c0-1.51 2.26-2.83 6-3.51 1.71-.31 3.74-.49 6-.49s4.29.18 6 .49z" fill="#fcd770"/></g><g><path d="m62 43v12c0 1.1-.9 2-2 2h-8c-1.1 0-2-.9-2-2v-6-6c0-1.1.9-2 2-2h8c1.1 0 2 .9 2 2z" fill="#f0d0b4"/></g><g><path d="m2 55v-12c0-1.1.9-2 2-2h8c1.1 0 2 .9 2 2v6 6c0 1.1-.9 2-2 2h-8c-1.1 0-2-.9-2-2z" fill="#f0d0b4"/></g><g><path d="m62 4v20c0 1.1-.9 2-2 2h-11-11c-1.1 0-2-.9-2-2v-20c0-1.1.9-2 2-2h22c1.1 0 2 .9 2 2z" fill="#e6e9ed"/></g><g><path d="m51 10h4v4h-4z" fill="#ff826e"/></g><g><path d="m51 10v4h-4v-6-2h4z" fill="#ff826e"/></g><g><path d="m43 8h4v6h-4z" fill="#ff826e"/></g></g><g><path d="m53 44h6v2h-6z"/><path d="m53 48h6v2h-6z"/><path d="m53 52h6v2h-6z"/><path d="m5 44h6v2h-6z"/><path d="m5 48h6v2h-6z"/><path d="m5 52h6v2h-6z"/><path d="m56 9h-4v-4h-6v2h-4v6h-2v2h18v-2h-2zm-2 2v2h-2v-2zm-4-4v2 4h-2v-6zm-6 2h2v4h-2z"/><path d="m40 17h4v2h-4z"/><path d="m46 17h12v2h-12z"/><path d="m40 21h18v2h-18z"/><path d="m9 5h2v2h-2z"/><path d="m5 5h2v2h-2z"/><path d="m13 5h2v2h-2z"/><path d="m11 13h-6v6h6zm-2 4h-2v-2h2z"/><path d="m13 13h12v2h-12z"/><path d="m13 17h12v2h-12z"/><path d="m5 21h2v2h-2z"/><path d="m9 21h16v2h-16z"/><path d="m50 33v-6h10c1.654 0 3-1.346 3-3v-20c0-1.654-1.346-3-3-3h-22c-1.654 0-3 1.346-3 3v20c0 1.654 1.346 3 3 3h10v4h-11v4.321c-1.506-.207-3.18-.321-5-.321s-3.494.114-5 .321v-4.321h-11v-4h10c1.654 0 3-1.346 3-3v-20c0-1.654-1.346-3-3-3h-22c-1.654 0-3 1.346-3 3v20c0 1.654 1.346 3 3 3h10v6h11v2.676c-3.742.827-6 2.362-6 4.324v8h-4v-5c0-1.654-1.346-3-3-3h-8c-1.654 0-3 1.346-3 3v12c0 1.654 1.346 3 3 3h8c1.654 0 3-1.346 3-3v-5h4v8c0 2.991 5.224 5 13 5s13-2.009 13-5v-8h4v5c0 1.654 1.346 3 3 3h8c1.654 0 3-1.346 3-3v-12c0-1.654-1.346-3-3-3h-8c-1.654 0-3 1.346-3 3v5h-4v-8c0-1.962-2.258-3.497-6-4.324v-2.676zm-13-9v-20c0-.551.449-1 1-1h22c.551 0 1 .449 1 1v20c0 .551-.449 1-1 1h-22c-.551 0-1-.449-1-1zm-33-21h22c.551 0 1 .449 1 1v5h-24v-5c0-.551.449-1 1-1zm-1 21v-13h24v13c0 .551-.449 1-1 1h-22c-.551 0-1-.449-1-1zm10 31c0 .551-.449 1-1 1h-8c-.551 0-1-.449-1-1v-12c0-.551.449-1 1-1h8c.551 0 1 .449 1 1zm38-12c0-.551.449-1 1-1h8c.551 0 1 .449 1 1v12c0 .551-.449 1-1 1h-8c-.551 0-1-.449-1-1zm-19 18c-7.678 0-11-1.987-11-3v-3.146c2.202 1.344 6.09 2.146 11 2.146s8.798-.802 11-2.146v3.146c0 1.013-3.322 3-11 3zm0-6c-7.678 0-11-1.987-11-3v-3.146c2.202 1.344 6.09 2.146 11 2.146s8.798-.802 11-2.146v3.146c0 1.013-3.322 3-11 3zm0-6c-7.678 0-11-1.987-11-3v-3.146c2.202 1.344 6.09 2.146 11 2.146s8.798-.802 11-2.146v3.146c0 1.013-3.322 3-11 3zm11-9c0 1.013-3.322 3-11 3s-11-1.987-11-3c0-.622 1.258-1.609 4-2.28v2.28h2v-2.667c1.4-.206 3.06-.333 5-.333s3.6.127 5 .333v2.667h2v-2.28c2.742.671 4 1.658 4 2.28z"/></g></g></svg>