<svg width="64" height="64" viewBox="0 0 64 64" fill="none" xmlns="http://www.w3.org/2000/svg">
    <g clip-path="url(#clip0_141_1092)">
        <path
            d="M36.2667 20.2667H36.1248L35.4507 15.5477C35.2196 13.9748 33.8736 12.8069 32.2837 12.8H30.9333V1.06667C30.9333 0.477563 30.4558 0 29.8667 0C29.2776 0 28.8 0.477563 28.8 1.06667V12.8H27.4496C25.8598 12.8069 24.5137 13.9748 24.2827 15.5477L23.6085 20.2667H23.4667C21.6994 20.2667 20.2667 21.6994 20.2667 23.4667V48C20.2667 49.7673 21.6994 51.2 23.4667 51.2H26.6667V57.6H22.4C21.2218 57.6 20.2667 58.5551 20.2667 59.7333V61.8667C20.2667 63.0449 21.2218 64 22.4 64H37.3333C38.5115 64 39.4667 63.0449 39.4667 61.8667V59.7333C39.4667 58.5551 38.5115 57.6 37.3333 57.6H33.0667V51.2H36.2667C38.034 51.2 39.4667 49.7673 39.4667 48V23.4667C39.4667 21.6994 38.034 20.2667 36.2667 20.2667ZM26.3947 15.8485C26.47 15.3237 26.9194 14.9338 27.4496 14.9333H32.2837C32.8143 14.9339 33.2638 15.3243 33.3387 15.8496L33.9701 20.2667H25.7632L26.3947 15.8485ZM23.4667 22.4H36.2667C36.8558 22.4 37.3333 22.8776 37.3333 23.4667V34.1333H22.4V23.4667C22.4 22.8776 22.8776 22.4 23.4667 22.4ZM37.3333 38.4H22.4V36.2667H37.3333V38.4ZM22.4 48V40.5333H28.8V49.0667H23.4667C22.8776 49.0667 22.4 48.5891 22.4 48ZM37.3333 61.8667H22.4V59.7333H37.3333V61.8667ZM30.9333 57.6H28.8V51.2H30.9333V57.6ZM36.2667 49.0667H30.9333V40.5333H37.3333V48C37.3333 48.5891 36.8558 49.0667 36.2667 49.0667Z"
            fill="#61d5d9" />
        <path
            d="M20.2667 4.26667C20.2667 1.91026 18.3564 3.3526e-06 16 3.3526e-06H4.26665C2.12076 -0.00266842 0.308181 1.59186 0.0372828 3.72058C-0.233616 5.8493 1.12183 7.84699 3.19998 8.38187V57.0667C3.19998 60.8958 6.30414 64 10.1333 64C13.9625 64 17.0667 60.8958 17.0667 57.0667V8.38187C18.9447 7.89697 20.2594 6.20631 20.2667 4.26667ZM10.1333 61.8667C7.48357 61.8637 5.33626 59.7164 5.33332 57.0667V30.9333H14.9333V57.0667C14.9304 59.7164 12.7831 61.8637 10.1333 61.8667ZM16 6.4H10.6667C10.0775 6.4 9.59999 6.87757 9.59999 7.46667C9.59999 8.05577 10.0775 8.53334 10.6667 8.53334H14.9333V28.8H5.33332V8.53334H6.39998C6.98909 8.53334 7.46665 8.05577 7.46665 7.46667C7.46665 6.87757 6.98909 6.4 6.39998 6.4H4.26665C3.08844 6.4 2.13332 5.44488 2.13332 4.26667C2.13332 3.08846 3.08844 2.13334 4.26665 2.13334H16C17.1782 2.13334 18.1333 3.08846 18.1333 4.26667C18.1333 5.44488 17.1782 6.4 16 6.4Z"
            fill="#61d5d9" />
        <path
            d="M10.1333 57.6C9.83876 57.6 9.59998 57.3613 9.59998 57.0667V54.4C9.59998 53.8109 9.12241 53.3334 8.53331 53.3334C7.94421 53.3334 7.46664 53.8109 7.46664 54.4V57.0667C7.46664 58.5395 8.66055 59.7334 10.1333 59.7334C10.7224 59.7334 11.2 59.2558 11.2 58.6667C11.2 58.0776 10.7224 57.6 10.1333 57.6Z"
            fill="#61d5d9" />
        <path
            d="M60.8437 20.2667H60.9184C62.0629 20.2319 62.9638 19.2781 62.9333 18.1334V16.0001C63.0249 13.7441 61.2773 11.8377 59.0219 11.7334H47.6448C45.3894 11.8377 43.6417 13.7441 43.7333 16.0001V18.1334C43.7028 19.2781 44.6037 20.2319 45.7483 20.2667H45.8229C45.7266 21.5781 45.261 22.8355 44.48 23.8934C43.3068 25.4648 42.6709 27.3723 42.6667 29.3334V59.7334C42.6667 62.0898 44.5769 64.0001 46.9333 64.0001H59.7333C62.0897 64.0001 64 62.0898 64 59.7334V29.3334C63.9957 27.3723 63.3599 25.4648 62.1867 23.8934C61.4052 22.8357 60.9396 21.5782 60.8437 20.2667ZM45.8667 16.0001C45.7793 14.9233 46.5699 13.9748 47.6448 13.8667H59.0219C60.0967 13.9748 60.8873 14.9233 60.8 16.0001L60.7893 18.1334H58.6667V17.0667C58.6667 16.4776 58.1891 16.0001 57.6 16.0001C57.0109 16.0001 56.5333 16.4776 56.5333 17.0667V18.1334H54.4V17.0667C54.4 16.4776 53.9224 16.0001 53.3333 16.0001C52.7442 16.0001 52.2667 16.4776 52.2667 17.0667V18.1334H50.1333V17.0667C50.1333 16.4776 49.6558 16.0001 49.0667 16.0001C48.4776 16.0001 48 16.4776 48 17.0667V18.1334H45.8667V16.0001ZM46.1867 25.1734C47.2509 23.7478 47.8756 22.0424 47.984 20.2667H58.6827C58.791 22.0424 59.4157 23.7478 60.48 25.1734C61.3771 26.3751 61.8633 27.8338 61.8667 29.3334V32.0001H44.8V29.3334C44.8033 27.8338 45.2896 26.3751 46.1867 25.1734ZM61.8667 53.3334H49.0667V48.0001C49.0667 47.411 48.5891 46.9334 48 46.9334C47.4109 46.9334 46.9333 47.411 46.9333 48.0001V53.3334H44.8V34.1334H46.9333V43.7334C46.9333 44.3225 47.4109 44.8001 48 44.8001C48.5891 44.8001 49.0667 44.3225 49.0667 43.7334V34.1334H61.8667V53.3334ZM59.7333 61.8667H46.9333C45.7551 61.8667 44.8 60.9116 44.8 59.7334V55.4667H61.8667V59.7334C61.8667 60.9116 60.9115 61.8667 59.7333 61.8667Z"
            fill="#61d5d9" />
    </g>
    <defs>
        <clipPath id="clip0_141_1092">
            <rect width="64" height="64" fill="white" />
        </clipPath>
    </defs>
</svg>