<?xml version="1.0" encoding="UTF-8"?>
<svg id="Layer_2" data-name="Layer 2" xmlns="http://www.w3.org/2000/svg" viewBox="0 0 658.29 2118.73">
  <defs>
    <style>
      .cls-1 {
        fill: #e7b10a;
        stroke-width: 0px;
      }
    </style>
  </defs>
  <g id="Layer_3" data-name="Layer 3">
    <g>
      <path class="cls-1" d="m317.21,2118.73c-.08-1.92-.24-3.85-.24-5.77-.02-34.47-.01-68.94-.01-103.41,0-1.91,0-3.83,0-6.17-33.75-19.59-67.39-39.12-101.86-59.12.12-2.19-.21-4.79.46-7.1,2.56-8.82,5.13-17.65,8.26-26.28,4.3-11.85,8.75-23.67,13.77-35.23,6.28-14.48,12.88-28.86,19.97-42.96,4.67-9.29,10.22-18.17,15.78-26.98,7.57-11.97,15.34-23.82,23.38-35.48,4.96-7.2,10.51-14,15.94-20.87,5.94-7.5,11.71-15.17,18.15-22.21,12.98-14.19,25.83-28.53,40.61-40.97,5.45-4.59,10.49-9.66,15.81-14.41,2.33-2.09,4.83-4,7.34-5.87,12.5-9.34,24.99-18.69,37.56-27.92,5.64-4.14,11.29-8.35,17.28-11.95,9.02-5.42,18.28-10.47,27.56-15.43,9.93-5.3,19.95-10.42,30.03-15.43,10.3-5.12,20.66-10.11,31.52-14,11.37-4.07,22.63-8.47,34.03-12.46,5.04-1.76,10.32-2.81,15.46-4.27,5.64-1.6,11.21-3.5,16.89-4.93,6.76-1.7,13.59-3.11,20.41-4.52,8.3-1.71,16.61-3.35,24.94-4.88,2.08-.38,4.25-.26,6.87-.39.34,2.26.81,3.96.82,5.66.08,8.68.05,17.35.05,26.03,0,19.85.04,39.71-.02,59.56-.02,7.71-.24,15.41-.41,23.11-.02.8-.28,1.6-.5,2.82-22.89,4.99-45.69,10.48-67.58,19.23-5.83,2.28-11.74,4.39-17.47,6.89-9.58,4.17-19.17,8.36-28.53,13-7.11,3.52-14.01,7.53-20.76,11.71-11.07,6.86-22.18,13.7-32.83,21.18-8.85,6.21-17.09,13.3-25.56,20.05-5.04,4.02-10.22,7.91-14.95,12.27-5.96,5.5-11.63,11.33-17.25,17.19-5.78,6.03-11.42,12.2-16.95,18.47-3.16,3.59-5.95,7.5-8.94,11.25-3.66,4.59-7.49,9.05-10.97,13.77-4.08,5.52-7.99,11.18-11.76,16.92-4.66,7.09-9.28,14.21-13.56,21.53-3.44,5.88-6.35,12.07-9.48,18.14-3.15,6.1-6.42,12.14-9.35,18.34-2.68,5.66-5.08,11.45-7.42,17.26-2.75,6.85-5.54,13.69-7.88,20.68-2.57,7.67-4.63,15.5-6.93,23.25-2.05,6.91-4.27,13.78-6.14,20.75-.77,2.87-.85,5.92-1.32,9.42,6.53,1.38,12.77,2.7,18.77,3.96,0,8.06,0,15.16,0,22.26,0,30.61,0,61.22,0,91.83,0,.82.09,1.65.15,2.47h-23.17Z"/>
      <path class="cls-1" d="m343.41,497.84c-8.76,2.46-16.85,4.73-24.95,7.01v851.38c-30.67,17.97-60.3,37.28-88.28,58.53-3.19-.86-2.56-3.1-2.57-4.89-.07-10.34-.05-20.68-.05-31.03,0-272.08,0-544.16,0-816.24,0-1.65-.21-3.36.12-4.95.26-1.23.92-2.79,1.9-3.39,5.94-3.66,12.02-7.1,18.07-10.6,9.16-5.29,18.33-10.57,27.49-15.85,10.81-6.23,21.64-12.44,32.44-18.69,2.38-1.38,4.7-2.85,7.62-4.63.26-1.77.81-3.88.84-6,.1-8.1.04-16.21.04-24.32.01-21.93-.07-43.85.06-65.78.18-28.51.5-57.03.84-85.54.04-3.18-.85-5.75-2.67-8.41-9.59-14.03-19.06-28.15-28.38-42.36-6.6-10.07-12.89-20.35-19.52-30.84,21.29-79.8,42.67-159.96,64.36-241.26,1.33,1.46,2.38,2.08,2.6,2.92,3.07,11.81,5.96,23.67,9.06,35.48,1.53,5.83,3.46,11.55,5.12,17.34,1.06,3.68,2,7.4,2.93,11.11,2.32,9.27,4.58,18.55,6.91,27.82,2.7,10.76,5.35,21.53,8.22,32.24,1.91,7.14,4.34,14.14,6.22,21.29,2.02,7.68,3.52,15.5,5.49,23.2,4.11,16.08,8.39,32.11,12.59,48.16,1.73,6.62,3.55,13.21,5.05,19.88.32,1.42-.22,3.36-1.02,4.64-4.35,6.99-8.84,13.88-13.39,20.74-7.82,11.78-15.71,23.53-23.61,35.26-3.15,4.67-6.2,9.44-9.68,13.86-2.57,3.27-3.38,6.78-3.38,10.75.03,29.51,0,59.02,0,88.53,0,25.93.04,51.85.03,77.78,0,2.15-.31,4.29-.51,6.84Z"/>
      <path class="cls-1" d="m657.48,1270.67c1.37,36.5-.19,72.58.81,108.62.06,2.26-.8,4.55-1.33,7.33-4.25.8-8.33,1.74-12.47,2.32-4.98.69-10.03.88-15,1.64-5.95.91-11.84,2.24-17.77,3.32-5.52,1-11.07,1.87-16.58,2.89-4.3.8-8.6,1.63-12.86,2.64-4.75,1.13-9.45,2.47-14.16,3.75-9.37,2.55-18.77,5-28.09,7.72-9.49,2.77-18.96,5.65-28.34,8.77-7.53,2.5-14.94,5.42-22.38,8.18-6.43,2.39-12.93,4.62-19.24,7.3-12.24,5.2-24.45,10.48-36.5,16.1-10.32,4.81-20.63,9.72-30.52,15.34-15.63,8.89-31.07,18.14-46.27,27.74-10.91,6.9-21.42,14.46-31.89,22.03-10.54,7.63-20.95,15.45-31.15,23.53-6.97,5.52-13.56,11.53-20.17,17.48-5.92,5.33-11.21,11.46-17.55,16.21-10.47,7.84-18.52,18.07-28.02,26.85-6.29,5.82-11.34,12.99-17.02,19.48-3.97,4.54-8.22,8.85-12.1,13.47-4.39,5.24-8.54,10.7-12.73,16.11-4.86,6.26-9.77,12.49-14.46,18.88-4.86,6.63-9.55,13.39-14.2,20.17-4.5,6.56-8.95,13.15-13.24,19.85-4.95,7.74-9.9,15.49-14.45,23.45-4.9,8.57-9.34,17.4-13.98,26.12-3.34,6.28-6.92,12.46-9.96,18.88-3.7,7.8-6.91,15.83-10.43,23.72-1.88,4.21-3.99,8.31-5.91,12.51-1.36,2.97-2.66,5.96-3.81,9.02-2.62,6.94-5.05,13.94-7.71,20.86-1.06,2.76-2.53,5.37-4.2,8.85-3.11-2.86-5.7-5.18-8.22-7.56-11.57-10.93-20.59-23.78-29.03-37.22-7.5-11.93-13.28-24.61-18.72-37.49-2.6-6.17-5.22-12.4-7.05-18.82-2.11-7.41-2.94-15.19-5.09-22.59-2.02-6.96.4-12.5,3.6-18.28,4.51-8.15,8.4-16.65,12.97-24.77,4.77-8.47,10.04-16.67,15.08-24.99,3.56-5.88,6.92-11.9,10.72-17.62,6.82-10.29,13.8-20.48,20.91-30.57,6.39-9.06,12.86-18.09,19.66-26.85,6.11-7.88,12.72-15.37,19.1-23.04,6.83-8.2,13.52-16.51,20.52-24.56,3.51-4.05,7.63-7.56,11.34-11.45,1.65-1.73,2.95-3.77,4.33-5.56,7.6-7.94,15.13-15.82,22.67-23.7.47-.49.92-1.04,1.46-1.44,10.23-7.42,18.92-16.61,28.45-24.82,9.05-7.8,18.31-15.36,27.63-22.85,9.52-7.65,19.12-15.21,28.88-22.56,6.12-4.61,12.54-8.81,18.89-13.11,9.09-6.17,18.12-12.42,27.37-18.34,8.31-5.32,16.83-10.33,25.35-15.3,8.97-5.23,17.95-10.46,27.12-15.33,9.68-5.14,19.53-9.94,29.39-14.73,12.2-5.92,24.37-11.95,36.77-17.42,9.25-4.07,18.84-7.37,28.31-10.91,9.77-3.65,19.54-7.31,29.39-10.73,8.39-2.92,16.86-5.61,25.35-8.22,7.94-2.44,15.91-4.76,23.93-6.91,7.15-1.91,14.39-3.51,21.58-5.26,7.83-1.91,15.61-4.06,23.5-5.72,7.21-1.52,14.53-2.49,21.79-3.78,6.58-1.17,13.12-2.61,19.73-3.61,7.53-1.14,15.11-1.91,22.67-2.88,5.27-.68,10.53-1.51,15.81-2.09,2.24-.25,4.53-.04,7.5-.04Z"/>
      <path class="cls-1" d="m657.89,1526.66c-7.21,1.17-13.38,2.16-19.55,3.17-4.19.68-8.43,1.16-12.55,2.12-10.01,2.33-20.01,4.72-29.92,7.41-10.44,2.83-20.81,5.9-31.14,9.13-8.76,2.74-17.44,5.78-26.09,8.85-4.78,1.7-9.52,3.56-14.13,5.67-14.74,6.75-29.58,13.32-44.06,20.59-10.78,5.42-21.2,11.6-31.54,17.86-11.24,6.81-22.43,13.75-33.21,21.26-11.59,8.09-22.86,16.67-33.92,25.49-8.07,6.44-15.75,13.4-23.27,20.49-12.28,11.56-24.43,23.26-36.32,35.22-4.71,4.73-8.5,10.35-12.87,15.43-3.2,3.72-6.84,7.07-9.97,10.85-4.1,4.97-7.94,10.15-11.79,15.32-5.42,7.26-10.85,14.51-16.07,21.91-3.94,5.59-7.78,11.28-11.27,17.16-6.66,11.2-13.2,22.48-19.5,33.88-5.57,10.09-11.14,20.22-16.01,30.66-5.38,11.54-10.01,23.44-14.84,35.24-.71,1.73-.75,3.74-1.15,5.87-7.6,12.26-9.17,27.09-14.66,41.06-2.74-1.22-4.98-2.13-7.16-3.19-9.69-4.72-18.49-11-27.86-16.26-11.85-6.66-23.89-12.98-35.5-20.04-9.61-5.85-18.71-12.51-27.98-18.91-1.2-.83-2-2.24-3.45-3.91,1.66-5.22,3.3-10.7,5.17-16.12,2.09-6.08,4.3-12.12,6.61-18.12,1.22-3.18,2.73-6.25,4.15-9.35,4.37-9.55,8.86-19.05,13.11-28.66,2.76-6.24,5.19-12.62,7.75-18.9,1.22-1.68,2.67-3.28,3.67-5.13,4.08-7.48,8.05-15.02,12.01-22.56,2.22-4.23,4.12-8.63,6.58-12.72,2.67-4.45,5.91-8.55,8.73-12.92,5.28-8.19,10.23-16.6,15.7-24.65,4.38-6.43,9.38-12.44,14.03-18.69,2.61-3.5,4.94-7.22,7.62-10.66,4.87-6.23,9.91-12.33,14.9-18.48,3.72-4.58,7.34-9.25,11.21-13.7,4.29-4.91,8.8-9.63,13.25-14.4,7.42-7.95,14.71-16.04,22.36-23.77,7.13-7.21,14.56-14.14,22.05-20.97,6.57-5.99,13.42-11.68,20.15-17.49,4.09-3.53,8.03-7.25,12.33-10.5,5.89-4.44,12.13-8.43,18.11-12.76,5.67-4.11,11.06-8.61,16.82-12.56,7.67-5.26,15.55-10.21,23.39-15.21,7.64-4.86,15.28-9.72,23.04-14.37,4.71-2.82,9.69-5.2,14.47-7.9,2.14-1.21,4.02-2.87,6.16-4.08,2.4-1.36,4.94-2.46,7.44-3.64,13.26-6.26,26.43-12.73,39.81-18.7,20.05-8.94,40.7-16.35,61.5-23.33,8.31-2.79,16.59-5.71,24.98-8.27,4.85-1.48,9.88-2.36,14.83-3.49,9.46-2.17,18.91-4.43,28.4-6.49,8.75-1.89,17.54-3.58,26.32-5.32,4.42-.88,8.84-1.74,13.28-2.51,1.57-.27,3.2-.27,4.76-.85,6.57-.6,13.14-1.2,20.23-1.84.32,2.87.73,4.86.74,6.85.1,32.13.15,64.25.2,96.38,0,4.19-.07,8.37-.11,13.56Z"/>
      <path class="cls-1" d="m59.68,668.1c1.68-1.68,3.78-3.12,4.97-5.1,2.94-4.89,7.61-8.03,11.42-12.02,3.39-3.55,7.29-6.62,11.01-9.85.77-.67,1.72-1.12,3.26-2.09.5,2,1.07,3.34,1.13,4.69.14,3.3.04,6.62.04,9.93,0,295.53,0,591.06,0,886.59,0,2.06,0,4.13,0,6.19-.22-.12-.44-.24-.65-.36-15.56,20.86-31.71,41.3-46.51,62.68-14.69,21.23-28.02,43.41-42.46,65.09-1.22-4.68-2.25-9.23-1.77-13.99.29-2.87.65-5.75.65-8.63.04-262.57.05-525.14.06-787.71,0-17.51-.18-35.03.09-52.54.09-5.71,1.3-11.4,2.13-17.08.83-5.69,1.59-11.4,2.79-17.02,3.39-15.85,7.95-31.38,14.83-46.09,4.88-10.44,9.98-20.83,15.73-30.81,4-6.95,9.26-13.18,14-19.71,3.01-4.15,6.09-8.24,9.14-12.36.05.06.1.12.14.18Z"/>
      <path class="cls-1" d="m113.97,621.16c12.08-7.1,23.85-14.1,35.7-20.96,13.65-7.91,27.37-15.69,41.07-23.53,3.86-2.21,7.73-4.41,12.42-7.09.43,2.6.89,4.12.9,5.65.08,7.31.05,14.62.05,21.93,0,275.94,0,551.89,0,827.83,0,11.88-.05,11.83-9.11,18.32-3.56,2.55-7.06,5.24-10.31,8.17-6.42,5.78-12.62,11.81-18.95,17.68-5.73,5.32-11.65,10.44-17.27,15.87-7.72,7.46-15.28,15.08-22.82,22.73-1.62,1.65-2.83,3.7-4.26,5.54-1.67,2.18-3.49,4.17-7.08,5.03-.35-2.12-.87-3.91-.89-5.71-.1-7.86-.05-15.72-.05-23.58,0-285.6,0-571.19.03-856.79,0-3.41.34-6.82.56-11.1Z"/>
      <path class="cls-1" d="m657.08,1033.07c-3.22-1.69-4.33-4.54-5.69-7.14-3.88-7.4-7.06-15.26-11.67-22.17-7.17-10.74-15.39-20.78-23-31.24-7.99-10.98-18.14-19.92-27.94-29.08-7.67-7.17-16.3-13.49-25.14-19.2-14.1-9.11-28.67-17.5-43.16-25.99-14.06-8.24-28.29-16.17-42.4-24.33-6.17-3.57-12.1-7.54-18.3-11.04-10.5-5.93-21.21-11.48-31.66-17.48-10.32-5.92-20.44-12.21-30.65-18.32-7.06-4.22-14.08-8.49-21.22-12.57-9.37-5.37-18.85-10.55-28.24-15.89-2.26-1.28-4.36-2.85-7.02-4.62-.25-1.65-.8-3.65-.8-5.64-.05-40.12-.05-80.24-.01-120.36,0-1.73.44-3.46.72-5.53,4.04,1.86,7.73,3.22,11.09,5.17,13.05,7.54,25.98,15.3,38.99,22.92,10.74,6.28,21.53,12.47,32.29,18.71,10.31,5.98,20.6,12,30.91,17.97,16.84,9.74,33.67,19.49,50.55,29.16,9.83,5.64,19.84,10.98,29.57,16.78,6.95,4.14,13.67,8.67,20.3,13.32,6.5,4.56,12.94,9.24,19.03,14.32,4.51,3.76,8.59,8.09,12.58,12.43,7.6,8.28,15.33,16.48,22.37,25.23,4.84,6.01,8.7,12.83,12.82,19.39,2.92,4.64,5.8,9.35,8.25,14.24,3.69,7.35,7.04,14.87,10.43,22.37,2.02,4.46,4.11,8.92,5.65,13.55,1.73,5.18,2.98,10.54,4.25,15.86,1.71,7.16,3.48,14.33,4.79,21.57,1.02,5.64,1.62,11.39,1.95,17.12.6,10.29.99,20.59,1.25,30.89.25,10.28.32,20.57.27,30.86-.01,2.8-.72,5.59-1.16,8.74Z"/>
      <path class="cls-1" d="m340.96,504.32c4.79,2.22,8.56,3.78,12.16,5.68,6.66,3.52,13.28,7.12,19.78,10.92,6.54,3.83,12.83,8.07,19.37,11.89,6.36,3.72,12.95,7.06,19.35,10.71,5.01,2.85,9.84,6.01,14.83,8.9,8.19,4.75,16.5,9.3,24.67,14.09,9.58,5.63,19.01,11.5,28.59,17.12,4.85,2.85,9.9,5.35,14.83,8.06,1.49.82,2.85,1.87,4.31,2.73,8.41,4.95,16.82,9.89,25.25,14.81,7.04,4.11,14.3,7.87,21.1,12.35,7.19,4.74,14.22,9.81,20.83,15.32,8.95,7.46,17.61,15.29,26.06,23.32,3.85,3.66,6.78,8.28,10.3,12.32,8.25,9.48,15.35,19.79,21.42,30.74,5.37,9.7,11.52,19.02,14.99,29.74,2.4,7.42,6.1,14.45,8.14,21.95,2.86,10.49,6.26,20.8,7.75,31.75,1.75,12.82,3.04,25.58,2.96,38.5-.06,9.09.01,18.18,0,27.28,0,5.86-.04,11.72-.11,17.58-.01,1.03-.28,2.06-.51,3.59-3.37-2.09-4.44-5.32-6.04-8.01-3.97-6.7-7.27-13.83-11.59-20.28-7.17-10.71-14.56-21.32-22.55-31.43-6.28-7.94-13.38-15.28-20.55-22.46-4.34-4.34-9.5-7.85-14.29-11.73-4.82-3.91-9.44-8.09-14.49-11.67-6.04-4.27-12.37-8.15-18.71-11.98-6.83-4.12-13.84-7.93-20.72-11.96-12.39-7.25-24.68-14.68-37.14-21.8-12.15-6.95-24.52-13.51-36.68-20.45-8.57-4.89-16.91-10.18-25.43-15.16-8.5-4.97-17.13-9.73-25.65-14.68-11.15-6.48-22.23-13.08-33.36-19.59-4.49-2.62-9.08-5.08-13.57-7.69-4.72-2.74-9.48-5.44-14.01-8.48-1.11-.74-1.84-2.7-1.95-4.16-.28-3.56-.11-7.16-.11-10.75,0-36.13-.01-72.26.03-108.39,0-2.54.44-5.08.76-8.67Z"/>
      <path class="cls-1" d="m656,1190.5c-1.63-2.72-3.49-5.33-4.86-8.18-6.21-12.93-13.86-24.94-22.44-36.4-3.62-4.83-7.09-9.77-10.63-14.66-.32-.45-.61-.93-1-1.32-10.82-10.69-21.16-21.95-32.63-31.88-10.08-8.72-20.93-16.66-32.76-23.15-12.48-6.86-24.55-14.45-36.87-21.62-9.61-5.59-19.35-10.95-28.96-16.52-10.69-6.2-21.24-12.64-31.96-18.8-10.58-6.08-21.33-11.85-31.93-17.9-7.25-4.13-14.31-8.57-21.54-12.75-9.86-5.69-19.81-11.22-29.68-16.9-5.94-3.42-11.76-7.05-17.66-10.54-4.22-2.5-8.49-4.91-12.62-7.3v-130.69c1.93.36,3.58.27,4.8.95,8.56,4.8,17.03,9.79,25.55,14.67,8.93,5.11,17.92,10.12,26.83,15.27,10.6,6.12,21.13,12.34,31.7,18.49,8.55,4.97,17.14,9.85,25.67,14.85,7.67,4.5,15.24,9.17,22.93,13.63,4.38,2.54,8.98,4.68,13.36,7.22,6.25,3.62,12.35,7.5,18.59,11.13,5.09,2.96,10.44,5.49,15.42,8.61,12.89,8.07,26.02,15.85,38.33,24.75,8.48,6.13,15.89,13.8,23.52,21.05,4.97,4.72,9.85,9.62,14.09,14.98,6.25,7.9,12.11,16.13,17.7,24.52,3.64,5.47,6.22,11.64,9.78,17.17,5.61,8.68,9.12,18.29,12.98,27.75,4.48,10.95,7.76,22.27,9.87,33.93.85,4.71,2.29,9.31,3.08,14.02.92,5.54,1.76,11.13,2.02,16.72.62,13.61,1.02,27.23,1.24,40.85.13,8.07-.23,16.16-.41,24.24-.03,1.15-.29,2.3-.44,3.45-.36.12-.73.24-1.09.36Z"/>
      <path class="cls-1" d="m650.01,1247.9c-5.96,1.01-11.86,2.07-17.79,3-5.75.9-11.51,1.69-17.27,2.49-6.24.87-12.5,1.69-18.74,2.57-2.03.29-4.03.81-6.06,1.05-5.04.58-8.57-2.45-12.09-5.31-11.25-9.12-23.22-17.13-35.91-24.13-8.77-4.83-17.27-10.16-25.97-15.11-13.45-7.66-27.03-15.09-40.45-22.81-9.52-5.48-18.81-11.34-28.27-16.91-6.49-3.82-13.17-7.31-19.66-11.13-9.66-5.69-19.18-11.63-28.87-17.28-6.87-4-13.96-7.62-20.88-11.55-6.9-3.91-13.69-8-20.55-11.98-4.16-2.41-8.29-4.88-12.56-7.09-3.29-1.71-4.84-4.12-4.83-7.88.06-40.54.03-81.07.08-121.61,0-1.65.53-3.31.85-5.23,4.04,2.02,7.51,3.56,10.79,5.43,11.09,6.28,22.14,12.64,33.17,19.03,12.91,7.49,25.79,15.03,38.66,22.58,12.19,7.15,24.32,14.4,36.53,21.51,6.78,3.94,13.71,7.62,20.51,11.53,6.78,3.89,13.48,7.93,20.24,11.86,7.2,4.19,14.38,8.42,21.65,12.47,12.3,6.86,24.43,13.97,35.59,22.62,5.92,4.59,11.98,8.99,17.83,13.66,2.65,2.12,5.1,4.54,7.39,7.05,7.21,7.92,14.24,16.01,21.45,23.93,7.94,8.73,13.55,19.07,19.93,28.84,3.76,5.77,6.33,12.34,9.25,18.63,3.04,6.56,5.86,13.23,8.78,19.85,2.94,6.65,7.37,24.4,7.19,29.9Z"/>
      <path class="cls-1" d="m655.88,1689.87c1.35,5.6,1.08,10.09.52,14.56-.93,7.49-1.92,14.97-3.01,22.43-.25,1.69-1.09,3.28-1.55,4.95-2.25,8.16-4.21,16.42-6.78,24.47-2.16,6.77-5.02,13.32-7.6,19.96-.84,2.16-1.63,4.35-2.66,6.42-3.61,7.22-7.11,14.51-11.05,21.55-2.44,4.37-5.69,8.28-8.44,12.48-6.94,10.63-15.45,19.93-23.79,29.46-10.14,11.59-21.99,21.1-33.89,30.55-7.47,5.94-15.9,10.73-24.15,15.63-11.77,6.99-23.78,13.57-35.65,20.39-13.56,7.79-27.1,15.61-40.61,23.49-9.82,5.74-19.54,11.66-29.36,17.39-9.83,5.72-19.72,11.33-29.61,16.94-5.96,3.37-12.03,6.54-17.95,9.98-6.3,3.66-12.42,7.61-18.72,11.27-4.6,2.67-9.33,5.12-14.04,7.59-1.01.53-2.18.74-3.77.66,12.56-62.11,38.84-117.84,78.35-166.91,60.58-75.24,138.68-122.52,233.77-143.26Z"/>
      <path class="cls-1" d="m555.51,1262.01c-1.7,1.32-2.36,2.22-3.2,2.43-11.03,2.79-22.18,5.17-33.11,8.29-15.07,4.3-30.02,9.01-44.94,13.79-10.3,3.3-20.53,6.85-30.69,10.56-8.5,3.1-16.94,6.41-25.26,9.95-11.6,4.92-23.19,9.89-34.56,15.3-13.23,6.3-26.22,13.1-39.33,19.65-.81.41-1.74.58-3.29,1.08-.36-2.35-.91-4.3-.93-6.26-.08-11.03-.03-22.05-.03-33.08,0-51.69-.02-103.37.02-155.06,0-3.24.38-6.47.63-10.4,2.12.75,3.58,1.04,4.81,1.73,5.11,2.86,10.13,5.86,15.23,8.75,6.29,3.57,12.67,6.99,18.93,10.61,8.87,5.13,17.63,10.44,26.5,15.58,7.82,4.54,15.75,8.9,23.58,13.44,13.06,7.56,26.05,15.23,39.11,22.77,6.66,3.85,13.47,7.44,20.12,11.31,6.64,3.86,13.11,8.01,19.75,11.87,6.15,3.59,12.51,6.83,18.62,10.47,9.13,5.44,18.14,11.11,28.05,17.21Z"/>
    </g>
  </g>
</svg>