<svg width="64" height="64" viewBox="0 0 64 64" fill="none" xmlns="http://www.w3.org/2000/svg">
    <g clip-path="url(#clip0_141_1090)">
        <path
            d="M35.0176 51.305C34.5376 51.305 34.1486 50.9158 34.1486 50.4358V46.912C34.1486 46.432 34.5375 46.0428 35.0176 46.0428C35.4977 46.0428 35.8866 46.432 35.8866 46.912V50.4358C35.8866 50.9158 35.4976 51.305 35.0176 51.305Z"
            fill="#CE9100" />
        <path
            d="M28.9819 51.305C28.5019 51.305 28.1127 50.9158 28.1127 50.4358V46.912C28.1127 46.432 28.5017 46.0428 28.9819 46.0428C29.4617 46.0428 29.8509 46.432 29.8509 46.912V50.4358C29.8509 50.9158 29.4619 51.305 28.9819 51.305Z"
            fill="#CE9100" />
        <path
            d="M54.2156 43.0514H47.7953C47.3153 43.0514 46.9263 42.6622 46.9263 42.1822V37.8175C46.9263 37.3375 47.3153 36.9484 47.7953 36.9484H54.2156C54.6955 36.9484 55.0846 37.3375 55.0846 37.8175V42.1822C55.0846 42.6622 54.6955 43.0514 54.2156 43.0514ZM48.6642 41.3134H53.3465V38.6864H48.6642V41.3134Z"
            fill="#CE9100" />
        <path
            d="M54.2156 52.0042H47.7953C47.3153 52.0042 46.9263 51.6154 46.9263 51.1354V46.7704C46.9263 46.2904 47.3153 45.9015 47.7953 45.9015H54.2156C54.6955 45.9015 55.0846 46.2904 55.0846 46.7704V51.1354C55.0846 51.6154 54.6955 52.0042 54.2156 52.0042ZM48.6642 50.2662H53.3465V47.6395H48.6642V50.2662Z"
            fill="#CE9100" />
        <path
            d="M16.2046 43.0514H9.78422C9.30435 43.0514 8.91522 42.6622 8.91522 42.1822V37.8175C8.91522 37.3375 9.30422 36.9484 9.78422 36.9484H16.2046C16.6846 36.9484 17.0736 37.3375 17.0736 37.8175V42.1822C17.0736 42.6622 16.6846 43.0514 16.2046 43.0514ZM10.6535 41.3134H15.3356V38.6864H10.6535V41.3134Z"
            fill="#CE9100" />
        <path
            d="M16.2046 52.0042H9.78422C9.30435 52.0042 8.91522 51.6154 8.91522 51.1354V46.7704C8.91522 46.2904 9.30422 45.9015 9.78422 45.9015H16.2046C16.6846 45.9015 17.0736 46.2904 17.0736 46.7704V51.1354C17.0736 51.6154 16.6846 52.0042 16.2046 52.0042ZM10.6535 50.2662H15.3356V47.6395H10.6535V50.2662Z"
            fill="#CE9100" />
        <path
            d="M62.8563 32.6229C63.3362 32.6229 63.7253 32.234 63.7253 31.754V25.5079C63.7253 25.0279 63.3362 24.639 62.8563 24.639H60.352L49.6147 13.0985C49.4506 12.9217 49.2201 12.8216 48.9787 12.8216H32.841V1.39C32.841 0.909999 32.4519 0.520874 31.972 0.520874H4.02598C3.5461 0.520874 3.15698 0.909999 3.15698 1.39V24.639H1.14348C0.6636 24.639 0.274475 25.0279 0.274475 25.5079V31.754C0.274475 32.234 0.663475 32.6229 1.14348 32.6229H4.74285V56.3301H1.14348C0.6636 56.3301 0.274475 56.7192 0.274475 57.1992V62.6099C0.274475 63.0899 0.663475 63.479 1.14348 63.479H62.8558C63.3358 63.479 63.7248 63.0899 63.7248 62.6099V57.1992C63.7248 56.7192 63.3358 56.3301 62.8558 56.3301H59.2565V32.6229H62.8563ZM48.6002 14.5597L57.9778 24.6391H32.841V14.5597H48.6002ZM31.1028 24.639H26.872C27.9752 24.1458 28.8824 23.305 29.4664 22.2174C30.1646 20.9174 30.3156 19.4282 29.8922 18.0247L26.1781 5.69512C25.7094 4.13912 24.5656 2.90062 23.127 2.25887H31.1027L31.1028 24.639ZM20.8832 3.5165C22.5455 3.5165 24.0385 4.6185 24.514 6.19637L26.1203 11.529L18.9 13.7044L17.2934 8.3715C16.6936 6.38075 17.8255 4.27337 19.8161 3.67375C20.1627 3.569 20.522 3.5165 20.8832 3.5165ZM24.6377 23.3815C22.976 23.3815 21.4833 22.2795 21.008 20.7016L19.4012 15.3686L26.6215 13.1935L28.228 18.5266C28.517 19.4856 28.4134 20.5046 27.9349 21.3947C27.457 22.2856 26.6652 22.9347 25.7057 23.2239C25.3587 23.3282 24.9996 23.3815 24.6377 23.3815ZM17.7131 19.9861L8.80622 14.8439C8.90922 14.7199 9.01773 14.5995 9.13298 14.484C10.1177 13.4967 11.4289 12.953 12.8245 12.953C14.2149 12.953 15.5229 13.4942 16.5071 14.4765C17.4934 15.4596 18.0371 16.7688 18.0385 18.1618C18.0392 18.7945 17.927 19.4099 17.7131 19.9861ZM7.93573 16.3489L16.8424 21.491C16.7395 21.6147 16.631 21.7351 16.5157 21.8505C15.5306 22.8377 14.22 23.382 12.8245 23.382C11.4335 23.382 10.1253 22.8407 9.14122 21.8585C8.15535 20.8754 7.61185 19.5662 7.61023 18.1732C7.6096 17.5402 7.72198 16.9247 7.93573 16.3489ZM17.7466 23.0783C18.3934 22.4301 18.8959 21.6765 19.2395 20.8568L19.3437 21.2029C19.8125 22.7591 20.9567 23.9976 22.3953 24.6391H15.3711C16.251 24.2933 17.0587 23.7678 17.7466 23.0783ZM4.8951 2.25887H18.65C16.1616 3.37275 14.8223 6.1945 15.6292 8.87262L16.6872 12.3842C15.5536 11.6237 14.2204 11.215 12.8246 11.215C10.9642 11.215 9.2161 11.9396 7.90248 13.2562C6.59073 14.571 5.86973 16.3175 5.87173 18.1755C5.87385 20.0326 6.59873 21.7777 7.91348 23.0896C8.59873 23.7736 9.40273 24.2952 10.2779 24.6391H4.8951V2.25887ZM2.0126 26.3771H61.9872V30.885H2.0126V26.3771ZM61.9868 61.7411H2.0126V58.0682H61.9868V61.7411ZM41.5823 56.3302H32.8688V41.0182H41.5823V56.3302ZM31.1306 56.3302H22.4171V41.0182H31.1306V56.3302ZM57.5183 56.3302H43.3203V40.149C43.3203 39.669 42.9312 39.2801 42.4512 39.2801H21.5481C21.0681 39.2801 20.6791 39.669 20.6791 40.149V56.3301H6.4811V32.6229H57.5183V56.3302Z"
            fill="#CE9100" />
    </g>
    <defs>
        <clipPath id="clip0_141_1090">
            <rect width="64" height="64" fill="white" />
        </clipPath>
    </defs>
</svg>