<svg id="Capa_1" enable-background="new 0 0 512.044 512.044" height="512" viewBox="0 0 512.044 512.044" width="512" xmlns="http://www.w3.org/2000/svg"><g><g><path d="m292.303 172.867h97.967l-3.139-44.712h-94.828z" fill="#ffb09e"/><path d="m387.131 128.155h-21.028l3.139 44.712h21.028z" fill="#f89580"/><path d="m292.303 128.155h94.829l12.343-53.689c.941-4.091 1.244-8.303.9-12.487l-2.185-26.589c-.737-8.966-7.596-16.22-16.506-17.459l-73.73-10.246c-9.094-1.264-17.811 4.082-20.808 12.761l-7.85 22.733z" fill="#f9f3f1"/><path d="m400.375 61.98-2.185-26.589c-.737-8.966-7.596-16.22-16.506-17.459l-73.73-10.246c-3.649-.507-7.23.065-10.413 1.475l63.115 8.771c8.911 1.238 15.769 8.493 16.506 17.459l2.185 26.589c.344 4.184.04 8.396-.9 12.487l-12.343 53.689h21.028l12.343-53.689c.94-4.092 1.244-8.304.9-12.487z" fill="#efe2dd"/><path d="m292.303 128.155c-15.778-14.875-26.597-34.246-30.987-55.481l-.146-.704c-3.213-15.54 8.654-30.112 24.523-30.112h33.984c7.262 0 13.149 5.887 13.149 13.149 0 6.724-5.073 12.365-11.759 13.076l-20.623 2.192" fill="#f9f3f1"/><path d="m431.401 423.666c.909 43.266-37.397 81.72-80.794 80.805l-69.568.01-126.726.01-73.742.01v-166.254c11.352-.952 22.568-1.025 33.355-.492 12.032.586 23.541 1.925 34.099 3.631 2.134.345 4.227.711 6.288 1.078 31.315 5.681 52.952 14.114 52.952 14.114l73.774 11.603-1.213-182.681c-.042-6.958 5.587-12.629 12.555-12.629h99.261c6.372 0 11.74 4.771 12.472 11.101l26.471 228.205c.555 3.83.816 7.67.816 11.489z" fill="#3ec3a4"/><g fill="#0bb494"><path d="m92.899 337.755c12.032.586 23.541 1.925 34.099 3.631 2.135.345 4.227.711 6.288 1.078 31.315 5.681 52.953 14.115 52.953 14.115l73.774 11.603-.022-3.311-52.724-8.292s-21.637-8.433-52.953-14.115c-2.061-.366-4.154-.732-6.288-1.078-10.557-1.706-22.066-3.045-34.099-3.631-7.692-.38-15.604-.445-23.626-.109.867.035 1.736.067 2.598.109z"/><path d="m431.401 423.666c0-3.819-.262-7.659-.816-11.488l-26.471-228.205c-.732-6.33-6.1-11.101-12.472-11.101h-21.028c6.372 0 11.739 4.771 12.472 11.101l26.471 228.205c.554 3.829.816 7.669.816 11.488.628 29.895-17.885 62.408-43.702 79.349 36.348-7.379 65.525-41.525 64.73-79.349z"/></g><path d="m281.04 368.181v136.3l-126.726.01v-162.027c31.315 5.681 52.952 14.114 52.952 14.114z" fill="#f9f3f1"/><path d="m207.266 356.578s-21.637-8.433-52.953-14.115v4.491c19.558 4.806 31.925 9.624 31.925 9.624l73.774 11.603v136.301l21.028-.002v-136.3z" fill="#efe2dd"/><path d="m248.621 417.542h-17.692v-17.692c0-2.238-1.814-4.052-4.052-4.052h-18.103c-2.238 0-4.052 1.814-4.052 4.052v17.692h-17.692c-2.238 0-4.052 1.814-4.052 4.052v18.102c0 2.238 1.814 4.052 4.052 4.052h17.692v17.692c0 2.238 1.814 4.052 4.052 4.052h18.103c2.238 0 4.052-1.814 4.052-4.052v-17.692h17.692c2.238 0 4.052-1.814 4.052-4.052v-18.102c0-2.238-1.814-4.052-4.052-4.052z" fill="#fd6930"/></g><g><path d="m438.901 423.585c-.004-4.177-.299-8.339-.878-12.373l-26.458-228.102c-.944-8.159-6.704-14.693-14.244-16.915l-2.629-37.435 12.094-52.619c1.11-4.835 1.469-9.803 1.064-14.774l-2.188-26.583c-1.023-12.558-10.457-22.542-22.943-24.28l-73.734-10.25c-12.604-1.75-24.769 5.72-28.928 17.751l-6.446 18.673c-13.469 4.961-23.625 22.026-19.64 37.515 4.504 21.781 15.146 41.452 30.832 57.113v35.547c-2.459 1.003-4.716 2.495-6.646 4.436-3.793 3.814-5.863 8.878-5.831 14.261l.969 147.081c.027 4.143 3.438 7.458 7.55 7.45 4.142-.027 7.478-3.407 7.45-7.55l-.969-147.076c-.009-1.354.514-2.631 1.469-3.592.956-.962 2.229-1.491 3.586-1.491h99.262c2.568 0 4.727 1.919 5.021 4.465l26.471 228.206c7.467 44.967-31.614 85.042-72.528 83.928l-62.067.007v-128.797c.003-3.381-2.531-6.883-6.335-7.409l-73.002-11.481c-27.817-11.392-91.959-23.08-129.258-18.517-4.128.346-7.193 3.973-6.847 8.101.347 4.127 3.971 7.19 8.101 6.847 20.467-1.766 43.717-.474 65.615 3.067v148.207l-66.243.008c-4.143.001-7.5 3.359-7.499 7.501.001 4.143 3.359 7.5 7.501 7.499l269.96-.032c45.333 2.134 90.486-42.238 88.368-88.387zm-170.241-352.428c-2.564-9.57 5.028-21.883 17.032-21.798h33.983c3.115 0 5.649 2.534 5.649 5.649 0 2.896-2.172 5.311-5.053 5.617l-20.622 2.192c-4.119.438-7.103 4.132-6.665 8.251s4.132 7.1 8.251 6.665l9.184-.976 42.123 3.288c9.923.969 21.419-6.604 23.609-17.597l1.673-7.778c.871-4.05-1.705-8.038-5.755-8.909-4.048-.866-8.039 1.705-8.909 5.755l-1.673 7.778c-.772 3.59-4.108 6.107-7.776 5.796l-15.397-1.202c1.283-2.698 2.009-5.707 2.009-8.881 0-11.386-9.264-20.648-20.649-20.648h-29.394l3.955-11.457c1.824-5.279 7.174-8.553 12.688-7.791l73.729 10.25c5.475.762 9.61 5.138 10.06 10.646l2.188 26.582c.279 3.43.032 6.859-.733 10.193l-11.004 47.873h-11.758c-4.143 0-7.5 3.357-7.5 7.5s3.357 7.5 7.5 7.5h10.733l2.087 29.711h-82.423v-29.711h34.206c4.143 0 7.5-3.357 7.5-7.5s-3.357-7.5-7.5-7.5h-38.648c-13.581-13.577-22.798-30.626-26.7-49.498zm-106.846 425.834v-145.419c13.395 2.707 29.017 7.111 44.287 12.416l67.438 10.606v122.385z"/><path d="m377.828 214.408c0-4.051-3.284-7.334-7.334-7.334-4.051 0-7.334 3.284-7.334 7.334s3.283 7.334 7.334 7.334 7.334-3.284 7.334-7.334z"/><path d="m248.621 410.042h-10.192v-10.192c0-6.37-5.182-11.552-11.552-11.552h-18.103c-6.37 0-11.552 5.182-11.552 11.552v10.192h-10.192c-6.37 0-11.552 5.182-11.552 11.552v18.103c0 6.37 5.182 11.552 11.552 11.552h10.192v10.192c0 6.37 5.182 11.552 11.552 11.552h18.103c6.37 0 11.552-5.182 11.552-11.552v-10.192h10.192c6.37 0 11.552-5.182 11.552-11.552v-18.103c0-6.37-5.182-11.552-11.552-11.552zm-3.448 26.206h-14.244c-4.143 0-7.5 3.357-7.5 7.5v14.244h-11.206v-14.244c0-4.143-3.357-7.5-7.5-7.5h-14.244v-11.206h14.244c4.143 0 7.5-3.357 7.5-7.5v-14.244h11.206v14.244c0 4.143 3.357 7.5 7.5 7.5h14.244z"/></g></g></svg>