<svg id="Filloutline" enable-background="new 0 0 128 128" height="512" viewBox="0 0 128 128" width="512" xmlns="http://www.w3.org/2000/svg" xmlns:xlink="http://www.w3.org/1999/xlink"><linearGradient id="lg1"><stop offset="0" stop-color="#d4c8aa"/><stop offset=".6667" stop-color="#e2d6bc"/></linearGradient><linearGradient id="SVGID_1_" gradientUnits="userSpaceOnUse" x1="63" x2="63" xlink:href="#lg1" y1="6.975" y2="-30.59"/><linearGradient id="lg2"><stop offset="0" stop-color="#e2d6bc"/><stop offset=".5756" stop-color="#ffeed1"/></linearGradient><linearGradient id="SVGID_2_" gradientUnits="userSpaceOnUse" x1="47" x2="47" xlink:href="#lg2" y1="122.229" y2="39.33"/><linearGradient id="lg3"><stop offset="0" stop-color="#e8d0c6"/><stop offset=".9065" stop-color="#f5ebde"/></linearGradient><linearGradient id="SVGID_3_" gradientUnits="userSpaceOnUse" x1="85.5" x2="85.5" xlink:href="#lg3" y1="65.516" y2="31.47"/><linearGradient id="SVGID_4_" gradientUnits="userSpaceOnUse" x1="43.49" x2="43.49" xlink:href="#lg2" y1="85.951" y2="12.111"/><linearGradient id="SVGID_5_" gradientUnits="userSpaceOnUse" x1="37.789" x2="37.789" xlink:href="#lg2" y1="44.946" y2="-13.988"/><linearGradient id="SVGID_6_" gradientUnits="userSpaceOnUse" x1="8.985" x2="8.985" xlink:href="#lg1" y1="73.778" y2="7.46"/><linearGradient id="SVGID_7_" gradientUnits="userSpaceOnUse" x1="104.5" x2="104.5" xlink:href="#lg3" y1="96" y2="5.869"/><linearGradient id="SVGID_8_" gradientUnits="userSpaceOnUse" x1="98.547" x2="136.573" xlink:href="#lg2" y1="91.391" y2="29.782"/><g><g><path d="m40 10s13 6 19 5 24-8 27-3l-4 14h-42z" fill="url(#SVGID_1_)"/><path d="m90 17s-1.97-7-3.94-7-19.701 12-28.567 11-22.656-20-29.552-19-26.596 31-23.641 48 7.88 14 5.91 25 5.672 47 17.731 47 17.406-11.145 18.716-17c1.343-6 12.227-19 16.785-25s20.367-29.781 21.459-35.638z" fill="url(#SVGID_2_)"/><path d="m93 36c0 11.046-6.022 20-9.75 20-4.5 0-5.25-7.954-5.25-19s7.272-23 11-23 4 10.954 4 22z" fill="url(#SVGID_3_)"/><path d="m39.806 50.891c-10.57 7.861-17.534 19.758-18.835 32.867-.298 2.997-.257 5.528.029 7.242 1 6 6 16 10 16s7-6 10-13 4-15 8-19 22-22 16-32c-3.803-6.339-16.446 1.385-25.194 7.891z" fill="url(#SVGID_4_)"/><g><path d="m14 33.468c-1 5.721 10 16.211 13 14.304 1.861-1.183 13-9.536 25-15.257 6.311-3.009 8.748-7.863 9.641-11.791-1.509.296-2.916.415-4.148.276-6.692-.755-16.19-11.763-23.411-16.686-10.755 6.898-19.211 24.171-20.082 29.154z" fill="url(#SVGID_5_)"/></g><g><path d="m13 49c-2.842-3.41-5.682-8.434-7.606-12.137-1.257 4.722-1.767 9.267-1.094 13.137 1.67 9.608 3.969 12.828 5.297 15.797 3.271-6.63 5.847-13.864 3.403-16.797z" fill="url(#SVGID_6_)"/></g><path d="m121 37.5c0 10.77-10.716 19.5-19 19.5s-14-6.564-14-17.333 9.716-21.667 18-21.667 15 8.73 15 19.5z" fill="url(#SVGID_7_)"/><path d="m99.132 34c-6.481 11.728-4.974 18 1.99 23s0 33 0 38-2.984 31-2.984 31h13.927s1.032-9 2.984-22 .027-28 1.99-36 7.958-24 6.963-34-.958-13-3.979-13-6.664 2.652-9.038 4.43c-1.102.825-2.426 1.262-3.794 1.412-1.873.205-4.951 1.533-8.059 7.158z" fill="url(#SVGID_8_)"/></g><g fill="#3a322b"><path d="m61.976 39.786c-4.669-.926-12.331 2.542-22.767 10.303-10.912 8.114-17.922 20.351-19.234 33.57-.292 2.941-.278 5.607.038 7.505.964 5.781 5.992 16.836 10.987 16.836 4.699 0 7.846-6.436 10.919-13.606 1.078-2.514 1.893-5.125 2.681-7.65 1.384-4.433 2.691-8.62 5.107-11.036 14.754-14.753 20.338-26.242 16.15-33.222-.872-1.455-2.178-2.363-3.881-2.7zm-13.683 34.507c-2.765 2.765-4.143 7.18-5.602 11.854-.773 2.478-1.573 5.039-2.61 7.459-2.57 5.997-5.603 12.394-9.081 12.394-3.069 0-7.993-9.039-9.014-15.164-.288-1.729-.295-4.208-.021-6.979 1.256-12.66 7.977-24.384 18.437-32.163 8.794-6.54 15.807-10.054 20-10.054.424 0 .819.036 1.185.108 1.141.226 1.977.804 2.555 1.767 3.61 6.016-2.018 16.947-15.849 30.778z"/><path d="m124.996 33.901-.264-2.716c-.782-8.14-1.074-11.185-4.711-11.185-1.413 0-2.92.508-4.357 1.214l-.346-.384c-.023-.025-.047-.049-.072-.072-2.709-2.459-5.907-3.758-9.246-3.758-4.351 0-8.819 2.588-12.329 6.477-.387-5.098-1.298-9.749-4.002-10.398-1.188-2.803-2.31-4.079-3.609-4.079-.396 0-.925.172-1.846.606-4.326-1.291-12.476.975-19.047 2.807-2.61.728-4.863 1.356-6.332 1.601-2.957.492-8.754-.904-15.895-3.837-.042-.017-.084-.013-.127-.024-.005-.005-.011-.009-.016-.014-5.937-5.206-11.073-9.696-15-9.128-3.651.53-8.733 7.053-10.749 9.833-5.153 7.107-10.172 16.701-12.572 25.652-.026.064-.039.129-.051.197-1.282 4.857-1.799 9.521-1.111 13.479 1.392 8.009 3.234 11.7 4.579 14.394 1.504 3.014 2.333 4.674 1.332 10.259-1.692 9.45 3.124 34.233 11.24 43.932 2.357 2.816 4.872 4.244 7.476 4.244 12.404 0 18.214-11.177 19.692-17.781 1.063-4.75 8.71-14.509 13.771-20.967 1.078-1.375 2.049-2.614 2.834-3.647 3.141-4.134 10.968-15.782 16.165-24.675.767.681 1.699 1.069 2.847 1.069 2.145 0 4.655-2.134 6.732-5.649 2.368 3.798 6.032 6.181 10.596 6.587.03.002.06.004.089.004.006 0 .012-.003.018-.003 4.557 3.684 1.847 20.672.38 29.85-.549 3.436-.945 5.918-.945 7.212 0 4.886-2.948 30.627-2.978 30.886-.032.283.058.567.248.78.189.212.461.334.746.334h13.927c.508 0 .936-.381.994-.886.01-.09 1.052-9.132 2.979-21.966.985-6.559.994-13.689 1.002-19.98.007-6.19.015-12.038.97-15.93.47-1.914 1.163-4.259 1.966-6.974 2.446-8.267 5.795-19.59 5.022-27.364zm-67.468-17.792c.582 0 1.131-.039 1.636-.123 1.573-.262 3.875-.904 6.54-1.647 4.867-1.357 11.173-3.112 15.39-3.122-.276.148-.562.301-.871.467-5.038 2.708-12.81 6.881-18.722 8.055-.029.004-.056.012-.084.019-1.396.271-2.688.376-3.812.248-2.955-.333-6.633-2.939-10.441-6.106 3.443 1.168 7.351 2.209 10.364 2.209zm-.147 5.885c.89.101 1.857.075 2.873-.039-1.375 4.307-4.281 7.557-8.684 9.657-9.987 4.762-19.368 11.323-23.374 14.124-.824.576-1.416.991-1.732 1.192-.265.168-1.29.139-3.26-1.176-4.192-2.799-8.793-8.826-8.219-12.111.766-4.378 8.704-21.058 19.089-28.117 2.315 1.656 4.881 3.906 7.405 6.119 5.507 4.828 11.201 9.82 15.902 10.351zm-52.096 27.835c-.526-3.023-.288-6.502.47-10.171 1.819 3.323 4.138 7.176 6.477 9.982.931 1.117 1.742 4.391-2.64 13.849-1.281-2.569-2.996-6.118-4.307-13.66zm57.361 29.567c-.779 1.025-1.745 2.257-2.815 3.623-5.48 6.994-12.987 16.572-14.149 21.763-1.349 6.024-6.601 16.218-17.741 16.218-1.984 0-3.983-1.187-5.942-3.527-7.658-9.151-12.396-33.406-10.805-42.296.852-4.757.444-7.105-.498-9.358 4.37-8.972 5.38-14.69 3.072-17.459-2.715-3.259-5.443-8.054-7.312-11.627 2.347-8.58 7.219-17.828 12.212-24.716 4.582-6.319 7.937-8.812 9.417-9.027 1.129-.166 2.57.374 4.197 1.348-10.673 7.712-18.456 24.318-19.267 28.958-.812 4.646 4.852 11.298 9.078 14.12 1.572 1.05 2.938 1.582 4.036 1.582.535 0 1.007-.126 1.408-.381.33-.21.947-.641 1.806-1.241 3.965-2.773 13.25-9.267 23.088-13.958 6.451-3.076 9.021-8.015 10.029-11.839 6.082-1.348 13.429-5.293 18.711-8.132 2.168-1.165 4.409-2.37 4.862-2.448.006.002.589.189 1.57 2.333-4.645 2.078-10.603 13.589-10.603 23.668 0 7.06.223 13.621 2.1 17.193-5.147 8.907-13.257 20.993-16.454 25.203zm20.604-24.396c-3.735 0-4.25-8.651-4.25-18 0-11.059 7.353-22 10-22 .68 0 2.311 1.061 2.81 10.786-2.912 4.049-4.81 9.026-4.81 13.881 0 3.632.667 6.859 1.871 9.567-2.051 3.958-4.349 5.766-5.621 5.766zm5.75-15.333c0-10.645 9.577-20.667 17-20.667 2.819 0 5.539 1.108 7.866 3.206l.003.003c-1.366.837-2.587 1.749-3.485 2.421-.889.666-2 1.076-3.304 1.218-2.227.244-5.565 1.773-8.823 7.668-5.37 9.717-5.634 16.431-.684 21.712-5.357-1.968-8.573-7.632-8.573-15.561zm29.057 21.031c-.81 2.739-1.51 5.104-1.991 7.064-1.012 4.126-1.02 9.815-1.027 16.403-.008 6.222-.017 13.273-.979 19.687-1.586 10.56-2.575 18.566-2.884 21.148h-11.919c.577-5.089 2.864-25.536 2.864-30 0-1.135.427-3.805.92-6.896 2.245-14.052 3.991-28.09-1.337-31.916-5.884-4.225-8.424-9.532-1.698-21.704 2.993-5.417 5.853-6.49 7.291-6.648 1.664-.182 3.105-.723 4.285-1.606 1.975-1.478 5.65-4.23 8.439-4.23 1.685 0 1.956 1.417 2.719 9.376l.265 2.723c.735 7.384-2.55 18.489-4.948 26.599z"/></g></g></svg>