<svg enable-background="new 0 0 256 256" height="512" viewBox="0 0 256 256" width="512" xmlns="http://www.w3.org/2000/svg"><g id="Layer_20"><g><g><path d="m186.626 176.297c-4.169 0-7.581-3.411-7.581-7.581v-66.432c0-4.169 3.411-7.581 7.581-7.581h40.07v-10.61h-40.07c-4.169 0-7.581-3.411-7.581-7.581v-41.04h-102.091v41.041c0 4.169-3.411 7.581-7.581 7.581h-40.07v10.61h40.07c4.169 0 7.581 3.411 7.581 7.581v66.432c0 4.169-3.411 7.581-7.581 7.581h-40.07v8.292c0 7.08 5.793 12.874 12.874 12.874h171.647c7.08 0 12.874-5.793 12.874-12.874v-8.292h-40.072z" fill="#5290db"/></g><g><path d="m230.894 197.463h-205.788c-3.739 0-6.799 3.059-6.799 6.799 0 8.946 7.32 16.266 16.266 16.266h186.853c8.946 0 16.266-7.32 16.266-16.266.001-3.739-3.058-6.799-6.798-6.799z" fill="#edf4fc"/></g><g><path d="m245.919 84.094h-59.293c-4.169 0-7.581-3.411-7.581-7.581v-66.432c0-4.169 3.411-7.581 7.581-7.581h59.293c4.169 0 7.581 3.411 7.581 7.581v66.432c0 4.17-3.411 7.581-7.581 7.581z" fill="#70d6f9"/></g><g><path d="m245.919 176.297h-59.293c-4.169 0-7.581-3.411-7.581-7.581v-66.432c0-4.169 3.411-7.581 7.581-7.581h59.293c4.169 0 7.581 3.411 7.581 7.581v66.432c0 4.17-3.411 7.581-7.581 7.581z" fill="#fc657e"/></g><g><path d="m90.062 197.463c.613 6.036 5.748 10.787 11.938 10.787h52c6.191 0 11.325-4.751 11.938-10.787z" fill="#c7d7e5"/></g><g><path d="m186.626 176.297c-4.169 0-7.581-3.411-7.581-7.581v-66.432c0-4.169 3.411-7.581 7.581-7.581h30.071v-10.61h-30.071c-4.169 0-7.581-3.411-7.581-7.581v-31.04h-102.091v31.041c0 4.169-3.411 7.581-7.581 7.581h-30.07v10.61h30.07c4.169 0 7.581 3.411 7.581 7.581v66.432c0 4.169-3.411 7.581-7.581 7.581h-30.07v8.293c0 1.558 1.316 2.874 2.874 2.874h171.646c1.558 0 2.874-1.316 2.874-2.874v-8.293h-30.071z" fill="#edf4fc"/></g><g><path d="m69.374 84.094h-59.293c-4.169 0-7.581-3.411-7.581-7.581v-66.432c0-4.17 3.411-7.581 7.581-7.581h59.293c4.169 0 7.581 3.411 7.581 7.581v66.432c-.001 4.17-3.412 7.581-7.581 7.581z" fill="#fca265"/></g><g><path d="m69.374 176.297h-59.293c-4.169 0-7.581-3.411-7.581-7.581v-66.432c0-4.169 3.411-7.581 7.581-7.581h59.293c4.169 0 7.581 3.411 7.581 7.581v66.432c-.001 4.17-3.412 7.581-7.581 7.581z" fill="#f5c84c"/></g><g><circle cx="216.273" cy="135.5" fill="#f98fa6" r="23.959"/></g><g><circle cx="128" cy="110.775" fill="#70d6f9" r="38.352"/></g><g><path d="m194.5 45.667h14v17.667h-14z" fill="#fca265"/></g><g><path d="m208.5 35.167h14v28.167h-14z" fill="#f5c84c"/></g><g><path d="m222.5 24.667h14v38.667h-14z" fill="#fcdd86"/></g><g><path d="m209.477 128.167v14.666c0 2.142 2.379 3.428 4.171 2.254l11.192-7.333c1.623-1.064 1.623-3.443 0-4.507l-11.192-7.333c-1.792-1.174-4.171.111-4.171 2.253z" fill="#edf4fc"/></g><g><circle cx="23.25" cy="59" fill="#f5c84c" r="7.25"/></g><g><path d="m56.5 32.396v-10.896l-26 6v10.895z" fill="#f5c84c"/></g><g><circle cx="49.25" cy="53" fill="#f5c84c" r="7.25"/></g><g><path d="m178.063 37.972h-100.48c-1.381 0-2.5-1.119-2.5-2.5s1.119-2.5 2.5-2.5h100.479c1.381 0 2.5 1.119 2.5 2.5s-1.119 2.5-2.499 2.5z"/></g><g><path d="m226.697 96.125c-1.381 0-2.5-1.119-2.5-2.5v-8.375c0-1.381 1.119-2.5 2.5-2.5s2.5 1.119 2.5 2.5v8.376c0 1.38-1.119 2.499-2.5 2.499z"/></g><g><path d="m213.823 199.963h-171.646c-8.478 0-15.374-6.896-15.374-15.374v-7.381c0-1.381 1.119-2.5 2.5-2.5s2.5 1.119 2.5 2.5v7.381c0 5.72 4.653 10.374 10.374 10.374h171.646c5.721 0 10.374-4.653 10.374-10.374v-6.34c0-1.381 1.119-2.5 2.5-2.5s2.5 1.119 2.5 2.5v6.34c0 8.478-6.896 15.374-15.374 15.374z"/></g><g><path d="m29.303 96.479c-1.381 0-2.5-1.119-2.5-2.5v-8.979c0-1.381 1.119-2.5 2.5-2.5s2.5 1.119 2.5 2.5v8.979c0 1.381-1.119 2.5-2.5 2.5z"/></g><g><path d="m221.427 223.028h-186.854c-10.348 0-18.767-8.418-18.767-18.766 0-5.127 4.172-9.299 9.299-9.299h205.789c5.127 0 9.299 4.171 9.299 9.299 0 10.348-8.419 18.766-18.766 18.766zm-196.322-23.065c-2.37 0-4.299 1.928-4.299 4.299 0 7.591 6.176 13.766 13.767 13.766h186.854c7.591 0 13.767-6.175 13.767-13.766 0-2.371-1.929-4.299-4.299-4.299z"/></g><g><path d="m245.919 86.594h-59.293c-5.559 0-10.08-4.522-10.08-10.081v-66.432c0-5.559 4.521-10.081 10.08-10.081h59.293c5.559 0 10.081 4.522 10.081 10.081v66.432c0 5.559-4.522 10.081-10.081 10.081zm-59.293-81.594c-2.801 0-5.08 2.279-5.08 5.081v66.432c0 2.801 2.279 5.081 5.08 5.081h59.293c2.802 0 5.081-2.279 5.081-5.081v-66.432c0-2.802-2.279-5.081-5.081-5.081z"/></g><g><path d="m128 99.739c-12.941 0-24.881-3.775-31.937-10.099-1.027-.921-1.114-2.502-.192-3.53.92-1.028 2.501-1.115 3.53-.193 6.071 5.442 17.029 8.822 28.599 8.822 11.582 0 22.547-3.386 28.615-8.837 1.026-.922 2.608-.838 3.53.189.923 1.027.839 2.607-.188 3.53-7.053 6.336-18.999 10.118-31.957 10.118z"/></g><g><path d="m98.76 137.657c-.732 0-1.459-.32-1.952-.936-.864-1.078-.69-2.651.387-3.515 7.139-5.723 18.655-9.14 30.806-9.14 12.256 0 23.442 3.298 30.691 9.05 1.082.858 1.263 2.431.404 3.512-.856 1.081-2.429 1.264-3.512.405-6.288-4.989-16.6-7.967-27.584-7.967-11.051 0-21.397 3.006-27.679 8.042-.461.37-1.013.549-1.561.549z"/></g><g><path d="m128 151.626c-15.477 0-28.067-18.326-28.067-40.852s12.59-40.851 28.067-40.851 28.067 18.326 28.067 40.852-12.59 40.851-28.067 40.851zm0-76.703c-12.72 0-23.067 16.083-23.067 35.852s10.347 35.851 23.067 35.851 23.067-16.083 23.067-35.852-10.347-35.851-23.067-35.851z"/></g><g><path d="m128 151.626c-8.951 0-13.028-21.176-13.028-40.852s4.077-40.851 13.028-40.851 13.028 21.176 13.028 40.852-4.077 40.851-13.028 40.851zm0-76.703c-2.401 0-8.028 12.198-8.028 35.852s5.627 35.852 8.028 35.852 8.028-12.198 8.028-35.852-5.627-35.852-8.028-35.852z"/></g><g><path d="m165.224 113.274h-74.448c-1.381 0-2.5-1.119-2.5-2.5s1.119-2.5 2.5-2.5h74.447c1.381 0 2.5 1.119 2.5 2.5s-1.119 2.5-2.499 2.5z"/></g><g><path d="m169.106 242.5h2.3v2.3c0 1.8 1.4 3.2 3.2 3.2 1.7 0 3.2-1.4 3.2-3.1v-.1-2.3h2.3c1.8 0 3.2-1.4 3.2-3.2 0-1.7-1.4-3.2-3.1-3.2h-.1-2.3v-2.3c0-1.8-1.4-3.2-3.2-3.2-1.7 0-3.2 1.4-3.2 3.1v.1 2.3h-2.3c-1.8 0-3.2 1.4-3.2 3.2-.1 1.7 1.3 3.2 3.2 3.2-.1 0-.1 0 0 0z" fill="#87d147"/></g><g><circle cx="150.506" cy="18.4" fill="#fc657e" r="3.4"/></g><g><path d="m83.288 236.2c-3.1-.6-5.6-3-6.2-6.1 0-.1-.3-.1-.3 0-.6 3.1-3.1 5.5-6.2 6.1-.1 0-.1.2 0 .3 3.1.6 5.6 3 6.2 6.1 0 .1.3.1.3 0 .6-3.1 3.1-5.5 6.2-6.1.1-.1.1-.3 0-.3z" fill="#f5c84c"/></g><g><circle cx="147.506" cy="252.6" fill="#70d6f9" r="3.4"/></g><g><path d="m115.088 8.85c4.5-.8 8-4.3 8.9-8.7 0-.2.4-.2.4 0 .9 4.4 4.4 7.9 8.9 8.7.2 0 .2.3 0 .4-4.5.8-8 4.3-8.9 8.7 0 .2-.4.2-.4 0-.9-4.4-4.4-7.9-8.9-8.7-.2-.1-.2-.4 0-.4z" fill="#f5c84c"/></g><g><path d="m245.919 178.797h-59.293c-5.559 0-10.08-4.522-10.08-10.081v-66.432c0-5.559 4.521-10.081 10.08-10.081h59.293c5.559 0 10.081 4.522 10.081 10.081v66.432c0 5.559-4.522 10.081-10.081 10.081zm-59.293-81.593c-2.801 0-5.08 2.279-5.08 5.081v66.432c0 2.802 2.279 5.081 5.08 5.081h59.293c2.802 0 5.081-2.279 5.081-5.081v-66.432c0-2.801-2.279-5.081-5.081-5.081z"/></g><g><path d="m30.5 61.5c-1.381 0-2.5-1.119-2.5-2.5v-31.5c0-1.164.804-2.174 1.938-2.436l26-6c.744-.171 1.521.005 2.119.479.595.475.943 1.195.943 1.957v31.5c0 1.381-1.119 2.5-2.5 2.5s-2.5-1.119-2.5-2.5v-28.357l-21 4.846v29.511c0 1.381-1.119 2.5-2.5 2.5z"/></g><g><path d="m43.151 155.375h-6.303c-5.722 0-10.377-4.655-10.377-10.377 0-1.381 1.119-2.5 2.5-2.5s2.5 1.119 2.5 2.5c0 2.965 2.412 5.377 5.377 5.377h6.303c2.965 0 5.377-2.412 5.377-5.377v-3.151c0-2.965-2.412-5.377-5.377-5.377h-6.303c-5.722 0-10.377-4.655-10.377-10.377s4.655-10.377 10.377-10.377h6.303c5.722 0 10.377 4.655 10.377 10.377 0 1.381-1.119 2.5-2.5 2.5s-2.5-1.119-2.5-2.5c0-2.965-2.412-5.377-5.377-5.377h-6.303c-2.965 0-5.377 2.412-5.377 5.377s2.412 5.377 5.377 5.377h6.303c5.722 0 10.377 4.655 10.377 10.377v3.151c0 5.722-4.655 10.377-10.377 10.377z"/></g><g><path d="m40 158.526c-1.381 0-2.5-1.119-2.5-2.5v-40.962c0-1.381 1.119-2.5 2.5-2.5s2.5 1.119 2.5 2.5v40.962c0 1.381-1.119 2.5-2.5 2.5z"/></g><g><path d="m154 210.75h-52c-6.961 0-12.953-4.968-14.248-11.813-.257-1.356.635-2.665 1.991-2.921 1.359-.258 2.664.635 2.921 1.992.85 4.486 4.775 7.742 9.336 7.742h52c4.514 0 8.432-3.217 9.317-7.649.271-1.354 1.595-2.228 2.94-1.962 1.354.271 2.232 1.587 1.962 2.941-1.35 6.762-7.33 11.67-14.219 11.67z"/></g><g><path d="m216.697 96.125c-1.381 0-2.5-1.119-2.5-2.5v-8.375c0-1.381 1.119-2.5 2.5-2.5s2.5 1.119 2.5 2.5v8.375c0 1.381-1.119 2.5-2.5 2.5z"/></g><g><path d="m213.823 189.963h-171.646c-2.963 0-5.374-2.411-5.374-5.374v-7.381c0-1.381 1.119-2.5 2.5-2.5s2.5 1.119 2.5 2.5v7.381c0 .178.195.374.374.374h171.646c.179 0 .374-.195.374-.374v-7.34c0-1.381 1.119-2.5 2.5-2.5s2.5 1.119 2.5 2.5v7.34c0 2.964-2.411 5.374-5.374 5.374z"/></g><g><path d="m39.303 96.479c-1.381 0-2.5-1.119-2.5-2.5v-8.979c0-1.381 1.119-2.5 2.5-2.5s2.5 1.119 2.5 2.5v8.98c0 1.38-1.119 2.499-2.5 2.499z"/></g><g><path d="m178.063 47.972h-100.105c-1.381 0-2.5-1.119-2.5-2.5s1.119-2.5 2.5-2.5h100.104c1.381 0 2.5 1.119 2.5 2.5s-1.119 2.5-2.499 2.5z"/></g><g><path d="m69.374 86.594h-59.293c-5.559 0-10.081-4.522-10.081-10.081v-66.432c0-5.559 4.522-10.081 10.081-10.081h59.293c5.559 0 10.08 4.522 10.08 10.081v66.432c0 5.559-4.521 10.081-10.08 10.081zm-59.293-81.594c-2.802 0-5.081 2.279-5.081 5.081v66.432c0 2.801 2.279 5.081 5.081 5.081h59.293c2.801 0 5.08-2.279 5.08-5.081v-66.432c0-2.802-2.279-5.081-5.08-5.081z"/></g><g><path d="m69.374 178.797h-59.293c-5.559 0-10.081-4.522-10.081-10.081v-66.432c0-5.559 4.522-10.081 10.081-10.081h59.293c5.559 0 10.08 4.522 10.08 10.081v66.432c0 5.559-4.521 10.081-10.08 10.081zm-59.293-81.593c-2.802 0-5.081 2.279-5.081 5.08v66.432c0 2.802 2.279 5.081 5.081 5.081h59.293c2.801 0 5.08-2.279 5.08-5.081v-66.432c0-2.801-2.279-5.081-5.08-5.081h-59.293z"/></g><g><path d="m216.272 161.959c-14.59 0-26.459-11.87-26.459-26.459s11.869-26.459 26.459-26.459 26.459 11.87 26.459 26.459-11.869 26.459-26.459 26.459zm0-47.917c-11.833 0-21.459 9.626-21.459 21.459s9.626 21.459 21.459 21.459 21.459-9.626 21.459-21.459-9.626-21.459-21.459-21.459z"/></g><g><path d="m128 151.626c-22.525 0-40.852-18.326-40.852-40.852s18.327-40.851 40.852-40.851 40.852 18.326 40.852 40.852-18.327 40.851-40.852 40.851zm0-76.703c-19.769 0-35.852 16.083-35.852 35.852s16.083 35.852 35.852 35.852 35.852-16.083 35.852-35.852-16.083-35.852-35.852-35.852z"/></g><g><path d="m208.5 65.833h-14c-1.381 0-2.5-1.119-2.5-2.5v-17.666c0-1.381 1.119-2.5 2.5-2.5h13c1.381 0 2.5 1.119 2.5 2.5s-1.119 2.5-2.5 2.5h-10.5v12.667h11.5c1.381 0 2.5 1.119 2.5 2.5s-1.119 2.499-2.5 2.499z"/></g><g><path d="m222.5 65.833h-14c-1.381 0-2.5-1.119-2.5-2.5v-28.166c0-1.381 1.119-2.5 2.5-2.5h12.75c1.381 0 2.5 1.119 2.5 2.5s-1.119 2.5-2.5 2.5h-10.25v23.167h11.5c1.381 0 2.5 1.119 2.5 2.5s-1.119 2.499-2.5 2.499z"/></g><g><path d="m236.5 65.833h-14c-1.381 0-2.5-1.119-2.5-2.5v-38.666c0-1.381 1.119-2.5 2.5-2.5h14c1.381 0 2.5 1.119 2.5 2.5v38.667c0 1.38-1.119 2.499-2.5 2.499zm-11.5-5h9v-33.666h-9z"/></g><g><path d="m212.172 148.029c-.847 0-1.695-.208-2.469-.625-1.682-.908-2.726-2.659-2.726-4.57v-14.666c0-1.911 1.044-3.662 2.725-4.57 1.68-.909 3.717-.822 5.316.225l11.191 7.334c1.47.962 2.347 2.586 2.348 4.344 0 1.757-.878 3.381-2.348 4.345l-11.191 7.333c-.862.564-1.853.85-2.846.85zm.005-20.06c-.027 0-.06.007-.098.028-.102.055-.102.127-.102.171v14.666c0 .043 0 .116.102.171s.161.015.199-.008l11.191-7.333c.028-.018.088-.057.088-.162-.001-.105-.06-.144-.088-.162l-11.191-7.334c-.022-.016-.055-.037-.101-.037z"/></g><g><path d="m23.25 68.75c-5.376 0-9.75-4.374-9.75-9.75s4.374-9.75 9.75-9.75 9.75 4.374 9.75 9.75-4.374 9.75-9.75 9.75zm0-14.5c-2.619 0-4.75 2.131-4.75 4.75s2.131 4.75 4.75 4.75 4.75-2.131 4.75-4.75-2.131-4.75-4.75-4.75z"/></g><g><path d="m31.22 40.729c-1.139 0-2.167-.782-2.434-1.938-.311-1.345.528-2.688 1.873-2.998l24.339-5.617c1.354-.311 2.688.529 2.998 1.874.311 1.345-.528 2.688-1.873 2.998l-24.339 5.617c-.189.043-.379.064-.564.064z"/></g><g><path d="m49.25 62.75c-5.376 0-9.75-4.374-9.75-9.75s4.374-9.75 9.75-9.75 9.75 4.374 9.75 9.75-4.374 9.75-9.75 9.75zm0-14.5c-2.619 0-4.75 2.131-4.75 4.75s2.131 4.75 4.75 4.75 4.75-2.131 4.75-4.75-2.131-4.75-4.75-4.75z"/></g></g></g></svg>