<svg enable-background="new 0 0 256 256" height="512" viewBox="0 0 256 256" width="512" xmlns="http://www.w3.org/2000/svg"><g id="Layer_51"><g><g><g><path d="m138.081 153.265-8.134-7.427c-.753-.687-1.917-.646-2.619.092l-15.687 16.491c-.77.81-.78 2.078-.022 2.899l8.157 8.837c.936 1.014 2.552.97 3.431-.094l15.054-18.223c.636-.769.557-1.902-.18-2.575z" fill="#edf4fc"/></g></g><g><g><path d="m76.784 153.265 8.134-7.427c.753-.687 1.917-.646 2.619.092l15.687 16.491c.77.81.78 2.078.022 2.899l-8.157 8.837c-.936 1.014-2.552.97-3.431-.094l-15.055-18.223c-.636-.769-.556-1.902.181-2.575z" fill="#edf4fc"/></g></g><g><g><g><path d="m150.846 250.746v-4.077c0-1.521 1.233-2.754 2.754-2.754h1.145v-4.667c0-6.131 5.016-11.147 11.147-11.147h7.748v-57.25h.001c-.798-.56-1.492-1.254-2.052-2.052h-26.717c-1.986 0-3.596-1.61-3.596-3.595v-2.394c0-1.986 1.61-3.595 3.596-3.595h3.745l-6.654-1.675c-1.38-.698-2.568-1.289-3.626-1.811-.026.037-.046.076-.075.112l-15.054 18.224c-.879 1.064-2.495 1.109-3.431.094l-8.157-8.837c-.468-.508-.642-1.186-.526-1.821h-7.323c.116.635-.057 1.313-.526 1.821l-8.157 8.837c-.936 1.014-2.552.97-3.431-.094l-15.054-18.225c-.029-.035-.049-.075-.076-.112-1.058.522-2.246 1.114-3.626 1.812l-28.901 7.274c-6.233 1.569-10.721 7.008-11.078 13.425l-4.115 70.951c-.13 2.34 1.732 4.31 4.076 4.31h120.717c-1.521 0-2.754-1.233-2.754-2.754z" fill="#dae6f1"/></g></g></g><g><g><path d="m90.287 134.915v6.057c0 2.203-.581 4.309-1.601 6.167l14.538 15.283c.294.309.475.685.547 1.078h7.323c.072-.393.253-.769.547-1.078l14.538-15.283c-1.021-1.858-1.601-3.964-1.601-6.167v-6.057c-10.478 5.485-23.259 5.775-34.291 0z" fill="#f9d0b4"/></g></g><g><g><path d="m203.265 243.915h-49.665c-1.521 0-2.754 1.233-2.754 2.754v4.077c0 1.521 1.233 2.754 2.754 2.754h49.665c1.521 0 2.754-1.233 2.754-2.754v-4.077c0-1.521-1.233-2.754-2.754-2.754z" fill="#754e34"/></g></g><g><g><circle cx="178.432" cy="164.007" fill="#fcdd86" r="8.36"/></g></g><g><g><path d="m211.993 159.214h-26.717c.953 1.358 1.516 3.008 1.516 4.793s-.564 3.435-1.516 4.793h26.717c1.986 0 3.596-1.61 3.596-3.596v-2.394c-.001-1.986-1.61-3.596-3.596-3.596z" fill="#f5c84c"/></g></g><g><g><path d="m170.072 164.007c0-1.785.564-3.435 1.516-4.793h-26.717c-1.986 0-3.596 1.61-3.596 3.596v2.394c0 1.986 1.61 3.596 3.596 3.596h26.717c-.952-1.358-1.516-3.009-1.516-4.793z" fill="#f5c84c"/></g></g><g><g><path d="m183.225 228.101v-57.25c-1.358.952-3.008 1.516-4.793 1.516-1.784 0-3.435-.564-4.793-1.516v57.25z" fill="#f5c84c"/></g></g><g><g><g><path d="m202.119 243.915v-4.667c0-6.131-5.016-11.147-11.147-11.147h-25.08c-6.131 0-11.147 5.016-11.147 11.147v4.667z" fill="#fcdd86"/></g></g></g><g><g><path d="m224.833 200.53h-29.636c-1.307 0-2.367 1.06-2.367 2.367v2.3c0 6.131 5.016 11.147 11.147 11.147h12.076c6.131 0 11.147-5.016 11.147-11.147v-2.3c-.001-1.307-1.06-2.367-2.367-2.367z" fill="#fcdd86"/></g></g><g><g><path d="m161.668 200.53h-29.636c-1.307 0-2.367 1.06-2.367 2.367v2.3c0 6.131 5.016 11.147 11.147 11.147h12.076c6.131 0 11.147-5.016 11.147-11.147v-2.3c-.001-1.307-1.06-2.367-2.367-2.367z" fill="#fcdd86"/></g></g><g><g><path d="m97.697 171.332c2.235 2.947 5.751 4.868 9.735 4.868s7.5-1.921 9.735-4.868l-5.549-6.011c-.468-.508-.642-1.186-.526-1.821h-7.323c.116.635-.057 1.313-.526 1.821z" fill="#ef4460"/></g></g><g><g><path d="m112.642 175.011c-1.58.753-3.34 1.189-5.209 1.189s-3.629-.437-5.209-1.189l-6.671 67.235 11.88 11.195 11.88-11.195z" fill="#fc657e"/></g></g><g><g><path d="m55.888 255.04c-1.381 0-2.5-1.119-2.5-2.5v-56.645c0-1.381 1.119-2.5 2.5-2.5s2.5 1.119 2.5 2.5v56.645c0 1.381-1.119 2.5-2.5 2.5z"/></g></g><g><g><path d="m139.331 57.412c-2.433-2.552-6.39-2.787-9.164-.61-4.386 3.443-11.975 7.698-22.693 7.698-10.745 0-18.374-4.276-22.778-7.723-2.771-2.169-6.72-1.926-9.149.621l-.013.013c-3.413 3.579-5.316 8.334-5.316 13.279v31.233c0 20.468 16.747 37.215 37.215 37.215 20.468 0 37.215-16.747 37.215-37.215v-31.232c-.001-4.945-1.905-9.701-5.317-13.279z" fill="#f9d0b4"/></g></g><g><g><path d="m147.035 73.561c-.813 0-1.609.069-2.388.189v28.173c0 .839-.038 1.67-.094 2.496.81.13 1.635.217 2.482.217 8.581 0 15.537-6.956 15.537-15.537s-6.955-15.538-15.537-15.538z" fill="#f9d0b4"/></g></g><g><g><path d="m70.217 101.923c0-3.856 0-20.507 0-28.173-.779-.121-1.575-.189-2.388-.189-8.581 0-15.538 6.957-15.538 15.538s6.956 15.537 15.538 15.537c.847 0 1.672-.086 2.482-.217v-.001c-.055-.825-.094-1.656-.094-2.495z" fill="#f9d0b4"/></g></g><g><g><path d="m144.508 41.816c-1.246 0-2.327-.961-2.344-2.207-.285-20.737-23.966-24.633-47.549-20.56-19.994 3.453-34.608 20.791-34.608 41.081v15.559c2.299-1.344 4.966-2.128 7.821-2.128.813 0 1.609.068 2.388.189v-3.059c0-4.945 1.904-9.7 5.316-13.279l.013-.013c2.429-2.547 6.377-2.79 9.149-.621 4.406 3.446 12.035 7.722 22.779 7.722 10.719 0 18.308-4.255 22.693-7.698 2.774-2.177 6.73-1.943 9.164.61 3.413 3.579 5.316 8.334 5.316 13.279v3.059c.779-.121 1.575-.189 2.388-.189 2.89 0 5.586.803 7.903 2.178 0-4.342 0-8.802 0-12.775.002-18.569-6.704-21.148-10.429-21.148z" fill="#754e34"/></g></g><g><g><path d="m107.432 141.639c-21.899 0-39.715-17.816-39.715-39.716v-31.233c0-5.613 2.133-10.942 6.007-15.004 3.327-3.489 8.701-3.86 12.511-.878 4.193 3.281 11.28 7.192 21.239 7.192 9.938 0 16.986-3.896 21.149-7.165 3.819-2.994 9.2-2.629 12.518.853 3.874 4.062 6.007 9.39 6.007 15.003v31.232c-.001 21.899-17.817 39.716-39.716 39.716zm-26.988-83.836c-1.134 0-2.254.446-3.088 1.321-2.996 3.141-4.638 7.244-4.638 11.566v31.232c0 19.143 15.573 34.716 34.715 34.716s34.715-15.573 34.715-34.716v-31.232c0-4.322-1.643-8.426-4.625-11.553 0 0 0 0 0-.001-1.532-1.607-4.031-1.767-5.811-.368-4.784 3.755-12.872 8.232-24.238 8.232-11.384 0-19.508-4.488-24.319-8.254-.808-.632-1.765-.943-2.711-.943z"/></g></g><g><g><path d="m147.036 107.136c-.623 0-1.253-.038-1.927-.116-1.372-.159-2.354-1.4-2.195-2.771s1.399-2.354 2.772-2.195c.48.056.922.083 1.35.083 7.188 0 13.037-5.849 13.037-13.037 0-7.189-5.849-13.038-13.037-13.038-.438 0-.894.024-1.354.074-1.375.133-2.604-.849-2.75-2.222s.848-2.604 2.221-2.751c.635-.067 1.269-.102 1.883-.102 9.946 0 18.037 8.092 18.037 18.038 0 9.945-8.092 18.037-18.037 18.037z"/></g></g><g><g><path d="m67.829 107.136c-9.946 0-18.038-8.092-18.038-18.037 0-9.946 8.092-18.038 18.038-18.038.57 0 1.154.029 1.736.088 1.374.137 2.376 1.361 2.24 2.735-.137 1.375-1.362 2.386-2.736 2.239-.418-.041-.835-.063-1.24-.063-7.189 0-13.038 5.849-13.038 13.038 0 7.188 5.849 13.037 13.038 13.037.346 0 .688-.018 1.025-.049 1.379-.142 2.593.886 2.719 2.26.127 1.375-.885 2.593-2.26 2.719-.505.047-1.004.071-1.484.071z"/></g></g><g><g><path d="m107.974 118.573c-4.777 0-9.262-1.95-11.999-5.216-.887-1.058-.748-2.635.31-3.521 1.06-.888 2.636-.748 3.522.311 1.798 2.146 4.852 3.427 8.167 3.427s6.368-1.281 8.167-3.427c.887-1.057 2.464-1.198 3.522-.311s1.197 2.464.31 3.521c-2.738 3.266-7.223 5.216-11.999 5.216z"/></g></g><g><g><path d="m154.939 77.583c-1.381 0-2.5-1.119-2.5-2.5v-12.12c0-11.851-2.891-18.647-7.931-18.647-2.635 0-4.808-2.096-4.844-4.673-.077-5.591-2.071-10.05-5.927-13.252-7.324-6.081-21.427-7.859-38.697-4.879-18.85 3.256-32.532 19.496-32.532 38.617v14.777c0 1.381-1.119 2.5-2.5 2.5s-2.5-1.119-2.5-2.5v-14.777c0-21.561 15.427-39.874 36.683-43.545 18.711-3.232 34.29-1.059 42.742 5.96 4.972 4.129 7.571 9.771 7.728 16.772 4.845.064 12.779 3.285 12.779 23.646v12.12c-.001 1.382-1.12 2.501-2.501 2.501z"/></g></g><g><g><path d="m121.45 177.391c-1.332 0-2.604-.555-3.511-1.536l-8.157-8.838c-1.646-1.784-1.626-4.559.047-6.317l15.687-16.491c1.629-1.713 4.373-1.808 6.117-.215l8.133 7.425v.001c1.723 1.573 1.908 4.215.422 6.013l-15.054 18.224c-.878 1.063-2.173 1.695-3.552 1.734-.043 0-.088 0-.132 0zm-7.753-13.504 7.744 8.39 14.513-17.568-7.239-6.608zm22.696-8.778c.001 0 .001.001.002.001z"/></g></g><g><g><path d="m93.414 177.391c-.044 0-.088 0-.132-.002-1.379-.038-2.674-.67-3.552-1.733l-15.054-18.224c-1.486-1.799-1.301-4.44.423-6.014l8.134-7.426c1.744-1.593 4.488-1.496 6.116.216l15.687 16.491c1.673 1.758 1.694 4.533.048 6.317l-8.158 8.837c-.907.982-2.18 1.538-3.512 1.538zm-14.503-22.683 14.512 17.568 7.744-8.39-15.018-15.786zm-.439.401-.002.002c-.001 0 0-.002.002-.002zm-1.688-1.844h.01z"/></g></g><g><g><g><path d="m153.6 256h-120.717c-1.801 0-3.544-.751-4.782-2.06s-1.89-3.091-1.79-4.889l4.115-70.957c.42-7.546 5.63-13.859 12.964-15.705l28.632-7.207c1.058-.534 2.003-1.006 2.863-1.432 1.236-.616 2.737-.109 3.351 1.128s.108 2.737-1.129 3.351c-.917.455-1.93.961-3.077 1.541-.165.083-.338.147-.518.193l-28.902 7.275c-5.2 1.309-8.895 5.785-9.193 11.139l-4.115 70.957c-.024.434.129.851.431 1.17s.71.495 1.15.495h120.717c1.381 0 2.5 1.119 2.5 2.5s-1.119 2.501-2.5 2.501z"/></g></g><g><g><path d="m148.619 161.716c-.202 0-.408-.025-.612-.077l-6.654-1.676c-.179-.045-.353-.109-.518-.192-1.146-.58-2.16-1.086-3.075-1.539-1.237-.612-1.744-2.111-1.132-3.35.612-1.237 2.112-1.745 3.35-1.131.86.426 1.806.897 2.865 1.432l6.385 1.608c1.339.337 2.151 1.695 1.814 3.034-.287 1.134-1.305 1.891-2.423 1.891z"/></g></g></g><g><g><path d="m125.883 149.066c-.926 0-1.816-.517-2.249-1.405-1.033-2.118-1.557-4.369-1.557-6.689v-5.18c0-1.381 1.119-2.5 2.5-2.5s2.5 1.119 2.5 2.5v5.18c0 1.555.354 3.067 1.051 4.498.605 1.241.09 2.737-1.151 3.343-.352.171-.726.253-1.094.253z"/></g></g><g><g><path d="m110.708 166h-6.583c-1.381 0-2.5-1.119-2.5-2.5s1.119-2.5 2.5-2.5h6.583c1.381 0 2.5 1.119 2.5 2.5s-1.12 2.5-2.5 2.5z"/></g></g><g><g><path d="m88.937 149.157c-.374 0-.754-.085-1.111-.263-1.236-.615-1.74-2.115-1.125-3.352.722-1.451 1.087-2.988 1.087-4.571v-5.44c0-1.381 1.119-2.5 2.5-2.5s2.5 1.119 2.5 2.5v5.44c0 2.362-.542 4.649-1.611 6.798-.437.879-1.322 1.388-2.24 1.388z"/></g></g><g><g><circle cx="124.222" cy="90.816" r="5"/></g></g><g><g><circle cx="90.643" cy="90.816" r="5"/></g></g><g><g><path d="m132.908 106.015h-9.237c-7.458 0-13.524-6.067-13.524-13.524v-6.39c0-5.577 4.538-10.115 10.115-10.115h16.057c5.577 0 10.114 4.538 10.114 10.115v6.39c-.001 7.456-6.068 13.524-13.525 13.524zm-12.647-25.03c-2.82 0-5.115 2.295-5.115 5.115v6.39c0 4.7 3.824 8.524 8.524 8.524h9.237c4.7 0 8.524-3.824 8.524-8.524v-6.39c0-2.82-2.294-5.115-5.114-5.115z"/></g></g><g><g><path d="m91.194 106.015h-9.237c-7.458 0-13.524-6.067-13.524-13.524v-6.39c0-5.577 4.538-10.115 10.115-10.115h16.057c5.577 0 10.115 4.538 10.115 10.115v6.39c-.002 7.456-6.069 13.524-13.526 13.524zm-12.647-25.03c-2.82 0-5.115 2.295-5.115 5.115v6.39c0 4.7 3.824 8.524 8.524 8.524h9.237c4.7 0 8.524-3.824 8.524-8.524v-6.39c0-2.82-2.294-5.115-5.115-5.115z"/></g></g><g><g><path d="m111.604 89.925h-8.343c-1.381 0-2.5-1.119-2.5-2.5s1.119-2.5 2.5-2.5h8.343c1.381 0 2.5 1.119 2.5 2.5s-1.12 2.5-2.5 2.5z"/></g></g><g><g><path d="m88.932 202h-20c-1.381 0-2.5-1.119-2.5-2.5s1.119-2.5 2.5-2.5h20c1.381 0 2.5 1.119 2.5 2.5s-1.119 2.5-2.5 2.5z"/></g></g><g><g><path d="m75.932 213c-1.381 0-2.5-1.119-2.5-2.5v-15c0-1.381 1.119-2.5 2.5-2.5s2.5 1.119 2.5 2.5v15c0 1.381-1.119 2.5-2.5 2.5z"/></g></g><g><g><path d="m203.265 256h-49.665c-2.897 0-5.254-2.356-5.254-5.254v-4.077c0-2.897 2.357-5.254 5.254-5.254h49.665c2.897 0 5.254 2.356 5.254 5.254v4.077c0 2.898-2.357 5.254-5.254 5.254zm-49.665-9.585c-.14 0-.254.114-.254.254v4.077c0 .14.114.254.254.254h49.665c.14 0 .254-.114.254-.254v-4.077c0-.14-.114-.254-.254-.254z"/></g></g><g><g><path d="m178.432 174.867c-5.988 0-10.86-4.872-10.86-10.86s4.872-10.86 10.86-10.86 10.86 4.872 10.86 10.86-4.872 10.86-10.86 10.86zm0-16.721c-3.231 0-5.86 2.629-5.86 5.86s2.629 5.86 5.86 5.86 5.86-2.629 5.86-5.86-2.628-5.86-5.86-5.86z"/></g></g><g><g><path d="m211.993 171.3h-26.138c-1.381 0-2.5-1.119-2.5-2.5s1.119-2.5 2.5-2.5h26.138c.604 0 1.096-.491 1.096-1.096v-2.395c0-.604-.492-1.096-1.096-1.096h-26.034c-1.381 0-2.5-1.119-2.5-2.5s1.119-2.5 2.5-2.5h26.034c3.361 0 6.096 2.734 6.096 6.096v2.395c-.001 3.361-2.735 6.096-6.096 6.096z"/></g></g><g><g><path d="m170.979 171.3h-26.106c-3.361 0-6.096-2.734-6.096-6.096v-2.395c0-3.361 2.734-6.096 6.096-6.096h26.149c1.381 0 2.5 1.119 2.5 2.5s-1.119 2.5-2.5 2.5h-26.149c-.604 0-1.096.491-1.096 1.096v2.395c0 .604.492 1.096 1.096 1.096h26.106c1.381 0 2.5 1.119 2.5 2.5s-1.12 2.5-2.5 2.5z"/></g></g><g><g><path d="m178.432 157.218c-1.381 0-2.5-1.119-2.5-2.5v-5.573c0-1.381 1.119-2.5 2.5-2.5s2.5 1.119 2.5 2.5v5.573c0 1.381-1.119 2.5-2.5 2.5z"/></g></g><g><g><path d="m183.225 229.583c-1.381 0-2.5-1.119-2.5-2.5v-55.646c0-1.381 1.119-2.5 2.5-2.5s2.5 1.119 2.5 2.5v55.646c0 1.381-1.119 2.5-2.5 2.5z"/></g></g><g><g><path d="m173.64 229.583c-1.381 0-2.5-1.119-2.5-2.5v-55.75c0-1.381 1.119-2.5 2.5-2.5s2.5 1.119 2.5 2.5v55.75c0 1.381-1.119 2.5-2.5 2.5z"/></g></g><g><g><g><path d="m202.119 245.875c-1.381 0-2.5-1.119-2.5-2.5v-4.127c0-4.769-3.879-8.647-8.646-8.647h-25.081c-4.768 0-8.646 3.879-8.646 8.647v4.127c0 1.381-1.119 2.5-2.5 2.5s-2.5-1.119-2.5-2.5v-4.127c0-7.525 6.122-13.647 13.646-13.647h25.081c7.525 0 13.646 6.122 13.646 13.647v4.127c0 1.381-1.119 2.5-2.5 2.5z"/></g></g></g><g><g><path d="m196.08 201.983c-.351 0-.708-.075-1.048-.231-1.253-.58-1.799-2.065-1.22-3.318l13.933-30.136c.58-1.254 2.065-1.797 3.318-1.221 1.253.58 1.799 2.065 1.22 3.318l-13.933 30.136c-.422.914-1.326 1.452-2.27 1.452z"/></g></g><g><g><path d="m223.95 201.983c-.944 0-1.848-.538-2.271-1.452l-13.934-30.136c-.58-1.253-.033-2.738 1.22-3.318 1.255-.576 2.74-.033 3.318 1.221l13.934 30.136c.58 1.253.033 2.738-1.22 3.318-.339.156-.696.231-1.047.231z"/></g></g><g><g><path d="m132.915 201.983c-.351 0-.708-.075-1.048-.231-1.253-.58-1.799-2.065-1.22-3.318l13.933-30.136c.58-1.254 2.065-1.797 3.318-1.221 1.253.58 1.799 2.065 1.22 3.318l-13.933 30.136c-.422.914-1.326 1.452-2.27 1.452z"/></g></g><g><g><path d="m160.785 201.983c-.944 0-1.848-.538-2.271-1.452l-13.934-30.136c-.58-1.253-.033-2.738 1.22-3.318 1.254-.576 2.739-.033 3.318 1.221l13.934 30.136c.58 1.253.033 2.738-1.22 3.318-.339.156-.696.231-1.047.231z"/></g></g><g><g><path d="m216.053 218.844h-12.076c-7.525 0-13.647-6.122-13.647-13.646v-2.301c0-2.684 2.184-4.866 4.867-4.866h29.635c2.684 0 4.867 2.183 4.867 4.866v2.301c.001 7.524-6.121 13.646-13.646 13.646zm-20.723-15.814v2.167c0 4.768 3.879 8.646 8.647 8.646h12.076c4.768 0 8.647-3.879 8.647-8.646v-2.167zm29.503 0h.01z"/></g></g><g><g><path d="m152.888 218.844h-12.076c-7.525 0-13.647-6.122-13.647-13.646v-2.301c0-2.684 2.184-4.866 4.867-4.866h29.635c2.684 0 4.867 2.183 4.867 4.866v2.301c0 7.524-6.121 13.646-13.646 13.646zm-20.723-15.814v2.167c0 4.768 3.879 8.646 8.647 8.646h12.076c4.768 0 8.646-3.879 8.646-8.646v-2.167zm29.502 0h.01z"/></g></g><g><g><path d="m107.432 178.7c-4.362 0-8.479-1.938-11.296-5.316-.884-1.061-.742-2.637.319-3.521 1.06-.885 2.637-.742 3.521.319 1.864 2.235 4.582 3.518 7.456 3.518 2.805 0 5.479-1.231 7.337-3.377.904-1.044 2.483-1.158 3.526-.255 1.044.904 1.158 2.482.254 3.526-2.807 3.246-6.86 5.106-11.117 5.106z"/></g></g><g><g><path d="m107.432 255.94c-.617 0-1.233-.227-1.714-.681l-11.88-11.195c-.564-.531-.85-1.295-.773-2.066l6.613-66.654c.136-1.374 1.363-2.381 2.735-2.24 1.374.136 2.377 1.36 2.241 2.734l-6.492 65.431 9.271 8.736 9.271-8.736-6.488-65.398c-.136-1.374.867-2.599 2.241-2.734 1.37-.141 2.598.866 2.734 2.24l6.61 66.622c.077.771-.209 1.535-.773 2.066l-11.88 11.195c-.483.454-1.099.68-1.716.68z"/></g></g><g><g><path d="m183.822 28.33c-4.498-.838-8.043-4.31-8.898-8.716-.043-.221-.352-.221-.395 0-.855 4.406-4.4 7.879-8.898 8.716-.226.042-.226.345 0 .387 4.498.838 8.043 4.31 8.898 8.717.043.221.352.221.395 0 .855-4.406 4.4-7.879 8.898-8.717.225-.042.225-.344 0-.387z" fill="#fc657e"/></g></g><g><g><path d="m187.515 113.101c-2.862-.533-5.118-2.743-5.663-5.547-.027-.141-.224-.141-.251 0-.544 2.804-2.8 5.014-5.663 5.547-.144.027-.144.219 0 .246 2.862.533 5.118 2.743 5.663 5.547.027.141.224.141.251 0 .544-2.804 2.8-5.014 5.663-5.547.143-.027.143-.219 0-.246z" fill="#f5c84c"/></g></g><g><g><circle cx="25.755" cy="154.825" fill="#fc657e" r="3.377"/></g></g><g><g><circle cx="160.755" cy="3.377" fill="#87d147" r="3.377"/></g></g><g><g><path d="m32.246 122.75h2.33v-2.33c0-1.744 1.413-3.157 3.157-3.157s3.157 1.413 3.157 3.157v2.33h2.329c1.744 0 3.157 1.413 3.157 3.157s-1.413 3.157-3.157 3.157h-2.329v2.33c0 1.744-1.413 3.157-3.157 3.157s-3.157-1.413-3.157-3.157v-2.33h-2.33c-1.744 0-3.157-1.413-3.157-3.157s1.413-3.157 3.157-3.157z" fill="#70d6f9"/></g></g></g></g></svg>