<svg width="88" height="72" viewBox="0 0 88 72" fill="none" xmlns="http://www.w3.org/2000/svg">
<g clip-path="url(#clip0_6610_4045)">
<path d="M2.48205 67.0345C1.12821 67.0345 0 68.163 0 69.5172C0 70.8715 1.12821 72 2.48205 72C3.8359 72 4.9641 70.8715 4.9641 69.5172C4.9641 68.163 3.8359 67.0345 2.48205 67.0345Z" fill="#FA994D"/>
<path d="M19.0665 67.0345C17.7127 67.0345 16.5845 68.163 16.5845 69.5172C16.5845 70.8715 17.7127 72 19.0665 72C20.4204 72 21.5486 70.8715 21.5486 69.5172C21.5486 68.163 20.4204 67.0345 19.0665 67.0345Z" fill="#FA994D"/>
<path d="M35.7643 67.0345C34.4104 67.0345 33.2822 68.163 33.2822 69.5172C33.2822 70.8715 34.4104 72 35.7643 72C37.1181 72 38.2463 70.8715 38.2463 69.5172C38.2463 68.163 37.1181 67.0345 35.7643 67.0345Z" fill="#FA994D"/>
<path d="M52.3488 67.0345C50.9949 67.0345 49.8667 68.163 49.8667 69.5172C49.8667 70.8715 50.9949 72 52.3488 72C53.7026 72 54.8308 70.8715 54.8308 69.5172C54.8308 68.163 53.7026 67.0345 52.3488 67.0345Z" fill="#FA994D"/>
<path d="M68.9332 67.0345C67.5794 67.0345 66.4512 68.163 66.4512 69.5172C66.4512 70.8715 67.5794 72 68.9332 72C70.2871 72 71.4153 70.8715 71.4153 69.5172C71.4153 68.163 70.2871 67.0345 68.9332 67.0345Z" fill="#FA994D"/>
<path d="M85.5182 67.0345C84.1643 67.0345 83.0361 68.163 83.0361 69.5172C83.0361 70.8715 84.1643 72 85.5182 72C86.872 72 88.0002 70.8715 88.0002 69.5172C88.0002 68.163 86.9849 67.0345 85.5182 67.0345Z" fill="#FA994D"/>
<path d="M2.48205 53.605C1.12821 53.605 0 54.7335 0 56.0878C0 57.442 1.12821 58.5705 2.48205 58.5705C3.8359 58.5705 4.9641 57.442 4.9641 56.0878C4.9641 54.7335 3.8359 53.605 2.48205 53.605Z" fill="#FA994D"/>
<path d="M19.0665 58.5705C20.4373 58.5705 21.5486 57.459 21.5486 56.0878C21.5486 54.7166 20.4373 53.605 19.0665 53.605C17.6957 53.605 16.5845 54.7166 16.5845 56.0878C16.5845 57.459 17.6957 58.5705 19.0665 58.5705Z" fill="#FA994D"/>
<path d="M35.7643 58.5705C37.1351 58.5705 38.2463 57.459 38.2463 56.0878C38.2463 54.7166 37.1351 53.605 35.7643 53.605C34.3935 53.605 33.2822 54.7166 33.2822 56.0878C33.2822 57.459 34.3935 58.5705 35.7643 58.5705Z" fill="#FA994D"/>
<path d="M52.3488 58.5705C53.7196 58.5705 54.8308 57.459 54.8308 56.0878C54.8308 54.7166 53.7196 53.605 52.3488 53.605C50.978 53.605 49.8667 54.7166 49.8667 56.0878C49.8667 57.459 50.978 58.5705 52.3488 58.5705Z" fill="#FA994D"/>
<path d="M68.9332 53.605C67.5794 53.605 66.4512 54.7335 66.4512 56.0878C66.4512 57.442 67.5794 58.5705 68.9332 58.5705C70.2871 58.5705 71.4153 57.442 71.4153 56.0878C71.4153 54.7335 70.2871 53.605 68.9332 53.605Z" fill="#FA994D"/>
<path d="M85.5182 53.605C84.1643 53.605 83.0361 54.7335 83.0361 56.0878C83.0361 57.442 84.1643 58.5705 85.5182 58.5705C86.872 58.5705 88.0002 57.442 88.0002 56.0878C88.0002 54.7335 86.9849 53.605 85.5182 53.605Z" fill="#FA994D"/>
<path d="M2.48205 40.1755C1.12821 40.1755 0 41.3041 0 42.6583C0 44.1254 1.12821 45.1411 2.48205 45.1411C3.8359 45.1411 4.9641 44.0125 4.9641 42.6583C4.9641 41.3041 3.8359 40.1755 2.48205 40.1755Z" fill="#FA994D"/>
<path d="M19.0665 45.1411C20.4373 45.1411 21.5486 44.0295 21.5486 42.6583C21.5486 41.2871 20.4373 40.1755 19.0665 40.1755C17.6957 40.1755 16.5845 41.2871 16.5845 42.6583C16.5845 44.0295 17.6957 45.1411 19.0665 45.1411Z" fill="#FA994D"/>
<path d="M35.7643 45.1411C37.1351 45.1411 38.2463 44.0295 38.2463 42.6583C38.2463 41.2871 37.1351 40.1755 35.7643 40.1755C34.3935 40.1755 33.2822 41.2871 33.2822 42.6583C33.2822 44.0295 34.3935 45.1411 35.7643 45.1411Z" fill="#FA994D"/>
<path d="M52.3488 45.1411C53.7196 45.1411 54.8308 44.0295 54.8308 42.6583C54.8308 41.2871 53.7196 40.1755 52.3488 40.1755C50.978 40.1755 49.8667 41.2871 49.8667 42.6583C49.8667 44.0295 50.978 45.1411 52.3488 45.1411Z" fill="#FA994D"/>
<path d="M68.9332 40.1755C67.5794 40.1755 66.4512 41.3041 66.4512 42.6583C66.4512 44.0125 67.5794 45.1411 68.9332 45.1411C70.2871 45.1411 71.4153 44.0125 71.4153 42.6583C71.4153 41.3041 70.2871 40.1755 68.9332 40.1755Z" fill="#FA994D"/>
<path d="M85.5182 40.1755C84.1643 40.1755 83.0361 41.3041 83.0361 42.6583C83.0361 44.0125 84.1643 45.1411 85.5182 45.1411C86.872 45.1411 88.0002 44.0125 88.0002 42.6583C88.0002 41.3041 86.9849 40.1755 85.5182 40.1755Z" fill="#FA994D"/>
<path d="M2.48205 26.8589C1.12821 26.8589 0 27.8746 0 29.3417C0 30.6959 1.12821 31.8245 2.48205 31.8245C3.8359 31.8245 4.9641 30.6959 4.9641 29.3417C4.9641 27.8746 3.8359 26.8589 2.48205 26.8589Z" fill="#FA994D"/>
<path d="M19.0665 26.8589C17.7127 26.8589 16.5845 27.9875 16.5845 29.3417C16.5845 30.6959 17.7127 31.8245 19.0665 31.8245C20.4204 31.8245 21.5486 30.6959 21.5486 29.3417C21.5486 27.8746 20.4204 26.8589 19.0665 26.8589Z" fill="#FA994D"/>
<path d="M35.7643 26.8589C34.4104 26.8589 33.2822 27.9875 33.2822 29.3417C33.2822 30.6959 34.4104 31.8245 35.7643 31.8245C37.1181 31.8245 38.2463 30.6959 38.2463 29.3417C38.2463 27.8746 37.1181 26.8589 35.7643 26.8589Z" fill="#FA994D"/>
<path d="M52.3488 26.8589C50.9949 26.8589 49.8667 27.9875 49.8667 29.3417C49.8667 30.6959 50.9949 31.8245 52.3488 31.8245C53.7026 31.8245 54.8308 30.6959 54.8308 29.3417C54.8308 27.8746 53.7026 26.8589 52.3488 26.8589Z" fill="#FA994D"/>
<path d="M68.9332 26.8589C67.5794 26.8589 66.4512 27.9875 66.4512 29.3417C66.4512 30.6959 67.5794 31.8245 68.9332 31.8245C70.2871 31.8245 71.4153 30.6959 71.4153 29.3417C71.4153 27.8746 70.2871 26.8589 68.9332 26.8589Z" fill="#FA994D"/>
<path d="M85.5182 26.8589C84.1643 26.8589 83.0361 27.9875 83.0361 29.3417C83.0361 30.6959 84.1643 31.8245 85.5182 31.8245C86.872 31.8245 88.0002 30.6959 88.0002 29.3417C88.0002 27.8746 86.9849 26.8589 85.5182 26.8589Z" fill="#FA994D"/>
<path d="M2.48205 13.4295C1.12821 13.4295 0 14.558 0 15.9122C0 17.2665 1.12821 18.395 2.48205 18.395C3.8359 18.395 4.9641 17.2665 4.9641 15.9122C4.9641 14.558 3.8359 13.4295 2.48205 13.4295Z" fill="#FA994D"/>
<path d="M19.0665 18.395C20.4373 18.395 21.5486 17.2834 21.5486 15.9122C21.5486 14.541 20.4373 13.4295 19.0665 13.4295C17.6957 13.4295 16.5845 14.541 16.5845 15.9122C16.5845 17.2834 17.6957 18.395 19.0665 18.395Z" fill="#FA994D"/>
<path d="M35.7643 18.395C37.1351 18.395 38.2463 17.2834 38.2463 15.9122C38.2463 14.541 37.1351 13.4295 35.7643 13.4295C34.3935 13.4295 33.2822 14.541 33.2822 15.9122C33.2822 17.2834 34.3935 18.395 35.7643 18.395Z" fill="#FA994D"/>
<path d="M52.3488 18.395C53.7196 18.395 54.8308 17.2834 54.8308 15.9122C54.8308 14.541 53.7196 13.4295 52.3488 13.4295C50.978 13.4295 49.8667 14.541 49.8667 15.9122C49.8667 17.2834 50.978 18.395 52.3488 18.395Z" fill="#FA994D"/>
<path d="M68.9332 13.4295C67.5794 13.4295 66.4512 14.558 66.4512 15.9122C66.4512 17.2665 67.5794 18.395 68.9332 18.395C70.2871 18.395 71.4153 17.2665 71.4153 15.9122C71.4153 14.558 70.2871 13.4295 68.9332 13.4295Z" fill="#FA994D"/>
<path d="M85.5182 13.4295C84.1643 13.4295 83.0361 14.558 83.0361 15.9122C83.0361 17.2665 84.1643 18.395 85.5182 18.395C86.872 18.395 88.0002 17.2665 88.0002 15.9122C88.0002 14.558 86.9849 13.4295 85.5182 13.4295Z" fill="#FA994D"/>
<path d="M2.48205 0C1.12821 0 0 1.12853 0 2.48276C0 3.83699 1.12821 4.96552 2.48205 4.96552C3.8359 4.96552 4.9641 3.83699 4.9641 2.48276C4.9641 1.12853 3.8359 0 2.48205 0Z" fill="#FA994D"/>
<path d="M19.0665 4.96552C20.4373 4.96552 21.5486 3.85395 21.5486 2.48276C21.5486 1.11157 20.4373 0 19.0665 0C17.6957 0 16.5845 1.11157 16.5845 2.48276C16.5845 3.85395 17.6957 4.96552 19.0665 4.96552Z" fill="#FA994D"/>
<path d="M35.7643 4.96552C37.1351 4.96552 38.2463 3.85395 38.2463 2.48276C38.2463 1.11157 37.1351 0 35.7643 0C34.3935 0 33.2822 1.11157 33.2822 2.48276C33.2822 3.85395 34.3935 4.96552 35.7643 4.96552Z" fill="#FA994D"/>
<path d="M52.3488 4.96552C53.7196 4.96552 54.8308 3.85395 54.8308 2.48276C54.8308 1.11157 53.7196 0 52.3488 0C50.978 0 49.8667 1.11157 49.8667 2.48276C49.8667 3.85395 50.978 4.96552 52.3488 4.96552Z" fill="#FA994D"/>
<path d="M68.9332 0C67.5794 0 66.4512 1.12853 66.4512 2.48276C66.4512 3.83699 67.5794 4.96552 68.9332 4.96552C70.2871 4.96552 71.4153 3.83699 71.4153 2.48276C71.4153 1.12853 70.2871 0 68.9332 0Z" fill="#FA994D"/>
<path d="M85.5182 0C84.1643 0 83.0361 1.12853 83.0361 2.48276C83.0361 3.83699 84.1643 4.96552 85.5182 4.96552C86.872 4.96552 88.0002 3.83699 88.0002 2.48276C88.0002 1.12853 86.9849 0 85.5182 0Z" fill="#FA994D"/>
</g>
<defs>
<clipPath id="clip0_6610_4045">
<rect width="88" height="72" fill="white"/>
</clipPath>
</defs>
</svg>
