<svg width="195" height="194" viewBox="0 0 195 194" fill="none" xmlns="http://www.w3.org/2000/svg">
<path id="Vector" fill-rule="evenodd" clip-rule="evenodd" d="M194.483 47.929C194.492 47.8374 194.497 47.7463 194.498 47.6556C194.499 47.6243 194.501 47.593 194.5 47.5613C194.498 47.4346 194.489 47.3094 194.472 47.1858L194.469 47.1663C194.452 47.0493 194.427 46.9347 194.397 46.8221C194.389 46.7916 194.381 46.7614 194.372 46.7309C194.343 46.6343 194.31 46.5397 194.273 46.447C194.262 46.4216 194.253 46.3957 194.242 46.3703C194.193 46.2561 194.137 46.145 194.074 46.0379L194.065 46.0199L174.844 13.5924C174.837 13.5815 174.829 13.5725 174.823 13.5615C174.691 13.346 174.537 13.15 174.362 12.9756C174.34 12.9533 174.316 12.9326 174.293 12.9111C174.226 12.8481 174.156 12.7879 174.084 12.7311C174.056 12.7089 174.028 12.6862 173.999 12.665C173.91 12.6001 173.819 12.5395 173.724 12.4843C173.714 12.4789 173.705 12.4722 173.696 12.4664C173.592 12.4073 173.483 12.3557 173.373 12.3087C173.342 12.2958 173.31 12.2845 173.279 12.2724C173.192 12.2387 173.104 12.209 173.015 12.1832C172.984 12.1746 172.954 12.1652 172.923 12.1574C172.683 12.096 172.434 12.0627 172.181 12.0604C172.171 12.0604 172.162 12.0584 172.152 12.0584C172.134 12.0584 172.117 12.0615 172.099 12.0619C172.001 12.0635 171.903 12.0701 171.803 12.0815C171.769 12.0854 171.735 12.0889 171.7 12.0936C171.602 12.1081 171.505 12.128 171.406 12.1519C171.381 12.1581 171.356 12.1621 171.331 12.1687L171.316 12.1718C161.515 14.8874 157.935 13.5314 153.789 11.9595C149.993 10.5213 145.74 8.91376 137.532 9.84972C135.701 4.14359 130.345 0 124.038 0C117.73 0 112.375 4.1432 110.543 9.85011C102.335 8.91298 98.0819 10.5221 94.286 11.9602C90.1404 13.5318 86.56 14.8874 76.7591 12.1726L76.7451 12.1695C76.7192 12.1624 76.6923 12.1581 76.6661 12.1519C76.5702 12.1284 76.4744 12.1089 76.3786 12.0948C76.3414 12.0893 76.3043 12.0854 76.2667 12.0815C76.1724 12.0709 76.0786 12.0651 75.9847 12.0631C75.964 12.0627 75.944 12.0592 75.9237 12.0592C75.9123 12.0592 75.901 12.0611 75.8897 12.0615C75.6401 12.0643 75.3949 12.0967 75.1575 12.157C75.1223 12.166 75.0875 12.1765 75.0527 12.1867C74.9682 12.2113 74.8852 12.2391 74.8035 12.2708C74.7683 12.2845 74.7327 12.297 74.6979 12.3119C74.5896 12.358 74.4832 12.4085 74.3807 12.4664C74.3666 12.4746 74.3533 12.4843 74.3392 12.4926C74.2493 12.5454 74.1624 12.6029 74.0784 12.6643C74.0474 12.6866 74.0177 12.7104 73.988 12.7343C73.9176 12.7898 73.8495 12.8481 73.7842 12.9095C73.76 12.9322 73.7357 12.9537 73.7122 12.9772C73.5378 13.1512 73.3841 13.3468 73.2535 13.5615C73.2468 13.5725 73.2386 13.5818 73.2319 13.5928L54.0111 46.0203L54.0021 46.0383C53.9395 46.1454 53.8836 46.2565 53.8339 46.3707C53.823 46.3957 53.814 46.4216 53.8038 46.447C53.7663 46.5401 53.7334 46.6347 53.7048 46.7313C53.6959 46.7614 53.6869 46.7916 53.679 46.8221C53.6493 46.9351 53.6247 47.0497 53.6078 47.1663L53.6043 47.1858C53.5875 47.3094 53.5789 47.4346 53.5766 47.5613C53.5762 47.5926 53.5777 47.6239 53.5781 47.6556C53.5793 47.7463 53.5844 47.837 53.5938 47.929C53.5981 47.972 53.6031 48.0146 53.6094 48.0572C53.6137 48.0866 53.6149 48.1163 53.62 48.1456C55.4907 59.0244 64.8712 66.9205 75.9241 66.9205C86.977 66.9205 96.3578 59.0244 98.2286 48.1456C98.2337 48.1159 98.2352 48.0866 98.2392 48.0572C98.2454 48.0146 98.2501 47.972 98.2548 47.929C98.2642 47.8374 98.2689 47.7463 98.2704 47.6556C98.2708 47.6243 98.2728 47.593 98.272 47.5613C98.27 47.4346 98.2614 47.3094 98.2442 47.1858L98.2407 47.1663C98.2239 47.0493 98.1992 46.9347 98.1695 46.8221C98.1613 46.7916 98.1527 46.7614 98.1437 46.7309C98.1152 46.6343 98.0819 46.5397 98.0448 46.447C98.0346 46.4216 98.0256 46.3957 98.0146 46.3703C97.965 46.2561 97.909 46.145 97.8465 46.0379L97.8375 46.0199L82.2416 19.7084C83.7439 19.9048 85.0988 19.9924 86.3332 19.9924C90.7518 19.9924 93.6579 18.8914 96.5049 17.8123C99.9363 16.5118 103.2 15.2778 110.002 16.0858C110.799 21.9594 115.208 26.6979 120.912 27.9882L120.922 84.4496C115.202 84.949 109.698 86.808 104.846 89.9105C99.2694 93.4763 94.798 98.5043 91.915 104.45C91.4448 105.419 91.5066 106.563 92.0789 107.476C92.6511 108.389 93.6528 108.944 94.7303 108.944H153.377C154.454 108.944 155.456 108.389 156.028 107.476C156.601 106.563 156.662 105.419 156.192 104.45C153.31 98.5043 148.838 93.4763 143.261 89.9105C138.407 86.8069 132.901 84.9479 127.18 84.4488L127.17 27.9866C132.872 26.6947 137.278 21.9574 138.075 16.0858C144.876 15.277 148.14 16.5114 151.573 17.8123C154.42 18.8914 157.325 19.9924 161.744 19.9924C162.978 19.9924 164.333 19.9048 165.836 19.7084L150.24 46.0199L150.232 46.0367C150.169 46.1446 150.113 46.2565 150.063 46.3719C150.052 46.3954 150.044 46.4196 150.034 46.4435C149.996 46.5385 149.962 46.6355 149.933 46.7345C149.924 46.763 149.916 46.7912 149.908 46.8197C149.878 46.9367 149.852 47.0552 149.835 47.176L149.833 47.1839C149.816 47.309 149.807 47.4357 149.805 47.564C149.805 47.5922 149.806 47.6204 149.807 47.6485C149.808 47.7432 149.813 47.8382 149.823 47.934C149.827 47.9735 149.832 48.0127 149.837 48.0518C149.842 48.0831 149.843 48.1143 149.849 48.1456C151.719 59.0244 161.1 66.9205 172.153 66.9205C183.206 66.9205 192.586 59.0244 194.457 48.1456C194.462 48.1159 194.464 48.0866 194.468 48.0572C194.473 48.0142 194.478 47.9716 194.483 47.929ZM75.9233 60.6625C69.2295 60.6625 63.3868 56.6612 60.8652 50.7447H90.9814C88.4601 56.6612 82.6171 60.6625 75.9233 60.6625ZM62.1943 44.4863L75.9233 21.3242L89.6523 44.4863H62.1943ZM147.878 102.686H100.228C105.706 95.1038 114.443 90.5656 124.053 90.5656C133.663 90.5656 142.4 95.1038 147.878 102.686ZM124.038 22.0818C119.675 22.0818 116.125 18.5327 116.125 14.1697C116.125 9.8067 119.675 6.25801 124.038 6.25801C128.401 6.25801 131.95 9.80709 131.95 14.1701C131.95 18.5331 128.4 22.0818 124.038 22.0818ZM172.152 21.3246L185.881 44.4867H158.423L172.152 21.3246ZM172.152 60.6625C165.458 60.6625 159.615 56.6612 157.094 50.7447H187.21C184.688 56.6612 178.846 60.6625 172.152 60.6625ZM157.492 119.782L123.456 139.607C121.84 140.548 120.198 141.226 118.488 141.647C119.099 140.619 119.582 139.467 119.921 138.202C121.676 131.652 117.785 124.814 111.063 122.635C110.929 122.592 110.792 122.557 110.653 122.532C100.881 120.77 91.2313 117.281 83.478 114.478C80.7815 113.503 78.2349 112.582 76.0684 111.88C67.3146 109.039 59.4099 112.549 52.8326 116.358L27.606 130.963L25.2725 126.841C24.2048 124.953 22.4603 123.593 20.3611 123.011C18.2616 122.429 16.0665 122.697 14.1789 123.766L4.62876 129.17C0.723343 131.381 -0.656559 136.358 1.55449 140.264L29.6297 189.871C31.1258 192.514 33.8879 194 36.7279 194C38.0851 194 39.4599 193.661 40.7233 192.946L50.2731 187.541C52.1603 186.474 53.5206 184.729 54.1022 182.63C54.6838 180.531 54.4163 178.335 53.3477 176.448L50.5058 171.427L56.1459 168.171L99.6949 179.84C102.167 180.502 104.593 180.833 106.968 180.833C111.702 180.833 116.228 179.518 120.487 176.896L182.254 138.863C187.932 135.367 189.735 126.559 186.037 120.384C184.243 117.389 176.881 108.49 157.492 119.782ZM48.0714 180.958C47.9361 181.446 47.6232 181.85 47.1906 182.095L37.6408 187.5C36.7537 188.002 35.5788 187.677 35.0754 186.789L7.00017 137.182C6.49797 136.294 6.82378 135.119 7.71125 134.616L17.261 129.212C17.5427 129.053 17.8559 128.972 18.1743 128.972C18.3456 128.972 18.5185 128.995 18.6887 129.043C19.1768 129.178 19.5804 129.491 19.8257 129.923L47.9013 179.531C48.1465 179.963 48.2071 180.47 48.0714 180.958ZM178.973 133.534L117.206 171.567C112.335 174.566 106.988 175.316 101.315 173.795L56.5139 161.791C55.7133 161.576 54.8587 161.688 54.1398 162.104L47.4241 165.981L30.6881 136.41L55.9683 121.773C61.6221 118.5 67.7366 115.757 74.1374 117.832C76.2053 118.503 78.5896 119.365 81.3502 120.363C89.2659 123.225 99.1043 126.781 109.316 128.65C112.813 129.876 114.768 133.253 113.876 136.582C112.703 140.96 109.047 141.508 106.139 141.175C101.13 140.144 96.3692 138.786 91.3318 137.347C88.9408 136.664 86.4681 135.958 83.9266 135.277C82.2584 134.83 80.5421 135.821 80.0943 137.49C79.6469 139.159 80.638 140.875 82.3069 141.322C84.7988 141.99 87.2461 142.689 89.6128 143.364C94.8097 144.849 99.7188 146.251 105.006 147.332C105.027 147.336 105.048 147.337 105.069 147.341C105.09 147.345 105.11 147.352 105.131 147.355L109.364 148.043C115.719 149.06 121.36 148.069 126.605 145.014L160.641 125.19C170.38 119.518 177.867 118.923 180.668 123.6C182.596 126.817 181.74 131.831 178.973 133.534ZM19.9782 138.698C20.2508 140.561 18.9609 142.293 17.0979 142.565C15.2346 142.837 13.5035 141.548 13.2312 139.684C12.9586 137.821 14.2486 136.09 16.1115 135.818C17.9745 135.545 19.706 136.835 19.9782 138.698Z" fill="#B9C2AA" fill-opacity="0.5"/>
</svg>
