<svg width="64" height="64" viewBox="0 0 64 64" fill="none" xmlns="http://www.w3.org/2000/svg">
    <g clip-path="url(#clip0_141_1088)">
        <path
            d="M43.7333 45.8667H42.6667C42.3839 45.8667 42.1125 45.9792 41.9125 46.1792L32 56.0917L22.0875 46.1792C21.8875 45.9792 21.6161 45.8667 21.3333 45.8667L20.1599 45.8719C7.15938 47.1724 0 53.2266 0 62.9334C0 63.5224 0.477604 64 1.06667 64C1.65573 64 2.13333 63.5224 2.13333 62.9334C2.13333 53.3886 9.82188 49.7183 17.2672 48.4131L16.112 50.7235C15.8484 51.2506 16.0625 51.8917 16.5901 52.1547L20.2667 53.9927V57.6C20.2667 58.0714 20.576 58.4865 21.0271 58.6219L30.9333 61.5938V62.9334C30.9333 63.5224 31.4109 64 32 64C32.5891 64 33.0667 63.5224 33.0667 62.9334V61.5938L42.9729 58.6219C43.424 58.4865 43.7333 58.0714 43.7333 57.6V53.9927L47.4099 52.1599C47.9375 51.8969 48.1516 51.2558 47.888 50.7287L46.737 48.4266C54.2292 49.7427 61.8667 53.4219 61.8667 62.9334C61.8667 63.5224 62.3443 64 62.9333 64C63.5224 64 64 63.5224 64 62.9334C64 53.2266 56.8406 47.1724 43.7333 45.8667ZM22.4 56.8063V53.3334C22.4021 52.9271 22.1734 52.5547 21.8099 52.3735L18.4979 50.7177L19.8339 48.0511C19.9776 48.0354 20.124 48.0141 20.2667 48H20.8917L30.9333 58.0417V59.3662L22.4 56.8063ZM45.5021 50.7266L42.1901 52.3818C41.8292 52.562 41.601 52.9302 41.6 53.3334V56.8063L33.0667 59.3662V58.0417L43.1115 48H43.6266C43.8057 48.0183 43.9896 48.0438 44.1698 48.0641L45.5021 50.7266Z"
            fill="#61d5d9" />
        <path
            d="M12.1437 37.1083C16.1 40.0224 20.7286 41.888 25.6 42.5313V45.8667C25.6 46.4557 26.0776 46.9333 26.6667 46.9333C27.2557 46.9333 27.7333 46.4557 27.7333 45.8667V42.5995C29.0614 43.2693 30.5146 43.6557 32 43.7333C33.4854 43.6557 34.9385 43.2693 36.2667 42.5995V45.8667C36.2667 46.4557 36.7443 46.9333 37.3333 46.9333C37.9224 46.9333 38.4 46.4557 38.4 45.8667V42.5313C43.2719 41.888 47.901 40.0219 51.8573 37.1073C54.3838 35.1328 53.613 27.5807 49.3557 12.625C49.2588 12.2818 49.1807 12.0094 49.1219 11.7995L51.1245 6.79583C51.3219 6.3026 51.1271 5.73906 50.6667 5.47396C42.7125 0.93125 37.4516 0 32 0C26.5484 0 21.2875 0.93125 13.3333 5.47396C12.8713 5.73802 12.6745 6.30156 12.8713 6.79583L14.8734 11.7995C14.8151 12.013 14.737 12.2818 14.6401 12.625C10.387 27.5807 9.61613 35.1328 12.1437 37.1083ZM20.2667 29.8667V24.1677C26.1536 23.1714 31.8437 21.2396 37.1198 18.4448C38.3552 19.8313 41.1391 22.7422 43.7333 23.9656V29.8667C43.7333 36.1688 35.8635 41.6 32 41.6C28.1364 41.6 20.2667 36.1688 20.2667 29.8667ZM16 26.6667C16 25.4885 16.9552 24.5333 18.1333 24.5333V28.8C16.9552 28.8 16 27.8448 16 26.6667ZM45.8667 24.5333C47.0448 24.5333 48 25.4885 48 26.6667C48 27.8448 47.0448 28.8 45.8667 28.8V24.5333ZM32 2.13333C36.9271 2.13333 41.7068 2.95469 48.7958 6.87135L45.3333 15.5177C41.076 13.3089 34.4073 12.8 32 12.8C29.5927 12.8 22.9239 13.3089 18.6667 15.5177L15.2042 6.87135C22.2932 2.95469 27.0729 2.13333 32 2.13333ZM17.1422 17.4625C17.262 17.7625 17.5114 17.9922 17.8203 18.087C18.1292 18.1818 18.4646 18.1313 18.7318 17.95C21.9797 15.7526 28.5943 14.9333 32 14.9333C35.4057 14.9333 42.0203 15.7526 45.2682 17.95C45.5354 18.1313 45.8708 18.1818 46.1797 18.087C46.4885 17.9922 46.738 17.7625 46.8578 17.4625L47.8177 15.0536C52.5437 32.1885 51.1114 34.9792 50.5406 35.4271C47.4917 37.6563 44.0104 39.2234 40.3198 40.0286C43.0932 37.7505 45.4005 34.576 45.7885 30.9333H45.8667C48.2229 30.9333 50.1333 29.0229 50.1333 26.6667C50.1333 24.3104 48.2229 22.4 45.8667 22.4C43.9031 22.4 40.0927 18.7094 38.1526 16.3828C37.8036 15.9646 37.1958 15.8766 36.7422 16.1781C36.6807 16.2198 30.3422 20.351 17.9573 22.4151C15.6052 22.4635 13.7375 24.4099 13.7859 26.762C13.8349 29.1146 15.7812 30.9818 18.1333 30.9333H18.2099C18.5984 34.576 20.9026 37.7505 23.6792 40.0286C19.9885 39.2229 16.5068 37.6552 13.4573 35.426C12.8854 34.9792 11.4526 32.1885 16.1792 15.0526L17.1422 17.4625Z"
            fill="#61d5d9" />
        <path
            d="M34.5323 34.3693C33.0239 35.4709 30.976 35.4709 29.4677 34.3693C29.1724 34.1141 28.7614 34.0402 28.3963 34.1771C28.0307 34.3141 27.7693 34.6396 27.7141 35.0256C27.6594 35.412 27.8198 35.7975 28.1323 36.0308C30.4156 37.7761 33.5844 37.7761 35.8677 36.0308C36.1802 35.7975 36.3406 35.412 36.2859 35.0256C36.2307 34.6396 35.9693 34.3141 35.6036 34.1771C35.2385 34.0402 34.8276 34.1141 34.5323 34.3693Z"
            fill="#61d5d9" />
        <path
            d="M40.5333 26.6667C40.5333 27.8448 39.5781 28.8 38.4 28.8C37.2219 28.8 36.2667 27.8448 36.2667 26.6667C36.2667 25.4885 37.2219 24.5333 38.4 24.5333C39.5781 24.5333 40.5333 25.4885 40.5333 26.6667Z"
            fill="#61d5d9" />
        <path
            d="M27.7333 26.6667C27.7333 27.8448 26.7781 28.8 25.6 28.8C24.4219 28.8 23.4667 27.8448 23.4667 26.6667C23.4667 25.4885 24.4219 24.5333 25.6 24.5333C26.7781 24.5333 27.7333 25.4885 27.7333 26.6667Z"
            fill="#61d5d9" />
        <path
            d="M29.8667 8.53339H30.9333V9.60006C30.9333 10.1891 31.4109 10.6667 32 10.6667C32.5891 10.6667 33.0667 10.1891 33.0667 9.60006V8.53339H34.1333C34.7224 8.53339 35.2 8.05579 35.2 7.46672C35.2 6.87766 34.7224 6.40006 34.1333 6.40006H33.0667V5.33339C33.0667 4.74433 32.5891 4.26672 32 4.26672C31.4109 4.26672 30.9333 4.74433 30.9333 5.33339V6.40006H29.8667C29.2776 6.40006 28.8 6.87766 28.8 7.46672C28.8 8.05579 29.2776 8.53339 29.8667 8.53339Z"
            fill="#61d5d9" />
    </g>
    <defs>
        <clipPath id="clip0_141_1088">
            <rect width="64" height="64" fill="white" />
        </clipPath>
    </defs>
</svg>