<svg id="Layer_5" enable-background="new 0 0 64 64" height="512" viewBox="0 0 64 64" width="512" xmlns="http://www.w3.org/2000/svg"><g><g><g><path d="m58 2v24h-19.53c-1.51 0-2.9.86-3.58 2.21l-.89 1.79h-12.1c.07-.32.1-.66.1-1 0-2.76-2.24-5-5-5s-5 2.24-5 5c0 .5.07.97.21 1.43-1.31.65-2.21 2-2.21 3.57v24h-4v-34-22z" fill="#e6e9ed"/></g><g><path d="m22 29c0 .34-.03.68-.1 1h-7.9c-.64 0-1.25.15-1.79.43-.14-.46-.21-.93-.21-1.43 0-2.76 2.24-5 5-5s5 2.24 5 5z" fill="#b4dd7f"/></g><g><circle cx="23" cy="17" fill="#b4dd7f" r="3"/></g><g><circle cx="13" cy="17" fill="#b4dd7f" r="3"/></g><g><path d="m6 58h4c0 2.21-1.79 4-4 4-1.1 0-2.1-.45-2.83-1.17-.72-.73-1.17-1.73-1.17-2.83v-34h4z" fill="#ffeaa7"/></g><g><path d="m41 34h-31v24c0 2.21-1.79 4-4 4h25 27c2.21 0 4-1.79 4-4v-24z" fill="#ffeaa7"/></g><g><circle cx="41" cy="51" fill="#ef7385" r="2"/></g><g><circle cx="31" cy="45" fill="#ef7385" r="2"/></g><g><path d="m10 34c0-1.57.9-2.92 2.21-3.57.54-.28 1.15-.43 1.79-.43h7.9 12.1l.89-1.79c.68-1.35 2.07-2.21 3.58-2.21h19.53c2.21 0 4 1.79 4 4v4h-21z" fill="#fcd770"/></g><g><path d="m10 6h18v4h-18z" fill="#ef7385"/></g></g><g><path d="m49 29h2v2h-2z"/><path d="m57 29h2v2h-2z"/><path d="m53 29h2v2h-2z"/><path d="m41 29h2v2h-2z"/><path d="m45 29h2v2h-2z"/><path d="m37 29h2v2h-2z"/><path d="m59 25.101v-24.101h-54v22h-4v35c0 2.757 2.243 5 5 5h52c2.757 0 5-2.243 5-5v-28c0-2.414-1.721-4.434-4-4.899zm2 4.899v3h-49.816c.414-1.161 1.514-2 2.816-2h20.618l1.171-2.342c.511-1.022 1.54-1.658 2.683-1.658h19.528c1.654 0 3 1.346 3 3zm-48-1c0-2.206 1.794-4 4-4s4 1.794 4 4h-7c-.34 0-.672.035-.993.1-.001-.033-.007-.066-.007-.1zm-6-26h50v22h-18.528c-1.906 0-3.62 1.059-4.472 2.764l-.618 1.236h-10.382c0-3.309-2.691-6-6-6s-6 2.691-6 6c0 .323.031.642.082.958-1.255.909-2.082 2.377-2.082 4.042v23h-2zm-1 58c-1.654 0-3-1.346-3-3v-33h2v34h3.816c-.414 1.161-1.514 2-2.816 2zm52 0h-48.002c.628-.836 1.002-1.875 1.002-3v-23h50v23c0 1.654-1.346 3-3 3z"/><path d="m23.917 47h24.166v2h-24.166z" transform="matrix(.414 -.91 .91 .414 -22.595 60.911)"/><path d="m41 48c-1.654 0-3 1.346-3 3s1.346 3 3 3 3-1.346 3-3-1.346-3-3-3zm0 4c-.551 0-1-.448-1-1s.449-1 1-1 1 .448 1 1-.449 1-1 1z"/><path d="m34 45c0-1.654-1.346-3-3-3s-3 1.346-3 3 1.346 3 3 3 3-1.346 3-3zm-4 0c0-.552.449-1 1-1s1 .448 1 1-.449 1-1 1-1-.448-1-1z"/><path d="m29 5h-20v6h20zm-8 2v2h-4v-2zm-10 0h4v2h-4zm16 2h-4v-2h4z"/><path d="m13 21c2.206 0 4-1.794 4-4s-1.794-4-4-4-4 1.794-4 4 1.794 4 4 4zm0-6c1.103 0 2 .897 2 2s-.897 2-2 2-2-.897-2-2 .897-2 2-2z"/><path d="m23 13c-2.206 0-4 1.794-4 4s1.794 4 4 4 4-1.794 4-4-1.794-4-4-4zm0 6c-1.103 0-2-.897-2-2s.897-2 2-2 2 .897 2 2-.897 2-2 2z"/><path d="m33 5h22v2h-22z"/><path d="m53 9h2v2h-2z"/><path d="m33 9h18v2h-18z"/><path d="m33 13h4v2h-4z"/><path d="m39 13h16v2h-16z"/><path d="m43 17h12v2h-12z"/><path d="m33 17h8v2h-8z"/><path d="m33 21h22v2h-22z"/></g></g></svg>