<svg id="Layer_1" viewBox="0 0 512 512" xmlns="http://www.w3.org/2000/svg" data-name="Layer 1"><g fill-rule="evenodd"><path d="m199.024 499.78v-123.789a5.208 5.208 0 0 0 -7.824-4.536l-37.842 21.855a18.623 18.623 0 0 1 -25.342-6.775l-45.128-78.207c-12.274-21.26 20.495-38.637 32.088-18.539l35.887 62.135 29.764-21.259c29.055-20.722 121.691-20.722 150.746 0l29.764 21.259 35.863-62.135c11.594-20.1 44.391-2.721 32.117 18.539l-45.156 78.207a18.584 18.584 0 0 1 -25.314 6.775l-37.847-21.855a5.224 5.224 0 0 0 -7.852 4.536v123.789a5.2 5.2 0 0 1 -5.216 5.22h-103.464a5.225 5.225 0 0 1 -5.244-5.215z" fill="#69a7ff"/><path d="m256 294.466a55.417 55.417 0 1 0 -55.417-55.417 55.516 55.516 0 0 0 55.417 55.417z" fill="#e1aa72"/><path d="m407.512 113.247a67 67 0 1 1 -66.983 66.983 66.991 66.991 0 0 1 66.983-66.983z" fill="#e64c3c"/><path d="m104.46 113.247a67 67 0 1 1 -66.983 66.983 66.991 66.991 0 0 1 66.983-66.983z" fill="#45bf64"/><path d="m256 160.643a76.819 76.819 0 1 0 -76.819-76.819 76.972 76.972 0 0 0 76.819 76.819z" fill="#fea832"/><path d="m247.128 30.164h17.744c2.75 0 5.16 1.9 5.018 4.223l-3.714 57.313a4.8 4.8 0 0 1 -5.017 4.252h-10.346a4.757 4.757 0 0 1 -4.989-4.252l-3.714-57.313c-.142-2.324 2.239-4.223 5.018-4.223z" fill="#eaf6ff"/><path d="m256 137.483a11.239 11.239 0 1 0 -11.254-11.253 11.281 11.281 0 0 0 11.254 11.253z" fill="#eaf6ff"/><path d="m377.606 169.231h59.84a11.027 11.027 0 0 1 11 11 11.033 11.033 0 0 1 -11 11.027h-59.84a11.058 11.058 0 0 1 -11.027-11.027 11.052 11.052 0 0 1 11.027-11z" fill="#eaf6ff"/><path d="m397.761 113.956a67 67 0 0 1 0 132.576 69.5 69.5 0 0 0 9.751.709 67 67 0 1 0 0-133.994 65.529 65.529 0 0 0 -9.751.709z" fill="#cf4436"/><path d="m94.709 113.956a67 67 0 0 1 0 132.576 69.5 69.5 0 0 0 9.751.709 67 67 0 1 0 0-133.994 65.529 65.529 0 0 0 -9.751.709z" fill="#3eac5a"/><path d="m244.009 7.94a76.831 76.831 0 0 1 0 151.767 75.75 75.75 0 0 0 11.991.936 76.819 76.819 0 0 0 0-153.638 75.869 75.869 0 0 0 -11.991.935z" fill="#e5972d"/><path d="m245.484 184.624a55.429 55.429 0 0 1 0 108.85 55.435 55.435 0 0 1 0-108.85z" fill="#fabd7f"/><path d="m358.642 393.31a18.584 18.584 0 0 0 25.314-6.775l45.156-78.207c10.686-18.482-12.7-34.016-26.617-24.577 7.908 4.564 12.784 14.088 6.746 24.577l-45.156 78.207a18.444 18.444 0 0 1 -6.151 6.379zm-65.565-17.319v123.789a5.2 5.2 0 0 1 -5.216 5.22h19.871a5.2 5.2 0 0 0 5.216-5.215v-121.385l-12.019-6.945a5.224 5.224 0 0 0 -7.852 4.536z" fill="#5f96e6"/></g><path d="m412.008 273.9h-.008a23.889 23.889 0 0 0 -21.072 12.389l-32 55.454-23.487-16.777c-14.787-10.56-44.485-16.866-79.441-16.866s-64.654 6.306-79.443 16.867l-23.488 16.778-32.028-55.455a23.89 23.89 0 0 0 -21.081-12.39 27.666 27.666 0 0 0 -23.668 13.478c-4.319 7.49-4.124 16.4.532 24.45l45.132 78.187a25.621 25.621 0 0 0 34.9 9.359l35.164-20.308v120.714a12.232 12.232 0 0 0 12.219 12.22h103.493a12.232 12.232 0 0 0 12.217-12.218v-120.733l35.2 20.329a25.56 25.56 0 0 0 34.87-9.369l45.156-78.18c4.65-8.054 4.836-16.967.511-24.455a27.688 27.688 0 0 0 -23.678-13.474zm11.041 30.926-45.161 78.188a11.687 11.687 0 0 1 -15.744 4.233l-37.865-21.868a12.222 12.222 0 0 0 -18.333 10.583v122.032h-99.921v-122.032a12.206 12.206 0 0 0 -18.327-10.57l-37.834 21.85a11.592 11.592 0 0 1 -15.785-4.235l-45.131-78.186c-2.177-3.762-2.354-7.278-.526-10.448a13.816 13.816 0 0 1 11.54-6.47 9.84 9.84 0 0 1 8.951 5.388l35.887 62.135a7 7 0 0 0 10.132 2.2l29.768-21.263c26.656-19.037 115.953-19.036 142.609 0l29.763 21.26a7 7 0 0 0 10.134-2.2l35.858-62.136a9.841 9.841 0 0 1 8.946-5.385 13.836 13.836 0 0 1 11.552 6.473c1.83 3.174 1.658 6.69-.513 10.451zm-167.049-128.197a62.42 62.42 0 1 0 62.418 62.42 62.49 62.49 0 0 0 -62.418-62.42zm0 110.835a48.416 48.416 0 1 1 48.416-48.415 48.47 48.47 0 0 1 -48.416 48.415zm151.511-181.218a74 74 0 1 0 74.014 73.984 74.068 74.068 0 0 0 -74.014-73.984zm0 133.993a59.995 59.995 0 1 1 60.01-60.009 60.063 60.063 0 0 1 -60.01 60.009zm-229.039-60.009a74 74 0 1 0 -74.013 74.013 74.082 74.082 0 0 0 74.013-74.013zm-133.994 0a60 60 0 1 1 59.981 60.009 60.049 60.049 0 0 1 -59.981-60.009zm211.522-12.614a83.807 83.807 0 1 0 -83.821-83.816 83.916 83.916 0 0 0 83.821 83.816zm0-153.61a69.8 69.8 0 1 1 -69.818 69.794 69.882 69.882 0 0 1 69.818-69.794zm-17.166 78.123a11.8 11.8 0 0 0 11.978 10.829h10.347a11.891 11.891 0 0 0 12-10.8l3.715-57.343a10.436 10.436 0 0 0 -2.9-7.837 12.505 12.505 0 0 0 -9.1-3.844h-17.774a12.462 12.462 0 0 0 -9.071 3.829 10.47 10.47 0 0 0 -2.905 7.878zm23.866-54.992-3.357 51.817h-6.677l-3.366-51.817zm-6.7 70.837a18.256 18.256 0 1 0 18.254 18.256 18.276 18.276 0 0 0 -18.254-18.256zm0 22.508a4.252 4.252 0 1 1 4.251-4.252 4.309 4.309 0 0 1 -4.251 4.252zm-153.536 95.043a7 7 0 0 1 -6.787 5.305 7.088 7.088 0 0 1 -1.7-.21l-.114-.029a7 7 0 0 1 3.4-13.586l.113.029a7 7 0 0 1 5.088 8.491zm-8.839-11.958a7 7 0 0 1 -6.825-5.467c-1.473-6.541-4.12-22.506 3.109-29.451 1.786-1.717 5.712-4.348 11.909-2.691a16.45 16.45 0 1 0 -11.6-20.141 17 17 0 0 0 -.549 3.1 7 7 0 1 1 -13.96-1.093 30.707 30.707 0 0 1 .984-5.637 30.441 30.441 0 1 1 22.7 37.592c-.6 3.059-.189 9.674 1.065 15.243a7.009 7.009 0 0 1 -6.837 8.541zm343.82-51.337h-59.839a18.014 18.014 0 1 0 0 36.028h59.839a18.014 18.014 0 0 0 0-36.028zm0 22.024h-59.839a4.078 4.078 0 0 1 -4.025-4.024 4.014 4.014 0 0 1 4.025-4h59.839a4 4 0 0 1 4 4 4.064 4.064 0 0 1 -4 4.024z"/></svg>