<svg id="Layer_1" viewBox="0 0 512 512" xmlns="http://www.w3.org/2000/svg" data-name="Layer 1"><g fill-rule="evenodd"><path d="m500.904 221.049v-20.305c-.056-33.561-1.574-41.699-15.066-49.61-11.838-6.94-28.258-10.01-41.51-14.366l1.362-2.276-14.706-7.892h-56.158l-14.706 7.892 1.361 2.276c-13.251 4.356-29.672 7.426-41.509 14.366-13.493 7.911-15.011 16.049-15.065 49.61v20.305s195.999 0 195.999 0z" fill="#f2671f"/><path d="m421.099 136.768h-59.619c-13.251 4.356-29.672 7.426-41.509 14.366-13.493 7.911-15.011 16.049-15.065 49.61v20.305s172.77 0 172.77 0v-20.305c-.056-33.561-1.573-41.699-15.066-49.61-11.837-6.94-28.258-10.01-41.51-14.366z" fill="#ff8748"/><path d="m433.002 132.114c-6.776-3.667-11.21-8.547-11.21-16.033v-21.67h-37.775v21.67c0 7.486-4.434 12.367-11.21 16.033l30.098 17.553 30.098-17.553z" fill="#f29988"/><path d="m384.017 99.914v16.166c0 7.486-4.434 12.367-11.21 16.033l30.098 17.553 20.828-12.147c-6.675-3.656-11.031-8.516-11.031-15.935v-21.67z" fill="#fdb0a0"/><path d="m374.825 126.6 28.079 23.066-24.048 16.037-18.737-31.211z" fill="#cfe8ff"/><path d="m430.983 126.6-28.079 23.066 24.048 16.037 18.738-31.211z" fill="#cfe8ff"/><path d="m402.904 115.152c50.798-3.294 64.213-104.07 0-104.07s-50.798 100.776 0 104.07z" fill="#fdb0a0"/><path d="m402.904 115.152c3.444-.223 6.709-.908 9.797-1.966 24.072-23.704 28.949-78.938 3.201-100.513-3.921-1.026-8.241-1.591-12.998-1.591-64.213 0-50.798 100.776 0 104.07z" fill="#ffcec0"/><path d="m207.215 221.049v-20.305c-.056-33.561-1.574-41.699-15.066-49.61-11.838-6.94-28.258-10.01-41.51-14.366l1.362-2.276-14.706-7.892h-56.158l-14.706 7.892 1.361 2.276c-13.251 4.356-29.672 7.426-41.509 14.366-13.493 7.911-15.011 16.049-15.065 49.61v20.305s195.999 0 195.999 0z" fill="#2a92fa"/><path d="m127.409 136.768h-59.619c-13.251 4.356-29.672 7.426-41.509 14.366-13.493 7.911-15.011 16.049-15.065 49.61v20.305s172.77 0 172.77 0v-20.305c-.056-33.561-1.573-41.699-15.066-49.61-11.837-6.94-28.258-10.01-41.51-14.366z" fill="#4eb1fc"/><path d="m139.312 132.114c-6.776-3.667-11.21-8.547-11.21-16.033v-21.67h-37.775v21.67c0 7.486-4.434 12.367-11.21 16.033l30.098 17.553 30.098-17.553z" fill="#f29988"/><path d="m90.327 99.914v16.166c0 7.486-4.434 12.367-11.21 16.033l30.098 17.553 20.828-12.147c-6.675-3.656-11.031-8.516-11.031-15.935v-21.67z" fill="#fdb0a0"/><path d="m81.136 126.6 28.078 23.066-24.047 16.037-18.738-31.211z" fill="#cfe8ff"/><path d="m137.294 126.6-28.08 23.066 24.048 16.037 18.738-31.211z" fill="#cfe8ff"/><path d="m109.214 115.152c50.799-3.294 64.213-104.07 0-104.07s-50.798 100.776 0 104.07z" fill="#fdb0a0"/><path d="m109.215 115.152c3.444-.223 6.709-.908 9.797-1.966 24.072-23.704 28.949-78.938 3.201-100.513-3.921-1.026-8.241-1.591-12.998-1.591-64.213 0-50.798 100.776 0 104.07z" fill="#ffcec0"/></g><circle cx="256.059" cy="182.95" fill="#99d100" r="66.937" transform="matrix(.707 -.707 .707 .707 -54.367 234.646)"/><g fill-rule="evenodd"><path d="m249.059 249.524c-33.679-3.5-59.937-31.969-59.937-66.574s26.258-63.074 59.937-66.574c33.678 3.5 59.937 31.969 59.937 66.574s-26.259 63.074-59.937 66.574z" fill="#a8e304"/><path d="m291.233 156.467c3.366 3.366 3.366 8.873 0 12.239l-40.155 40.155c-2.395 2.395-5.473 3.44-8.832 2.998s-6.061-2.248-7.755-5.182l-14.977-25.94c-2.38-4.122-.955-9.442 3.168-11.822 4.122-2.38 9.442-.955 11.822 3.168l10.568 18.305 33.922-33.921c3.365-3.366 8.873-3.366 12.239 0z" fill="#009914"/><path d="m258.99 481.524 18.603 10.579c24.012 13.863 38.526-15.615 19.767-26.538l10.445 6.031c8.343 4.817 19.109 1.931 23.926-6.411 4.8-8.313 1.933-19.068-6.356-23.894l5.587 3.226c8.883 5.128 20.348 2.056 25.476-6.826 5.107-8.846 2.062-20.29-6.753-25.433l.018.01 5.551 3.205c8.883 5.129 20.348 2.056 25.476-6.826 2.55-4.417 3.052-9.539 1.834-14.144-1.451-3.758-2.726-7.062-8.66-11.332l-56.041-32.354c-29.656-23.795-45.701-37.478-67.854-59.978-38.49-27.664-66.192 6.749-117.113-21.889l-36.221-20.372c-32.322 26.335-50.662 59.296-39.296 113.044l64.685 33.345 16.676 17.945z" fill="#f29988"/><path d="m377.569 412.699c1.21-1.171 2.279-2.526 3.16-4.052 2.55-4.417 3.052-9.539 1.834-14.144-1.451-3.758-2.726-7.062-8.66-11.332l-56.041-32.354c-29.656-23.795-45.701-37.479-67.854-59.978-4.807-3.454-9.444-5.941-13.98-7.703l-48.961 30.527c-17.538 10.934-17.106 33.462-1.884 46.067 8.861 7.338 19.153 11.587 30.765 11.136 23.196-.903 41.486-20.16 62.525-20.285 12.004-.071 22.396 6.512 32.424 12.301l55.396 31.983c4.74 3.029 14.17 8.41 11.276 17.834z" fill="#ea806f"/><path d="m294.668 464.012c-3.445-1.988-7.884-.799-9.872 2.646-1.986 3.44-.795 7.887 2.645 9.872l17.012 9.822c3.113-6.847 1.518-15.771-7.094-20.786z" fill="#ea806f"/><path d="m315.059 435.335c-3.845-2.22-8.801-.892-11.021 2.954-2.217 3.84-.887 8.804 2.953 11.021l25.381 14.654c3.868-8.117.891-18.08-6.998-22.673z" fill="#ea806f"/><path d="m349.685 412.258-15.927-9.196c-3.846-2.22-8.801-.892-11.021 2.954-2.217 3.84-.887 8.805 2.953 11.021l31.856 18.392c3.45-8.449.219-18.458-7.86-23.171z" fill="#ea806f"/><g fill="#ffcec0"><path d="m135.614 418.327c-5.071 8.784-2.034 20.12 6.75 25.191 8.772 5.064 20.127 2.022 25.191-6.75l13.253-22.956c5.072-8.784 2.034-20.119-6.75-25.191-8.772-5.064-20.127-2.022-25.191 6.75l-13.253 22.955z"/><path d="m231.437 473.65c-5.072 8.784-2.034 20.12 6.75 25.191 8.772 5.064 20.127 2.022 25.191-6.75l13.253-22.956c5.071-8.784 2.034-20.119-6.75-25.191-8.772-5.064-20.127-2.022-25.191 6.75l-13.253 22.955z"/><path d="m195.021 462.959c-5.072 8.784-2.034 20.119 6.75 25.191 8.772 5.064 20.127 2.022 25.191-6.75l17.728-30.706c5.072-8.784 2.034-20.119-6.75-25.191-8.772-5.064-20.127-2.022-25.191 6.75z"/><path d="m159.324 451.026c-5.071 8.784-2.033 20.12 6.75 25.191 8.772 5.064 20.127 2.022 25.191-6.75l21.485-37.214c5.072-8.784 2.034-20.119-6.75-25.191-8.772-5.064-20.127-2.022-25.191 6.75l-21.484 37.213z"/><path d="m453.631 361.622-71.067 32.881c-1.451-3.758-2.726-7.062-8.66-11.332l-56.04-32.354c-12.245-7.07-24.054-14.26-39.473-14.168-33.541.198-56.072 35.742-84.32 12.351-7.112-5.89-9.776-17.188.369-23.513l59.923-37.361c19.99-12.463 41.507-18.404 63.351-11.205 18.732 6.174 37.244 4.682 54.481-4.904l42.141-23.438c36.321 25.102 52.215 70.826 39.296 113.044z"/></g><path d="m465.433 367.091-17.805 7.561c-2.249.955-4.621.744-6.665-.594s-3.187-3.428-3.212-5.871c-.428-42.287-17.734-76.959-48.434-102.805-1.842-1.551-2.727-3.718-2.496-6.115s1.513-4.354 3.617-5.524l22.708-12.629c3.837-2.134 8.328-1.774 11.775.945 35.912 28.325 54.881 77.747 46.786 117.36-.723 3.541-2.947 6.259-6.274 7.672z" fill="#f2671f"/><path d="m465.433 367.091-12.266 5.209c-.072-.044-.143-.089-.214-.136-2.168-1.419-3.379-3.634-3.406-6.225-.454-44.834-18.802-81.595-51.352-108.999-1.834-1.545-2.774-3.665-2.678-6.023l17.629-9.805c3.837-2.134 8.328-1.774 11.775.945 35.912 28.325 54.881 77.747 46.786 117.36-.724 3.541-2.947 6.259-6.274 7.672z" fill="#ff8748"/><path d="m46.685 367.091 17.806 7.561c2.248.955 4.621.743 6.665-.594 2.044-1.338 3.187-3.428 3.212-5.871.428-42.287 17.734-76.959 48.434-102.805 1.842-1.551 2.727-3.718 2.496-6.115-.232-2.397-1.513-4.354-3.617-5.524l-22.708-12.629c-3.837-2.134-8.328-1.774-11.775.945-35.913 28.325-54.882 77.747-46.786 117.36.724 3.541 2.947 6.259 6.274 7.672z" fill="#2a92fa"/><path d="m46.685 367.091 12.266 5.209c.072-.044.143-.089.214-.136 2.168-1.419 3.379-3.634 3.406-6.225.454-44.834 18.802-81.595 51.352-108.999 1.835-1.545 2.774-3.665 2.678-6.023l-17.629-9.805c-3.837-2.134-8.328-1.774-11.775.945-35.912 28.325-54.881 77.747-46.786 117.36.724 3.541 2.947 6.259 6.274 7.672z" fill="#5caeff"/><path d="m145.792 445.053c8.111 2.67 17.337-.62 21.763-8.284l13.254-22.957c4.432-7.676 2.671-17.301-3.706-22.991l-31.31 54.231z" fill="#fdb0a0"/><path d="m241.614 500.376c8.111 2.67 17.338-.62 21.764-8.285l13.253-22.956c4.432-7.676 2.671-17.301-3.706-22.991l-31.31 54.231z" fill="#fdb0a0"/><path d="m205.199 489.685c8.11 2.67 17.338-.62 21.763-8.285l17.728-30.706c4.432-7.676 2.67-17.3-3.706-22.991l-35.785 61.981z" fill="#fdb0a0"/><path d="m169.501 477.751c8.096 2.665 17.304-.608 21.739-8.242l21.51-37.256c4.432-7.676 2.671-17.301-3.706-22.991l-39.542 68.49z" fill="#fdb0a0"/><path d="m286.929 164.491-40.149 40.149c-1.089 1.079-2.298 1.489-3.807 1.301-1.523-.202-2.583-.911-3.344-2.24l-14.977-25.939c-.472-.81-.361-1.609-.251-2.01.096-.4.41-1.142 1.219-1.609.472-.275.92-.352 1.301-.352.289 0 .54.039.708.092.4.106 1.151.41 1.619 1.229l10.572 18.297c.93 1.624 2.559 2.713 4.409 2.954 1.851.246 3.71-.381 5.031-1.701l33.919-33.919c1.022-1.021 2.732-1.021 3.749 0 1.022 1.012 1.022 2.728 0 3.749zm8.491-12.239c-5.72-5.71-15.005-5.71-20.73 0l-28.387 28.387-6.659-11.526c-1.952-3.382-5.113-5.811-8.9-6.823-3.792-1.007-7.739-.496-11.121 1.45-3.383 1.961-5.802 5.122-6.809 8.91-1.022 3.783-.501 7.734 1.446 11.112l14.981 25.939c2.631 4.558 6.953 7.45 12.162 8.129.771.101 1.528.154 2.279.154 4.361 0 8.409-1.681 11.579-4.852l40.159-40.159c5.71-5.71 5.71-15.01 0-20.72zm26.05 62.831c4.78-9.7 7.474-20.59 7.474-32.102 0-9.57-1.874-18.696-5.233-27.071 7.56-4.25 17.39-6.997 26.912-9.666 2.679-.752 5.411-1.523 8.091-2.323l14.938 24.903c.848 1.398 2.231 2.4 3.831 2.756.439.101.882.154 1.32.154 1.171 0 2.332-.352 3.33-1.012l20.711-13.82 20.72 13.82c.997.66 2.159 1.012 3.33 1.012.439 0 .877-.053 1.32-.154 1.6-.357 2.978-1.359 3.826-2.756l14.943-24.903c2.679.8 5.411 1.571 8.09 2.323 9.84 2.747 20.007 5.599 27.669 10.09 10.071 5.908 12.052 10.057 12.1 44.438v14.311h-173.371zm-65.467 28.83c33.601 0 60.937-27.331 60.937-60.932s-27.336-60.942-60.937-60.942-60.942 27.331-60.942 60.942 27.341 60.932 60.942 60.932zm-238.843-28.831v-14.302c.048-34.391 2.029-38.54 12.1-44.447 7.662-4.491 17.834-7.344 27.669-10.09 2.684-.752 5.411-1.523 8.09-2.323l14.943 24.903c.848 1.398 2.231 2.4 3.831 2.756.438.101.877.154 1.316.154 1.171 0 2.332-.352 3.335-1.012l20.72-13.82 20.711 13.82c.998.66 2.159 1.012 3.33 1.012.438 0 .877-.053 1.315-.154 1.6-.357 2.983-1.359 3.831-2.756l14.943-24.903c2.679.8 5.407 1.571 8.091 2.323 9.517 2.669 19.347 5.416 26.908 9.666-3.359 8.375-5.228 17.501-5.228 27.071 0 11.512 2.689 22.402 7.469 32.102zm63.211-81.272-5.623 3.021 12.263 20.422 12.08-8.062-18.721-15.381zm28.401-12.649c.13.01.26.019.39.019.12 0 .246-.01.376-.019 4.482-.289 8.693-1.239 12.625-2.723.347 3.624 1.547 6.925 3.556 9.883l-16.557 13.608-16.571-13.608c2.019-2.959 3.209-6.26 3.561-9.883 3.927 1.484 8.139 2.433 12.62 2.723zm-36.862-65.611c.294-9.02 3.841-38.439 37.253-38.439s36.95 29.418 37.239 38.439c.79 24.541-13.969 51.81-37.239 53.608-23.284-1.798-38.043-29.067-37.253-53.608zm66.031 78.26-18.721 15.381 12.08 8.062 12.264-20.422zm236.12 0-5.619 3.021 12.259 20.422 12.08-8.062-18.721-15.381zm28.401-12.649c.13.01.26.019.381.019.13 0 .26-.01.39-.019 4.481-.289 8.678-1.239 12.62-2.723.347 3.624 1.547 6.925 3.561 9.883l-16.571 13.608-16.562-13.608c2.019-2.959 3.209-6.26 3.561-9.883 3.932 1.484 8.139 2.433 12.62 2.723zm-36.863-65.611c.294-9.02 3.84-38.439 37.244-38.439s36.959 29.418 37.248 38.439c.79 24.541-13.969 51.81-37.248 53.608-23.27-1.798-38.034-29.067-37.244-53.608zm66.035 78.26-18.725 15.381 12.08 8.062 12.263-20.422zm75.205 66.951c-.048-33.442-1.46-45.059-18.027-54.779-8.992-5.272-19.93-8.332-30.512-11.3-2.4-.675-4.708-1.32-6.958-1.981-.472-1.479-1.499-2.732-2.872-3.47l-14.711-7.893c-1.499-.81-3.248-.906-4.8-.366-.829-1.446-1.228-3.021-1.228-4.862v-4.351c16.181-12.519 25.043-35.451 24.349-56.6-.978-30.411-20.306-50.052-49.237-50.052s-48.25 19.641-49.233 50.052c-.689 21.149 8.173 44.081 24.354 56.6v4.351c0 1.841-.4 3.416-1.234 4.862-1.561-.54-3.301-.443-4.799.366l-14.712 7.893c-1.369.737-2.4 1.99-2.867 3.47-2.25.66-4.558 1.306-6.958 1.981-10.013 2.809-20.325 5.72-29.032 10.495-12.808-21.048-35.971-35.138-62.359-35.138s-49.55 14.09-62.358 35.138c-8.712-4.775-19.024-7.686-29.032-10.495-2.4-.675-4.708-1.32-6.963-1.981-.467-1.479-1.499-2.732-2.867-3.47l-14.711-7.893c-1.508-.81-3.248-.906-4.799-.366-.829-1.446-1.229-3.021-1.229-4.862v-4.351c16.181-12.519 25.038-35.451 24.349-56.6-.978-30.411-20.311-50.052-49.228-50.052s-48.266 19.642-49.244 50.053c-.689 21.149 8.168 44.072 24.349 56.6v4.351c0 1.841-.4 3.416-1.229 4.862-1.561-.54-3.301-.443-4.8.366l-14.711 7.893c-1.369.737-2.4 1.99-2.867 3.47-2.255.66-4.563 1.306-6.963 1.981-10.582 2.968-21.51 6.028-30.512 11.3-16.567 9.719-17.979 21.337-18.027 54.788v20.311c0 1.59.631 3.108 1.749 4.24 1.132 1.118 2.65 1.759 4.25 1.759h186.801c13.329 17.501 34.381 28.83 58.041 28.83s44.708-11.329 58.036-28.83h186.801c1.605 0 3.122-.641 4.25-1.759 1.123-1.132 1.749-2.65 1.749-4.24v-20.321zm-41.069 157.918c-.328 1.609-1.229 2.713-2.737 3.349l-17.81 7.57c-.4.173-.66.145-1.031-.096s-.492-.472-.501-.911c-.429-42.727-17.921-79.841-50.567-107.331-.333-.28-.434-.521-.39-.949.048-.429.188-.65.559-.858l22.711-12.635c.747-.405 1.527-.617 2.298-.617 1.002 0 1.971.352 2.853 1.041 33.629 26.517 52.398 73.389 44.616 111.437zm-88.278 19.622c4.081 2.939 6.452 5.672 8.023 8.211l46.096-21.332c-1.248-37.639-16.427-69.177-45.127-93.81l-11.28 6.274c-18.33 10.196-38.762 12.037-59.091 5.349-18.109-5.97-37.109-2.52-58.079 10.548l-59.708 37.239c-2.424 1.513-3.672 3.301-3.821 5.493-.188 2.781 1.431 5.999 4.11 8.221 13.319 11.04 24.05 6.659 41.86-2.043 11.078-5.416 23.65-11.56 38.299-11.642h.333c16.239 0 28.647 7.175 40.65 14.114l57.236 33.051c.173.096.342.207.501.328zm-1.899 27.249c-1.672 2.901-4.38 4.973-7.642 5.85-3.272.872-6.66.434-9.551-1.238l-5.619-3.243v-.01h-.01l-8.399-4.848c-2.872-1.662-6.539-.67-8.201 2.197-1.653 2.872-.67 6.539 2.202 8.192l8.409 4.862c2.891 1.657 4.958 4.38 5.831 7.647.877 3.262.438 6.65-1.234 9.541-1.667 2.891-4.375 4.958-7.638 5.84-3.257.867-6.65.429-9.55-1.238l-14.268-8.24c-2.872-1.653-6.544-.67-8.201 2.197-1.648 2.872-.67 6.539 2.197 8.192l8.654 5.002c2.626 1.518 4.51 3.99 5.31 6.958s.4 6.057-1.123 8.688c-1.518 2.631-3.99 4.52-6.958 5.31-2.973.8-6.052.4-8.679-1.118l-10.471-6.052h-.01l-1.581-.911c-2.872-1.658-6.544-.679-8.202 2.193-1.662 2.872-.669 6.539 2.202 8.196l1.576.911c3.624 2.091 5.614 5.233 5.614 8.862 0 3.561-1.961 6.992-4.983 8.731-3.759 2.168-8.818 1.638-14.321-1.532l-5.407-3.041 6.708-11.618c3.238-5.619 4.101-12.191 2.409-18.489-1.686-6.303-5.71-11.56-11.329-14.813-5.618-3.238-12.191-4.086-18.489-2.399-.549.14-1.089.313-1.609.491-1.311-6.688-5.392-12.803-11.729-16.46-6.351-3.672-13.68-4.139-20.123-1.928-.101-.549-.226-1.103-.381-1.643-1.691-6.308-5.71-11.56-11.329-14.808-5.619-3.243-12.182-4.101-18.489-2.409-.549.149-1.089.308-1.609.487-1.311-6.679-5.383-12.789-11.729-16.456-5.623-3.243-12.182-4.105-18.494-2.4-6.308 1.687-11.57 5.705-14.808 11.329l-6.028 10.437-11.093-11.931c-.472-.511-1.031-.93-1.648-1.248l-45.411-23.409c1.022-38.019 16.157-69.861 45.031-94.692l5.488 3.079c27.389 15.41 48.601 13.569 67.322 11.95 14.36-1.248 27.071-2.346 40.92 4.684l-47.151 29.389c-5.681 3.551-9.04 8.828-9.44 14.88-.453 6.597 2.78 13.598 8.418 18.268 19.94 16.514 37.663 7.859 54.793-.511 10.408-5.089 21.178-10.346 33.094-10.418h.251c13.035 0 23.544 6.067 34.651 12.5l56.981 32.902c4.101 2.997 4.973 4.978 6.168 8.081.761 3.146.294 6.52-1.296 9.256zm-133.853 87.69c5.913 3.412 13.502 1.378 16.914-4.53l13.208-22.879c1.638-2.843 2.072-6.182 1.21-9.382-.858-3.209-2.901-5.879-5.739-7.517-2.838-1.643-6.182-2.072-9.391-1.209-3.209.858-5.879 2.886-7.517 5.729l-13.232 22.917c-3.378 5.903-1.349 13.459 4.549 16.87zm-36.289-10.659c5.913 3.421 13.502 1.378 16.914-4.53l4.458-7.72.01-.014 13.194-22.855h.005c3.412-5.913 1.383-13.502-4.53-16.914-5.908-3.407-13.478-1.388-16.899 4.511l-17.68 30.623c-1.638 2.838-2.067 6.178-1.209 9.377.858 3.209 2.901 5.879 5.739 7.522zm-18.658-16.422 2.848-4.939 18.552-32.141h.01c1.638-2.848 2.072-6.178 1.209-9.392-.858-3.199-2.901-5.879-5.739-7.517-2.843-1.638-6.182-2.057-9.391-1.209-3.209.858-5.879 2.901-7.522 5.739l-13.198 22.869-.01.01-8.201 14.21c-3.407 5.912-1.378 13.492 4.534 16.899 5.908 3.421 13.497 1.383 16.909-4.529zm-40.54-28.05c5.908 3.412 13.478 1.378 16.899-4.51l13.222-22.889v-.01c3.407-5.912 1.378-13.487-4.535-16.914-2.838-1.624-6.168-2.057-9.391-1.195-3.209.858-5.874 2.901-7.517 5.739l-13.208 22.869c-3.412 5.908-1.383 13.502 4.53 16.909zm-78.443-68.608c-.366.241-.627.27-1.026.096l-17.815-7.57c-1.508-.636-2.409-1.739-2.737-3.349-7.782-38.048 10.992-84.92 44.621-111.437 1.547-1.234 3.421-1.369 5.151-.424l22.701 12.635c.386.207.516.419.569.858.039.429-.063.67-.39.949-32.651 27.491-50.143 64.604-50.572 107.331-.01.439-.13.67-.501.911zm360.769-131.689c36.993 29.177 57.583 81.031 48.953 123.276-1.118 5.441-4.689 9.811-9.811 11.994l-17.81 7.56c-1.677.708-3.421 1.07-5.151 1.07-2.491 0-4.949-.733-7.137-2.173-1.123-.728-2.072-1.6-2.891-2.578l-45.532 21.063c.231 4.717-.858 9.459-3.219 13.526-3.272 5.672-8.572 9.729-14.928 11.445-2.125.559-4.274.848-6.404.848 1.051 5.739.063 11.579-2.867 16.658-3.281 5.671-8.582 9.729-14.938 11.43-2.135.569-4.294.853-6.433.853-.13 0-.26-.01-.39-.01.78 5.228-.202 10.51-2.858 15.126-3.132 5.402-8.191 9.281-14.253 10.9-2.029.554-4.091.824-6.139.824-1.518 0-3.04-.154-4.53-.453 0 .039.01.082.01.121 0 7.888-4.212 15.222-10.982 19.13-2.39 1.378-6.207 2.949-11.199 2.949-4.231 0-9.3-1.128-15.059-4.448l-5.469-3.079-.501.867c-4.51 7.811-12.721 12.182-21.149 12.182-4.129 0-8.322-1.051-12.153-3.262-4.79-2.771-8.288-6.929-10.278-11.676-7.512 5.137-17.612 5.864-26.011 1.026-4.847-2.809-8.52-7.122-10.519-12.302-7.392 4.573-17.01 5.05-25.052.405-5.619-3.243-9.647-8.5-11.339-14.803-1.301-4.867-1.089-9.903.583-14.528-4.37.13-8.823-.911-12.876-3.252-11.637-6.717-15.636-21.66-8.919-33.297l.901-1.561-12.89-13.873-42.756-22.036c-.665.67-1.383 1.277-2.202 1.807-2.193 1.441-4.65 2.173-7.141 2.173-1.73 0-3.469-.361-5.146-1.07l-17.815-7.56c-5.117-2.173-8.688-6.553-9.806-11.994-8.635-42.245 11.96-94.099 48.948-123.276 5.382-4.24 12.427-4.799 18.407-1.47l22.71 12.62c3.821 2.13 6.255 5.84 6.674 10.197.058.622.067 1.243.038 1.86l5.508 3.103c24.161 13.589 42.592 11.989 60.402 10.437 16.822-1.45 34.179-2.949 53.497 9.44l1.031-.636c23.843-14.861 46.78-18.831 68.18-11.772 17.299 5.7 33.952 4.207 49.502-4.429l11.358-6.332c-.01-.549.01-1.108.063-1.682.419-4.337 2.848-8.057 6.669-10.187l22.71-12.62c5.98-3.33 13.03-2.761 18.408 1.47z" fill="#021047"/></g></svg>