<svg id="Layer_1" viewBox="0 0 512 512" xmlns="http://www.w3.org/2000/svg" data-name="Layer 1"><g><g fill-rule="evenodd"><path d="m108.501 449.907h346.74c.149-146.638.352-293.282.352-439.907h-346.717z" fill="#ecba78"/><path d="m56.408 502h346.74v-368.587l-71.47-71.47h-275.27z" fill="#f3f5fb"/><path d="m403.148 133.413-71.47-71.47v71.47z" fill="#e5eaf1"/><path d="m106.227 468.225c-3.301 0-5.977-2.676-5.977-5.977s2.676-5.977 5.977-5.977h247.103c3.301 0 5.977 2.676 5.977 5.977s-2.676 5.977-5.977 5.977zm0-128.013c-3.301 0-5.977-2.676-5.977-5.977s2.676-5.977 5.977-5.977h247.103c3.301 0 5.977 2.676 5.977 5.977s-2.676 5.977-5.977 5.977zm0 42.671c-3.301 0-5.977-2.676-5.977-5.976s2.676-5.977 5.977-5.977h247.103c3.301 0 5.977 2.676 5.977 5.977s-2.676 5.977-5.977 5.977h-247.103zm0 42.67c-3.301 0-5.977-2.676-5.977-5.977s2.676-5.977 5.977-5.977h247.103c3.301 0 5.977 2.676 5.977 5.977s-2.676 5.977-5.977 5.977z" fill="#77899b"/></g><path d="m56.408 61.943h17.644v440.057h-17.644z" fill="#e5eaf1"/><path d="m108.876 10h17.644v51.943h-17.644z" fill="#e3a76f"/><path d="m229.778 297.618c-75.156-36.211-69.429-97.474-69.562-139.941 23.877 0 51.889-7.853 69.562-25.526 17.674 17.673 45.685 25.526 69.562 25.526-.134 42.468 5.594 103.73-69.562 139.941z" fill="#fad51b" fill-rule="evenodd"/><path d="m174.955 156.714c19.952-2.58 40.693-10.432 54.824-24.563 17.674 17.673 45.685 25.526 69.563 25.526-.134 42.468 5.594 103.73-69.563 139.941-62.138-38.596-56.233-98.523-54.824-140.904z" fill="#ffe54e" fill-rule="evenodd"/><path d="m190.732 217.947c-3.573-4.875-2.518-11.724 2.357-15.297s11.724-2.518 15.297 2.357l12.989 17.666 29.794-40.522c3.573-4.875 10.422-5.93 15.298-2.357 4.875 3.573 5.93 10.423 2.357 15.298l-38.48 52.337c-.669.956-1.504 1.819-2.497 2.547-4.875 3.573-11.724 2.518-15.297-2.357l-21.816-29.672z" fill="#4ac994" fill-rule="evenodd"/></g><path d="m196.642 207.491c2.198-1.612 5.299-1.136 6.907 1.07l12.99 17.664c1.132 1.537 2.929 2.449 4.841 2.449s3.7-.912 4.828-2.449l29.804-40.525c1.608-2.203 4.709-2.678 6.907-1.066 1.07.78 1.762 1.929 1.96 3.233.211 1.308-.11 2.612-.89 3.669l-38.481 52.339c-.026.035-.048.07-.075.11-.313.441-.691.828-1.132 1.15-1.071.784-2.37 1.101-3.678.899-1.304-.198-2.453-.894-3.242-1.969l-21.809-29.667c-1.612-2.198-1.132-5.299 1.07-6.907zm22.157 50.405c.872.137 1.74.203 2.612.203 3.581 0 7.048-1.132 9.981-3.282 1.48-1.084 2.771-2.392 3.819-3.885l38.451-52.295c2.678-3.647 3.771-8.123 3.079-12.598-.678-4.471-3.07-8.409-6.731-11.083-7.532-5.528-18.157-3.889-23.672 3.639l-24.958 33.949-8.149-11.083c-5.528-7.537-16.148-9.175-23.69-3.652-7.532 5.524-9.171 16.148-3.652 23.685q.009.005.009.009l21.813 29.663c2.678 3.652 6.607 6.043 11.087 6.731zm-52.608-91.476c-.242 41.168-.542 92.269 63.589 124.513 64.131-32.244 63.831-83.345 63.589-124.513-.009-.974-.009-1.943-.018-2.907-20.17-1.079-45.362-7.647-63.572-23.201-18.219 15.554-43.401 22.121-63.572 23.201-.009.965-.009 1.934-.018 2.907zm60.977 136.605c.833.396 1.722.595 2.612.595s1.78-.198 2.599-.595c73.584-35.451 73.24-93.957 72.994-136.676-.022-2.956-.04-5.845-.031-8.651.009-1.599-.621-3.127-1.753-4.255-1.119-1.132-2.647-1.766-4.251-1.766-20.087 0-47.789-6.242-65.316-23.769-2.343-2.343-6.14-2.343-8.479 0-17.532 17.527-45.243 23.769-65.32 23.769-1.604 0-3.132.634-4.251 1.766-1.132 1.128-1.762 2.656-1.749 4.255.009 2.806-.013 5.696-.035 8.651-.247 42.719-.586 101.225 72.98 136.676zm132.165 159.224c0 3.312-2.691 6-6.004 6h-247.098c-3.321 0-6.004-2.687-6.004-6s2.683-6 6.004-6h247.098c3.313 0 6.004 2.687 6.004 6zm0-42.671c0 3.312-2.691 6-6.004 6h-247.098c-3.321 0-6.004-2.687-6.004-6s2.683-6 6.004-6h247.098c3.313 0 6.004 2.687 6.004 6zm0-42.67c0 3.312-2.691 5.999-6.004 5.999h-247.098c-3.321 0-6.004-2.687-6.004-5.999s2.683-6 6.004-6h247.098c3.313 0 6.004 2.682 6.004 6zm-253.102-48.67h247.098c3.313 0 6.004 2.683 6.004 6s-2.691 6-6.004 6h-247.098c-3.321 0-6.004-2.687-6.004-6s2.683-6 6.004-6zm343.111 31.645c.119-112.713.247-229.201.247-343.882h-334.72l-.031 39.944h216.841c.203 0 .401.009.604.031.15.013.3.039.449.066.04.009.088.013.128.022.181.031.348.079.52.128.022.004.031.009.049.013.172.053.344.114.515.185.009.004.027.009.036.013.163.066.313.141.471.22.022.009.04.018.062.031.137.075.278.158.41.247.031.018.057.035.088.057.132.088.26.181.379.278.031.026.07.044.101.07.15.124.299.26.432.396l71.47 71.465c.141.141.269.286.401.44.018.031.049.07.079.101.088.123.181.242.268.37.022.035.04.075.071.115.079.128.159.256.229.388.013.031.031.061.04.092.084.146.15.286.211.441.009.017.022.044.022.066.07.159.128.317.176.485.013.022.013.048.022.075.04.163.088.326.119.493.013.049.022.102.022.15.031.141.049.287.071.432.018.198.031.397.031.599v310.493h40.098l.092-84.024zm-111.664-232.469v-50.987l50.983 50.987zm59.471 368.585v-356.586h-65.47c-3.308 0-5.999-2.687-5.999-5.999v-65.47h-263.269v428.056h334.738zm58.439-491.997h-346.706c-3.312 0-6.004 2.683-6.004 5.995l-.04 45.948h-46.428c-3.312 0-5.999 2.687-5.999 5.999v440.055c0 3.317 2.687 5.999 5.999 5.999h346.737c3.312 0 6.004-2.683 6.004-5.999v-46.093h46.088c3.308 0 5.999-2.683 5.999-5.991l.101-90.019c.119-114.682.247-233.271.247-349.895 0-3.312-2.678-6-6-6z" fill="#242222" fill-rule="evenodd"/></svg>