<?xml version="1.0" encoding="UTF-8"?>
<svg id="Layer_2" data-name="Layer 2" xmlns="http://www.w3.org/2000/svg" xmlns:xlink="http://www.w3.org/1999/xlink" viewBox="0 0 405.54 140.05">
  <defs>
    <style>
      .cls-1, .cls-2 {
        fill: none;
      }

      .cls-3 {
        clip-path: url(#clippath);
      }

      .cls-4 {
        fill: #f98429;
      }

      .cls-5 {
        fill: #fff;
      }

      .cls-6 {
        fill: #424acb;
      }

      .cls-7 {
        fill: url(#Degradado_sin_nombre_32);
      }

      .cls-8 {
        fill: url(#Degradado_sin_nombre_33);
      }

      .cls-9 {
        fill: url(#Degradado_sin_nombre_29);
      }

      .cls-10 {
        fill: url(#Degradado_sin_nombre_32-2);
      }

      .cls-11 {
        fill: url(#Degradado_sin_nombre_32-3);
      }

      .cls-12 {
        fill: url(#Degradado_sin_nombre_33-2);
      }

      .cls-13 {
        fill: url(#Degradado_sin_nombre_29-2);
      }

      .cls-14 {
        fill: url(#Degradado_sin_nombre_29-3);
      }

      .cls-15 {
        fill: url(#Degradado_sin_nombre_29-4);
      }

      .cls-2 {
        stroke: #fff;
        stroke-miterlimit: 10;
        stroke-width: .5px;
      }
    </style>
    <linearGradient id="Degradado_sin_nombre_29" data-name="Degradado sin nombre 29" x1="88.51" y1=".13" x2="90.41" y2="78.81" gradientUnits="userSpaceOnUse">
      <stop offset="0" stop-color="#ffaf04"/>
      <stop offset="1" stop-color="#f98429"/>
    </linearGradient>
    <linearGradient id="Degradado_sin_nombre_32" data-name="Degradado sin nombre 32" x1="66.69" y1="100.65" x2="77.82" y2="79.35" gradientUnits="userSpaceOnUse">
      <stop offset="0" stop-color="#5354e4"/>
      <stop offset="1" stop-color="#0abef2"/>
    </linearGradient>
    <linearGradient id="Degradado_sin_nombre_32-2" data-name="Degradado sin nombre 32" x1="55.07" y1="103.09" x2="61.52" y2="82.57" xlink:href="#Degradado_sin_nombre_32"/>
    <linearGradient id="Degradado_sin_nombre_29-2" data-name="Degradado sin nombre 29" x1="80.89" y1="87.35" x2="99.95" y2="87.35" xlink:href="#Degradado_sin_nombre_29"/>
    <linearGradient id="Degradado_sin_nombre_29-3" data-name="Degradado sin nombre 29" x1="90.36" y1="81.16" x2="90.61" y2="85.94" xlink:href="#Degradado_sin_nombre_29"/>
    <clipPath id="clippath">
      <path class="cls-1" d="m124.19,33.77C124.19,14.3,107.71-1.33,87.93.09c-16.56,1.19-29.95,14.55-31.18,31.11-.95,12.74,5.19,24.13,14.87,30.63,5.76,3.86,9.22,10.34,9.22,17.27h19.17c0-6.96,3.5-13.42,9.27-17.3,9-6.07,14.92-16.35,14.92-28.02Z"/>
    </clipPath>
    <linearGradient id="Degradado_sin_nombre_29-4" data-name="Degradado sin nombre 29" x1="118.37" y1="68.71" x2="92.77" y2="38.82" xlink:href="#Degradado_sin_nombre_29"/>
    <linearGradient id="Degradado_sin_nombre_33" data-name="Degradado sin nombre 33" x1="110.44" y1="40.27" x2="30.93" y2="9.4" gradientTransform="translate(61.73 -51.34) rotate(61.63)" gradientUnits="userSpaceOnUse">
      <stop offset="0" stop-color="#ffaf04"/>
      <stop offset=".52" stop-color="#f98429"/>
    </linearGradient>
    <linearGradient id="Degradado_sin_nombre_33-2" data-name="Degradado sin nombre 33" x1="89.29" y1="30.64" x2="44.46" y2="13.23" gradientTransform="translate(4.48 -10.65) rotate(9.16)" xlink:href="#Degradado_sin_nombre_33"/>
    <linearGradient id="Degradado_sin_nombre_32-3" data-name="Degradado sin nombre 32" x1="96.9" y1="148.13" x2="74.07" y2="64.52" xlink:href="#Degradado_sin_nombre_32"/>
  </defs>
  <g id="OBJECTS">
    <g>
      <path class="cls-5" d="m26.2,44.25h0c.73,2.55,2.72,4.54,5.28,5.28h0c-2.55.73-4.54,2.72-5.28,5.28h0c-.73-2.55-2.72-4.54-5.28-5.28h0c2.55-.73,4.54-2.72,5.28-5.28h0Z"/>
      <path class="cls-5" d="m48.03,26.77h0c.34,1.2,1.29,2.15,2.49,2.49h0c-1.2.35-2.15,1.29-2.49,2.49h0c-.34-1.2-1.29-2.15-2.49-2.49h0c1.2-.34,2.15-1.29,2.49-2.49h0Z"/>
      <ellipse class="cls-2" cx="76.89" cy="64.47" rx="82.25" ry="25.01" transform="translate(-18.77 34.19) rotate(-22.41)"/>
      <g>
        <path class="cls-9" d="m123.09,33.77C123.09,14.3,106.61-1.33,86.83.09c-16.56,1.19-29.95,14.55-31.18,31.11-.95,12.74,5.19,24.13,14.87,30.63,5.76,3.86,9.22,10.34,9.22,17.27h19.17c0-6.96,3.5-13.42,9.27-17.3,9-6.07,14.92-16.35,14.92-28.02Z"/>
        <path class="cls-7" d="m49.64,78.72s-4.34-9.82-.53-18.08c2.78-6.05,13.99-4.41,17.1,12.44,3.11,16.88,15.76,33.23,33.91,37.27,0,0-36.38,5.88-50.48-31.63Z"/>
        <path class="cls-6" d="m87.21,107.89s-9.59-1.14-19.49-9.17c-8.55-6.93-17.99-17.76-25.81-32.32,0,0,13.33,40.95,45.31,41.49Z"/>
        <path class="cls-10" d="m34.19,85.05s-5.9-8.97-3.5-17.75c1.75-6.42,13.08-6.66,18.92,9.46,5.85,16.14,21.02,30.18,39.58,31.18,0,0-34.91,11.79-54.99-22.88Z"/>
        <path class="cls-13" d="m80.89,81.79h19.07v1.58c0,5.26-4.27,9.53-9.53,9.53h0c-5.24,0-9.5-4.24-9.53-9.48v-1.63Z"/>
        <path class="cls-14" d="m85.04,81.79h10.76v.89c0,2.97-2.41,5.38-5.38,5.38h0c-2.96,0-5.36-2.39-5.38-5.35v-.92Z"/>
        <path class="cls-6" d="m86.11,109.65s-8.97-.69-20.59-5.93c-10.03-4.53-21.92-12.6-33.19-24.69,0,0,22.71,38.24,53.77,30.62Z"/>
        <g class="cls-3">
          <path class="cls-15" d="m124.19,33.77C124.19,14.3,107.71-1.33,87.93.09c-16.56,1.19-29.95,14.55-31.18,31.11-.95,12.74,5.19,24.13,14.87,30.63,5.76,3.86,9.22,10.34,9.22,17.27h19.17c0-6.96,3.5-13.42,9.27-17.3,9-6.07,14.92-16.35,14.92-28.02Z"/>
          <circle class="cls-4" cx="77.42" cy="29.01" r="32.72" transform="translate(-5.21 26.14) rotate(-18.55)"/>
          <circle class="cls-8" cx="73.9" cy="26.08" r="32.72" transform="translate(15.83 78.71) rotate(-61.63)"/>
          <circle class="cls-4" cx="71.76" cy="24.62" r="19.54" transform="translate(3.61 57.95) rotate(-45)"/>
          <circle class="cls-12" cx="68.69" cy="22.64" r="18.45" transform="translate(-2.73 11.23) rotate(-9.16)"/>
        </g>
        <path class="cls-11" d="m73.04,108.53c16.1,3.62,32.02-6.75,35.85-22.8,1.87-7.87,5.41-18.14,11.59-22.28,10.63-7.12,16.93.82,12.73,9.46-4.2,8.64-2.09,24.41-5.37,36.31-9.09,33.01-38.2,36.72-66.92,24.22-33.48-14.58-46.35-53.59-40.15-57.38,7.2-4.4,16.62,6.81,24.29,15.41,4.16,4.67,15.02,14.15,27.99,17.07Z"/>
      </g>
    </g>
  </g>
  <g id="TEXTS">
    <path class="cls-5" d="m173.87,124.27c77.22-.02,154.45-.05,231.67-.07v7.2h-226.04c-1.88-2.38-3.75-4.75-5.63-7.13Z"/>
    <g>
      <path class="cls-5" d="m156.85,107.21v24.2h-11.31v-62.07h22.82c7.15,0,10.72,3.25,10.72,9.74v18.39c0,5.38-2.39,8.53-7.18,9.44l10.33,24.49h-12.2l-9.44-24.2h-3.74Zm0-29.21v20.85h8.16c1.05,0,1.77-.18,2.16-.54.39-.36.59-1.07.59-2.12v-15.54c0-1.05-.2-1.75-.59-2.11-.39-.36-1.12-.54-2.16-.54h-8.16Z"/>
      <path class="cls-5" d="m193.22,82.95h8.06c5.48,0,8.22,2.51,8.22,7.53v13.62h-16.2v7.68c0,.81.14,1.36.42,1.64.28.28.85.42,1.71.42h3.5c.81,0,1.37-.14,1.67-.42.3-.28.46-.82.46-1.64v-2.81h8.37v3.8c0,5.02-2.77,7.53-8.29,7.53h-7.91c-5.53,0-8.29-2.51-8.29-7.53v-22.29c0-5.02,2.76-7.53,8.29-7.53Zm.08,15.6h7.91v-7.15c0-.81-.15-1.36-.46-1.64-.3-.28-.86-.42-1.68-.42h-3.65c-.81,0-1.37.14-1.67.42-.3.28-.46.83-.46,1.64v7.15Z"/>
      <path class="cls-5" d="m220.68,82.95l4.79,29.29,4.79-29.29h8.6l-7.68,37.35h-11.41l-7.68-37.35h8.6Z"/>
      <path class="cls-5" d="m250.27,82.95h8.06c5.48,0,8.22,2.51,8.22,7.53v13.62h-16.2v7.68c0,.81.14,1.36.42,1.64.28.28.85.42,1.71.42h3.5c.81,0,1.37-.14,1.67-.42.3-.28.46-.82.46-1.64v-2.81h8.37v3.8c0,5.02-2.77,7.53-8.29,7.53h-7.91c-5.53,0-8.29-2.51-8.29-7.53v-22.29c0-5.02,2.76-7.53,8.29-7.53Zm.08,15.6h7.91v-7.15c0-.81-.15-1.36-.46-1.64-.3-.28-.86-.42-1.67-.42h-3.65c-.81,0-1.37.14-1.67.42-.3.28-.46.83-.46,1.64v7.15Z"/>
      <path class="cls-5" d="m287.17,82.95h8.52v37.35h-8.67v-3.2c-.76,2.13-2.51,3.2-5.25,3.2h-2.36c-5.17,0-7.76-2.51-7.76-7.53v-22.29c0-5.02,2.59-7.53,7.76-7.53h2.36c2.99,0,4.79,1.22,5.4,3.65v-3.65Zm-4.79,30.66h2.28c1.57,0,2.36-.84,2.36-2.51v-18.94c0-1.67-.79-2.51-2.36-2.51h-2.28c-.81,0-1.37.14-1.67.42-.3.28-.46.82-.46,1.64v19.86c0,.81.15,1.36.46,1.63.3.28.86.42,1.67.42Z"/>
      <path class="cls-5" d="m310.76,120.31h-8.6v-47.21h8.6v47.21Z"/>
      <path class="cls-5" d="m332.89,111.56v-10.27c0-.81-.15-1.36-.46-1.63-.3-.28-.86-.42-1.67-.42h-6.16c-5.22,0-7.84-2.54-7.84-7.61v-11.79c0-5.02,2.74-7.53,8.22-7.53h8.37c5.48,0,8.22,2.51,8.22,7.53v6.69h-8.83v-5.48c0-.81-.15-1.36-.46-1.63-.3-.28-.86-.42-1.67-.42h-2.89c-.86,0-1.45.14-1.75.42-.3.28-.46.82-.46,1.63v9.66c0,.81.15,1.36.46,1.64.3.28.89.42,1.75.42h6.01c5.33,0,7.99,2.49,7.99,7.46v12.55c0,5.02-2.77,7.53-8.29,7.53h-8.22c-5.53,0-8.29-2.51-8.29-7.53v-6.62h8.75v5.4c0,.81.15,1.36.46,1.63.3.28.89.42,1.75.42h2.89c.81,0,1.37-.14,1.67-.42.3-.28.46-.82.46-1.63Z"/>
      <path class="cls-5" d="m347.42,76.87v-7.53h9.05v7.53h-9.05Zm8.83,43.44h-8.6v-37.35h8.6v37.35Z"/>
      <path class="cls-5" d="m377.32,89.65h-5.1v21.68c0,.81.15,1.36.46,1.64.3.28.89.42,1.75.42h2.81v6.92h-5.33c-5.53,0-8.29-2.51-8.29-7.53v-23.13h-3.73v-6.7h3.73v-6.69h8.6v6.69h5.1v6.7Z"/>
      <path class="cls-5" d="m389.26,82.95h8.06c5.48,0,8.22,2.51,8.22,7.53v13.62h-16.2v7.68c0,.81.14,1.36.42,1.64.28.28.85.42,1.71.42h3.5c.81,0,1.37-.14,1.67-.42.3-.28.46-.82.46-1.64v-2.81h8.37v3.8c0,5.02-2.77,7.53-8.29,7.53h-7.91c-5.53,0-8.29-2.51-8.29-7.53v-22.29c0-5.02,2.76-7.53,8.29-7.53Zm.08,15.6h7.91v-7.15c0-.81-.15-1.36-.46-1.64-.3-.28-.86-.42-1.67-.42h-3.65c-.81,0-1.37.14-1.67.42-.3.28-.46.83-.46,1.64v7.15Z"/>
    </g>
    <rect class="cls-5" x="347.42" y="69.34" width="9.05" height="7.53"/>
  </g>
</svg>