<svg clip-rule="evenodd" fill-rule="evenodd" stroke-linejoin="round" stroke-miterlimit="2" viewBox="0 0 510 510" xmlns="http://www.w3.org/2000/svg"><g id="Artboard101"><g><g><g><g><g id="CorelEMF"><path d="m95.11 119.18h224.287c2.353 0 4.383.843 6.045 2.505l40.699 40.699c1.663 1.663 2.505 3.692 2.505 6.045v307.823c0 4.707-3.844 8.528-8.529 8.528h-265.007c-4.707 0-8.55-3.821-8.55-8.528v-348.522c0-4.706 3.843-8.55 8.55-8.55z" fill="#eceff1"/><path d="m322.938 119.915v40.699c0 2.353 1.921 4.275 4.275 4.275h40.699c-.411-.907-1.015-1.749-1.771-2.505l-40.699-40.699c-.756-.756-1.598-1.339-2.504-1.77z" fill="#a79ba7"/><path d="m95.11 119.18h8.528v365.6h-8.528c-4.707 0-8.55-3.821-8.55-8.528v-348.522c0-4.706 3.843-8.55 8.55-8.55z" fill="#d1d1d6"/></g></g><g><path d="m143.553 212.785h47.718c3.427 0 6.226 2.8 6.226 6.226v47.718c0 3.426-2.799 6.225-6.226 6.225h-47.718c-3.426 0-6.225-2.799-6.225-6.225v-47.718c0-3.426 2.799-6.226 6.225-6.226z" fill="#8ac9fe"/><path d="m181.271 212.785h10c3.427 0 6.226 2.8 6.226 6.226v47.718c0 3.426-2.799 6.225-6.226 6.225h-10c3.427 0 6.226-2.799 6.226-6.225v-47.718c0-3.426-2.799-6.226-6.226-6.226z" fill="#60b7ff"/></g><g><path d="m143.553 298.673h47.718c3.427 0 6.226 2.799 6.226 6.226v47.717c0 3.427-2.799 6.226-6.226 6.226h-47.718c-3.426 0-6.225-2.799-6.225-6.226v-47.717c0-3.427 2.799-6.226 6.225-6.226z" fill="#6cf5c2"/><path d="m181.271 298.673h10c3.427 0 6.226 2.799 6.226 6.226v47.717c0 3.427-2.799 6.226-6.226 6.226h-10c3.427 0 6.226-2.799 6.226-6.226v-47.717c0-3.427-2.799-6.226-6.226-6.226z" fill="#00e499"/></g><g><path d="m143.553 384.561h47.718c3.427 0 6.226 2.82 6.226 6.246v47.718c0 3.426-2.799 6.226-6.226 6.226h-47.718c-3.426 0-6.225-2.8-6.225-6.226v-47.718c0-3.426 2.799-6.246 6.225-6.246z" fill="#ffe177"/><path d="m181.271 384.561h10c3.427 0 6.226 2.82 6.226 6.246v47.718c0 3.426-2.799 6.226-6.226 6.226h-10c3.427 0 6.226-2.8 6.226-6.226v-47.718c0-3.426-2.799-6.246-6.226-6.246z" fill="#ffd064"/></g></g><g><path d="m384.513 328.352c-4.464-7.737-12.492-12.373-21.421-12.373-8.942 0-16.957 4.636-21.434 12.373l-76.967 133.321c-4.465 7.736-4.465 16.996 0 24.733 4.464 7.75 12.492 12.373 21.421 12.373h153.947c8.942 0 16.957-4.623 21.421-12.373 4.478-7.737 4.478-16.997 0-24.733z" fill="#ffe177"/><path d="m384.513 328.352c-4.464-7.737-12.492-12.373-21.421-12.373-1.788 0-3.524.185-5.206.543 6.782 1.431 12.638 5.63 16.215 11.83l76.98 133.321c4.464 7.736 4.464 16.996 0 24.733-4.478 7.75-12.492 12.373-21.434 12.373h10.412c8.942 0 16.957-4.623 21.421-12.373 4.478-7.737 4.478-16.997 0-24.733z" fill="#ffd064"/><path d="m362.595 442.743c6.505 0 11.791 5.273 11.791 11.79 0 6.505-5.286 11.79-11.791 11.79-6.517 0-11.79-5.285-11.79-11.79 0-6.517 5.273-11.79 11.79-11.79zm.497-11.411c-4.955 0-9.021-3.921-9.194-8.876l-2.331-56.654c-.093-2.596.768-4.862 2.57-6.73 1.801-1.867 4.027-2.808 6.623-2.808h4.65c2.597 0 4.822.941 6.624 2.808 1.802 1.868 2.676 4.134 2.57 6.73l-2.318 56.654c-.186 4.941-4.24 8.876-9.194 8.876z" fill="#fe646f"/></g><g><path d="m149.218 29.519c7.664 1.824 14.98 4.856 21.681 8.986l14.089-6.251 16.599 16.599-6.25 14.089c4.129 6.701 7.162 14.017 8.986 21.681l14.375 5.533v23.485l-14.375 5.533c-1.824 7.654-4.857 14.969-8.986 21.67l6.25 14.089-16.599 16.609-14.089-6.26c-6.701 4.129-14.017 7.172-21.681 8.996l-5.533 14.365h-23.484l-5.533-14.375c-7.654-1.824-14.97-4.857-21.671-8.986l-14.089 6.26-16.609-16.609 6.261-14.078c-4.13-6.712-7.173-14.027-8.997-21.681l-14.365-5.533v-23.485l14.365-5.533c1.824-7.664 4.867-14.98 8.997-21.681l-6.261-14.089 16.609-16.599 14.079 6.251c6.711-4.13 14.027-7.162 21.681-8.986l5.533-14.376h23.484z" fill="#a79ba7"/><path d="m180.254 34.355 4.734-2.101 16.599 16.599-6.25 14.089c4.129 6.701 7.162 14.017 8.986 21.681l14.375 5.533v23.485l-14.375 5.533c-1.824 7.654-4.857 14.969-8.986 21.67l6.25 14.089-16.599 16.609-4.734-2.1 14.509-14.509-6.261-14.089c4.13-6.701 7.162-14.016 8.986-21.67l14.376-5.533v-23.485l-14.376-5.533c-1.824-7.664-4.856-14.98-8.986-21.681l6.261-14.089zm-103.446 0 2.1-2.101 14.079 6.251c-.994.553-1.978 1.127-2.941 1.731zm72.41-4.836c7.664 1.824 14.98 4.856 21.681 8.986l-3.883 1.731c-6.701-4.129-16.968-8.893-24.632-10.717l-5.533-14.376h6.834zm-56.221 135.763-14.089 6.26-2.1-2.1 13.238-5.882c.963.595 1.947 1.168 2.951 1.722zm77.902 0c-6.701 4.129-14.017 7.172-21.681 8.996l-5.533 14.365h-6.834l5.533-14.365c7.664-1.824 17.931-6.588 24.642-10.718z" fill="#837683"/><path d="m131.944 60.394c22.922 0 41.503 18.581 41.503 41.503 0 22.914-18.581 41.495-41.503 41.495-22.914 0-41.495-18.581-41.495-41.495 0-22.922 18.581-41.503 41.495-41.503z" fill="#eceff1"/><path d="m131.944 60.394c.944 0 1.88.034 2.816.101-21.608 1.442-38.696 19.424-38.696 41.402 0 21.97 17.088 39.952 38.696 41.402-.936.059-1.872.093-2.816.093-22.914 0-41.495-18.581-41.495-41.495 0-22.922 18.581-41.503 41.495-41.503z" fill="#d1d1d6"/></g></g><path d="m78.51 179.336c-1.946-.093-3.837-.896-5.275-2.334l-16.589-16.589c-2.341-2.341-2.998-5.882-1.653-8.907 0 0 4.602-10.349 4.602-10.349-2.803-5.124-5.046-10.542-6.704-16.15l-10.571-4.069c-3.088-1.189-5.126-4.156-5.126-7.466v-23.466c0-3.309 2.038-6.277 5.126-7.466 0 0 10.569-4.067 10.568-4.067 1.659-5.621 3.903-11.035 6.709-16.171l-4.604-10.353c-1.345-3.025-.688-6.567 1.653-8.907l16.589-16.59c2.341-2.341 5.882-2.998 8.908-1.653 0 0 10.353 4.604 10.353 4.604 5.135-2.805 10.547-5.047 16.154-6.694l4.086-10.589c1.191-3.085 4.157-5.12 7.464-5.12h23.466c3.311 0 6.28 2.04 7.468 5.131l4.065 10.58c5.605 1.647 11.014 3.888 16.147 6.692l10.354-4.604c3.025-1.345 6.566-.688 8.907 1.653l16.589 16.59c2.338 2.338 2.997 5.873 1.658 8.896 0 0-4.588 10.358-4.589 10.357 2.808 5.14 5.052 10.558 6.7 16.182l10.557 4.063c3.088 1.189 5.126 4.157 5.126 7.466v21.014h96.215c2.122 0 4.157.843 5.657 2.343l45.712 45.712c1.501 1.501 2.343 3.535 2.343 5.657v143.716c3.356 2.215 6.209 5.233 8.338 8.926l.005.009 84.295 145.973.002.005c4.789 8.317 4.789 18.097-.007 26.427l-.007.013c-4.814 8.291-13.286 13.199-22.888 13.199h-168.56c-8.448 0-16.054-3.818-21.023-10.408h-170.22c-4.418 0-8-3.582-8-8zm131.827-52.316c-1.578 4.888-3.615 9.616-6.075 14.13l4.592 10.366c1.339 3.023.68 6.559-1.658 8.897l-16.589 16.589c-2.338 2.338-5.874 2.997-8.897 1.658 0 0-10.353-4.586-10.352-4.586-5.129 2.804-10.55 5.047-16.162 6.694l-4.064 10.56c-1.189 3.089-4.157 5.126-7.466 5.126h-23.466c-3.31 0-6.277-2.037-7.466-5.126 0 0-4.064-10.559-4.063-10.559-4.893-1.437-9.629-3.329-14.161-5.64v301.463h156.766c-.004-4.533 1.194-9.067 3.594-13.236l16.473-28.531h-35.872c-4.415 0-8-3.585-8-8 0-4.416 3.585-8 8-8h45.11l5.019-8.695h-50.129c-4.415 0-8-3.585-8-8s3.585-8 8-8h59.367l44.31-76.747c4.55-7.902 12.439-12.716 21.427-13.186v-131.465h-37.712c-4.418 0-8-3.582-8-8v-37.712zm138.925 29.712-18.399-18.398v18.398zm21.79 168.635c-1.889-3.281-5.231-5.208-9.019-5.208-3.778 0-7.13 1.927-9.022 5.212l-84.278 145.975c-1.893 3.288-1.893 7.153-.002 10.442 1.891 3.271 5.242 5.212 9.022 5.212h168.56c3.794 0 7.137-1.947 9.049-5.229 1.881-3.285 1.877-7.143-.012-10.425l-84.296-145.975zm-.088 112.209c5.718 3.161 9.604 9.257 9.604 16.234 0 10.211-8.324 18.535-18.535 18.535-10.212 0-18.535-8.324-18.535-18.535 0-6.977 3.886-13.073 9.604-16.235-4.234-2.793-7.083-7.525-7.277-12.969l-2.094-57.606-.001-.024c-.138-4.552 1.385-8.516 4.538-11.807l.015-.016c3.187-3.29 7.102-4.95 11.674-4.95h4.151c4.579 0 8.53 1.675 11.689 4.966 3.186 3.297 4.71 7.288 4.537 11.853l-2.075 57.579c-.195 5.446-3.054 10.18-7.295 12.975zm-8.931-13.329c.124 0 .231-.093.236-.219l2.076-57.59v-.007c.002-.057-.017-.106-.072-.163l-.015-.016c-.039-.041-.093-.049-.15-.049h-4.151c-.062 0-.116.023-.168.071-.047.059-.067.13-.066.208l2.091 57.545v.003c.004.119.099.217.219.217zm0 32.098c1.396 0 2.535-1.139 2.535-2.535 0-1.397-1.139-2.535-2.535-2.535-1.397 0-2.535 1.138-2.535 2.535 0 1.396 1.138 2.535 2.535 2.535zm-218.529-251.749h47.718c7.829 0 14.225 6.397 14.225 14.226v47.718c0 7.829-6.396 14.226-14.225 14.226h-47.718c-7.829 0-14.226-6.397-14.226-14.226v-47.718c0-7.829 6.397-14.226 14.226-14.226zm1.774 16v44.17h44.169v-44.17zm5.355 26.671c-3.125-3.119-3.13-8.188-.011-11.314 3.119-3.125 8.188-3.13 11.313-.011 0 0 2.841 2.835 2.841 2.835l7.424-9.18c2.776-3.434 7.817-3.967 11.25-1.191 3.434 2.776 3.967 7.818 1.191 11.251l-13.008 16.087c-1.426 1.763-3.532 2.838-5.796 2.959-2.263.12-4.472-.725-6.076-2.326zm84.838 76.954c-4.415 0-8-3.584-8-8 0-4.415 3.585-8 8-8h78.116c4.415 0 8 3.585 8 8 0 4.416-3.585 8-8 8zm0 24.695c-4.415 0-8-3.585-8-8s3.585-8 8-8h50.852c4.415 0 8 3.585 8 8s-3.585 8-8 8zm-91.967 27.456h47.718c7.821 0 14.225 6.425 14.225 14.247v47.717c0 7.829-6.396 14.226-14.225 14.226h-47.718c-7.829 0-14.226-6.397-14.226-14.226v-47.717c0-7.822 6.404-14.247 14.226-14.247zm1.774 16v44.19h44.169v-44.19zm5.355 26.692c-3.125-3.119-3.13-8.189-.011-11.314s8.188-3.13 11.313-.011c0 0 2.841 2.835 2.841 2.835l7.424-9.181c2.776-3.433 7.817-3.967 11.25-1.19 3.434 2.776 3.967 7.817 1.191 11.25l-13.008 16.088c-1.426 1.763-3.532 2.838-5.796 2.958-2.263.121-4.472-.724-6.076-2.326zm-7.129-128.58h47.718c7.829 0 14.225 6.397 14.225 14.226v47.718c0 7.829-6.396 14.225-14.225 14.225h-47.718c-7.829 0-14.226-6.396-14.226-14.225v-47.718c0-7.829 6.397-14.226 14.226-14.226zm1.774 16v44.169h44.169v-44.169zm5.349 26.668c-3.122-3.122-3.122-8.192 0-11.314s8.192-3.122 11.314 0l2.841 2.841 7.418-9.174c2.776-3.433 7.817-3.966 11.25-1.19 3.434 2.776 3.967 7.817 1.191 11.251l-13.008 16.087c-1.427 1.764-3.534 2.839-5.8 2.959-2.265.119-4.474-.728-6.078-2.332zm84.844-70.124c-4.415 0-8-3.584-8-8 0-4.415 3.585-8 8-8h50.852c4.415 0 8 3.585 8 8 0 4.416-3.585 8-8 8zm0-24.694c-4.415 0-8-3.585-8-8 0-4.416 3.585-8 8-8h78.116c4.415 0 8 3.584 8 8 0 4.415-3.585 8-8 8zm-93.743-206.073-3.558-9.261h-12.482l-3.578 9.272c-.949 2.459-3.049 4.293-5.614 4.903-6.827 1.622-13.338 4.32-19.323 8.007-2.247 1.385-5.034 1.572-7.447.499l-9.063-4.029-8.817 8.817 4.029 9.063c1.073 2.413.886 5.2-.499 7.447-3.691 5.991-6.39 12.509-8.035 19.364-.614 2.56-2.449 4.654-4.906 5.599l-9.241 3.557v12.48l9.241 3.557c2.455.944 4.289 3.036 4.905 5.593 1.644 6.831 4.34 13.369 8.03 19.335 1.391 2.25 1.58 5.041.505 7.458l-4.029 9.063 8.823 8.823 9.068-4.016c2.403-1.065 5.177-.88 7.419.493 5.989 3.67 12.505 6.393 19.359 8.017 2.569.609 4.673 2.447 5.621 4.911l3.557 9.241h12.48l3.557-9.241c.947-2.463 3.049-4.3 5.616-4.91 6.823-1.621 13.352-4.315 19.312-8.001 2.246-1.389 5.033-1.579 7.448-.51l9.067 4.016 8.829-8.829-4.016-9.067c-1.065-2.404-.881-5.178.493-7.42 3.67-5.99 6.394-12.506 8.018-19.34.61-2.567 2.447-4.669 4.91-5.616l9.241-3.557v-12.48l-9.241-3.557c-2.465-.948-4.302-3.052-4.911-5.621-1.622-6.848-4.319-13.358-8.006-19.342-1.383-2.244-1.572-5.026-.504-7.436 0 0 4.016-9.068 4.016-9.068l-8.823-8.823-9.063 4.029c-2.413 1.073-5.199.886-7.447-.499-5.985-3.687-12.496-6.385-19.323-8.007-2.569-.611-4.671-2.449-5.618-4.914zm-9.807 20.537c27.034 0 48.953 21.895 48.953 48.929 0 27.033-21.92 48.953-48.953 48.953-27.034 0-48.929-21.919-48.929-48.953 0-27.035 21.894-48.929 48.929-48.929zm0 16c-18.195 0-32.929 14.734-32.929 32.929 0 18.196 14.733 32.953 32.929 32.953 18.198 0 32.953-14.755 32.953-32.953 0-18.196-14.757-32.929-32.953-32.929z"/></g></g></svg>