<svg width="39" height="142" viewBox="0 0 39 142" fill="none" xmlns="http://www.w3.org/2000/svg">
<g clip-path="url(#clip0_6610_4083)">
<path d="M38.156 0C38.156 7.92637 29.5457 7.92637 29.5457 15.8527C29.5457 23.7791 38.156 23.7791 38.156 31.7055C38.156 39.6318 29.5457 39.6318 29.5457 47.5582C29.5457 55.4846 38.156 55.4846 38.156 63.4109C38.156 71.3373 29.5457 71.3373 29.5457 79.2637C29.5457 87.19 38.156 87.19 38.156 95.1164C38.156 103.043 29.5457 103.043 29.5457 110.969C29.5457 118.896 38.156 118.895 38.156 126.822C38.156 134.748 29.5457 134.748 29.5457 142.675" stroke="#434ED0" stroke-width="1.5" stroke-miterlimit="10"/>
<path d="M23.8052 0C23.8052 7.92637 15.1948 7.92637 15.1948 15.8527C15.1948 23.7791 23.8052 23.7791 23.8052 31.7055C23.8052 39.6318 15.1948 39.6318 15.1948 47.5582C15.1948 55.4846 23.8052 55.4846 23.8052 63.4109C23.8052 71.3373 15.1948 71.3373 15.1948 79.2637C15.1948 87.19 23.8052 87.19 23.8052 95.1164C23.8052 103.043 15.1948 103.043 15.1948 110.969C15.1948 118.896 23.8052 118.895 23.8052 126.822C23.8052 134.748 15.1948 134.748 15.1948 142.675" stroke="#434ED0" stroke-width="1.5" stroke-miterlimit="10"/>
<path d="M9.45463 0C9.45463 7.92637 0.844238 7.92637 0.844238 15.8527C0.844238 23.7791 9.45463 23.7791 9.45463 31.7055C9.45463 39.6318 0.844238 39.6318 0.844238 47.5582C0.844238 55.4846 9.45463 55.4846 9.45463 63.4109C9.45463 71.3373 0.844238 71.3373 0.844238 79.2637C0.844238 87.19 9.45463 87.19 9.45463 95.1164C9.45463 103.043 0.844238 103.043 0.844238 110.969C0.844238 118.896 9.45463 118.895 9.45463 126.822C9.45463 134.748 0.844238 134.748 0.844238 142.675" stroke="#434ED0" stroke-width="1.5" stroke-miterlimit="10"/>
</g>
<defs>
<clipPath id="clip0_6610_4083">
<rect width="39" height="142" fill="white"/>
</clipPath>
</defs>
</svg>
