<svg width="64" height="64" viewBox="0 0 64 64" fill="none" xmlns="http://www.w3.org/2000/svg">
    <g clip-path="url(#clip0_141_1091)">
        <path
            d="M60.6964 25.1496C58.7945 23.9878 56.3212 24.4623 54.9843 26.2454L49.0002 34.2231C47.9869 35.583 46.4839 36.495 44.8098 36.7656L32.8145 38.3584L38.9715 35.8856C40.7066 35.2648 41.6101 33.3549 40.9893 31.6198C40.7548 30.9641 40.3209 30.3982 39.7485 30.0015C38.9081 29.4144 37.8434 29.2487 36.8643 29.5525L18.2111 35.2887C15.6508 36.0137 13.4864 37.732 12.1999 40.0613L8.66983 46.4162C8.6377 46.4736 8.61117 46.534 8.59063 46.5965L3.25757 62.5957C3.07051 63.1537 3.37129 63.7576 3.92927 63.9446C4.03873 63.9812 4.15352 63.9999 4.26898 63.9998H20.2682C20.806 63.9995 21.2595 63.599 21.3265 63.0654L22.1286 56.646C22.242 55.763 22.8494 55.0221 23.6931 54.7378L50.8199 45.6965C52.8939 45.0114 54.6314 43.5662 55.6832 41.6519L62.1318 31.0921C63.3764 29.0547 62.7338 26.3942 60.6964 25.1496ZM60.3111 29.9796L53.8365 40.5853C53.0421 42.0454 51.7226 43.1491 50.145 43.6726L23.0182 52.7149C21.3968 53.2607 20.2295 54.6845 20.0121 56.3813L19.3266 61.8665H5.74931L10.5824 47.3651L14.0645 41.0977C15.0818 39.2582 16.7936 37.9028 18.8173 37.3344L37.4915 31.592C37.845 31.4816 38.23 31.5416 38.5331 31.7546C38.8438 31.97 39.0354 32.3185 39.0508 32.6962C39.0508 33.2417 38.7037 33.7266 38.1873 33.9025L24.1369 39.5447C23.5905 39.7648 23.3259 40.3861 23.546 40.9325C23.7279 41.3842 24.1927 41.6554 24.6754 41.5914L45.1192 38.8759C47.3503 38.523 49.3553 37.3124 50.7064 35.5021L56.6905 27.5244C57.4162 26.5568 58.7887 26.3608 59.7562 27.0865C60.6591 27.7638 60.8993 29.0163 60.3111 29.9796Z"
            fill="#59d5e0" />
        <path
            d="M32.0011 0.00292969C27.8776 0.00292969 24.5348 3.3457 24.5348 7.46922C24.5348 11.5927 27.8776 14.9355 32.0011 14.9355C36.1246 14.9355 39.4674 11.5927 39.4674 7.46922C39.4624 3.34783 36.1226 0.0079961 32.0011 0.00292969ZM28.9627 3.08211C29.8553 2.46441 30.9155 2.13442 32.0011 2.13616C33.0808 2.13616 34.1347 2.46627 35.0216 3.08211L27.6138 10.4899C25.9409 8.07173 26.5447 4.75523 28.9627 3.08211ZM34.8864 11.9637C34.0254 12.515 33.0236 12.8062 32.0011 12.8023C30.9923 12.7999 30.0053 12.5088 29.1566 11.9637L36.4955 4.6247C38.0778 7.09564 37.3573 10.3815 34.8864 11.9637Z"
            fill="#59d5e0" />
        <path
            d="M38.4007 17.0687H25.6014C22.6561 17.0687 20.2683 19.4565 20.2683 22.4018C20.2683 25.3471 22.6561 27.7349 25.6014 27.7349H38.4007C41.3461 27.7349 43.7338 25.3471 43.7338 22.4018C43.7338 19.4565 41.3462 17.0687 38.4007 17.0687ZM30.9344 25.6016H25.6014C23.8349 25.5998 22.4034 24.1682 22.4015 22.4018C22.4034 20.6353 23.8349 19.2038 25.6014 19.202H30.9344V25.6016ZM38.4007 25.6016H33.0677V19.202H38.4007C40.168 19.202 41.6006 20.6345 41.6006 22.4018C41.6006 24.169 40.168 25.6016 38.4007 25.6016Z"
            fill="#59d5e0" />
        <path
            d="M12.8027 23.5628C12.7835 23.5434 12.7642 23.5242 12.7448 23.505C9.82019 20.6176 5.11789 20.6176 2.19324 23.505C-0.70462 26.3708 -0.730619 31.0434 2.13537 33.9412C2.15457 33.9607 2.1739 33.9799 2.19324 33.9991C3.59597 35.3908 5.49307 36.1695 7.46897 36.1646C9.44487 36.1693 11.342 35.3905 12.7447 33.9991C15.6427 31.1333 15.6686 26.4607 12.8027 23.5628ZM6.50235 33.9412C5.44054 33.7518 4.46139 33.2437 3.69516 32.4847C1.63366 30.4478 1.61366 27.1256 3.6505 25.0641C3.66529 25.0492 3.68023 25.0342 3.69516 25.0194C4.46139 24.2603 5.44041 23.752 6.50235 23.5623V33.9412ZM11.2428 32.4847C10.5252 33.1924 9.62086 33.6809 8.63558 33.8931V23.6104C9.62086 23.8228 10.5252 24.3116 11.2428 25.0193C12.2427 26.0034 12.8047 27.3484 12.802 28.7514C12.8044 30.1548 12.2426 31.5 11.2428 32.4847Z"
            fill="#59d5e0" />
        <path
            d="M18.6673 10.9368L9.33447 1.60176C7.19911 -0.533596 3.73688 -0.533596 1.60152 1.60176C-0.53384 3.73712 -0.53384 7.19935 1.60152 9.33471H1.60259L10.9365 18.6676C13.0787 20.7951 16.5398 20.7832 18.6673 18.641C20.7846 16.5094 20.7846 13.0685 18.6673 10.9368ZM3.11184 7.82652C1.81311 6.52352 1.81271 4.41562 3.11078 3.11209C4.41391 1.81295 6.52247 1.81242 7.82614 3.11102L11.7382 7.02349L7.02365 11.7383L3.11184 7.82652ZM17.1591 17.1594C15.8556 18.4572 13.7482 18.4572 12.4448 17.1594L8.53197 13.2465L13.2465 8.53195L17.1591 12.445C18.4581 13.7481 18.4581 15.8564 17.1591 17.1594Z"
            fill="#59d5e0" />
        <path
            d="M62.399 1.60344C60.2642 -0.531654 56.8028 -0.53192 54.6677 1.60291L45.3327 10.9368C43.1981 13.0698 43.1969 16.5292 45.3299 18.6638C46.3557 19.6904 47.7479 20.2666 49.1992 20.2656C50.6488 20.2684 52.0399 19.6933 53.0646 18.6678L62.3985 9.33492C64.5336 7.20009 64.5338 3.73867 62.399 1.60344ZM51.5564 17.1595C50.2546 18.4613 48.1439 18.4613 46.8419 17.1595C45.54 15.8577 45.5401 13.747 46.8419 12.445L50.7551 8.53243L55.4694 13.2467L51.5564 17.1595ZM60.8903 7.82659L56.9778 11.7387L52.2634 7.02423L56.1759 3.11203C57.4777 1.81023 59.5885 1.81023 60.8903 3.11203C62.1922 4.4141 62.1922 6.52479 60.8903 7.82659Z"
            fill="#59d5e0" />
    </g>
    <defs>
        <clipPath id="clip0_141_1091">
            <rect width="64" height="64" fill="white" />
        </clipPath>
    </defs>
</svg>