<svg height="512" viewBox="0 0 60 60" width="512" xmlns="http://www.w3.org/2000/svg"><g id="Page-1" fill="none" fill-rule="evenodd"><g id="033---Epidural" fill-rule="nonzero" transform="translate(0 -1)"><path id="Shape" d="m37.22 9.85-5.11.56c.29 1.36.57 2.45.73 3.07.0984875.3845072-.0434339.79056-.36 1.03-.4585598.3509894-.9549872.6495167-1.48.89-2.3 1.07-5.83 1.6-11 1.6s-8.7-.53-11-1.6c-.52501276-.2404833-1.02144025-.5390106-1.48-.89-.31656609-.23944-.45848745-.6454928-.36-1.03.16-.62.44-1.71.73-3.07l-5.11-.56c-.55707326-.06197981-1.06257294-.35488011-1.39337881-.80736171-.33080587-.45248159-.45655552-1.02301427-.34662119-1.57263829l.17-.86c.10542187-.5284111.41959613-.99193101.87137027-1.2855842s1.00292459-.39259435 1.52862973-.2744158l5.02 1.12c.15-1.06.26-2.15.32-3.24.02254504-.33695146.21363208-.63976266.50807502-.80513473.29444294-.16537206.65246198-.17096289.95192498-.01486527 3.0159937 1.33642222 6.2924629 1.98214973 9.59 1.89 3.2975371.09214973 6.5740063-.55357778 9.59-1.89.299463-.15609762.657482-.15050679.951925.01486527.2944429.16537207.48553.46818327.508075.80513473.06 1.09.17 2.18.32 3.24l5.02-1.12c.5257051-.11817855 1.0768556-.01923739 1.5286297.2744158.4517742.29365319.7659484.7571731.8713703 1.2855842l.17.86c.1099343.54962402-.0158153 1.1201567-.3466212 1.57263829-.3308059.4524816-.8363055.7453819-1.3933788.80736171z" fill="#e8edfc"/><path id="Shape" d="m38.96 7.47-.17-.86c-.1054219-.5284111-.4195961-.99193101-.8713703-1.2855842-.4517741-.29365319-1.0029246-.39259435-1.5286297-.2744158l-1.417.316c.4229052.29346242.7157174.7393111.817 1.244l.17.86c.1099343.54962402-.0158153 1.1201567-.3466212 1.57263829-.3308059.4524816-.8363055.7453819-1.3933788.80736171l-5.11.56c.29 1.36.57 2.45.73 3.07.0984875.3845072-.0434339.79056-.36 1.03-.4585598.3509894-.9549872.6495167-1.48.89-2.068.962-5.144 1.484-9.5 1.58.488.011.98.02 1.5.02 5.17 0 8.7-.53 11-1.6.5250128-.2404833 1.0214402-.5390106 1.48-.89.3165661-.23944.4584875-.6454928.36-1.03-.16-.62-.44-1.71-.73-3.07l5.11-.56c.5570733-.06197981 1.0625729-.35488011 1.3933788-.80736171.3308059-.45248159.4565555-1.02301427.3466212-1.57263829z" fill="#cad9fc"/><path id="Shape" d="m37.88 19.31-6.91 6.2c-1.3066965 1.1666749-2.0344093 2.848825-1.99 4.6-2.943763.6745464-5.9610986.9735919-8.98.89-5.18 0-8.72-.54-11.02-1.61-.51718683-.2394298-1.00674302-.5345048-1.46-.88-.31656609-.23944-.45848745-.6454928-.36-1.03.16-.62.44-1.71.73-3.07l-5.11-.56c-.55707326-.0619798-1.06257294-.3548801-1.39337881-.8073617s-.45655552-1.0230143-.34662119-1.5726383l.17-.86c.10542187-.5284111.41959613-.991931.87137027-1.2855842s1.00292459-.3925943 1.52862973-.2744158l5.02 1.12c.23368361-1.579509.35731478-3.1733486.37-4.77 2.3 1.07 5.83 1.6 11 1.6s8.7-.53 11-1.6c.0134438 1.5966189.1370709 3.1904062.37 4.77l5.02-1.12c.5113584-.1195458 1.0493501-.025668 1.49.26z" fill="#e8edfc"/><path id="Shape" d="m36.39 19.05-1.624.362-6.8 6.1c-1.3066965 1.1666749-2.0344093 2.848825-1.99 4.6-2.4292926.576306-4.9172851.8685965-7.414.871.468.01.937.019 1.434.019 3.0189014.0835919 6.036237-.2154536 8.98-.89-.0444093-1.751175.6833035-3.4333251 1.99-4.6l6.91-6.2c-.4392983-.2852601-.9756333-.3798225-1.486-.262z" fill="#cad9fc"/><path id="Shape" d="m37.22 38.85-5.11.56c.29 1.36.57 2.45.73 3.07.0984875.3845072-.0434339.79056-.36 1.03-.4585598.3509894-.9549872.6495167-1.48.89-2.3 1.07-5.83 1.6-11 1.6s-8.7-.53-11-1.6c-.52501276-.2404833-1.02144025-.5390106-1.48-.89-.31656609-.23944-.45848745-.6454928-.36-1.03.16-.62.44-1.71.73-3.07l-5.11-.56c-.55707326-.0619798-1.06257294-.3548801-1.39337881-.8073617s-.45655552-1.0230143-.34662119-1.5726383l.17-.86c.10542187-.5284111.41959613-.991931.87137027-1.2855842s1.00292459-.3925943 1.52862973-.2744158l5.02 1.12c.27995786-1.9132973.39704462-3.8469015.35-5.78 2.3 1.07 5.84 1.61 11.02 1.61 3.0189014.0835919 6.036237-.2154536 8.98-.89.0480488 2.2246 1.3232708 4.2399272 3.3130581 5.2358692 1.9897873.9959419 4.3673407.8089271 6.1769419-.4858692.1546449.2266909.2633606.4814934.32.75l.17.86c.1099343.549624-.0158153 1.1201567-.3466212 1.5726383s-.8363055.7453819-1.3933788.8073617z" fill="#e8edfc"/><path id="Shape" d="m38.96 36.47-.17-.86c-.0566394-.2685066-.1653551-.5233091-.32-.75-.7789323.5504-1.6789853.9050703-2.624 1.034l.114.576c.1099343.549624-.0158153 1.1201567-.3466212 1.5726383s-.8363055.7453819-1.3933788.8073617l-5.11.56c.29 1.36.57 2.45.73 3.07.0984875.3845072-.0434339.79056-.36 1.03-.4585598.3509894-.9549872.6495167-1.48.89-2.068.962-5.144 1.484-9.5 1.58.488.011.98.02 1.5.02 5.17 0 8.7-.53 11-1.6.5250128-.2404833 1.0214402-.5390106 1.48-.89.3165661-.23944.4584875-.6454928.36-1.03-.16-.62-.44-1.71-.73-3.07l5.11-.56c.5570733-.0619798 1.0625729-.3548801 1.3933788-.8073617s.4565555-1.0230143.3466212-1.5726383z" fill="#cad9fc"/><path id="Shape" d="m37.22 52.85-5.11.56c.29 1.36.57 2.45.73 3.07.0984875.3845072-.0434339.79056-.36 1.03-2.14 1.66-6.04 2.49-12.48 2.49s-10.34-.83-12.48-2.49c-.31656609-.23944-.45848745-.6454928-.36-1.03.16-.62.44-1.71.73-3.07l-5.11-.56c-.55707326-.0619798-1.06257294-.3548801-1.39337881-.8073617s-.45655552-1.0230143-.34662119-1.5726383l.17-.86c.10542187-.5284111.41959613-.991931.87137027-1.2855842s1.00292459-.3925943 1.52862973-.2744158l5.02 1.12c.23368361-1.579509.35731478-3.1733486.37-4.77 2.3 1.07 5.83 1.6 11 1.6s8.7-.53 11-1.6c.0134438 1.5966189.1370709 3.1904062.37 4.77l5.02-1.12c.5257051-.1181785 1.0768556-.0192374 1.5286297.2744158.4517742.2936532.7659484.7571731.8713703 1.2855842l.17.86c.1099343.549624-.0158153 1.1201567-.3466212 1.5726383s-.8363055.7453819-1.3933788.8073617z" fill="#e8edfc"/><path id="Shape" d="m38.96 50.47-.17-.86c-.1054219-.5284111-.4195961-.991931-.8713703-1.2855842-.4517741-.2936532-1.0029246-.3925943-1.5286297-.2744158l-1.417.316c.4229052.2934624.7157174.7393111.817 1.244l.17.86c.1099343.549624-.0158153 1.1201567-.3466212 1.5726383s-.8363055.7453819-1.3933788.8073617l-5.11.56c.29 1.36.57 2.45.73 3.07.0984875.3845072-.0434339.79056-.36 1.03-1.968 1.526-5.43 2.349-10.98 2.472.486.011.982.018 1.5.018 6.44 0 10.34-.83 12.48-2.49.3165661-.23944.4584875-.6454928.36-1.03-.16-.62-.44-1.71-.73-3.07l5.11-.56c.5570733-.0619798 1.0625729-.3548801 1.3933788-.8073617s.4565555-1.0230143.3466212-1.5726383z" fill="#cad9fc"/><path id="Shape" d="m49.4 25.1c-10.939 9.815-10.6 9.544-10.93 9.76-2.5908168 1.8824081-6.2033005 1.3983291-8.2071221-1.0997684-2.0038215-2.4980975-1.6925715-6.1295566.7071221-8.2502316l10.42-9.35z" fill="#a4c2f7"/><path id="Shape" d="m41.39 16.16-1.663 1.492 6.673 7.448c-10.939 9.815-10.6 9.544-10.93 9.76-.6032788.4285763-1.2817163.7399791-2 .918 1.7203545.4500563 3.5517176.1138181 5-.918.293-.2-.55.541 10.93-9.76z" fill="#7facfa"/><rect id="Rectangle-path" fill="#e8edfc" height="4" rx="2" transform="matrix(.668 .744 -.744 .668 29.936 -28.489)" width="16" x="38.885" y="17.294"/><path id="Shape" d="m52.381 22.425-8.014-8.932c-.3689894-.4445821-.91799-.7001428-1.4957369-.6962679-.5777468.0038749-1.1232702.2667764-1.4862631.7162679l8 8.912c.6738808.7544665.6760301 1.8939968.005 2.651l.018.02c.7417409.8034529 1.9912471.8622495 2.8051578.1319991.8139106-.7302503.8904546-1.978795.1718422-2.8029991z" fill="#cad9fc"/><path id="Rectangle-path" d="m48.607 12.956h4v6h-4z" fill="#a4c2f7" transform="matrix(.668 .744 -.744 .668 28.688 -32.368)"/><rect id="Rectangle-path" fill="#e8edfc" height="4" rx="2" transform="matrix(.668 .744 -.744 .668 27.438 -36.248)" width="12" x="48.329" y="10.616"/><path id="Shape" d="m58.489 14.258-5.343-5.958c-.7376284-.82196703-2.0018841-.89046247-2.824-.153-.0555369.05497822-.1082704.11271799-.158.173l5.325 5.935c.6729056.7555635.6729056 1.8954365 0 2.651l.018.02c.354257.3950272.8509701.63309 1.3808014.6617853.5298312.0286953 1.0493501-.1543291 1.4441986-.5087853.8211878-.7362028.8914242-1.9982211.157-2.821z" fill="#cad9fc"/><path id="Shape" d="m32.1 35.25-1.74 1.56c-.8229043.7373001-2.0876999.6679043-2.825-.155s-.6679043-2.0876999.155-2.825l1.74-1.56c.2604906.6301031.6256362 1.2116312 1.08 1.72.4542881.5075782.9920404.9337215 1.59 1.26z" fill="#a4c2f7"/><g fill="#fff"><path id="Shape" d="m10.52 57.51c-.3165661-.23944-.4584875-.6454928-.36-1.03.16-.62.44-1.71.73-3.07l-5.11-.56c-.55707326-.0619798-1.06257294-.3548801-1.39337881-.8073617s-.45655552-1.0230143-.34662119-1.5726383l.17-.86c.10128255-.5046889.39409475-.9505376.817-1.244l-1.417-.316c-.52570514-.1181785-1.07685559-.0192374-1.52862973.2744158s-.7659484.7571731-.87137027 1.2855842l-.17.86c-.10993433.549624.01581532 1.1201567.34662119 1.5726383s.83630555.7453819 1.39337881.8073617l5.11.56c-.29 1.36-.57 2.45-.73 3.07-.09848745.3845072.04343391.79056.36 1.03 2.14 1.66 6.04 2.49 12.48 2.49.518 0 1.014-.007 1.5-.018-5.55-.123-9.012-.946-10.98-2.472z"/><path id="Shape" d="m8.95 2.93c-.05.87-.135 1.734-.242 2.588l2.922.652c.15-1.06.26-2.15.32-3.24.0053599-.05720985.0160734-.11379094.032-.169-.5368663-.18452593-1.0618598-.40193739-1.572-.651-.299463-.15609762-.65748204-.15050679-.95192498.01486527-.29444294.16537207-.48552998.46818327-.50807502.80513473z"/><path id="Shape" d="m11.63 49.17c.2336836-1.579509.3573148-3.1733486.37-4.77-.5250128-.2404833-1.0214402-.5390106-1.48-.89-.3165661-.23944-.4584875-.6454928-.36-1.03.16-.62.44-1.71.73-3.07l-5.11-.56c-.55707326-.0619798-1.06257294-.3548801-1.39337881-.8073617s-.45655552-1.0230143-.34662119-1.5726383l.17-.86c.10128255-.5046889.39409475-.9505376.817-1.244l-1.417-.316c-.52570514-.1181785-1.07685559-.0192374-1.52862973.2744158s-.7659484.7571731-.87137027 1.2855842l-.17.86c-.10993433.549624.01581532 1.1201567.34662119 1.5726383s.83630555.7453819 1.39337881.8073617l5.11.56c-.29 1.36-.57 2.45-.73 3.07-.09848745.3845072.04343391.79056.36 1.03.45855975.3509894.95498724.6495167 1.48.89-.0145862 1.3772242-.11477945 2.7522096-.3 4.117z"/><path id="Shape" d="m10.52 14.51c-.3165661-.23944-.4584875-.6454928-.36-1.03.16-.62.44-1.71.73-3.07l-5.11-.56c-.55707326-.06197981-1.06257294-.35488011-1.39337881-.80736171-.33080587-.45248159-.45655552-1.02301427-.34662119-1.57263829l.17-.86c.10128255-.5046889.39409475-.95053758.817-1.244l-1.417-.316c-.52570514-.11817855-1.07685559-.01923739-1.52862973.2744158s-.7659484.7571731-.87137027 1.2855842l-.17.86c-.10993433.54962402.01581532 1.1201567.34662119 1.57263829.33080587.4524816.83630555.7453819 1.39337881.80736171l5.11.56c-.29 1.36-.57 2.45-.73 3.07-.09848745.3845072.04343391.79056.36 1.03.45855975.3509894.95498724.6495167 1.48.89-.0145862 1.3772242-.11477945 2.7522096-.3 4.117l2.926.653c.2350225-1.5794155.3599903-3.1732556.374-4.77-.5250128-.2404833-1.0214402-.5390106-1.48-.89z"/><path id="Shape" d="m4.21 20.61c.10128255-.5046889.39409475-.9505376.817-1.244l-1.417-.316c-.52570514-.1181785-1.07685559-.0192374-1.52862973.2744158s-.7659484.7571731-.87137027 1.2855842l-.17.86c-.10993433.549624.01581532 1.1201567.34662119 1.5726383s.83630555.7453819 1.39337881.8073617l5.11.56c-.29 1.36-.57 2.45-.73 3.07-.09848745.3845072.04343391.79056.36 1.03.45325698.3454952.94281317.6405702 1.46.88.04375171 1.7137879-.04685897 3.4283694-.271 5.128l2.921.652c.2799579-1.9132973.3970446-3.8469015.35-5.78-.5171868-.2394298-1.006743-.5345048-1.46-.88-.3165661-.23944-.4584875-.6454928-.36-1.03.16-.62.44-1.71.73-3.07l-5.11-.56c-.55707326-.0619798-1.06257294-.3548801-1.39337881-.8073617s-.45655552-1.0230143-.34662119-1.5726383z"/><path id="Shape" d="m11.835 60.332.409-1.957c2.5589931.4590103 5.1565271.6683268 7.756.625v2c-2.7369354.0440446-5.4716182-.179687-8.165-.668z"/></g><path id="Shape" d="m16.022 60.87c-.3572656.0017863-.6883456-.187162-.8685254-.4956699s-.1820858-.6897057-.005-1c.1770858-.3102942.5062598-.5025438.8635254-.5043301h.01c.5522847 0 1 .4477153 1 1s-.4477153 1-1 1z" fill="#428dff"/><path id="Shape" d="m59.233 13.59-5.343-5.955c-1.1067786-1.2329757-3.0035243-1.33527864-4.2365-.2285s-1.3352786 3.0035243-.2285 4.2365l.667.744-2.977 2.671-2-2.233c-.9703543-1.0960421-2.5912727-1.329044-3.8310636-.5507033-1.2397909.7783408-1.7343665 2.3394497-1.1689364 3.6897033l-2.426 2.177c-.4908929-.1558178-1.0142815-.1789338-1.517-.067l-3.95.881c-.122-1.059-.181-2.039-.2-2.965.3768188-.2046997.736932-.4387566 1.077-.7.6333754-.4852913.913982-1.3030704.712-2.075-.1-.382-.278-1.061-.479-1.935l4-.446c.8353972-.0930015 1.5934597-.5322092 2.0896364-1.21069756.4961767-.67848838.6849502-1.53401544.5203636-2.35830244l-.171-.857c-.1580199-.79129248-.6281427-1.48556596-1.304219-1.92605988-.6760763-.44049391-1.5010974-.59006451-2.288781-.41494012l-3.955.879c-.08-.722-.139-1.417-.176-2.076-.0373696-.6653572-.4077573-1.26700215-.985-1.6-.5912234-.34175898-1.3151797-.36132537-1.924-.052-2.873136 1.27393995-5.9967235 1.88307029-9.138 1.782-3.1412765.10107029-6.264864-.50806005-9.138-1.782-.6086801-.30927538-1.33263499-.28894591-1.923.054-.57724269.33299785-.94763036.9346428-.985 1.6-.037.659-.1 1.354-.176 2.076l-3.955-.876c-.78768364-.17512439-1.6127047-.02555379-2.28878101.41494012-.67607631.44049392-1.14619911 1.1347674-1.30421899 1.92605988l-.171.857c-.16458665.824287.02418692 1.67981406.52036363 2.35830244.49617672.67848836 1.25423914 1.11769606 2.08963637 1.21069756l4 .446c-.2.878-.377 1.555-.479 1.935-.20406654.7730586.07584012 1.5930668.71 2.08.3405754.2610226.70100311.4950665 1.078.7-.021.93-.081 1.911-.2 2.966l-3.946-.881c-.78870135-.1772461-1.61555621-.0287-2.29324489.4119859-.67768868.4406858-1.14885372 1.1362133-1.30675511 1.9290141l-.169.858c-.16490085.8245912.0238543 1.6805362.52027672 2.3592908.49642241.6787545 1.25493184 1.1179969 2.09072328 1.2107092l4 .439c-.193.837-.366 1.509-.478 1.942-.1988491.7751982.08503714 1.5941765.721 2.08.34135164.255142.70061178.4854027 1.075.689.01027622 1.3231756-.0615283 2.6457148-.215 3.96l-3.942-.879c-.78870135-.1772461-1.61555621-.0287-2.29324489.4119859-.67768868.4406858-1.14885372 1.1362133-1.30675511 1.9290141l-.169.858c-.16490085.8245912.0238543 1.6805362.52027672 2.3592908.49642241.6787545 1.25493184 1.1179969 2.09072328 1.2107092l4 .439c-.193.837-.366 1.509-.478 1.942-.19785826.7664917.07740649 1.5773643.701 2.065.34061505.2591036.70143533.4905101 1.079.692-.021.931-.081 1.913-.2 2.968l-3.946-.881c-.78870135-.1772461-1.61555621-.0287-2.29324489.4119859-.67768868.4406858-1.14885372 1.1362133-1.30675511 1.9290141l-.169.858c-.16490085.8245912.0238543 1.6805362.52027672 2.3592908.49642241.6787545 1.25493184 1.1179969 2.09072328 1.2107092l4 .439c-.193.837-.366 1.509-.478 1.942-.19974502.7687595.07654461 1.5826938.703 2.071l.745-.954-.742.956c1.47280375 1.0323019 3.1556337 1.7261961 4.928 2.032.2644259.0598015.5418096.0078582.7666802-.1435699.2248707-.151428.3773035-.3889234.4213198-.6564301.0896945-.5324304-.2523112-1.0421463-.779-1.161-1.4723378-.2478415-2.87348692-.8117809-4.107-1.653.155-.6.443-1.721.738-3.1.0594205-.2770379-.00147177-.5662786-.16754485-.7958446s-.42173586-.3779055-.70345515-.4081554l-5.109-.56c-.27878095-.0311831-.53164565-.1780269-.69689925-.4047039-.16525361-.226677-.22769908-.5123415-.17210075-.7872961l.169-.858c.05246298-.2663073.21092456-.4998486.439-.647.22541525-.1468817.50118267-.1949513.763-.133l5.02 1.12c.2721092.0607769.55723665.0051921.78659148-.1533437s.38210901-.4056259.42140852-.6816563c.174-1.224.284-2.383.339-3.475.6393961.2106326 1.290494.3839248 1.95.519-.068511 2.4881804-.3627179 4.9650075-.879 7.4-.0651062.2572664-.0252825.5298616.1107007.7577506.1359831.2278891.3569728.3923812.6142993.4572494.0798629.0196022.1617672.0296724.244.03.4577256-.0002394.8568573-.3112244.969-.755.5359106-2.4923405.8458339-5.0279548.926-7.576 2.0262138.2362787 4.0651177.3468237 6.105.331 3.3872196.1276346 6.7739677-.2652714 10.042-1.165.054 1.0866667.1666667 2.245.338 3.475.0390497.2762131.1916996.5235599.4210855.6823071s.5146544.2144632.7869145.1536929l5.024-1.121c.2607079-.059927.5345734-.0115766.759.134.2272522.1468858.3852784.3795957.438.645l.17.863c.0546548.274353-.0081075.5590561-.1730515.784999s-.4169876.3724658-.6949485.404001l-5.11.56c-.2804941.0309136-.53487.1789-.700383.4074564-.1655129.2285564-.2267539.5164047-.168617.7925436.3 1.388.584 2.508.735 3.1-1.978 1.538-5.86 2.284-11.867 2.284-.5522847 0-1 .4477153-1 1s.4477153 1 1 1c6.558 0 10.718-.858 13.1-2.7.6290485-.4852703.908981-1.2983327.712-2.068-.112-.436-.286-1.109-.479-1.947l4-.439c.8351847-.0930332 1.5930601-.5320981 2.0892047-1.2103525.4961447-.6782544.6850672-1.5335096.5207953-2.3576475l-.17-.862c-.1581328-.7926167-.6293942-1.4878965-1.3070554-1.9283763s-1.5043869-.5888915-2.2929446-.4116237l-3.95.881c-.122-1.06-.181-2.041-.2-2.966.3766922-.2015175.7368199-.4325743 1.077-.691.6290485-.4852703.908981-1.2983327.712-2.068-.112-.436-.286-1.109-.479-1.947l4-.439c.8351847-.0930332 1.5930601-.5320981 2.0892047-1.2103525.4961447-.6782544.6850672-1.5335096.5207953-2.3576475l-.173-.876c-.019-.085-.053-.163-.078-.246l1.449-1.3 8.323-7.466c.3893046.2164889.822333.3426037 1.267.369h.166c1.1817728-.0027813 2.2518076-.6990985 2.7329938-1.7784754.4811863-1.079377.2838602-2.3406836-.5039938-3.2215246l-2-2.233 2.974-2.673.668.744c.7157816.7977741 1.8027985 1.1530828 2.8515819.9320847 1.0487834-.220998 1.8999982-.9847279 2.233-2.0035s.0971997-2.1378106-.6185819-2.9355847zm-11.241 11.43-1.492 1.335-1.336-1.489c-.2310588-.29155-.6048592-.4307413-.9703319-.3613206s-.6622022.3359776-.7702668.6919434c-.1080646.3559657-.0096005.7424961.2555987 1.0033772l1.335 1.489-1.489 1.336-1.336-1.489c-.2390107-.2659842-.6017666-.3842531-.951621-.3102559s-.6336562.3290186-.7445.669-.0318897.7132717.207121.9792559l1.336 1.488-1.488 1.338-1.336-1.489c-.2369591-.2722887-.6022678-.3957449-.955824-.3230212-.3535563.0727237-.6404815.3303393-.750735.674047-.1102535.3437076-.0267219.7201572.218559.9849742l1.335 1.488-.744.668c-1.3271302 1.2095167-3.2009176 1.6145267-4.909104 1.0610789-1.7081863-.5534477-2.9884367-1.9803575-3.3541062-3.7383367s.2393995-3.5770459 1.5852102-4.7657422l9.676-8.682 3.34 3.722zm-19.715 10.97c-.1773219-.1975134-.2688434-.4574216-.2544004-.7224613.0144431-.2650397.1336656-.5134636.3314004-.6905387l.8-.721c.1835251.2809454.3870519.5483041.609.8.2255503.2473305.4681437.4785628.726.692l-.8.72c-.4114606.3683497-1.0436149.333429-1.412-.078zm-25.387-27.138c-.27853663-.0309899-.53128647-.17744006-.69668941-.40368085-.16540293-.2262408-.22827776-.51150714-.17331059-.78631915l.171-.862c.09490281-.46493083.50348289-.79914766.978-.8.07398287.00006797.14774267.0081145.22.024l5.029 1.118c.27302233.06041912.5588704.00376465.78820892-.1562213.22933853-.15998594.38121529-.40868716.41879108-.6857787.159-1.164.269-2.279.339-3.295.6052503.29342544 1.2288923.54729147 1.867.76-.0981013 2.01590886-.3657127 4.01998328-.8 5.991-.0647732.2572631-.0246657.5297215.1114948.7574059.1361606.2276844.3572139.391933.6145052.4565941.0795243.019598.1610971.0296687.243.03.4580159-.0003551.8572442-.3118274.969-.756.4384037-1.94864298.7163344-3.92994407.831-5.924 2.0336434.46431867 4.1140611.69249351 6.2.68 3.4602112.11322847 6.8996629-.57609941 10.049-2.014.057 1.035.167 2.15.326 3.314.0375758.27709154.1894526.52579276.4187911.6857787.2293385.15998595.5151866.21664042.7882089.1562213l5.029-1.118c.2628526-.05908927.5384278-.00961869.7643149.1372079.225887.14682659.3829742.37858655.4356851.6427921l.171.858c.0549672.27481201-.0079077.56007835-.1733106.78631915-.1654029.22624079-.4181528.37269095-.6966894.40368085l-5.112.568c-.2803125.03117261-.5344275.17926747-.6997264.40779125-.1652989.22852375-.2264097.51622495-.1682736.79220875.306 1.438.6 2.568.736 3.094-1.977 1.539-5.859 2.286-11.868 2.286s-9.891-.747-11.875-2.264c.145-.542.434-1.669.741-3.114.05877313-.2759683-.001774-.563923-.1667101-.79285279-.16493611-.22892979-.4189099-.3775272-.6992899-.40914721zm0 14c-.27878095-.0311831-.53164565-.1780269-.69689925-.4047039-.16525361-.226677-.22769908-.5123415-.17210075-.7872961l.169-.858c.05246298-.2663073.21092456-.4998486.439-.647.2255897-.146438.50116863-.1944747.763-.133l5.02 1.12c.2721092.0607769.55723665.0051921.78659148-.1533437s.38210901-.4056259.42140852-.6816563c.174-1.229.285-2.394.34-3.49.6215002.2062852 1.2541788.3772253 1.895.512-.092895 2.1604756-.3688844 4.3091781-.825 6.423-.0647732.2572631-.0246657.5297215.1114948.7574059.1361606.2276844.3572139.391933.6145052.4565941.0796859.021026.1616016.0324405.244.034.4580159-.0003551.8572442-.3118274.969-.756.4743992-2.1676278.7647657-4.3714695.868-6.588 2.0449525.2453268 4.1034484.3602258 6.163.344 3.3875227.1209274 6.7736274-.2766642 10.041-1.179.054 1.0906667.167 2.2536667.339 3.489.0390497.2762131.1916996.5235599.4210855.6823071s.5146544.2144632.7869145.1536929l3.663-.817-4.951 4.441c-1.3059924 1.1726471-2.1210193 2.7952007-2.282 4.543-2.6404018.5151208-5.3284543.7454391-8.018.687-4.938 0-8.4-.5-10.6-1.517-.44826079-.2085469-.87468913-.4611212-1.273-.754.156-.6.444-1.722.74-3.11.05909351-.2762701-.00143165-.5646457-.16661446-.7938439-.1651828-.2291983-.41960821-.3778303-.70038554-.4091561zm34.917 14.6c-.1657563.2268978-.4203656.3723889-.7.4l-5.11.56c-.2804941.0309136-.53487.1789-.700383.4074564-.1655129.2285564-.2267539.5164047-.168617.7925436.3 1.388.584 2.508.73 3.1-.398026.3033511-.8286972.5612842-1.284.769-2.174 1.026-5.635 1.519-10.574 1.519s-8.4-.493-10.572-1.5c-.45806113-.2112278-.89360666-.4681997-1.3-.767.156-.6.444-1.722.74-3.11.06037877-.2770114.00033471-.5666324-.16519395-.7968087-.16552866-.2301764-.42098191-.3792712-.70280605-.4101913l-5.109-.56c-.27878095-.0311831-.53164565-.1780269-.69689925-.4047039-.16525361-.226677-.22769908-.5123415-.17210075-.7872961l.169-.858c.05246298-.2663073.21092456-.4998486.439-.647.22580496-.145889.50115184-.1938852.763-.133l5.02 1.12c.27301017.0610639.55911644.0049752.78886242-.1546498.22974597-.159625.38212235-.4081892.42013758-.6853502.20886527-1.480622.33140567-2.9721424.367-4.467.6303944.2040951 1.2717337.3726929 1.921.505-.0690793 2.4921043-.3632763 4.9728639-.879 7.412-.0647732.2572631-.0246657.5297215.1114948.7574059.1361606.2276844.3572139.391933.6145052.4565941.0795243.019598.1610971.0296687.243.03.4580159-.0003551.8572442-.3118274.969-.756.5369559-2.4949962.8485431-5.0332102.931-7.584 2.0242308.2406903 4.0615596.3542463 6.1.34 2.7217011.0498624 5.441567-.1725776 8.119-.664.0413333.2113333.0923333.4203333.153.627l-1.254 1.126c-.9391596.8499456-1.2432999 2.1981672-.76 3.369l-5.348 4.8c-.2722887.2369591-.3957449.6022678-.3230212.955824.0727237.3535563.3303393.6404815.674047.750735.3437076.1102535.7201572.0267219.9849742-.218559l5.351-4.8c1.1077407.6194318 2.4872211.4628921 3.428-.389l1.251-1.122c.7376748.310071 1.5230533.4913643 2.322.536.129.007.258.01.387.01 1.0115372-.0002542 2.0108166-.2214062 2.928-.648l.066.336c.056352.2742167-.0061493.5594697-.172.785zm14.084-13.64c-.0217201.4039858-.2847182.7550833-.6663039.889503-.3815857.1344198-.8065705.0256754-1.0766961-.275503l-8.014-8.926c-.3601107-.4121348-.3220152-1.0371893.0854813-1.4025404.4074964-.3653511 1.032987-.3352511 1.4035187.0675404l4.007 4.466 1.335 1.488 2.672 2.978c.175809.1962105.2670867.4538724.254.717zm-2.1-5.779-.833-.929-.5-.559 2.977-2.672.716.8.619.691zm7.881-1.7c-.4111922.368604-1.0433288.3341319-1.412-.077l-1.34-1.483-1.336-1.488-2.671-2.978c-.2635032-.2935457-.32982-.71456781-.1693118-1.07490119.1605082-.36033337.5178466-.59264097.9123118-.59309881h.055c.2653013.01274921.5143241.13167472.691.33l5.342 5.954c.1779441.197613.2698506.4579631.2554013.7234932s-.1340644.5143698-.3324013.6915068z" fill="#428dff"/></g></g></svg>