<svg width="48" height="48" viewBox="0 0 48 48" fill="none" xmlns="http://www.w3.org/2000/svg">
<path d="M35.504 21.6H28.8V18.4C30.8144 16.8892 32 14.5181 32 12V4.8C32 2.149 29.851 0 27.2 0H15.2C14.7582 0 14.4 0.3582 14.4 0.8C14.4022 2.4527 15.2545 3.9881 16.656 4.864C16.2268 5.854 16.0036 6.921 16 8V12C16 14.5181 17.1856 16.8892 19.2 18.4V21.6H12.496C8.24559 21.6 4.79999 25.0456 4.79999 29.296V42.4C4.80329 45.1813 6.84729 47.5387 9.59999 47.936V48H42.4C42.8418 48 43.2 47.6418 43.2 47.2V29.296C43.2 25.0456 39.7544 21.6 35.504 21.6ZM16.104 1.6H27.2C28.9673 1.6 30.4 3.0327 30.4 4.8V7.384L28.696 4.4C28.5525 4.1515 28.2869 3.9989 28 4H19.2C17.7417 3.9989 16.4686 3.012 16.104 1.6ZM17.6 12V8C17.6024 7.1302 17.782 6.27 18.128 5.472C18.4793 5.5554 18.839 5.5983 19.2 5.6H27.536L30.4 10.616V12C30.4 15.5346 27.5346 18.4 24 18.4C20.4654 18.4 17.6 15.5346 17.6 12ZM20 23.2C20.4418 23.2 20.8 22.8418 20.8 22.4V19.328C22.8392 20.2244 25.1608 20.2244 27.2 19.328V22.4C27.2 22.8418 27.5582 23.2 28 23.2H29.344L28.864 24.952C27.9861 26.3504 26.4511 27.1995 24.8 27.2H23.2C21.5158 27.1991 19.9553 26.3156 19.088 24.872L18.632 23.2H20ZM28 27.928L25.704 36.312C25.06 36.6157 24.5382 37.1291 24.224 37.768L23.504 39.2H22.76L19.832 27.832C20.8403 28.4673 22.0083 28.803 23.2 28.8H24.8C25.9248 28.7956 27.0285 28.4948 28 27.928ZM6.39999 29.296C6.40439 25.9311 9.13109 23.2044 12.496 23.2H12.976L17.112 39.2H12.8V32.8C12.8 32.3582 12.4418 32 12 32H6.39999V29.296ZM14.4 46.4H10.4C8.19089 46.4 6.39999 44.6091 6.39999 42.4V33.6H11.2V40C11.2 40.4418 11.5582 40.8 12 40.8H14.4V46.4ZM16 46.4V40.8H17.52L18.968 46.4H16ZM20.624 46.4L14.632 23.2H16.976L22.968 46.4H20.624ZM28.8 46.4H24.624L23.2 40.8H28.8V46.4ZM27.2 39.2H25.296L25.656 38.488C25.9249 37.9468 26.4757 37.6033 27.08 37.6H29.48C29.1389 38.5649 28.2234 39.2073 27.2 39.2ZM27.456 36L31.008 23.2H33.344L29.792 36H27.456ZM32 45.6C32 46.0418 31.6418 46.4 31.2 46.4H30.4V40.8H31.2C31.6418 40.8 32 41.1582 32 41.6V45.6ZM41.6 46.4H36.8V33.6H41.6V46.4ZM41.6 29.296V32H36C35.5582 32 35.2 32.3582 35.2 32.8V46.4H33.456C33.5491 46.1435 33.5978 45.8729 33.6 45.6V41.6C33.6 40.2745 32.5255 39.2 31.2 39.2H30.4C30.8878 38.5579 31.167 37.7817 31.2 36.976L35.008 23.2H35.504C38.8689 23.2044 41.5956 25.9311 41.6 29.296Z" fill="#CE9100"/>
<path d="M22.2616 14.3897C22.3073 14.3971 22.3536 14.4006 22.4 14.4H24.8V12.8H23.344L24 8.928L22.4 8.672L21.6 13.472C21.5293 13.9081 21.8255 14.319 22.2616 14.3897Z" fill="#CE9100"/>
</svg>
