<svg width="49" height="49" viewBox="0 0 49 49" fill="none" xmlns="http://www.w3.org/2000/svg">
<g id="lawyer 3">
<g id="layer1">
<path id="path3778" d="M18.5015 1.99902C13.5398 1.99902 9.50001 6.04025 9.50001 11.0019C9.50001 11.2892 9.51327 11.5729 9.53226 11.8603C9.54073 12.9179 11.1531 12.8153 11.0279 11.7651C11.0108 11.5001 11 11.2465 11 11.0019C11 6.85093 14.3505 3.50043 18.5015 3.50043C22.6525 3.50043 25.9971 6.8509 25.9971 11.0019C25.9971 11.9291 25.8704 12.942 25.6323 13.9902C25.4698 14.0072 25.3056 14.0369 25.1475 14.0868C24.8649 13.1644 24.0052 12.4961 22.9971 12.4961C21.7376 12.4961 20.75 11.5085 20.75 10.249C20.756 9.82815 20.412 9.48541 19.9912 9.49014C19.5769 9.49581 19.2453 9.83464 19.25 10.249C19.25 11.5084 18.2609 12.4961 17.0015 12.4961H14C12.9919 12.4961 12.138 13.182 11.8555 14.1045C11.4162 13.9662 10.948 13.9519 10.5239 14.0633C9.60933 14.3037 8.78976 15.1138 8.75294 16.2357C8.75294 18.4025 10.329 19.8152 12.1265 19.9769C12.5058 21.0672 13.1593 22.0132 14 22.7689V24.4989C13.9985 24.4989 13.997 24.4989 13.9955 24.4989C13.7979 24.5005 13.6089 24.5799 13.4696 24.72L11.9682 26.2215C11.7728 26.417 11.7008 26.704 11.7807 26.9685L16.5956 42.6101L11.0673 35.5745L11.7279 32.9305C11.7915 32.6748 11.7165 32.4047 11.5302 32.2185L9.57606 30.2644L10.2982 27.1838C10.4086 26.7134 10.0519 26.2629 9.56874 26.2625C9.50799 26.2625 9.44751 26.2709 9.38856 26.2851C5.13532 27.3364 2.00003 31.1745 2 35.7495V46.2495C2.00004 46.6637 2.3358 46.9995 2.75 46.9995H30.5C31.5142 47.0137 31.5142 45.4852 30.5 45.4995H20.0439L27.3403 36.2124C27.4832 36.0304 27.534 35.7925 27.478 35.5679L26.8306 32.9795L28.7803 31.0297C28.9574 30.8526 29.0343 30.5987 28.9854 30.353L28.5591 28.2012C29.8286 28.7427 30.9666 29.6242 31.8242 30.7529C32.4306 31.5431 33.6183 30.6406 33.0196 29.8447C31.7072 28.1177 29.9294 26.9006 27.7476 26.3613C27.2135 26.2292 26.7236 26.6979 26.8321 27.2373L27.4356 30.2534L25.4698 32.2192C25.2834 32.4054 25.2084 32.6756 25.272 32.9312L25.9326 35.5751L20.4029 42.6137L25.2178 26.9692C25.2973 26.7045 25.2245 26.4173 25.0288 26.2221L23.5288 24.7207C23.3878 24.5796 23.1965 24.5007 22.9971 24.501V22.7725C23.8388 22.0164 24.4928 21.0753 24.8721 19.9835C26.6948 19.8463 28.2515 18.4028 28.2515 16.2364C28.2231 15.3723 27.7293 14.7002 27.0884 14.3233C27.3459 13.1905 27.4986 12.0664 27.4986 11.0025C27.4986 6.04086 23.4632 1.99902 18.5015 1.99902ZM20 12.5005C20.6842 13.4187 21.7682 13.9961 22.9971 13.9961C23.4256 13.9961 23.75 14.322 23.75 14.7505V17.7505C23.75 20.672 21.423 22.999 18.5015 22.999C15.58 22.999 13.2471 20.672 13.2471 17.7505V14.7505C13.2471 14.322 13.5715 13.9961 14 13.9961H17.0015C18.2306 13.9961 19.3158 13.4191 20 12.5005ZM11.7471 15.751V17.7505C11.7471 17.9656 11.7596 18.1777 11.7793 18.3877C10.9417 18.1397 10.2588 17.4319 10.2588 16.2607C10.2588 15.4816 11.42 15.2537 11.7471 15.751ZM26.7456 16.2666C26.7456 17.3804 26.0563 18.1421 25.2178 18.3892C25.2376 18.1789 25.25 17.9661 25.25 17.7506V15.754C25.5948 15.2453 26.7456 15.4861 26.7456 16.2666ZM21.5029 23.7916V25.5186L18.5015 28.0205L15.5015 25.5201V23.793C16.4052 24.2435 17.4231 24.499 18.5015 24.499C19.581 24.499 20.599 24.2428 21.5029 23.7916ZM14.0454 26.2657L17.2725 28.9537L14.5581 30.8917L13.3482 26.9571L14.0454 26.2657ZM22.9531 26.2657L23.6504 26.9571L22.4404 30.8902L19.7261 28.9522L22.9531 26.2657ZM8.53028 28.1465L8.02051 30.3277C7.96104 30.5802 8.03641 30.8457 8.21973 31.0293L10.1694 32.9791L9.52198 35.5674C9.46596 35.7919 9.51674 36.0298 9.65967 36.2119L16.9561 45.499H8.75294V40.2505C8.76141 39.8252 8.41351 39.4779 7.98829 39.4858C7.5739 39.4943 7.24371 39.8361 7.25147 40.2505V45.499H3.50001V35.749C3.50001 32.3443 5.61358 29.4132 8.53028 28.1465ZM42.1499 34.1245L39.563 39.9458C39.5216 40.0419 39.5015 40.146 39.5029 40.2506C39.5029 40.2506 39.4916 41.1541 39.9556 42.083C40.42 43.0119 41.3923 43.9976 43.25 43.9976C45.1077 43.9976 46.0785 43.0119 46.543 42.083C47.0076 41.1541 46.9971 40.2506 46.9971 40.2506C46.9986 40.146 46.9772 40.0419 46.937 39.9458L44.3486 34.1202C44.7682 34.0252 45.534 33.7566 46.0288 33.2793C46.698 32.6338 45.7405 31.507 44.9726 32.2158C44.6963 32.471 43.9458 32.7476 43.2485 32.7476C41.3548 32.7192 40.5282 31.4485 38 31.2828V29.7476C38.0059 29.3331 37.6746 28.9933 37.2602 28.9888V28.9859C37.2543 28.9859 37.2514 28.9832 37.2486 28.9832C36.8342 28.9888 36.5042 29.3276 36.5089 29.7419V31.2771C33.9806 31.4429 33.1541 32.7145 31.2603 32.742C30.5631 32.742 29.8127 32.4656 29.5362 32.2102C28.7684 31.5014 27.8108 32.628 28.4801 33.2736C28.9748 33.7509 29.7406 34.0195 30.1602 34.1145L27.5719 39.9402C27.5305 40.0363 27.5107 40.1403 27.5118 40.2449C27.5118 40.2449 27.5004 41.1484 27.9659 42.0773C28.4303 43.0062 29.4011 43.992 31.2589 43.992C33.1166 43.992 34.0888 43.0062 34.5533 42.0773C35.0177 41.1484 35.0059 40.2449 35.0059 40.2449C35.0074 40.1403 34.9861 40.0362 34.9459 39.9402L32.359 34.1189C33.8926 33.8754 34.7933 32.7458 37.2486 32.7448C39.7133 32.7477 40.6137 33.8806 42.1499 34.1245ZM18.5 29.9219L19.6748 30.7612L18.8501 32.0019H18.1528L17.3252 30.7612L18.5 29.9219ZM16.105 31.6328L16.9619 32.919L16.335 36.6704L15.0239 32.4048L16.105 31.6328ZM20.898 31.6343L21.9746 32.4034L20.6636 36.6631L20.0396 32.9219L20.898 31.6343ZM18.3843 33.502H18.6157L19.6763 39.8711L18.4971 43.7003L17.3223 39.8799L18.3843 33.502ZM37.2573 34.2314C36.8823 34.2314 36.5088 34.4815 36.5088 34.9814V45.4932H33.4707C32.4581 45.5621 32.5271 47.018 33.5059 46.9932H37.2486V46.9988H41.003C41.9817 47.0244 42.0507 45.5676 41.0381 45.4988H38V34.9872C38 34.491 37.6323 34.2426 37.2603 34.2386V34.2301L37.2573 34.2314ZM31.2588 35.3389L33.1016 39.4903H29.4175L31.2588 35.3389ZM43.25 35.3446L45.0913 39.496H41.4072L43.25 35.3446ZM29.1436 40.9916H33.3755C33.3755 40.9916 33.111 42.4915 31.2603 42.4915C29.4094 42.4915 29.1436 40.9916 29.1436 40.9916ZM41.1333 40.9972H45.3652C45.3652 40.9972 45.0994 42.4972 43.2485 42.4972C41.3977 42.4972 41.1333 40.9972 41.1333 40.9972Z" fill="#CE9100"/>
</g>
</g>
</svg>
