<svg width="48" height="48" viewBox="0 0 48 48" fill="none" xmlns="http://www.w3.org/2000/svg">
<path fill-rule="evenodd" clip-rule="evenodd" d="M47.9954 11.8587C47.9977 11.8361 47.9988 11.8135 47.9992 11.7911C47.9993 11.7833 47.9998 11.7756 47.9996 11.7677C47.9991 11.7364 47.997 11.7054 47.9927 11.6748L47.9919 11.67C47.9877 11.6411 47.9816 11.6127 47.9743 11.5848C47.9722 11.5773 47.9701 11.5698 47.9679 11.5623C47.9608 11.5384 47.9526 11.515 47.9434 11.492C47.9409 11.4857 47.9386 11.4794 47.9359 11.4731C47.9236 11.4448 47.9098 11.4173 47.8943 11.3908L47.8921 11.3864L43.1363 3.36307C43.1346 3.36036 43.1327 3.35813 43.131 3.35542C43.0986 3.3021 43.0604 3.25362 43.0171 3.21046C43.0116 3.20494 43.0058 3.19981 43.0001 3.19449C42.9835 3.17891 42.9662 3.16401 42.9483 3.14997C42.9414 3.14446 42.9344 3.13885 42.9272 3.13362C42.9053 3.11756 42.8828 3.10256 42.8593 3.08891C42.8569 3.08756 42.8547 3.08591 42.8523 3.08446C42.8265 3.06985 42.7997 3.05707 42.7723 3.04546C42.7647 3.04227 42.7569 3.03946 42.7492 3.03646C42.7277 3.02814 42.7059 3.02078 42.6838 3.01439C42.6761 3.01227 42.6687 3.00994 42.6611 3.00801C42.6016 2.99281 42.5401 2.98459 42.4774 2.98401C42.475 2.98401 42.4727 2.98352 42.4703 2.98352C42.4659 2.98352 42.4617 2.9843 42.4573 2.9844C42.433 2.98478 42.4086 2.98643 42.384 2.98923C42.3755 2.9902 42.367 2.99107 42.3585 2.99223C42.3343 2.99581 42.3101 3.00075 42.2858 3.00665C42.2796 3.0082 42.2732 3.00917 42.267 3.01081L42.2635 3.01159C39.8384 3.68349 38.9528 3.34797 37.927 2.95904C36.9878 2.6032 35.9354 2.20547 33.9045 2.43704C33.4516 1.02522 32.1264 0 30.5658 0C29.0052 0 27.6801 1.02512 27.227 2.43714C25.1962 2.20527 24.1438 2.6034 23.2046 2.95923C22.1789 3.34807 21.2931 3.68349 18.8681 3.01178L18.8646 3.01101C18.8582 3.00927 18.8516 3.0082 18.8451 3.00665C18.8214 3.00085 18.7977 2.99601 18.7739 2.99252C18.7648 2.99117 18.7556 2.9902 18.7463 2.98923C18.7229 2.98662 18.6997 2.98517 18.6765 2.98469C18.6714 2.98459 18.6664 2.98372 18.6614 2.98372C18.6586 2.98372 18.6558 2.9842 18.653 2.9843C18.5912 2.98498 18.5306 2.99301 18.4718 3.00791C18.4631 3.01014 18.4545 3.01275 18.4459 3.01527C18.425 3.02136 18.4045 3.02823 18.3842 3.03607C18.3755 3.03946 18.3667 3.04256 18.3581 3.04623C18.3313 3.05765 18.305 3.07014 18.2796 3.08446C18.2761 3.08649 18.2729 3.08891 18.2694 3.09094C18.2471 3.10401 18.2256 3.11823 18.2048 3.13343C18.1972 3.13894 18.1898 3.14485 18.1825 3.15075C18.165 3.16449 18.1482 3.17891 18.132 3.1941C18.126 3.19972 18.1201 3.20504 18.1142 3.21085C18.0711 3.25391 18.0331 3.3023 18.0007 3.35542C17.9991 3.35813 17.9971 3.36046 17.9954 3.36317L13.2398 11.3865L13.2375 11.3909C13.2221 11.4174 13.2082 11.4449 13.1959 11.4732C13.1932 11.4794 13.191 11.4857 13.1885 11.492C13.1792 11.5151 13.1711 11.5385 13.164 11.5624C13.1618 11.5698 13.1595 11.5773 13.1576 11.5848C13.1502 11.6128 13.1442 11.6412 13.14 11.67L13.1391 11.6748C13.135 11.7054 13.1328 11.7364 13.1322 11.7677C13.1322 11.7755 13.1325 11.7832 13.1326 11.7911C13.1329 11.8135 13.1342 11.836 13.1365 11.8587C13.1376 11.8694 13.1388 11.8799 13.1404 11.8905C13.1414 11.8977 13.1417 11.9051 13.143 11.9123C13.6059 14.604 15.9268 16.5576 18.6615 16.5576C21.3962 16.5576 23.7172 14.604 24.1801 11.9123C24.1814 11.905 24.1817 11.8977 24.1827 11.8905C24.1843 11.8799 24.1854 11.8694 24.1866 11.8587C24.1889 11.8361 24.1901 11.8135 24.1905 11.7911C24.1905 11.7833 24.191 11.7756 24.1908 11.7677C24.1904 11.7364 24.1882 11.7054 24.184 11.6748L24.1831 11.67C24.1789 11.6411 24.1728 11.6127 24.1655 11.5848C24.1635 11.5773 24.1613 11.5698 24.1591 11.5623C24.152 11.5384 24.1438 11.515 24.1346 11.492C24.1321 11.4857 24.1299 11.4794 24.1272 11.4731C24.1149 11.4448 24.101 11.4173 24.0856 11.3908L24.0833 11.3864L20.2246 4.87632C20.5963 4.9249 20.9315 4.94657 21.2369 4.94657C22.3302 4.94657 23.0492 4.67416 23.7536 4.40716C24.6026 4.08539 25.4102 3.78007 27.093 3.98C27.2904 5.43325 28.3811 6.60566 29.7926 6.92491L29.795 20.8947C28.3798 21.0183 27.0179 21.4783 25.8175 22.2459C24.4376 23.1282 23.3313 24.3722 22.618 25.8432C22.5017 26.0831 22.5169 26.366 22.6585 26.592C22.8001 26.8179 23.0479 26.9552 23.3146 26.9552H37.825C38.0916 26.9552 38.3394 26.8179 38.481 26.592C38.6226 26.366 38.6378 26.0831 38.5215 25.8432C37.8083 24.3722 36.7019 23.1282 35.322 22.2459C34.1211 21.478 32.7589 21.018 31.3433 20.8945L31.3408 6.92453C32.7516 6.60488 33.8417 5.43276 34.039 3.98C35.7217 3.77987 36.5293 4.08529 37.3785 4.40716C38.0831 4.67416 38.8017 4.94657 39.8951 4.94657C40.2006 4.94657 40.5358 4.9249 40.9076 4.87632L37.0489 11.3864L37.0468 11.3905C37.0311 11.4172 37.0173 11.4449 37.0049 11.4735C37.0024 11.4793 37.0003 11.4853 36.9979 11.4912C36.9883 11.5147 36.98 11.5387 36.9728 11.5632C36.9707 11.5702 36.9686 11.5772 36.9668 11.5843C36.9591 11.6132 36.9527 11.6425 36.9485 11.6724L36.9482 11.6744C36.9439 11.7053 36.9417 11.7367 36.9412 11.7684C36.9411 11.7754 36.9415 11.7824 36.9416 11.7893C36.9419 11.8127 36.9432 11.8363 36.9457 11.86C36.9466 11.8697 36.9478 11.8794 36.9492 11.8891C36.9502 11.8968 36.9506 11.9046 36.952 11.9123C37.4147 14.604 39.7357 16.5576 42.4706 16.5576C45.2054 16.5576 47.5262 14.604 47.9891 11.9123C47.9903 11.905 47.9907 11.8977 47.9917 11.8905C47.993 11.8798 47.9942 11.8693 47.9954 11.8587ZM18.6613 15.0093C17.0051 15.0093 15.5595 14.0193 14.9356 12.5554H22.387C21.7632 14.0193 20.3175 15.0093 18.6613 15.0093ZM15.2645 11.0069L18.6613 5.27609L22.0581 11.0069H15.2645ZM36.4644 25.4068H24.6747C26.0301 23.5308 28.1918 22.408 30.5696 22.408C32.9473 22.408 35.109 23.5308 36.4644 25.4068ZM30.5658 5.46354C29.4864 5.46354 28.6082 4.58541 28.6082 3.50591C28.6082 2.4264 29.4863 1.54837 30.5658 1.54837C31.6453 1.54837 32.5234 2.4265 32.5234 3.506C32.5234 4.58551 31.6452 5.46354 30.5658 5.46354ZM42.4703 5.27618L45.8671 11.007H39.0735L42.4703 5.27618ZM42.4703 15.0093C40.8141 15.0093 39.3684 14.0193 38.7446 12.5554H46.1959C45.5721 14.0193 44.1265 15.0093 42.4703 15.0093ZM38.8431 29.6369L30.422 34.5418C30.0221 34.7747 29.6157 34.9425 29.1928 35.0468C29.3439 34.7923 29.4634 34.5073 29.5473 34.1942C29.9815 32.5737 29.0188 30.8818 27.3556 30.3426C27.3223 30.332 27.2886 30.3235 27.2542 30.3172C24.8363 29.8811 22.4488 29.018 20.5305 28.3244C19.8633 28.0833 19.2332 27.8554 18.6972 27.6816C16.5313 26.9788 14.5755 27.8472 12.9482 28.7895L6.70659 32.4033L6.12924 31.3832C5.86505 30.9163 5.43344 30.5797 4.91406 30.4358C4.39458 30.2918 3.85149 30.3581 3.38446 30.6225L1.02154 31.9596C0.0552598 32.5067 -0.286157 33.738 0.260903 34.7044L7.2073 46.9785C7.57746 47.6324 8.26087 48.0001 8.96354 48C9.29935 48 9.6395 47.9161 9.95208 47.7392L12.3149 46.402C12.7818 46.1378 13.1184 45.7062 13.2623 45.1868C13.4062 44.6674 13.34 44.1242 13.0756 43.6572L12.3725 42.4149L13.768 41.6093L24.5429 44.4965C25.1546 44.6604 25.7548 44.7422 26.3423 44.7422C27.5137 44.7421 28.6335 44.4168 29.6873 43.7681L44.9696 34.3579C46.3747 33.4929 46.8208 31.3137 45.9058 29.7858C45.4618 29.0446 43.6405 26.843 38.8431 29.6369ZM11.7702 44.7732C11.7367 44.894 11.6593 44.9938 11.5522 45.0545L9.18941 46.3917C8.96993 46.516 8.67922 46.4355 8.55467 46.2158L1.60828 33.9418C1.48402 33.7221 1.56463 33.4315 1.78421 33.3071L4.14703 31.97C4.21671 31.9306 4.29422 31.9105 4.373 31.9105C4.41539 31.9105 4.45816 31.9164 4.50026 31.9281C4.62103 31.9615 4.7209 32.039 4.78158 32.146L11.7281 44.42C11.7887 44.527 11.8037 44.6524 11.7702 44.7732ZM44.1579 33.0393L28.8755 42.4496C27.6702 43.1916 26.3474 43.3771 24.9437 43.0009L13.859 40.0307C13.6609 39.9775 13.4495 40.0053 13.2716 40.1081L11.61 41.0674L7.46917 33.7509L13.724 30.1294C15.1229 29.3195 16.6357 28.6409 18.2194 29.1543C18.7311 29.3203 19.321 29.5336 20.004 29.7806C21.9625 30.4886 24.3968 31.3686 26.9232 31.8308C27.7885 32.1342 28.2724 32.9699 28.0517 33.7935C27.7615 34.8768 26.8569 35.0122 26.1373 34.9298C24.8981 34.6749 23.72 34.3388 22.4737 33.9828C21.8821 33.8139 21.2703 33.6391 20.6415 33.4706C20.2287 33.36 19.8041 33.6051 19.6933 34.0181C19.5826 34.4311 19.8278 34.8556 20.2407 34.9663C20.8573 35.1315 21.4628 35.3044 22.0484 35.4716C23.3342 35.8389 24.5488 36.1858 25.8571 36.4533C25.8622 36.4544 25.8673 36.4546 25.8725 36.4556C25.8777 36.4566 25.8826 36.4581 25.888 36.4589L26.9351 36.6291C28.5076 36.8807 29.9033 36.6355 31.2011 35.8798L39.6223 30.9748C42.032 29.5713 43.8844 29.4243 44.5774 30.5814C45.0543 31.3773 44.8425 32.6179 44.1579 33.0393ZM4.81932 34.3171C4.88677 34.778 4.56761 35.2065 4.10668 35.2738C3.64565 35.3412 3.21733 35.0221 3.14998 34.5611C3.08253 34.1 3.40168 33.6717 3.86262 33.6044C4.32355 33.537 4.75196 33.8561 4.81932 34.3171Z" fill="#59d5e0"/>
</svg>
