<svg width="49" height="49" viewBox="0 0 49 49" fill="none" xmlns="http://www.w3.org/2000/svg">
<g id="Home nursing 2" clip-path="url(#clip0_208_1181)">
<path id="Vector" d="M33.3 34.9H32.5C32.2879 34.9 32.0844 34.9844 31.9344 35.1344L24.5 42.5688L17.0656 35.1344C16.9156 34.9844 16.7121 34.9 16.5 34.9L15.6199 34.9039C5.86953 35.8793 0.5 40.4199 0.5 47.7C0.5 48.1418 0.858203 48.5 1.3 48.5C1.7418 48.5 2.1 48.1418 2.1 47.7C2.1 40.5414 7.86641 37.7887 13.4504 36.8098L12.584 38.5426C12.3863 38.9379 12.5469 39.4188 12.9426 39.616L15.7 40.9946V43.7C15.7 44.0535 15.932 44.3649 16.2703 44.4664L23.7 46.6953V47.7C23.7 48.1418 24.0582 48.5 24.5 48.5C24.9418 48.5 25.3 48.1418 25.3 47.7V46.6953L32.7297 44.4664C33.068 44.3649 33.3 44.0535 33.3 43.7V40.9946L36.0574 39.6199C36.4531 39.4227 36.6137 38.9418 36.416 38.5465L35.5527 36.8199C41.1719 37.8071 46.9 40.5664 46.9 47.7C46.9 48.1418 47.2582 48.5 47.7 48.5C48.1418 48.5 48.5 48.1418 48.5 47.7C48.5 40.4199 43.1305 35.8793 33.3 34.9ZM17.3 43.1047V40.5C17.3016 40.1953 17.1301 39.916 16.8574 39.7801L14.3734 38.5383L15.3754 36.5383C15.4832 36.5266 15.593 36.5106 15.7 36.5H16.1688L23.7 44.0313V45.0246L17.3 43.1047ZM34.6266 38.5449L32.1426 39.7864C31.8719 39.9215 31.7008 40.1977 31.7 40.5V43.1047L25.3 45.0246V44.0313L32.8336 36.5H33.2199C33.3543 36.5137 33.4922 36.5328 33.6273 36.5481L34.6266 38.5449Z" fill="#59d5e0"/>
<path id="Vector_2" d="M9.60776 28.3313C12.5749 30.5168 16.0464 31.916 19.6999 32.3984V34.9C19.6999 35.3418 20.0581 35.7 20.4999 35.7C20.9417 35.7 21.2999 35.3418 21.2999 34.9V32.4496C22.296 32.952 23.3859 33.2418 24.4999 33.3C25.614 33.2418 26.7039 32.952 27.6999 32.4496V34.9C27.6999 35.3418 28.0581 35.7 28.4999 35.7C28.9417 35.7 29.2999 35.3418 29.2999 34.9V32.3984C32.9539 31.916 36.4257 30.5164 39.3929 28.3305C41.2878 26.8496 40.7097 21.1855 37.5167 9.96875C37.4441 9.71133 37.3855 9.50703 37.3414 9.34961L38.8433 5.59688C38.9914 5.22695 38.8453 4.8043 38.4999 4.60547C32.5343 1.19844 28.5886 0.5 24.4999 0.5C20.4113 0.5 16.4656 1.19844 10.4999 4.60547C10.1535 4.80352 10.0058 5.22617 10.1535 5.59688L11.655 9.34961C11.6113 9.50977 11.5527 9.71133 11.48 9.96875C8.29018 21.1855 7.71205 26.8496 9.60776 28.3313ZM15.6999 22.9V18.6258C20.1152 17.8785 24.3828 16.4297 28.3398 14.3336C29.2664 15.3734 31.3542 17.5566 33.2999 18.4742V22.9C33.2999 27.6266 27.3976 31.7 24.4999 31.7C21.6023 31.7 15.6999 27.6266 15.6999 22.9ZM12.4999 20.5C12.4999 19.6164 13.2164 18.9 14.0999 18.9V22.1C13.2164 22.1 12.4999 21.3836 12.4999 20.5ZM34.8999 18.9C35.7835 18.9 36.4999 19.6164 36.4999 20.5C36.4999 21.3836 35.7835 22.1 34.8999 22.1V18.9ZM24.4999 2.1C28.1953 2.1 31.78 2.71602 37.0968 5.65352L34.4999 12.1383C31.307 10.4816 26.3054 10.1 24.4999 10.1C22.6945 10.1 17.6929 10.4816 14.4999 12.1383L11.9031 5.65352C17.2199 2.71602 20.8046 2.1 24.4999 2.1ZM13.3566 13.5969C13.4464 13.8219 13.6335 13.9941 13.8652 14.0652C14.0968 14.1363 14.3484 14.0984 14.5488 13.9625C16.9847 12.3145 21.9456 11.7 24.4999 11.7C27.0542 11.7 32.0152 12.3145 34.4511 13.9625C34.6515 14.0984 34.9031 14.1363 35.1347 14.0652C35.3664 13.9941 35.5535 13.8219 35.6433 13.5969L36.3632 11.7902C39.9078 24.6414 38.8335 26.7344 38.4054 27.0703C36.1187 28.7422 33.5078 29.9176 30.7398 30.5215C32.8199 28.8129 34.5503 26.432 34.8414 23.7H34.8999C36.6671 23.7 38.0999 22.2672 38.0999 20.5C38.0999 18.7328 36.6671 17.3 34.8999 17.3C33.4273 17.3 30.5695 14.532 29.1144 12.7871C28.8527 12.4734 28.3968 12.4074 28.0566 12.6336C28.0105 12.6648 23.2566 15.7633 13.9679 17.3113C12.2039 17.3477 10.8031 18.8074 10.8394 20.5715C10.8761 22.3359 12.3359 23.7363 14.0999 23.7H14.1574C14.4488 26.432 16.1769 28.8129 18.2593 30.5215C15.4914 29.9172 12.88 28.7414 10.5929 27.0695C10.164 26.7344 9.0894 24.6414 12.6343 11.7895L13.3566 13.5969Z" fill="#59d5e0"/>
<path id="Vector_3" d="M26.3992 26.277C25.2679 27.1032 23.732 27.1032 22.6007 26.277C22.3793 26.0856 22.0711 26.0301 21.7972 26.1329C21.523 26.2356 21.3269 26.4797 21.2855 26.7692C21.2445 27.059 21.3648 27.3481 21.5992 27.5231C23.3117 28.8321 25.6882 28.8321 27.4007 27.5231C27.6351 27.3481 27.7554 27.059 27.7144 26.7692C27.673 26.4797 27.4769 26.2356 27.2027 26.1329C26.9289 26.0301 26.6207 26.0856 26.3992 26.277Z" fill="#59d5e0"/>
<path id="Vector_4" d="M30.9 20.5C30.9 21.3836 30.1835 22.1 29.3 22.1C28.4164 22.1 27.7 21.3836 27.7 20.5C27.7 19.6164 28.4164 18.9 29.3 18.9C30.1835 18.9 30.9 19.6164 30.9 20.5Z" fill="#59d5e0"/>
<path id="Vector_5" d="M21.3001 20.5C21.3001 21.3836 20.5837 22.1 19.7001 22.1C18.8165 22.1 18.1001 21.3836 18.1001 20.5C18.1001 19.6164 18.8165 18.9 19.7001 18.9C20.5837 18.9 21.3001 19.6164 21.3001 20.5Z" fill="#59d5e0"/>
<path id="Vector_6" d="M22.9001 6.89995H23.7001V7.69995C23.7001 8.14175 24.0583 8.49995 24.5001 8.49995C24.9419 8.49995 25.3001 8.14175 25.3001 7.69995V6.89995H26.1001C26.5419 6.89995 26.9001 6.54175 26.9001 6.09995C26.9001 5.65815 26.5419 5.29995 26.1001 5.29995H25.3001V4.49995C25.3001 4.05815 24.9419 3.69995 24.5001 3.69995C24.0583 3.69995 23.7001 4.05815 23.7001 4.49995V5.29995H22.9001C22.4583 5.29995 22.1001 5.65815 22.1001 6.09995C22.1001 6.54175 22.4583 6.89995 22.9001 6.89995Z" fill="#59d5e0"/>
</g>
<defs>
<clipPath id="clip0_208_1181">
<rect width="48" height="48" fill="white" transform="translate(0.5 0.5)"/>
</clipPath>
</defs>
</svg>
