<svg width="74" height="74" viewBox="0 0 74 74" fill="none" xmlns="http://www.w3.org/2000/svg">
<path d="M27.75 45.994V47.7916C27.75 51.4715 29.2118 55.0007 31.8139 57.6027C34.4159 60.2048 37.9451 61.6666 41.625 61.6666C45.3048 61.6666 48.834 60.2048 51.4361 57.6027C54.0381 55.0007 55.5 51.4715 55.5 47.7916V42.6425C53.4419 41.9151 51.7072 40.4835 50.6025 38.6008C49.4979 36.7181 49.0944 34.5055 49.4634 32.354C49.8324 30.2026 50.9501 28.2509 52.619 26.8439C54.2879 25.4368 56.4004 24.6651 58.5833 24.6651C60.7662 24.6651 62.8787 25.4368 64.5476 26.8439C66.2165 28.2509 67.3342 30.2026 67.7032 32.354C68.0722 34.5055 67.6687 36.7181 66.5641 38.6008C65.4594 40.4835 63.7247 41.9151 61.6666 42.6425V47.7916C61.6666 53.107 59.5551 58.2047 55.7966 61.9632C52.038 65.7218 46.9403 67.8333 41.625 67.8333C36.3096 67.8333 31.2119 65.7218 27.4534 61.9632C23.6948 58.2047 21.5833 53.107 21.5833 47.7916V45.994C17.2726 45.2642 13.3595 43.0316 10.5376 39.6922C7.71565 36.3527 6.16719 32.122 6.16663 27.75L6.16663 12.3333C6.16663 10.6978 6.81633 9.12928 7.9728 7.9728C9.12928 6.81633 10.6978 6.16663 12.3333 6.16663H15.4166C16.2344 6.16663 17.0186 6.49148 17.5969 7.06971C18.1751 7.64795 18.5 8.43221 18.5 9.24996C18.5 10.0677 18.1751 10.852 17.5969 11.4302C17.0186 12.0084 16.2344 12.3333 15.4166 12.3333H12.3333V27.75C12.3333 31.021 13.6327 34.158 15.9456 36.4709C18.2586 38.7839 21.3956 40.0833 24.6666 40.0833C27.9376 40.0833 31.0747 38.7839 33.3876 36.4709C35.7006 34.158 37 31.021 37 27.75V12.3333H33.9166C33.0989 12.3333 32.3146 12.0084 31.7364 11.4302C31.1581 10.852 30.8333 10.0677 30.8333 9.24996C30.8333 8.43221 31.1581 7.64795 31.7364 7.06971C32.3146 6.49148 33.0989 6.16663 33.9166 6.16663H37C38.6355 6.16663 40.204 6.81633 41.3605 7.9728C42.5169 9.12928 43.1666 10.6978 43.1666 12.3333V27.75C43.1661 32.122 41.6176 36.3527 38.7957 39.6922C35.9738 43.0316 32.0607 45.2642 27.75 45.994ZM58.5833 37C59.401 37 60.1853 36.6751 60.7635 36.0969C61.3418 35.5186 61.6666 34.7344 61.6666 33.9166C61.6666 33.0989 61.3418 32.3146 60.7635 31.7364C60.1853 31.1581 59.401 30.8333 58.5833 30.8333C57.7655 30.8333 56.9813 31.1581 56.403 31.7364C55.8248 32.3146 55.5 33.0989 55.5 33.9166C55.5 34.7344 55.8248 35.5186 56.403 36.0969C56.9813 36.6751 57.7655 37 58.5833 37Z" fill="#FAF4E6"/>
</svg>
