<svg width="74" height="74" viewBox="0 0 74 74" fill="none" xmlns="http://www.w3.org/2000/svg">
<path d="M36.2292 58.5833H35.4583C28.1611 58.5833 21.9688 56.0395 16.8813 50.952C11.7937 45.8645 9.25 39.6722 9.25 32.375C9.25 25.0777 11.7937 18.8854 16.8813 13.7979C21.9688 8.71038 28.1611 6.16663 35.4583 6.16663C39.1069 6.16663 42.512 6.84701 45.6734 8.20779C48.8349 9.56857 51.6099 11.4443 53.9984 13.8349C56.387 16.2255 58.2616 19.0005 59.6224 22.1599C60.9832 25.3193 61.6646 28.7243 61.6667 32.375C61.6667 39.2611 59.7262 45.659 55.8453 51.5687C51.9644 57.4784 47.0702 62.1034 41.1625 65.4437C40.6486 65.7007 40.1347 65.8425 39.6208 65.8692C39.1069 65.8959 38.6444 65.7798 38.2333 65.5208C37.8222 65.2639 37.4625 64.9298 37.1542 64.5187C36.8458 64.1076 36.666 63.6194 36.6146 63.0541L36.2292 58.5833ZM43.1667 56.5791C46.8153 53.4958 49.7835 49.8862 52.0713 45.7505C54.3592 41.6147 55.5021 37.1562 55.5 32.375C55.5 26.7736 53.5596 22.0335 49.6787 18.1546C45.7978 14.2758 41.0577 12.3353 35.4583 12.3333C29.8569 12.3333 25.1168 14.2737 21.238 18.1546C17.3592 22.0355 15.4187 26.7756 15.4167 32.375C15.4167 37.9764 17.3571 42.7175 21.238 46.5984C25.1189 50.4793 29.859 52.4187 35.4583 52.4166H43.1667V56.5791ZM35.3813 49.2562C36.2549 49.2562 37 48.9479 37.6167 48.3312C38.2333 47.7145 38.5417 46.9694 38.5417 46.0958C38.5417 45.2222 38.2333 44.477 37.6167 43.8604C37 43.2437 36.2549 42.9354 35.3813 42.9354C34.5076 42.9354 33.7625 43.2437 33.1458 43.8604C32.5292 44.477 32.2208 45.2222 32.2208 46.0958C32.2208 46.9694 32.5292 47.7145 33.1458 48.3312C33.7625 48.9479 34.5076 49.2562 35.3813 49.2562ZM28.675 25.8229C29.2403 26.0798 29.8056 26.0932 30.3708 25.863C30.9361 25.6327 31.3986 25.2597 31.7583 24.7437C32.2208 24.127 32.7604 23.6512 33.3771 23.3161C33.9938 22.9811 34.6875 22.8146 35.4583 22.8166C36.6917 22.8166 37.6938 23.163 38.4646 23.8557C39.2354 24.5484 39.6208 25.4354 39.6208 26.5166C39.6208 27.1847 39.4286 27.8527 39.0443 28.5208C38.6599 29.1888 37.9784 30.0111 37 30.9875C35.7153 32.118 34.7646 33.1849 34.1479 34.188C33.5313 35.1911 33.2229 36.2055 33.2229 37.2312C33.2229 37.8479 33.4418 38.3751 33.8797 38.813C34.3175 39.2508 34.8437 39.4687 35.4583 39.4666C36.075 39.4666 36.5889 39.2354 37 38.7729C37.4111 38.3104 37.7194 37.7708 37.925 37.1541C38.1819 36.2805 38.6444 35.484 39.3125 34.7645C39.9806 34.0451 40.5972 33.4027 41.1625 32.8375C42.2417 31.7583 43.0516 30.6791 43.5922 29.6C44.1328 28.5208 44.4021 27.4416 44.4 26.3625C44.4 23.9986 43.5901 22.0972 41.9703 20.6583C40.3506 19.2194 38.1799 18.5 35.4583 18.5C33.8139 18.5 32.2979 18.8987 30.9104 19.6963C29.5229 20.4938 28.3924 21.5853 27.5188 22.9708C27.2104 23.5361 27.1714 24.089 27.4016 24.6296C27.6318 25.1702 28.0563 25.568 28.675 25.8229Z" fill="#FAF4E6"/>
</svg>
