<svg width="74" height="74" viewBox="0 0 74 74" fill="none" xmlns="http://www.w3.org/2000/svg">
<path d="M9.21437 15.3611V9.25H45.7858V15.3611H9.21437ZM22.9287 53.5555H32.0715V45.9167H39.6906V36.75H32.0715V29.1111H22.9287V36.75H15.3096V45.9167H22.9287V53.5555ZM12.262 64.25C10.5858 64.25 9.15138 63.6521 7.95875 62.4564C6.76611 61.2606 6.16878 59.8215 6.16675 58.1389V24.5278C6.16675 22.8472 6.76408 21.4091 7.95875 20.2133C9.15341 19.0176 10.5878 18.4187 12.262 18.4167H42.7382C44.4144 18.4167 45.8498 19.0156 47.0445 20.2133C48.2391 21.4111 48.8354 22.8493 48.8334 24.5278V58.1389C48.8334 59.8194 48.2371 61.2586 47.0445 62.4564C45.8518 63.6542 44.4164 64.252 42.7382 64.25H12.262ZM12.262 58.1389H42.7382V24.5278H12.262V58.1389ZM57.9763 42.0972C56.1985 41.2315 54.7387 39.7933 53.5968 37.7828C52.455 35.7722 51.8831 33.3909 51.881 30.6389C51.881 27.1759 52.7577 24.2731 54.5111 21.9306C56.2645 19.588 58.4354 18.4167 61.0239 18.4167C63.6144 18.4167 65.7863 19.588 67.5397 21.9306C69.2931 24.2731 70.1688 27.1759 70.1667 30.6389C70.1667 33.3889 69.5958 35.7702 68.454 37.7828C67.3121 39.7954 65.8513 41.2335 64.0715 42.0972V61.1944C64.0715 62.0602 63.7789 62.7864 63.1938 63.373C62.6086 63.9597 61.8853 64.252 61.0239 64.25C60.1604 64.25 59.4371 63.9567 58.854 63.37C58.2709 62.7833 57.9783 62.0581 57.9763 61.1944V42.0972ZM61.0239 36.75C61.6334 36.75 62.2937 36.2031 63.0048 35.1092C63.7159 34.0153 64.0715 32.5252 64.0715 30.6389C64.0715 28.7546 63.7159 27.2645 63.0048 26.1686C62.2937 25.0727 61.6334 24.5257 61.0239 24.5278C60.4144 24.5278 59.754 25.0757 59.0429 26.1717C58.3318 27.2676 57.9763 28.7567 57.9763 30.6389C57.9763 32.5231 58.3318 34.0132 59.0429 35.1092C59.754 36.2051 60.4144 36.752 61.0239 36.75Z" fill="white"/>
</svg>
